<?xml version="1.0" encoding="utf-8" standalone="no"?>
<!DOCTYPE svg PUBLIC "-//W3C//DTD SVG 1.1//EN"
  "http://www.w3.org/Graphics/SVG/1.1/DTD/svg11.dtd">
<svg xmlns:xlink="http://www.w3.org/1999/xlink" width="1130.4pt" height="492.421875pt" viewBox="0 0 1130.4 492.421875" xmlns="http://www.w3.org/2000/svg" version="1.1">
 <metadata>
  <rdf:RDF xmlns:dc="http://purl.org/dc/elements/1.1/" xmlns:cc="http://creativecommons.org/ns#" xmlns:rdf="http://www.w3.org/1999/02/22-rdf-syntax-ns#">
   <cc:Work>
    <dc:type rdf:resource="http://purl.org/dc/dcmitype/StillImage"/>
    <dc:date>2026-05-05T14:21:53.882331</dc:date>
    <dc:format>image/svg+xml</dc:format>
    <dc:creator>
     <cc:Agent>
      <dc:title>Matplotlib v3.10.8, https://matplotlib.org/</dc:title>
     </cc:Agent>
    </dc:creator>
   </cc:Work>
  </rdf:RDF>
 </metadata>
 <defs>
  <style type="text/css">*{stroke-linejoin: round; stroke-linecap: butt}</style>
 </defs>
 <g id="figure_1">
  <g id="patch_1">
   <path d="M 0 492.421875 
L 1130.4 492.421875 
L 1130.4 0 
L 0 0 
z
" style="fill: #ffffff"/>
  </g>
  <g id="axes_1">
   <g id="patch_2">
    <path d="M 62.759375 371.201875 
L 559.8 371.201875 
L 559.8 40.621875 
L 62.759375 40.621875 
z
" style="fill: #ffffff"/>
   </g>
   <g id="matplotlib.axis_1">
    <g id="xtick_1">
     <g id="line2d_1">
      <path d="M 67.849825 371.201875 
L 67.849825 40.621875 
" clip-path="url(#pbcc56bf58b)" style="fill: none; stroke-dasharray: 1.85,0.8; stroke-dashoffset: 0; stroke: #cccccc; stroke-width: 0.5"/>
     </g>
     <g id="line2d_2">
      <defs>
       <path id="m1cbae7a7c7" d="M 0 0 
L 0 3.5 
" style="stroke: #000000; stroke-width: 0.8"/>
      </defs>
      <g>
       <use xlink:href="#m1cbae7a7c7" x="67.849825" y="371.201875" style="stroke: #000000; stroke-width: 0.8"/>
      </g>
     </g>
     <g id="text_1">
      <!-- 0.0 -->
      <g transform="translate(57.424825 388.962031) scale(0.15 -0.15)">
       <defs>
        <path id="Helvetica-30" d="M 1731 4475 
Q 2600 4475 2988 3759 
Q 3288 3206 3288 2244 
Q 3288 1331 3016 734 
Q 2622 -122 1728 -122 
Q 922 -122 528 578 
Q 200 1163 200 2147 
Q 200 2909 397 3456 
Q 766 4475 1731 4475 
z
M 1725 391 
Q 2163 391 2422 778 
Q 2681 1166 2681 2222 
Q 2681 2984 2493 3476 
Q 2306 3969 1766 3969 
Q 1269 3969 1039 3501 
Q 809 3034 809 2125 
Q 809 1441 956 1025 
Q 1181 391 1725 391 
z
" transform="scale(0.015625)"/>
        <path id="Helvetica-2e" d="M 547 681 
L 1200 681 
L 1200 0 
L 547 0 
L 547 681 
z
" transform="scale(0.015625)"/>
       </defs>
       <use xlink:href="#Helvetica-30"/>
       <use xlink:href="#Helvetica-2e" transform="translate(55.615234 0)"/>
       <use xlink:href="#Helvetica-30" transform="translate(83.398438 0)"/>
      </g>
     </g>
    </g>
    <g id="xtick_2">
     <g id="line2d_3">
      <path d="M 140.098275 371.201875 
L 140.098275 40.621875 
" clip-path="url(#pbcc56bf58b)" style="fill: none; stroke-dasharray: 1.85,0.8; stroke-dashoffset: 0; stroke: #cccccc; stroke-width: 0.5"/>
     </g>
     <g id="line2d_4">
      <g>
       <use xlink:href="#m1cbae7a7c7" x="140.098275" y="371.201875" style="stroke: #000000; stroke-width: 0.8"/>
      </g>
     </g>
     <g id="text_2">
      <!-- 0.5 -->
      <g transform="translate(129.673275 388.962031) scale(0.15 -0.15)">
       <defs>
        <path id="Helvetica-35" d="M 791 1141 
Q 847 659 1238 475 
Q 1438 381 1700 381 
Q 2200 381 2440 700 
Q 2681 1019 2681 1406 
Q 2681 1875 2395 2131 
Q 2109 2388 1709 2388 
Q 1419 2388 1211 2275 
Q 1003 2163 856 1963 
L 369 1991 
L 709 4400 
L 3034 4400 
L 3034 3856 
L 1131 3856 
L 941 2613 
Q 1097 2731 1238 2791 
Q 1488 2894 1816 2894 
Q 2431 2894 2859 2497 
Q 3288 2100 3288 1491 
Q 3288 856 2895 371 
Q 2503 -113 1644 -113 
Q 1097 -113 676 195 
Q 256 503 206 1141 
L 791 1141 
z
" transform="scale(0.015625)"/>
       </defs>
       <use xlink:href="#Helvetica-30"/>
       <use xlink:href="#Helvetica-2e" transform="translate(55.615234 0)"/>
       <use xlink:href="#Helvetica-35" transform="translate(83.398438 0)"/>
      </g>
     </g>
    </g>
    <g id="xtick_3">
     <g id="line2d_5">
      <path d="M 212.346724 371.201875 
L 212.346724 40.621875 
" clip-path="url(#pbcc56bf58b)" style="fill: none; stroke-dasharray: 1.85,0.8; stroke-dashoffset: 0; stroke: #cccccc; stroke-width: 0.5"/>
     </g>
     <g id="line2d_6">
      <g>
       <use xlink:href="#m1cbae7a7c7" x="212.346724" y="371.201875" style="stroke: #000000; stroke-width: 0.8"/>
      </g>
     </g>
     <g id="text_3">
      <!-- 1.0 -->
      <g transform="translate(201.921724 388.962031) scale(0.15 -0.15)">
       <defs>
        <path id="Helvetica-31" d="M 613 3169 
L 613 3600 
Q 1222 3659 1462 3798 
Q 1703 3938 1822 4456 
L 2266 4456 
L 2266 0 
L 1666 0 
L 1666 3169 
L 613 3169 
z
" transform="scale(0.015625)"/>
       </defs>
       <use xlink:href="#Helvetica-31"/>
       <use xlink:href="#Helvetica-2e" transform="translate(55.615234 0)"/>
       <use xlink:href="#Helvetica-30" transform="translate(83.398438 0)"/>
      </g>
     </g>
    </g>
    <g id="xtick_4">
     <g id="line2d_7">
      <path d="M 284.595174 371.201875 
L 284.595174 40.621875 
" clip-path="url(#pbcc56bf58b)" style="fill: none; stroke-dasharray: 1.85,0.8; stroke-dashoffset: 0; stroke: #cccccc; stroke-width: 0.5"/>
     </g>
     <g id="line2d_8">
      <g>
       <use xlink:href="#m1cbae7a7c7" x="284.595174" y="371.201875" style="stroke: #000000; stroke-width: 0.8"/>
      </g>
     </g>
     <g id="text_4">
      <!-- 1.5 -->
      <g transform="translate(274.170174 388.962031) scale(0.15 -0.15)">
       <use xlink:href="#Helvetica-31"/>
       <use xlink:href="#Helvetica-2e" transform="translate(55.615234 0)"/>
       <use xlink:href="#Helvetica-35" transform="translate(83.398438 0)"/>
      </g>
     </g>
    </g>
    <g id="xtick_5">
     <g id="line2d_9">
      <path d="M 356.843624 371.201875 
L 356.843624 40.621875 
" clip-path="url(#pbcc56bf58b)" style="fill: none; stroke-dasharray: 1.85,0.8; stroke-dashoffset: 0; stroke: #cccccc; stroke-width: 0.5"/>
     </g>
     <g id="line2d_10">
      <g>
       <use xlink:href="#m1cbae7a7c7" x="356.843624" y="371.201875" style="stroke: #000000; stroke-width: 0.8"/>
      </g>
     </g>
     <g id="text_5">
      <!-- 2.0 -->
      <g transform="translate(346.418624 388.962031) scale(0.15 -0.15)">
       <defs>
        <path id="Helvetica-32" d="M 200 0 
Q 231 578 439 1006 
Q 647 1434 1250 1784 
L 1850 2131 
Q 2253 2366 2416 2531 
Q 2672 2791 2672 3125 
Q 2672 3516 2437 3745 
Q 2203 3975 1813 3975 
Q 1234 3975 1013 3538 
Q 894 3303 881 2888 
L 309 2888 
Q 319 3472 525 3841 
Q 891 4491 1816 4491 
Q 2584 4491 2939 4075 
Q 3294 3659 3294 3150 
Q 3294 2613 2916 2231 
Q 2697 2009 2131 1694 
L 1703 1456 
Q 1397 1288 1222 1134 
Q 909 863 828 531 
L 3272 531 
L 3272 0 
L 200 0 
z
" transform="scale(0.015625)"/>
       </defs>
       <use xlink:href="#Helvetica-32"/>
       <use xlink:href="#Helvetica-2e" transform="translate(55.615234 0)"/>
       <use xlink:href="#Helvetica-30" transform="translate(83.398438 0)"/>
      </g>
     </g>
    </g>
    <g id="xtick_6">
     <g id="line2d_11">
      <path d="M 429.092074 371.201875 
L 429.092074 40.621875 
" clip-path="url(#pbcc56bf58b)" style="fill: none; stroke-dasharray: 1.85,0.8; stroke-dashoffset: 0; stroke: #cccccc; stroke-width: 0.5"/>
     </g>
     <g id="line2d_12">
      <g>
       <use xlink:href="#m1cbae7a7c7" x="429.092074" y="371.201875" style="stroke: #000000; stroke-width: 0.8"/>
      </g>
     </g>
     <g id="text_6">
      <!-- 2.5 -->
      <g transform="translate(418.667074 388.962031) scale(0.15 -0.15)">
       <use xlink:href="#Helvetica-32"/>
       <use xlink:href="#Helvetica-2e" transform="translate(55.615234 0)"/>
       <use xlink:href="#Helvetica-35" transform="translate(83.398438 0)"/>
      </g>
     </g>
    </g>
    <g id="xtick_7">
     <g id="line2d_13">
      <path d="M 501.340523 371.201875 
L 501.340523 40.621875 
" clip-path="url(#pbcc56bf58b)" style="fill: none; stroke-dasharray: 1.85,0.8; stroke-dashoffset: 0; stroke: #cccccc; stroke-width: 0.5"/>
     </g>
     <g id="line2d_14">
      <g>
       <use xlink:href="#m1cbae7a7c7" x="501.340523" y="371.201875" style="stroke: #000000; stroke-width: 0.8"/>
      </g>
     </g>
     <g id="text_7">
      <!-- 3.0 -->
      <g transform="translate(490.915523 388.962031) scale(0.15 -0.15)">
       <defs>
        <path id="Helvetica-33" d="M 1663 -122 
Q 869 -122 511 314 
Q 153 750 153 1375 
L 741 1375 
Q 778 941 903 744 
Q 1122 391 1694 391 
Q 2138 391 2406 628 
Q 2675 866 2675 1241 
Q 2675 1703 2392 1887 
Q 2109 2072 1606 2072 
Q 1550 2072 1492 2070 
Q 1434 2069 1375 2066 
L 1375 2563 
Q 1463 2553 1522 2550 
Q 1581 2547 1650 2547 
Q 1966 2547 2169 2647 
Q 2525 2822 2525 3272 
Q 2525 3606 2287 3787 
Q 2050 3969 1734 3969 
Q 1172 3969 956 3594 
Q 838 3388 822 3006 
L 266 3006 
Q 266 3506 466 3856 
Q 809 4481 1675 4481 
Q 2359 4481 2734 4176 
Q 3109 3872 3109 3294 
Q 3109 2881 2888 2625 
Q 2750 2466 2531 2375 
Q 2884 2278 3082 2001 
Q 3281 1725 3281 1325 
Q 3281 684 2859 281 
Q 2438 -122 1663 -122 
z
" transform="scale(0.015625)"/>
       </defs>
       <use xlink:href="#Helvetica-33"/>
       <use xlink:href="#Helvetica-2e" transform="translate(55.615234 0)"/>
       <use xlink:href="#Helvetica-30" transform="translate(83.398438 0)"/>
      </g>
     </g>
    </g>
    <g id="text_8">
     <!-- Mean Cost per Checkpoint ($) -->
     <g transform="translate(191.23375 410.047031) scale(0.18 -0.18)">
      <defs>
       <path id="Helvetica-4d" d="M 472 4591 
L 1363 4591 
L 2681 709 
L 3991 4591 
L 4872 4591 
L 4872 0 
L 4281 0 
L 4281 2709 
Q 4281 2850 4287 3175 
Q 4294 3500 4294 3872 
L 2984 0 
L 2369 0 
L 1050 3872 
L 1050 3731 
Q 1050 3563 1058 3217 
Q 1066 2872 1066 2709 
L 1066 0 
L 472 0 
L 472 4591 
z
" transform="scale(0.015625)"/>
       <path id="Helvetica-65" d="M 1806 3422 
Q 2163 3422 2497 3255 
Q 2831 3088 3006 2822 
Q 3175 2569 3231 2231 
Q 3281 2000 3281 1494 
L 828 1494 
Q 844 984 1069 676 
Q 1294 369 1766 369 
Q 2206 369 2469 659 
Q 2619 828 2681 1050 
L 3234 1050 
Q 3213 866 3089 639 
Q 2966 413 2813 269 
Q 2556 19 2178 -69 
Q 1975 -119 1719 -119 
Q 1094 -119 659 336 
Q 225 791 225 1609 
Q 225 2416 662 2919 
Q 1100 3422 1806 3422 
z
M 2703 1941 
Q 2669 2306 2544 2525 
Q 2313 2931 1772 2931 
Q 1384 2931 1121 2651 
Q 859 2372 844 1941 
L 2703 1941 
z
M 1753 3428 
L 1753 3428 
z
" transform="scale(0.015625)"/>
       <path id="Helvetica-61" d="M 844 891 
Q 844 647 1022 506 
Q 1200 366 1444 366 
Q 1741 366 2019 503 
Q 2488 731 2488 1250 
L 2488 1703 
Q 2384 1638 2221 1594 
Q 2059 1550 1903 1531 
L 1563 1488 
Q 1256 1447 1103 1359 
Q 844 1213 844 891 
z
M 2206 2028 
Q 2400 2053 2466 2191 
Q 2503 2266 2503 2406 
Q 2503 2694 2298 2823 
Q 2094 2953 1713 2953 
Q 1272 2953 1088 2716 
Q 984 2584 953 2325 
L 428 2325 
Q 444 2944 830 3186 
Q 1216 3428 1725 3428 
Q 2316 3428 2684 3203 
Q 3050 2978 3050 2503 
L 3050 575 
Q 3050 488 3086 434 
Q 3122 381 3238 381 
Q 3275 381 3322 386 
Q 3369 391 3422 400 
L 3422 -16 
Q 3291 -53 3222 -62 
Q 3153 -72 3034 -72 
Q 2744 -72 2613 134 
Q 2544 244 2516 444 
Q 2344 219 2022 53 
Q 1700 -113 1313 -113 
Q 847 -113 551 170 
Q 256 453 256 878 
Q 256 1344 547 1600 
Q 838 1856 1309 1916 
L 2206 2028 
z
M 1741 3428 
L 1741 3428 
z
" transform="scale(0.015625)"/>
       <path id="Helvetica-6e" d="M 413 3347 
L 947 3347 
L 947 2872 
Q 1184 3166 1450 3294 
Q 1716 3422 2041 3422 
Q 2753 3422 3003 2925 
Q 3141 2653 3141 2147 
L 3141 0 
L 2569 0 
L 2569 2109 
Q 2569 2416 2478 2603 
Q 2328 2916 1934 2916 
Q 1734 2916 1606 2875 
Q 1375 2806 1200 2600 
Q 1059 2434 1017 2257 
Q 975 2081 975 1753 
L 975 0 
L 413 0 
L 413 3347 
z
M 1734 3428 
L 1734 3428 
z
" transform="scale(0.015625)"/>
       <path id="Helvetica-20" transform="scale(0.015625)"/>
       <path id="Helvetica-43" d="M 2422 4716 
Q 3294 4716 3775 4256 
Q 4256 3797 4309 3213 
L 3703 3213 
Q 3600 3656 3292 3915 
Q 2984 4175 2428 4175 
Q 1750 4175 1333 3698 
Q 916 3222 916 2238 
Q 916 1431 1292 929 
Q 1669 428 2416 428 
Q 3103 428 3463 956 
Q 3653 1234 3747 1688 
L 4353 1688 
Q 4272 963 3816 472 
Q 3269 -119 2341 -119 
Q 1541 -119 997 366 
Q 281 1006 281 2344 
Q 281 3359 819 4009 
Q 1400 4716 2422 4716 
z
M 2297 4716 
L 2297 4716 
z
" transform="scale(0.015625)"/>
       <path id="Helvetica-6f" d="M 1741 363 
Q 2300 363 2508 786 
Q 2716 1209 2716 1728 
Q 2716 2197 2566 2491 
Q 2328 2953 1747 2953 
Q 1231 2953 997 2559 
Q 763 2166 763 1609 
Q 763 1075 997 719 
Q 1231 363 1741 363 
z
M 1763 3444 
Q 2409 3444 2856 3012 
Q 3303 2581 3303 1744 
Q 3303 934 2909 406 
Q 2516 -122 1688 -122 
Q 997 -122 590 345 
Q 184 813 184 1600 
Q 184 2444 612 2944 
Q 1041 3444 1763 3444 
z
M 1744 3428 
L 1744 3428 
z
" transform="scale(0.015625)"/>
       <path id="Helvetica-73" d="M 747 1050 
Q 772 769 888 619 
Q 1100 347 1625 347 
Q 1938 347 2175 483 
Q 2413 619 2413 903 
Q 2413 1119 2222 1231 
Q 2100 1300 1741 1391 
L 1294 1503 
Q 866 1609 663 1741 
Q 300 1969 300 2372 
Q 300 2847 642 3140 
Q 984 3434 1563 3434 
Q 2319 3434 2653 2991 
Q 2863 2709 2856 2384 
L 2325 2384 
Q 2309 2575 2191 2731 
Q 1997 2953 1519 2953 
Q 1200 2953 1036 2831 
Q 872 2709 872 2509 
Q 872 2291 1088 2159 
Q 1213 2081 1456 2022 
L 1828 1931 
Q 2434 1784 2641 1647 
Q 2969 1431 2969 969 
Q 2969 522 2630 197 
Q 2291 -128 1597 -128 
Q 850 -128 539 211 
Q 228 550 206 1050 
L 747 1050 
z
M 1578 3428 
L 1578 3428 
z
" transform="scale(0.015625)"/>
       <path id="Helvetica-74" d="M 525 4281 
L 1094 4281 
L 1094 3347 
L 1628 3347 
L 1628 2888 
L 1094 2888 
L 1094 703 
Q 1094 528 1213 469 
Q 1278 434 1431 434 
Q 1472 434 1519 436 
Q 1566 438 1628 444 
L 1628 0 
Q 1531 -28 1426 -40 
Q 1322 -53 1200 -53 
Q 806 -53 665 148 
Q 525 350 525 672 
L 525 2888 
L 72 2888 
L 72 3347 
L 525 3347 
L 525 4281 
z
" transform="scale(0.015625)"/>
       <path id="Helvetica-70" d="M 1825 378 
Q 2219 378 2480 708 
Q 2741 1038 2741 1694 
Q 2741 2094 2625 2381 
Q 2406 2934 1825 2934 
Q 1241 2934 1025 2350 
Q 909 2038 909 1556 
Q 909 1169 1025 897 
Q 1244 378 1825 378 
z
M 369 3331 
L 916 3331 
L 916 2888 
Q 1084 3116 1284 3241 
Q 1569 3428 1953 3428 
Q 2522 3428 2919 2992 
Q 3316 2556 3316 1747 
Q 3316 653 2744 184 
Q 2381 -113 1900 -113 
Q 1522 -113 1266 53 
Q 1116 147 931 375 
L 931 -1334 
L 369 -1334 
L 369 3331 
z
" transform="scale(0.015625)"/>
       <path id="Helvetica-72" d="M 428 3347 
L 963 3347 
L 963 2769 
Q 1028 2938 1284 3180 
Q 1541 3422 1875 3422 
Q 1891 3422 1928 3419 
Q 1966 3416 2056 3406 
L 2056 2813 
Q 2006 2822 1964 2825 
Q 1922 2828 1872 2828 
Q 1447 2828 1219 2554 
Q 991 2281 991 1925 
L 991 0 
L 428 0 
L 428 3347 
z
" transform="scale(0.015625)"/>
       <path id="Helvetica-68" d="M 413 4606 
L 975 4606 
L 975 2894 
Q 1175 3147 1334 3250 
Q 1606 3428 2013 3428 
Q 2741 3428 3000 2919 
Q 3141 2641 3141 2147 
L 3141 0 
L 2563 0 
L 2563 2109 
Q 2563 2478 2469 2650 
Q 2316 2925 1894 2925 
Q 1544 2925 1259 2684 
Q 975 2444 975 1775 
L 975 0 
L 413 0 
L 413 4606 
z
" transform="scale(0.015625)"/>
       <path id="Helvetica-63" d="M 1703 3444 
Q 2269 3444 2623 3169 
Q 2978 2894 3050 2222 
L 2503 2222 
Q 2453 2531 2275 2736 
Q 2097 2941 1703 2941 
Q 1166 2941 934 2416 
Q 784 2075 784 1575 
Q 784 1072 996 728 
Q 1209 384 1666 384 
Q 2016 384 2220 598 
Q 2425 813 2503 1184 
L 3050 1184 
Q 2956 519 2581 211 
Q 2206 -97 1622 -97 
Q 966 -97 575 383 
Q 184 863 184 1581 
Q 184 2463 612 2953 
Q 1041 3444 1703 3444 
z
M 1616 3428 
L 1616 3428 
z
" transform="scale(0.015625)"/>
       <path id="Helvetica-6b" d="M 400 4591 
L 941 4591 
L 941 1925 
L 2384 3347 
L 3103 3347 
L 1822 2094 
L 3175 0 
L 2456 0 
L 1413 1688 
L 941 1256 
L 941 0 
L 400 0 
L 400 4591 
z
" transform="scale(0.015625)"/>
       <path id="Helvetica-69" d="M 413 3331 
L 984 3331 
L 984 0 
L 413 0 
L 413 3331 
z
M 413 4591 
L 984 4591 
L 984 3953 
L 413 3953 
L 413 4591 
z
" transform="scale(0.015625)"/>
       <path id="Helvetica-28" d="M 1894 4666 
Q 1403 3713 1256 3263 
Q 1034 2578 1034 1681 
Q 1034 775 1288 25 
Q 1444 -438 1903 -1306 
L 1525 -1306 
Q 1069 -594 959 -397 
Q 850 -200 722 138 
Q 547 600 478 1125 
Q 444 1397 444 1644 
Q 444 2569 734 3291 
Q 919 3750 1503 4666 
L 1894 4666 
z
" transform="scale(0.015625)"/>
       <path id="Helvetica-24" d="M 1909 325 
Q 2444 350 2647 716 
Q 2753 903 2753 1150 
Q 2753 1541 2466 1744 
Q 2300 1863 1909 1969 
L 1909 325 
z
M 850 3341 
Q 850 3031 1054 2856 
Q 1259 2681 1606 2613 
L 1606 4081 
Q 1197 4066 1023 3831 
Q 850 3597 850 3341 
z
M 288 3303 
Q 288 3778 636 4159 
Q 984 4541 1613 4547 
L 1613 4963 
L 1909 4963 
L 1909 4553 
Q 2531 4509 2864 4186 
Q 3197 3863 3213 3331 
L 2666 3331 
Q 2644 3569 2538 3741 
Q 2341 4056 1909 4072 
L 1909 2553 
Q 2634 2350 2894 2172 
Q 3316 1878 3316 1303 
Q 3316 472 2775 122 
Q 2475 -72 1909 -134 
L 1909 -741 
L 1613 -741 
L 1613 -134 
Q 703 -75 378 509 
Q 200 825 200 1363 
L 753 1363 
Q 778 934 888 738 
Q 1081 384 1606 341 
L 1606 2044 
Q 931 2172 609 2472 
Q 288 2772 288 3303 
z
" transform="scale(0.015625)"/>
       <path id="Helvetica-29" d="M 222 -1306 
Q 719 -338 863 106 
Q 1081 778 1081 1681 
Q 1081 2584 828 3334 
Q 672 3797 213 4666 
L 591 4666 
Q 1072 3897 1173 3717 
Q 1275 3538 1394 3222 
Q 1544 2831 1608 2450 
Q 1672 2069 1672 1716 
Q 1672 791 1378 66 
Q 1194 -400 613 -1306 
L 222 -1306 
z
" transform="scale(0.015625)"/>
      </defs>
      <use xlink:href="#Helvetica-4d"/>
      <use xlink:href="#Helvetica-65" transform="translate(83.300781 0)"/>
      <use xlink:href="#Helvetica-61" transform="translate(138.916016 0)"/>
      <use xlink:href="#Helvetica-6e" transform="translate(194.53125 0)"/>
      <use xlink:href="#Helvetica-20" transform="translate(250.146484 0)"/>
      <use xlink:href="#Helvetica-43" transform="translate(277.929688 0)"/>
      <use xlink:href="#Helvetica-6f" transform="translate(350.146484 0)"/>
      <use xlink:href="#Helvetica-73" transform="translate(405.761719 0)"/>
      <use xlink:href="#Helvetica-74" transform="translate(455.761719 0)"/>
      <use xlink:href="#Helvetica-20" transform="translate(483.544922 0)"/>
      <use xlink:href="#Helvetica-70" transform="translate(511.328125 0)"/>
      <use xlink:href="#Helvetica-65" transform="translate(566.943359 0)"/>
      <use xlink:href="#Helvetica-72" transform="translate(622.558594 0)"/>
      <use xlink:href="#Helvetica-20" transform="translate(655.859375 0)"/>
      <use xlink:href="#Helvetica-43" transform="translate(683.642578 0)"/>
      <use xlink:href="#Helvetica-68" transform="translate(755.859375 0)"/>
      <use xlink:href="#Helvetica-65" transform="translate(811.474609 0)"/>
      <use xlink:href="#Helvetica-63" transform="translate(867.089844 0)"/>
      <use xlink:href="#Helvetica-6b" transform="translate(917.089844 0)"/>
      <use xlink:href="#Helvetica-70" transform="translate(967.089844 0)"/>
      <use xlink:href="#Helvetica-6f" transform="translate(1022.705078 0)"/>
      <use xlink:href="#Helvetica-69" transform="translate(1078.320312 0)"/>
      <use xlink:href="#Helvetica-6e" transform="translate(1100.537109 0)"/>
      <use xlink:href="#Helvetica-74" transform="translate(1156.152344 0)"/>
      <use xlink:href="#Helvetica-20" transform="translate(1183.935547 0)"/>
      <use xlink:href="#Helvetica-28" transform="translate(1211.71875 0)"/>
      <use xlink:href="#Helvetica-24" transform="translate(1245.019531 0)"/>
      <use xlink:href="#Helvetica-29" transform="translate(1300.634766 0)"/>
     </g>
    </g>
   </g>
   <g id="matplotlib.axis_2">
    <g id="ytick_1">
     <g id="line2d_15">
      <path d="M 62.759375 318.181779 
L 559.8 318.181779 
" clip-path="url(#pbcc56bf58b)" style="fill: none; stroke-dasharray: 1.85,0.8; stroke-dashoffset: 0; stroke: #cccccc; stroke-width: 0.5"/>
     </g>
     <g id="line2d_16">
      <defs>
       <path id="me87ef08599" d="M 0 0 
L -3.5 0 
" style="stroke: #000000; stroke-width: 0.8"/>
      </defs>
      <g>
       <use xlink:href="#me87ef08599" x="62.759375" y="318.181779" style="stroke: #000000; stroke-width: 0.8"/>
      </g>
     </g>
     <g id="text_9">
      <!-- 30 -->
      <g transform="translate(39.076563 323.561857) scale(0.15 -0.15)">
       <use xlink:href="#Helvetica-33"/>
       <use xlink:href="#Helvetica-30" transform="translate(55.615234 0)"/>
      </g>
     </g>
    </g>
    <g id="ytick_2">
     <g id="line2d_17">
      <path d="M 62.759375 259.337278 
L 559.8 259.337278 
" clip-path="url(#pbcc56bf58b)" style="fill: none; stroke-dasharray: 1.85,0.8; stroke-dashoffset: 0; stroke: #cccccc; stroke-width: 0.5"/>
     </g>
     <g id="line2d_18">
      <g>
       <use xlink:href="#me87ef08599" x="62.759375" y="259.337278" style="stroke: #000000; stroke-width: 0.8"/>
      </g>
     </g>
     <g id="text_10">
      <!-- 40 -->
      <g transform="translate(39.076563 264.717356) scale(0.15 -0.15)">
       <defs>
        <path id="Helvetica-34" d="M 2116 1584 
L 2116 3613 
L 681 1584 
L 2116 1584 
z
M 2125 0 
L 2125 1094 
L 163 1094 
L 163 1644 
L 2213 4488 
L 2688 4488 
L 2688 1584 
L 3347 1584 
L 3347 1094 
L 2688 1094 
L 2688 0 
L 2125 0 
z
" transform="scale(0.015625)"/>
       </defs>
       <use xlink:href="#Helvetica-34"/>
       <use xlink:href="#Helvetica-30" transform="translate(55.615234 0)"/>
      </g>
     </g>
    </g>
    <g id="ytick_3">
     <g id="line2d_19">
      <path d="M 62.759375 200.492777 
L 559.8 200.492777 
" clip-path="url(#pbcc56bf58b)" style="fill: none; stroke-dasharray: 1.85,0.8; stroke-dashoffset: 0; stroke: #cccccc; stroke-width: 0.5"/>
     </g>
     <g id="line2d_20">
      <g>
       <use xlink:href="#me87ef08599" x="62.759375" y="200.492777" style="stroke: #000000; stroke-width: 0.8"/>
      </g>
     </g>
     <g id="text_11">
      <!-- 50 -->
      <g transform="translate(39.076563 205.872855) scale(0.15 -0.15)">
       <use xlink:href="#Helvetica-35"/>
       <use xlink:href="#Helvetica-30" transform="translate(55.615234 0)"/>
      </g>
     </g>
    </g>
    <g id="ytick_4">
     <g id="line2d_21">
      <path d="M 62.759375 141.648276 
L 559.8 141.648276 
" clip-path="url(#pbcc56bf58b)" style="fill: none; stroke-dasharray: 1.85,0.8; stroke-dashoffset: 0; stroke: #cccccc; stroke-width: 0.5"/>
     </g>
     <g id="line2d_22">
      <g>
       <use xlink:href="#me87ef08599" x="62.759375" y="141.648276" style="stroke: #000000; stroke-width: 0.8"/>
      </g>
     </g>
     <g id="text_12">
      <!-- 60 -->
      <g transform="translate(39.076563 147.028354) scale(0.15 -0.15)">
       <defs>
        <path id="Helvetica-36" d="M 1872 4494 
Q 2622 4494 2917 4105 
Q 3213 3716 3213 3303 
L 2656 3303 
Q 2606 3569 2497 3719 
Q 2294 4000 1881 4000 
Q 1409 4000 1131 3564 
Q 853 3128 822 2316 
Q 1016 2600 1309 2741 
Q 1578 2866 1909 2866 
Q 2472 2866 2890 2506 
Q 3309 2147 3309 1434 
Q 3309 825 2912 354 
Q 2516 -116 1781 -116 
Q 1153 -116 697 361 
Q 241 838 241 1966 
Q 241 2800 444 3381 
Q 834 4494 1872 4494 
z
M 1831 384 
Q 2275 384 2495 682 
Q 2716 981 2716 1388 
Q 2716 1731 2519 2042 
Q 2322 2353 1803 2353 
Q 1441 2353 1167 2112 
Q 894 1872 894 1388 
Q 894 963 1142 673 
Q 1391 384 1831 384 
z
" transform="scale(0.015625)"/>
       </defs>
       <use xlink:href="#Helvetica-36"/>
       <use xlink:href="#Helvetica-30" transform="translate(55.615234 0)"/>
      </g>
     </g>
    </g>
    <g id="ytick_5">
     <g id="line2d_23">
      <path d="M 62.759375 82.803775 
L 559.8 82.803775 
" clip-path="url(#pbcc56bf58b)" style="fill: none; stroke-dasharray: 1.85,0.8; stroke-dashoffset: 0; stroke: #cccccc; stroke-width: 0.5"/>
     </g>
     <g id="line2d_24">
      <g>
       <use xlink:href="#me87ef08599" x="62.759375" y="82.803775" style="stroke: #000000; stroke-width: 0.8"/>
      </g>
     </g>
     <g id="text_13">
      <!-- 70 -->
      <g transform="translate(39.076563 88.183853) scale(0.15 -0.15)">
       <defs>
        <path id="Helvetica-37" d="M 3347 4400 
L 3347 3909 
Q 3131 3700 2773 3181 
Q 2416 2663 2141 2063 
Q 1869 1478 1728 997 
Q 1638 688 1494 0 
L 872 0 
Q 1084 1281 1809 2550 
Q 2238 3294 2709 3834 
L 234 3834 
L 234 4400 
L 3347 4400 
z
" transform="scale(0.015625)"/>
       </defs>
       <use xlink:href="#Helvetica-37"/>
       <use xlink:href="#Helvetica-30" transform="translate(55.615234 0)"/>
      </g>
     </g>
    </g>
    <g id="text_14">
     <!-- % Checkpoints Solved -->
     <g transform="translate(31.324688 295.956875) rotate(-90) scale(0.18 -0.18)">
      <defs>
       <path id="Helvetica-25" d="M 4363 2175 
Q 4813 2175 5131 1856 
Q 5450 1538 5450 1088 
Q 5450 638 5131 319 
Q 4813 0 4363 0 
Q 3909 0 3590 319 
Q 3272 638 3272 1088 
Q 3272 1538 3590 1856 
Q 3909 2175 4363 2175 
z
M 3909 4456 
L 4256 4456 
L 1753 -119 
L 1406 -119 
L 3909 4456 
z
M 1294 2606 
Q 1563 2606 1752 2795 
Q 1941 2984 1941 3250 
Q 1941 3516 1752 3705 
Q 1563 3894 1294 3894 
Q 1028 3894 839 3706 
Q 650 3519 650 3250 
Q 650 2984 839 2795 
Q 1028 2606 1294 2606 
z
M 1294 4341 
Q 1747 4341 2065 4020 
Q 2384 3700 2384 3250 
Q 2384 2800 2065 2481 
Q 1747 2163 1294 2163 
Q 844 2163 525 2481 
Q 206 2800 206 3250 
Q 206 3700 525 4020 
Q 844 4341 1294 4341 
z
M 4363 444 
Q 4628 444 4817 633 
Q 5006 822 5006 1088 
Q 5006 1353 4817 1542 
Q 4628 1731 4363 1731 
Q 4094 1731 3905 1542 
Q 3716 1353 3716 1088 
Q 3716 822 3905 633 
Q 4094 444 4363 444 
z
" transform="scale(0.015625)"/>
       <path id="Helvetica-53" d="M 894 1481 
Q 916 1091 1078 847 
Q 1388 391 2169 391 
Q 2519 391 2806 491 
Q 3363 684 3363 1184 
Q 3363 1559 3128 1719 
Q 2891 1875 2384 1991 
L 1763 2131 
Q 1153 2269 900 2434 
Q 463 2722 463 3294 
Q 463 3913 891 4309 
Q 1319 4706 2103 4706 
Q 2825 4706 3329 4357 
Q 3834 4009 3834 3244 
L 3250 3244 
Q 3203 3613 3050 3809 
Q 2766 4169 2084 4169 
Q 1534 4169 1293 3937 
Q 1053 3706 1053 3400 
Q 1053 3063 1334 2906 
Q 1519 2806 2169 2656 
L 2813 2509 
Q 3278 2403 3531 2219 
Q 3969 1897 3969 1284 
Q 3969 522 3414 194 
Q 2859 -134 2125 -134 
Q 1269 -134 784 303 
Q 300 738 309 1481 
L 894 1481 
z
M 2150 4716 
L 2150 4716 
z
" transform="scale(0.015625)"/>
       <path id="Helvetica-6c" d="M 428 4591 
L 991 4591 
L 991 0 
L 428 0 
L 428 4591 
z
" transform="scale(0.015625)"/>
       <path id="Helvetica-76" d="M 688 3347 
L 1581 622 
L 2516 3347 
L 3131 3347 
L 1869 0 
L 1269 0 
L 34 3347 
L 688 3347 
z
" transform="scale(0.015625)"/>
       <path id="Helvetica-64" d="M 769 1634 
Q 769 1097 997 734 
Q 1225 372 1728 372 
Q 2119 372 2370 708 
Q 2622 1044 2622 1672 
Q 2622 2306 2362 2611 
Q 2103 2916 1722 2916 
Q 1297 2916 1033 2591 
Q 769 2266 769 1634 
z
M 1616 3406 
Q 2000 3406 2259 3244 
Q 2409 3150 2600 2916 
L 2600 4606 
L 3141 4606 
L 3141 0 
L 2634 0 
L 2634 466 
Q 2438 156 2169 18 
Q 1900 -119 1553 -119 
Q 994 -119 584 351 
Q 175 822 175 1603 
Q 175 2334 548 2870 
Q 922 3406 1616 3406 
z
" transform="scale(0.015625)"/>
      </defs>
      <use xlink:href="#Helvetica-25"/>
      <use xlink:href="#Helvetica-20" transform="translate(88.916016 0)"/>
      <use xlink:href="#Helvetica-43" transform="translate(116.699219 0)"/>
      <use xlink:href="#Helvetica-68" transform="translate(188.916016 0)"/>
      <use xlink:href="#Helvetica-65" transform="translate(244.53125 0)"/>
      <use xlink:href="#Helvetica-63" transform="translate(300.146484 0)"/>
      <use xlink:href="#Helvetica-6b" transform="translate(350.146484 0)"/>
      <use xlink:href="#Helvetica-70" transform="translate(400.146484 0)"/>
      <use xlink:href="#Helvetica-6f" transform="translate(455.761719 0)"/>
      <use xlink:href="#Helvetica-69" transform="translate(511.376953 0)"/>
      <use xlink:href="#Helvetica-6e" transform="translate(533.59375 0)"/>
      <use xlink:href="#Helvetica-74" transform="translate(589.208984 0)"/>
      <use xlink:href="#Helvetica-73" transform="translate(616.992188 0)"/>
      <use xlink:href="#Helvetica-20" transform="translate(666.992188 0)"/>
      <use xlink:href="#Helvetica-53" transform="translate(694.775391 0)"/>
      <use xlink:href="#Helvetica-6f" transform="translate(761.474609 0)"/>
      <use xlink:href="#Helvetica-6c" transform="translate(817.089844 0)"/>
      <use xlink:href="#Helvetica-76" transform="translate(839.306641 0)"/>
      <use xlink:href="#Helvetica-65" transform="translate(889.306641 0)"/>
      <use xlink:href="#Helvetica-64" transform="translate(944.921875 0)"/>
     </g>
    </g>
   </g>
   <g id="line2d_25">
    <path d="M 97.038039 323.585866 
L 116.17327 323.585866 
L 116.17327 260.538186 
L 131.482822 260.538186 
L 131.482822 185.481425 
L 133.486923 185.481425 
L 133.486923 182.479154 
L 163.4297 182.479154 
L 163.4297 137.445097 
L 172.036023 137.445097 
L 172.036023 125.436015 
L 285.769153 125.436015 
L 285.769153 101.417852 
L 525.521336 101.417852 
L 525.521336 98.415581 
" clip-path="url(#pbcc56bf58b)" style="fill: none; stroke-dasharray: 9.6,4.8; stroke-dashoffset: 0; stroke: #7f7f7f; stroke-opacity: 0.8; stroke-width: 1.6"/>
   </g>
   <g id="patch_3">
    <path d="M 62.759375 371.201875 
L 62.759375 40.621875 
" style="fill: none; stroke: #000000; stroke-width: 0.8; stroke-linejoin: miter; stroke-linecap: square"/>
   </g>
   <g id="patch_4">
    <path d="M 62.759375 371.201875 
L 559.8 371.201875 
" style="fill: none; stroke: #000000; stroke-width: 0.8; stroke-linejoin: miter; stroke-linecap: square"/>
   </g>
   <g id="text_15">
    <!-- Minimal Happy Path -->
    <g transform="translate(199.432031 25.621875) scale(0.25 -0.25)">
     <defs>
      <path id="Helvetica-6d" d="M 413 3347 
L 969 3347 
L 969 2872 
Q 1169 3119 1331 3231 
Q 1609 3422 1963 3422 
Q 2363 3422 2606 3225 
Q 2744 3113 2856 2894 
Q 3044 3163 3297 3292 
Q 3550 3422 3866 3422 
Q 4541 3422 4784 2934 
Q 4916 2672 4916 2228 
L 4916 0 
L 4331 0 
L 4331 2325 
Q 4331 2659 4164 2784 
Q 3997 2909 3756 2909 
Q 3425 2909 3186 2687 
Q 2947 2466 2947 1947 
L 2947 0 
L 2375 0 
L 2375 2184 
Q 2375 2525 2294 2681 
Q 2166 2916 1816 2916 
Q 1497 2916 1236 2669 
Q 975 2422 975 1775 
L 975 0 
L 413 0 
L 413 3347 
z
" transform="scale(0.015625)"/>
      <path id="Helvetica-48" d="M 503 4591 
L 1131 4591 
L 1131 2694 
L 3519 2694 
L 3519 4591 
L 4147 4591 
L 4147 0 
L 3519 0 
L 3519 2147 
L 1131 2147 
L 1131 0 
L 503 0 
L 503 4591 
z
" transform="scale(0.015625)"/>
      <path id="Helvetica-79" d="M 2503 3347 
L 3125 3347 
Q 3006 3025 2597 1878 
Q 2291 1016 2084 472 
Q 1597 -809 1397 -1090 
Q 1197 -1372 709 -1372 
Q 591 -1372 527 -1362 
Q 463 -1353 369 -1328 
L 369 -816 
Q 516 -856 581 -865 
Q 647 -875 697 -875 
Q 853 -875 926 -823 
Q 1000 -772 1050 -697 
Q 1066 -672 1162 -440 
Q 1259 -209 1303 -97 
L 66 3347 
L 703 3347 
L 1600 622 
L 2503 3347 
z
M 1597 3428 
L 1597 3428 
z
" transform="scale(0.015625)"/>
      <path id="Helvetica-50" d="M 547 4591 
L 2613 4591 
Q 3225 4591 3600 4245 
Q 3975 3900 3975 3275 
Q 3975 2738 3640 2339 
Q 3306 1941 2613 1941 
L 1169 1941 
L 1169 0 
L 547 0 
L 547 4591 
z
M 3347 3272 
Q 3347 3778 2972 3959 
Q 2766 4056 2406 4056 
L 1169 4056 
L 1169 2466 
L 2406 2466 
Q 2825 2466 3086 2644 
Q 3347 2822 3347 3272 
z
" transform="scale(0.015625)"/>
     </defs>
     <use xlink:href="#Helvetica-4d"/>
     <use xlink:href="#Helvetica-69" transform="translate(83.300781 0)"/>
     <use xlink:href="#Helvetica-6e" transform="translate(105.517578 0)"/>
     <use xlink:href="#Helvetica-69" transform="translate(161.132812 0)"/>
     <use xlink:href="#Helvetica-6d" transform="translate(183.349609 0)"/>
     <use xlink:href="#Helvetica-61" transform="translate(266.650391 0)"/>
     <use xlink:href="#Helvetica-6c" transform="translate(322.265625 0)"/>
     <use xlink:href="#Helvetica-20" transform="translate(344.482422 0)"/>
     <use xlink:href="#Helvetica-48" transform="translate(372.265625 0)"/>
     <use xlink:href="#Helvetica-61" transform="translate(444.482422 0)"/>
     <use xlink:href="#Helvetica-70" transform="translate(500.097656 0)"/>
     <use xlink:href="#Helvetica-70" transform="translate(555.712891 0)"/>
     <use xlink:href="#Helvetica-79" transform="translate(611.328125 0)"/>
     <use xlink:href="#Helvetica-20" transform="translate(661.328125 0)"/>
     <use xlink:href="#Helvetica-50" transform="translate(689.111328 0)"/>
     <use xlink:href="#Helvetica-61" transform="translate(755.810547 0)"/>
     <use xlink:href="#Helvetica-74" transform="translate(811.425781 0)"/>
     <use xlink:href="#Helvetica-68" transform="translate(839.208984 0)"/>
    </g>
   </g>
   <g id="PathCollection_1">
    <defs>
     <path id="C0_0_f68fe8584a" d="M 0 5.196152 
C 1.378036 5.196152 2.699816 4.648653 3.674235 3.674235 
C 4.648653 2.699816 5.196152 1.378036 5.196152 -0 
C 5.196152 -1.378036 4.648653 -2.699816 3.674235 -3.674235 
C 2.699816 -4.648653 1.378036 -5.196152 0 -5.196152 
C -1.378036 -5.196152 -2.699816 -4.648653 -3.674235 -3.674235 
C -4.648653 -2.699816 -5.196152 -1.378036 -5.196152 0 
C -5.196152 1.378036 -4.648653 2.699816 -3.674235 3.674235 
C -2.699816 4.648653 -1.378036 5.196152 0 5.196152 
z
"/>
    </defs>
    <g clip-path="url(#pbcc56bf58b)">
     <use xlink:href="#C0_0_f68fe8584a" x="285.769153" y="101.417852" style="fill: #10a37f; stroke: #ffffff; stroke-width: 0.8"/>
    </g>
    <g clip-path="url(#pbcc56bf58b)">
     <use xlink:href="#C0_0_f68fe8584a" x="163.4297" y="137.445097" style="fill: #10a37f; stroke: #ffffff; stroke-width: 0.8"/>
    </g>
    <g clip-path="url(#pbcc56bf58b)">
     <use xlink:href="#C0_0_f68fe8584a" x="172.036023" y="125.436015" style="fill: #10a37f; stroke: #ffffff; stroke-width: 0.8"/>
    </g>
    <g clip-path="url(#pbcc56bf58b)">
     <use xlink:href="#C0_0_f68fe8584a" x="525.521336" y="98.415581" style="fill: #d97757; stroke: #ffffff; stroke-width: 0.8"/>
    </g>
    <g clip-path="url(#pbcc56bf58b)">
     <use xlink:href="#C0_0_f68fe8584a" x="381.421016" y="107.422393" style="fill: #d97757; stroke: #ffffff; stroke-width: 0.8"/>
    </g>
    <g clip-path="url(#pbcc56bf58b)">
     <use xlink:href="#C0_0_f68fe8584a" x="174.172359" y="194.488236" style="fill: #7c3aed; stroke: #ffffff; stroke-width: 0.8"/>
    </g>
    <g clip-path="url(#pbcc56bf58b)">
     <use xlink:href="#C0_0_f68fe8584a" x="131.482822" y="185.481425" style="fill: #111827; stroke: #ffffff; stroke-width: 0.8"/>
    </g>
    <g clip-path="url(#pbcc56bf58b)">
     <use xlink:href="#C0_0_f68fe8584a" x="133.486923" y="182.479154" style="fill: #10a37f; stroke: #ffffff; stroke-width: 0.8"/>
    </g>
    <g clip-path="url(#pbcc56bf58b)">
     <use xlink:href="#C0_0_f68fe8584a" x="280.796668" y="257.535916" style="fill: #06b6d4; stroke: #ffffff; stroke-width: 0.8"/>
    </g>
    <g clip-path="url(#pbcc56bf58b)">
     <use xlink:href="#C0_0_f68fe8584a" x="116.17327" y="260.538186" style="fill: #7c3aed; stroke: #ffffff; stroke-width: 0.8"/>
    </g>
    <g clip-path="url(#pbcc56bf58b)">
     <use xlink:href="#C0_0_f68fe8584a" x="97.038039" y="323.585866" style="fill: #10a37f; stroke: #ffffff; stroke-width: 0.8"/>
    </g>
    <g clip-path="url(#pbcc56bf58b)">
     <use xlink:href="#C0_0_f68fe8584a" x="116.355271" y="329.590406" style="fill: #2563eb; stroke: #ffffff; stroke-width: 0.8"/>
    </g>
   </g>
   <g id="line2d_26">
    <path d="M 133.486923 182.479154 
L 182.786923 144.779154 
" clip-path="url(#pbcc56bf58b)" style="fill: none; stroke: #10a37f; stroke-opacity: 0.75; stroke-width: 0.55; stroke-linecap: square"/>
   </g>
   <g id="line2d_27">
    <path d="M 131.482822 185.481425 
L 158.682822 206.281425 
" clip-path="url(#pbcc56bf58b)" style="fill: none; stroke: #111827; stroke-opacity: 0.75; stroke-width: 0.55; stroke-linecap: square"/>
   </g>
   <g id="line2d_28">
    <path d="M 163.4297 137.445097 
L 175.3297 146.545097 
" clip-path="url(#pbcc56bf58b)" style="fill: none; stroke: #10a37f; stroke-opacity: 0.75; stroke-width: 0.55; stroke-linecap: square"/>
   </g>
   <g id="line2d_29">
    <path d="M 172.036023 125.436015 
L 183.936023 116.336015 
" clip-path="url(#pbcc56bf58b)" style="fill: none; stroke: #10a37f; stroke-opacity: 0.75; stroke-width: 0.55; stroke-linecap: square"/>
   </g>
   <g id="line2d_30">
    <path d="M 174.172359 194.488236 
L 188.172359 194.488236 
" clip-path="url(#pbcc56bf58b)" style="fill: none; stroke: #7c3aed; stroke-opacity: 0.75; stroke-width: 0.55; stroke-linecap: square"/>
   </g>
   <g id="line2d_31">
    <path d="M 97.038039 323.585866 
L 129.038039 323.585866 
" clip-path="url(#pbcc56bf58b)" style="fill: none; stroke: #10a37f; stroke-opacity: 0.75; stroke-width: 0.55; stroke-linecap: square"/>
   </g>
   <g id="line2d_32">
    <path d="M 116.355271 329.590406 
L 128.255271 338.690406 
" clip-path="url(#pbcc56bf58b)" style="fill: none; stroke: #2563eb; stroke-opacity: 0.75; stroke-width: 0.55; stroke-linecap: square"/>
   </g>
   <g id="line2d_33">
    <path d="M 116.17327 260.538186 
L 128.07327 269.638186 
" clip-path="url(#pbcc56bf58b)" style="fill: none; stroke: #7c3aed; stroke-opacity: 0.75; stroke-width: 0.55; stroke-linecap: square"/>
   </g>
   <g id="line2d_34">
    <path d="M 285.769153 101.417852 
L 297.669153 92.317852 
" clip-path="url(#pbcc56bf58b)" style="fill: none; stroke: #10a37f; stroke-opacity: 0.75; stroke-width: 0.55; stroke-linecap: square"/>
   </g>
   <g id="line2d_35">
    <path d="M 280.796668 257.535916 
L 292.696668 266.635916 
" clip-path="url(#pbcc56bf58b)" style="fill: none; stroke: #06b6d4; stroke-opacity: 0.75; stroke-width: 0.55; stroke-linecap: square"/>
   </g>
   <g id="line2d_36">
    <path d="M 381.421016 107.422393 
L 393.321016 98.322393 
" clip-path="url(#pbcc56bf58b)" style="fill: none; stroke: #d97757; stroke-opacity: 0.75; stroke-width: 0.55; stroke-linecap: square"/>
   </g>
   <g id="line2d_37">
    <path d="M 525.521336 98.415581 
L 513.621336 89.315581 
" clip-path="url(#pbcc56bf58b)" style="fill: none; stroke: #d97757; stroke-opacity: 0.75; stroke-width: 0.55; stroke-linecap: square"/>
   </g>
   <g id="text_16">
    <!-- GPT 5.4 Mini -->
    <g style="fill: #10a37f" transform="translate(182.786923 142.069467) scale(0.13 -0.13)">
     <defs>
      <path id="Helvetica-47" d="M 2472 4709 
Q 3119 4709 3591 4459 
Q 4275 4100 4428 3200 
L 3813 3200 
Q 3700 3703 3347 3933 
Q 2994 4163 2456 4163 
Q 1819 4163 1383 3684 
Q 947 3206 947 2259 
Q 947 1441 1306 927 
Q 1666 413 2478 413 
Q 3100 413 3508 773 
Q 3916 1134 3925 1941 
L 2488 1941 
L 2488 2456 
L 4503 2456 
L 4503 0 
L 4103 0 
L 3953 591 
Q 3638 244 3394 109 
Q 2984 -122 2353 -122 
Q 1538 -122 950 406 
Q 309 1069 309 2225 
Q 309 3378 934 4059 
Q 1528 4709 2472 4709 
z
M 2369 4716 
L 2369 4716 
z
" transform="scale(0.015625)"/>
      <path id="Helvetica-54" d="M 3828 4591 
L 3828 4044 
L 2281 4044 
L 2281 0 
L 1650 0 
L 1650 4044 
L 103 4044 
L 103 4591 
L 3828 4591 
z
" transform="scale(0.015625)"/>
     </defs>
     <use xlink:href="#Helvetica-47"/>
     <use xlink:href="#Helvetica-50" transform="translate(77.783203 0)"/>
     <use xlink:href="#Helvetica-54" transform="translate(144.482422 0)"/>
     <use xlink:href="#Helvetica-20" transform="translate(205.566406 0)"/>
     <use xlink:href="#Helvetica-35" transform="translate(233.349609 0)"/>
     <use xlink:href="#Helvetica-2e" transform="translate(288.964844 0)"/>
     <use xlink:href="#Helvetica-34" transform="translate(316.748047 0)"/>
     <use xlink:href="#Helvetica-20" transform="translate(372.363281 0)"/>
     <use xlink:href="#Helvetica-4d" transform="translate(400.146484 0)"/>
     <use xlink:href="#Helvetica-69" transform="translate(483.447266 0)"/>
     <use xlink:href="#Helvetica-6e" transform="translate(505.664062 0)"/>
     <use xlink:href="#Helvetica-69" transform="translate(561.279297 0)"/>
    </g>
   </g>
   <g id="text_17">
    <!-- Composer 2 -->
    <g style="fill: #111827" transform="translate(158.682822 215.8608) scale(0.13 -0.13)">
     <use xlink:href="#Helvetica-43"/>
     <use xlink:href="#Helvetica-6f" transform="translate(72.216797 0)"/>
     <use xlink:href="#Helvetica-6d" transform="translate(127.832031 0)"/>
     <use xlink:href="#Helvetica-70" transform="translate(211.132812 0)"/>
     <use xlink:href="#Helvetica-6f" transform="translate(266.748047 0)"/>
     <use xlink:href="#Helvetica-73" transform="translate(322.363281 0)"/>
     <use xlink:href="#Helvetica-65" transform="translate(372.363281 0)"/>
     <use xlink:href="#Helvetica-72" transform="translate(427.978516 0)"/>
     <use xlink:href="#Helvetica-20" transform="translate(461.279297 0)"/>
     <use xlink:href="#Helvetica-32" transform="translate(489.0625 0)"/>
    </g>
   </g>
   <g id="text_18">
    <!-- GPT 5.3 Codex -->
    <g style="fill: #10a37f" transform="translate(175.3297 155.870566) scale(0.13 -0.13)">
     <defs>
      <path id="Helvetica-78" d="M 94 3347 
L 822 3347 
L 1591 2169 
L 2369 3347 
L 3053 3331 
L 1925 1716 
L 3103 0 
L 2384 0 
L 1553 1256 
L 747 0 
L 34 0 
L 1213 1716 
L 94 3347 
z
" transform="scale(0.015625)"/>
     </defs>
     <use xlink:href="#Helvetica-47"/>
     <use xlink:href="#Helvetica-50" transform="translate(77.783203 0)"/>
     <use xlink:href="#Helvetica-54" transform="translate(144.482422 0)"/>
     <use xlink:href="#Helvetica-20" transform="translate(205.566406 0)"/>
     <use xlink:href="#Helvetica-35" transform="translate(233.349609 0)"/>
     <use xlink:href="#Helvetica-2e" transform="translate(288.964844 0)"/>
     <use xlink:href="#Helvetica-33" transform="translate(316.748047 0)"/>
     <use xlink:href="#Helvetica-20" transform="translate(372.363281 0)"/>
     <use xlink:href="#Helvetica-43" transform="translate(400.146484 0)"/>
     <use xlink:href="#Helvetica-6f" transform="translate(472.363281 0)"/>
     <use xlink:href="#Helvetica-64" transform="translate(527.978516 0)"/>
     <use xlink:href="#Helvetica-65" transform="translate(583.59375 0)"/>
     <use xlink:href="#Helvetica-78" transform="translate(639.208984 0)"/>
    </g>
   </g>
   <g id="text_19">
    <!-- GPT 5.4 -->
    <g style="fill: #10a37f" transform="translate(183.936023 113.626328) scale(0.13 -0.13)">
     <use xlink:href="#Helvetica-47"/>
     <use xlink:href="#Helvetica-50" transform="translate(77.783203 0)"/>
     <use xlink:href="#Helvetica-54" transform="translate(144.482422 0)"/>
     <use xlink:href="#Helvetica-20" transform="translate(205.566406 0)"/>
     <use xlink:href="#Helvetica-35" transform="translate(233.349609 0)"/>
     <use xlink:href="#Helvetica-2e" transform="translate(288.964844 0)"/>
     <use xlink:href="#Helvetica-34" transform="translate(316.748047 0)"/>
    </g>
   </g>
   <g id="text_20">
    <!-- Kimi K2.6 -->
    <g style="fill: #7c3aed" transform="translate(188.172359 197.796127) scale(0.13 -0.13)">
     <defs>
      <path id="Helvetica-4b" d="M 488 4591 
L 1094 4591 
L 1094 2353 
L 3331 4591 
L 4191 4591 
L 2281 2741 
L 4244 0 
L 3434 0 
L 1828 2303 
L 1094 1600 
L 1094 0 
L 488 0 
L 488 4591 
z
" transform="scale(0.015625)"/>
     </defs>
     <use xlink:href="#Helvetica-4b"/>
     <use xlink:href="#Helvetica-69" transform="translate(66.699219 0)"/>
     <use xlink:href="#Helvetica-6d" transform="translate(88.916016 0)"/>
     <use xlink:href="#Helvetica-69" transform="translate(172.216797 0)"/>
     <use xlink:href="#Helvetica-20" transform="translate(194.433594 0)"/>
     <use xlink:href="#Helvetica-4b" transform="translate(222.216797 0)"/>
     <use xlink:href="#Helvetica-32" transform="translate(288.916016 0)"/>
     <use xlink:href="#Helvetica-2e" transform="translate(344.53125 0)"/>
     <use xlink:href="#Helvetica-36" transform="translate(372.314453 0)"/>
    </g>
   </g>
   <g id="text_21">
    <!-- GPT 5.3 Spark -->
    <g style="fill: #10a37f" transform="translate(129.038039 327.020709) scale(0.13 -0.13)">
     <use xlink:href="#Helvetica-47"/>
     <use xlink:href="#Helvetica-50" transform="translate(77.783203 0)"/>
     <use xlink:href="#Helvetica-54" transform="translate(144.482422 0)"/>
     <use xlink:href="#Helvetica-20" transform="translate(205.566406 0)"/>
     <use xlink:href="#Helvetica-35" transform="translate(233.349609 0)"/>
     <use xlink:href="#Helvetica-2e" transform="translate(288.964844 0)"/>
     <use xlink:href="#Helvetica-33" transform="translate(316.748047 0)"/>
     <use xlink:href="#Helvetica-20" transform="translate(372.363281 0)"/>
     <use xlink:href="#Helvetica-53" transform="translate(400.146484 0)"/>
     <use xlink:href="#Helvetica-70" transform="translate(466.845703 0)"/>
     <use xlink:href="#Helvetica-61" transform="translate(522.460938 0)"/>
     <use xlink:href="#Helvetica-72" transform="translate(578.076172 0)"/>
     <use xlink:href="#Helvetica-6b" transform="translate(611.376953 0)"/>
    </g>
   </g>
   <g id="text_22">
    <!-- MiniMax M2.7 -->
    <g style="fill: #2563eb" transform="translate(128.255271 348.015875) scale(0.13 -0.13)">
     <use xlink:href="#Helvetica-4d"/>
     <use xlink:href="#Helvetica-69" transform="translate(83.300781 0)"/>
     <use xlink:href="#Helvetica-6e" transform="translate(105.517578 0)"/>
     <use xlink:href="#Helvetica-69" transform="translate(161.132812 0)"/>
     <use xlink:href="#Helvetica-4d" transform="translate(183.349609 0)"/>
     <use xlink:href="#Helvetica-61" transform="translate(266.650391 0)"/>
     <use xlink:href="#Helvetica-78" transform="translate(322.265625 0)"/>
     <use xlink:href="#Helvetica-20" transform="translate(372.265625 0)"/>
     <use xlink:href="#Helvetica-4d" transform="translate(400.048828 0)"/>
     <use xlink:href="#Helvetica-32" transform="translate(483.349609 0)"/>
     <use xlink:href="#Helvetica-2e" transform="translate(538.964844 0)"/>
     <use xlink:href="#Helvetica-37" transform="translate(566.748047 0)"/>
    </g>
   </g>
   <g id="text_23">
    <!-- Kimi K2.5 -->
    <g style="fill: #7c3aed" transform="translate(128.07327 278.963655) scale(0.13 -0.13)">
     <use xlink:href="#Helvetica-4b"/>
     <use xlink:href="#Helvetica-69" transform="translate(66.699219 0)"/>
     <use xlink:href="#Helvetica-6d" transform="translate(88.916016 0)"/>
     <use xlink:href="#Helvetica-69" transform="translate(172.216797 0)"/>
     <use xlink:href="#Helvetica-20" transform="translate(194.433594 0)"/>
     <use xlink:href="#Helvetica-4b" transform="translate(222.216797 0)"/>
     <use xlink:href="#Helvetica-32" transform="translate(288.916016 0)"/>
     <use xlink:href="#Helvetica-2e" transform="translate(344.53125 0)"/>
     <use xlink:href="#Helvetica-35" transform="translate(372.314453 0)"/>
    </g>
   </g>
   <g id="text_24">
    <!-- GPT 5.5 -->
    <g style="fill: #10a37f" transform="translate(297.669153 89.608164) scale(0.13 -0.13)">
     <use xlink:href="#Helvetica-47"/>
     <use xlink:href="#Helvetica-50" transform="translate(77.783203 0)"/>
     <use xlink:href="#Helvetica-54" transform="translate(144.482422 0)"/>
     <use xlink:href="#Helvetica-20" transform="translate(205.566406 0)"/>
     <use xlink:href="#Helvetica-35" transform="translate(233.349609 0)"/>
     <use xlink:href="#Helvetica-2e" transform="translate(288.964844 0)"/>
     <use xlink:href="#Helvetica-35" transform="translate(316.748047 0)"/>
    </g>
   </g>
   <g id="text_25">
    <!-- GLM 5.1 -->
    <g style="fill: #06b6d4" transform="translate(292.696668 275.961384) scale(0.13 -0.13)">
     <defs>
      <path id="Helvetica-4c" d="M 488 4591 
L 1109 4591 
L 1109 547 
L 3434 547 
L 3434 0 
L 488 0 
L 488 4591 
z
" transform="scale(0.015625)"/>
     </defs>
     <use xlink:href="#Helvetica-47"/>
     <use xlink:href="#Helvetica-4c" transform="translate(77.783203 0)"/>
     <use xlink:href="#Helvetica-4d" transform="translate(133.398438 0)"/>
     <use xlink:href="#Helvetica-20" transform="translate(216.699219 0)"/>
     <use xlink:href="#Helvetica-35" transform="translate(244.482422 0)"/>
     <use xlink:href="#Helvetica-2e" transform="translate(300.097656 0)"/>
     <use xlink:href="#Helvetica-31" transform="translate(327.880859 0)"/>
    </g>
   </g>
   <g id="text_26">
    <!-- Opus 4.7 -->
    <g style="fill: #d97757" transform="translate(393.321016 95.612705) scale(0.13 -0.13)">
     <defs>
      <path id="Helvetica-4f" d="M 2469 4716 
Q 3684 4716 4269 3934 
Q 4725 3325 4725 2375 
Q 4725 1347 4203 666 
Q 3591 -134 2456 -134 
Q 1397 -134 791 566 
Q 250 1241 250 2272 
Q 250 3203 713 3866 
Q 1306 4716 2469 4716 
z
M 2531 422 
Q 3353 422 3720 1011 
Q 4088 1600 4088 2366 
Q 4088 3175 3664 3669 
Q 3241 4163 2506 4163 
Q 1794 4163 1344 3673 
Q 894 3184 894 2231 
Q 894 1469 1280 945 
Q 1666 422 2531 422 
z
M 2488 4716 
L 2488 4716 
z
" transform="scale(0.015625)"/>
      <path id="Helvetica-75" d="M 975 3347 
L 975 1125 
Q 975 869 1056 706 
Q 1206 406 1616 406 
Q 2203 406 2416 931 
Q 2531 1213 2531 1703 
L 2531 3347 
L 3094 3347 
L 3094 0 
L 2563 0 
L 2569 494 
Q 2459 303 2297 172 
Q 1975 -91 1516 -91 
Q 800 -91 541 388 
Q 400 644 400 1072 
L 400 3347 
L 975 3347 
z
M 1747 3428 
L 1747 3428 
z
" transform="scale(0.015625)"/>
     </defs>
     <use xlink:href="#Helvetica-4f"/>
     <use xlink:href="#Helvetica-70" transform="translate(77.783203 0)"/>
     <use xlink:href="#Helvetica-75" transform="translate(133.398438 0)"/>
     <use xlink:href="#Helvetica-73" transform="translate(189.013672 0)"/>
     <use xlink:href="#Helvetica-20" transform="translate(239.013672 0)"/>
     <use xlink:href="#Helvetica-34" transform="translate(266.796875 0)"/>
     <use xlink:href="#Helvetica-2e" transform="translate(322.412109 0)"/>
     <use xlink:href="#Helvetica-37" transform="translate(350.195312 0)"/>
    </g>
   </g>
   <g id="text_27">
    <!-- Opus 4.6 -->
    <g style="fill: #d97757" transform="translate(460.869774 86.605894) scale(0.13 -0.13)">
     <use xlink:href="#Helvetica-4f"/>
     <use xlink:href="#Helvetica-70" transform="translate(77.783203 0)"/>
     <use xlink:href="#Helvetica-75" transform="translate(133.398438 0)"/>
     <use xlink:href="#Helvetica-73" transform="translate(189.013672 0)"/>
     <use xlink:href="#Helvetica-20" transform="translate(239.013672 0)"/>
     <use xlink:href="#Helvetica-34" transform="translate(266.796875 0)"/>
     <use xlink:href="#Helvetica-2e" transform="translate(322.412109 0)"/>
     <use xlink:href="#Helvetica-36" transform="translate(350.195312 0)"/>
    </g>
   </g>
  </g>
  <g id="axes_2">
   <g id="patch_5">
    <path d="M 615.359375 371.201875 
L 1112.4 371.201875 
L 1112.4 40.621875 
L 615.359375 40.621875 
z
" style="fill: #ffffff"/>
   </g>
   <g id="matplotlib.axis_3">
    <g id="xtick_8">
     <g id="line2d_38">
      <path d="M 620.449825 371.201875 
L 620.449825 40.621875 
" clip-path="url(#p3364bea387)" style="fill: none; stroke-dasharray: 1.85,0.8; stroke-dashoffset: 0; stroke: #cccccc; stroke-width: 0.5"/>
     </g>
     <g id="line2d_39">
      <g>
       <use xlink:href="#m1cbae7a7c7" x="620.449825" y="371.201875" style="stroke: #000000; stroke-width: 0.8"/>
      </g>
     </g>
     <g id="text_28">
      <!-- 0.0 -->
      <g transform="translate(610.024825 388.962031) scale(0.15 -0.15)">
       <use xlink:href="#Helvetica-30"/>
       <use xlink:href="#Helvetica-2e" transform="translate(55.615234 0)"/>
       <use xlink:href="#Helvetica-30" transform="translate(83.398438 0)"/>
      </g>
     </g>
    </g>
    <g id="xtick_9">
     <g id="line2d_40">
      <path d="M 692.698275 371.201875 
L 692.698275 40.621875 
" clip-path="url(#p3364bea387)" style="fill: none; stroke-dasharray: 1.85,0.8; stroke-dashoffset: 0; stroke: #cccccc; stroke-width: 0.5"/>
     </g>
     <g id="line2d_41">
      <g>
       <use xlink:href="#m1cbae7a7c7" x="692.698275" y="371.201875" style="stroke: #000000; stroke-width: 0.8"/>
      </g>
     </g>
     <g id="text_29">
      <!-- 0.5 -->
      <g transform="translate(682.273275 388.962031) scale(0.15 -0.15)">
       <use xlink:href="#Helvetica-30"/>
       <use xlink:href="#Helvetica-2e" transform="translate(55.615234 0)"/>
       <use xlink:href="#Helvetica-35" transform="translate(83.398438 0)"/>
      </g>
     </g>
    </g>
    <g id="xtick_10">
     <g id="line2d_42">
      <path d="M 764.946724 371.201875 
L 764.946724 40.621875 
" clip-path="url(#p3364bea387)" style="fill: none; stroke-dasharray: 1.85,0.8; stroke-dashoffset: 0; stroke: #cccccc; stroke-width: 0.5"/>
     </g>
     <g id="line2d_43">
      <g>
       <use xlink:href="#m1cbae7a7c7" x="764.946724" y="371.201875" style="stroke: #000000; stroke-width: 0.8"/>
      </g>
     </g>
     <g id="text_30">
      <!-- 1.0 -->
      <g transform="translate(754.521724 388.962031) scale(0.15 -0.15)">
       <use xlink:href="#Helvetica-31"/>
       <use xlink:href="#Helvetica-2e" transform="translate(55.615234 0)"/>
       <use xlink:href="#Helvetica-30" transform="translate(83.398438 0)"/>
      </g>
     </g>
    </g>
    <g id="xtick_11">
     <g id="line2d_44">
      <path d="M 837.195174 371.201875 
L 837.195174 40.621875 
" clip-path="url(#p3364bea387)" style="fill: none; stroke-dasharray: 1.85,0.8; stroke-dashoffset: 0; stroke: #cccccc; stroke-width: 0.5"/>
     </g>
     <g id="line2d_45">
      <g>
       <use xlink:href="#m1cbae7a7c7" x="837.195174" y="371.201875" style="stroke: #000000; stroke-width: 0.8"/>
      </g>
     </g>
     <g id="text_31">
      <!-- 1.5 -->
      <g transform="translate(826.770174 388.962031) scale(0.15 -0.15)">
       <use xlink:href="#Helvetica-31"/>
       <use xlink:href="#Helvetica-2e" transform="translate(55.615234 0)"/>
       <use xlink:href="#Helvetica-35" transform="translate(83.398438 0)"/>
      </g>
     </g>
    </g>
    <g id="xtick_12">
     <g id="line2d_46">
      <path d="M 909.443624 371.201875 
L 909.443624 40.621875 
" clip-path="url(#p3364bea387)" style="fill: none; stroke-dasharray: 1.85,0.8; stroke-dashoffset: 0; stroke: #cccccc; stroke-width: 0.5"/>
     </g>
     <g id="line2d_47">
      <g>
       <use xlink:href="#m1cbae7a7c7" x="909.443624" y="371.201875" style="stroke: #000000; stroke-width: 0.8"/>
      </g>
     </g>
     <g id="text_32">
      <!-- 2.0 -->
      <g transform="translate(899.018624 388.962031) scale(0.15 -0.15)">
       <use xlink:href="#Helvetica-32"/>
       <use xlink:href="#Helvetica-2e" transform="translate(55.615234 0)"/>
       <use xlink:href="#Helvetica-30" transform="translate(83.398438 0)"/>
      </g>
     </g>
    </g>
    <g id="xtick_13">
     <g id="line2d_48">
      <path d="M 981.692074 371.201875 
L 981.692074 40.621875 
" clip-path="url(#p3364bea387)" style="fill: none; stroke-dasharray: 1.85,0.8; stroke-dashoffset: 0; stroke: #cccccc; stroke-width: 0.5"/>
     </g>
     <g id="line2d_49">
      <g>
       <use xlink:href="#m1cbae7a7c7" x="981.692074" y="371.201875" style="stroke: #000000; stroke-width: 0.8"/>
      </g>
     </g>
     <g id="text_33">
      <!-- 2.5 -->
      <g transform="translate(971.267074 388.962031) scale(0.15 -0.15)">
       <use xlink:href="#Helvetica-32"/>
       <use xlink:href="#Helvetica-2e" transform="translate(55.615234 0)"/>
       <use xlink:href="#Helvetica-35" transform="translate(83.398438 0)"/>
      </g>
     </g>
    </g>
    <g id="xtick_14">
     <g id="line2d_50">
      <path d="M 1053.940523 371.201875 
L 1053.940523 40.621875 
" clip-path="url(#p3364bea387)" style="fill: none; stroke-dasharray: 1.85,0.8; stroke-dashoffset: 0; stroke: #cccccc; stroke-width: 0.5"/>
     </g>
     <g id="line2d_51">
      <g>
       <use xlink:href="#m1cbae7a7c7" x="1053.940523" y="371.201875" style="stroke: #000000; stroke-width: 0.8"/>
      </g>
     </g>
     <g id="text_34">
      <!-- 3.0 -->
      <g transform="translate(1043.515523 388.962031) scale(0.15 -0.15)">
       <use xlink:href="#Helvetica-33"/>
       <use xlink:href="#Helvetica-2e" transform="translate(55.615234 0)"/>
       <use xlink:href="#Helvetica-30" transform="translate(83.398438 0)"/>
      </g>
     </g>
    </g>
    <g id="text_35">
     <!-- Mean Cost per Checkpoint ($) -->
     <g transform="translate(743.83375 410.047031) scale(0.18 -0.18)">
      <use xlink:href="#Helvetica-4d"/>
      <use xlink:href="#Helvetica-65" transform="translate(83.300781 0)"/>
      <use xlink:href="#Helvetica-61" transform="translate(138.916016 0)"/>
      <use xlink:href="#Helvetica-6e" transform="translate(194.53125 0)"/>
      <use xlink:href="#Helvetica-20" transform="translate(250.146484 0)"/>
      <use xlink:href="#Helvetica-43" transform="translate(277.929688 0)"/>
      <use xlink:href="#Helvetica-6f" transform="translate(350.146484 0)"/>
      <use xlink:href="#Helvetica-73" transform="translate(405.761719 0)"/>
      <use xlink:href="#Helvetica-74" transform="translate(455.761719 0)"/>
      <use xlink:href="#Helvetica-20" transform="translate(483.544922 0)"/>
      <use xlink:href="#Helvetica-70" transform="translate(511.328125 0)"/>
      <use xlink:href="#Helvetica-65" transform="translate(566.943359 0)"/>
      <use xlink:href="#Helvetica-72" transform="translate(622.558594 0)"/>
      <use xlink:href="#Helvetica-20" transform="translate(655.859375 0)"/>
      <use xlink:href="#Helvetica-43" transform="translate(683.642578 0)"/>
      <use xlink:href="#Helvetica-68" transform="translate(755.859375 0)"/>
      <use xlink:href="#Helvetica-65" transform="translate(811.474609 0)"/>
      <use xlink:href="#Helvetica-63" transform="translate(867.089844 0)"/>
      <use xlink:href="#Helvetica-6b" transform="translate(917.089844 0)"/>
      <use xlink:href="#Helvetica-70" transform="translate(967.089844 0)"/>
      <use xlink:href="#Helvetica-6f" transform="translate(1022.705078 0)"/>
      <use xlink:href="#Helvetica-69" transform="translate(1078.320312 0)"/>
      <use xlink:href="#Helvetica-6e" transform="translate(1100.537109 0)"/>
      <use xlink:href="#Helvetica-74" transform="translate(1156.152344 0)"/>
      <use xlink:href="#Helvetica-20" transform="translate(1183.935547 0)"/>
      <use xlink:href="#Helvetica-28" transform="translate(1211.71875 0)"/>
      <use xlink:href="#Helvetica-24" transform="translate(1245.019531 0)"/>
      <use xlink:href="#Helvetica-29" transform="translate(1300.634766 0)"/>
     </g>
    </g>
   </g>
   <g id="matplotlib.axis_4">
    <g id="ytick_6">
     <g id="line2d_52">
      <path d="M 615.359375 368.939313 
L 1112.4 368.939313 
" clip-path="url(#p3364bea387)" style="fill: none; stroke-dasharray: 1.85,0.8; stroke-dashoffset: 0; stroke: #cccccc; stroke-width: 0.5"/>
     </g>
     <g id="line2d_53">
      <g>
       <use xlink:href="#me87ef08599" x="615.359375" y="368.939313" style="stroke: #000000; stroke-width: 0.8"/>
      </g>
     </g>
     <g id="text_36">
      <!-- 0 -->
      <g transform="translate(600.017969 374.319391) scale(0.15 -0.15)">
       <use xlink:href="#Helvetica-30"/>
      </g>
     </g>
    </g>
    <g id="ytick_7">
     <g id="line2d_54">
      <path d="M 615.359375 320.736903 
L 1112.4 320.736903 
" clip-path="url(#p3364bea387)" style="fill: none; stroke-dasharray: 1.85,0.8; stroke-dashoffset: 0; stroke: #cccccc; stroke-width: 0.5"/>
     </g>
     <g id="line2d_55">
      <g>
       <use xlink:href="#me87ef08599" x="615.359375" y="320.736903" style="stroke: #000000; stroke-width: 0.8"/>
      </g>
     </g>
     <g id="text_37">
      <!-- 5 -->
      <g transform="translate(600.017969 326.116981) scale(0.15 -0.15)">
       <use xlink:href="#Helvetica-35"/>
      </g>
     </g>
    </g>
    <g id="ytick_8">
     <g id="line2d_56">
      <path d="M 615.359375 272.534492 
L 1112.4 272.534492 
" clip-path="url(#p3364bea387)" style="fill: none; stroke-dasharray: 1.85,0.8; stroke-dashoffset: 0; stroke: #cccccc; stroke-width: 0.5"/>
     </g>
     <g id="line2d_57">
      <g>
       <use xlink:href="#me87ef08599" x="615.359375" y="272.534492" style="stroke: #000000; stroke-width: 0.8"/>
      </g>
     </g>
     <g id="text_38">
      <!-- 10 -->
      <g transform="translate(591.676563 277.91457) scale(0.15 -0.15)">
       <use xlink:href="#Helvetica-31"/>
       <use xlink:href="#Helvetica-30" transform="translate(55.615234 0)"/>
      </g>
     </g>
    </g>
    <g id="ytick_9">
     <g id="line2d_58">
      <path d="M 615.359375 224.332082 
L 1112.4 224.332082 
" clip-path="url(#p3364bea387)" style="fill: none; stroke-dasharray: 1.85,0.8; stroke-dashoffset: 0; stroke: #cccccc; stroke-width: 0.5"/>
     </g>
     <g id="line2d_59">
      <g>
       <use xlink:href="#me87ef08599" x="615.359375" y="224.332082" style="stroke: #000000; stroke-width: 0.8"/>
      </g>
     </g>
     <g id="text_39">
      <!-- 15 -->
      <g transform="translate(591.676563 229.71216) scale(0.15 -0.15)">
       <use xlink:href="#Helvetica-31"/>
       <use xlink:href="#Helvetica-35" transform="translate(55.615234 0)"/>
      </g>
     </g>
    </g>
    <g id="ytick_10">
     <g id="line2d_60">
      <path d="M 615.359375 176.129671 
L 1112.4 176.129671 
" clip-path="url(#p3364bea387)" style="fill: none; stroke-dasharray: 1.85,0.8; stroke-dashoffset: 0; stroke: #cccccc; stroke-width: 0.5"/>
     </g>
     <g id="line2d_61">
      <g>
       <use xlink:href="#me87ef08599" x="615.359375" y="176.129671" style="stroke: #000000; stroke-width: 0.8"/>
      </g>
     </g>
     <g id="text_40">
      <!-- 20 -->
      <g transform="translate(591.676563 181.50975) scale(0.15 -0.15)">
       <use xlink:href="#Helvetica-32"/>
       <use xlink:href="#Helvetica-30" transform="translate(55.615234 0)"/>
      </g>
     </g>
    </g>
    <g id="ytick_11">
     <g id="line2d_62">
      <path d="M 615.359375 127.927261 
L 1112.4 127.927261 
" clip-path="url(#p3364bea387)" style="fill: none; stroke-dasharray: 1.85,0.8; stroke-dashoffset: 0; stroke: #cccccc; stroke-width: 0.5"/>
     </g>
     <g id="line2d_63">
      <g>
       <use xlink:href="#me87ef08599" x="615.359375" y="127.927261" style="stroke: #000000; stroke-width: 0.8"/>
      </g>
     </g>
     <g id="text_41">
      <!-- 25 -->
      <g transform="translate(591.676563 133.307339) scale(0.15 -0.15)">
       <use xlink:href="#Helvetica-32"/>
       <use xlink:href="#Helvetica-35" transform="translate(55.615234 0)"/>
      </g>
     </g>
    </g>
    <g id="ytick_12">
     <g id="line2d_64">
      <path d="M 615.359375 79.724851 
L 1112.4 79.724851 
" clip-path="url(#p3364bea387)" style="fill: none; stroke-dasharray: 1.85,0.8; stroke-dashoffset: 0; stroke: #cccccc; stroke-width: 0.5"/>
     </g>
     <g id="line2d_65">
      <g>
       <use xlink:href="#me87ef08599" x="615.359375" y="79.724851" style="stroke: #000000; stroke-width: 0.8"/>
      </g>
     </g>
     <g id="text_42">
      <!-- 30 -->
      <g transform="translate(591.676563 85.104929) scale(0.15 -0.15)">
       <use xlink:href="#Helvetica-33"/>
       <use xlink:href="#Helvetica-30" transform="translate(55.615234 0)"/>
      </g>
     </g>
    </g>
    <g id="text_43">
     <!-- % Checkpoints Solved -->
     <g transform="translate(583.924688 295.956875) rotate(-90) scale(0.18 -0.18)">
      <use xlink:href="#Helvetica-25"/>
      <use xlink:href="#Helvetica-20" transform="translate(88.916016 0)"/>
      <use xlink:href="#Helvetica-43" transform="translate(116.699219 0)"/>
      <use xlink:href="#Helvetica-68" transform="translate(188.916016 0)"/>
      <use xlink:href="#Helvetica-65" transform="translate(244.53125 0)"/>
      <use xlink:href="#Helvetica-63" transform="translate(300.146484 0)"/>
      <use xlink:href="#Helvetica-6b" transform="translate(350.146484 0)"/>
      <use xlink:href="#Helvetica-70" transform="translate(400.146484 0)"/>
      <use xlink:href="#Helvetica-6f" transform="translate(455.761719 0)"/>
      <use xlink:href="#Helvetica-69" transform="translate(511.376953 0)"/>
      <use xlink:href="#Helvetica-6e" transform="translate(533.59375 0)"/>
      <use xlink:href="#Helvetica-74" transform="translate(589.208984 0)"/>
      <use xlink:href="#Helvetica-73" transform="translate(616.992188 0)"/>
      <use xlink:href="#Helvetica-20" transform="translate(666.992188 0)"/>
      <use xlink:href="#Helvetica-53" transform="translate(694.775391 0)"/>
      <use xlink:href="#Helvetica-6f" transform="translate(761.474609 0)"/>
      <use xlink:href="#Helvetica-6c" transform="translate(817.089844 0)"/>
      <use xlink:href="#Helvetica-76" transform="translate(839.306641 0)"/>
      <use xlink:href="#Helvetica-65" transform="translate(889.306641 0)"/>
      <use xlink:href="#Helvetica-64" transform="translate(944.921875 0)"/>
     </g>
    </g>
   </g>
   <g id="line2d_66">
    <path d="M 649.638039 290.2415 
L 668.77327 290.2415 
L 668.77327 275.48566 
L 684.082822 275.48566 
L 684.082822 211.543687 
L 716.0297 211.543687 
L 716.0297 118.090035 
L 838.369153 118.090035 
L 838.369153 98.415581 
" clip-path="url(#p3364bea387)" style="fill: none; stroke-dasharray: 9.6,4.8; stroke-dashoffset: 0; stroke: #7f7f7f; stroke-opacity: 0.8; stroke-width: 1.6"/>
   </g>
   <g id="patch_6">
    <path d="M 615.359375 371.201875 
L 615.359375 40.621875 
" style="fill: none; stroke: #000000; stroke-width: 0.8; stroke-linejoin: miter; stroke-linecap: square"/>
   </g>
   <g id="patch_7">
    <path d="M 615.359375 371.201875 
L 1112.4 371.201875 
" style="fill: none; stroke: #000000; stroke-width: 0.8; stroke-linejoin: miter; stroke-linecap: square"/>
   </g>
   <g id="text_44">
    <!-- Checkpoint Solve -->
    <g transform="translate(766.60625 25.621875) scale(0.25 -0.25)">
     <use xlink:href="#Helvetica-43"/>
     <use xlink:href="#Helvetica-68" transform="translate(72.216797 0)"/>
     <use xlink:href="#Helvetica-65" transform="translate(127.832031 0)"/>
     <use xlink:href="#Helvetica-63" transform="translate(183.447266 0)"/>
     <use xlink:href="#Helvetica-6b" transform="translate(233.447266 0)"/>
     <use xlink:href="#Helvetica-70" transform="translate(283.447266 0)"/>
     <use xlink:href="#Helvetica-6f" transform="translate(339.0625 0)"/>
     <use xlink:href="#Helvetica-69" transform="translate(394.677734 0)"/>
     <use xlink:href="#Helvetica-6e" transform="translate(416.894531 0)"/>
     <use xlink:href="#Helvetica-74" transform="translate(472.509766 0)"/>
     <use xlink:href="#Helvetica-20" transform="translate(500.292969 0)"/>
     <use xlink:href="#Helvetica-53" transform="translate(528.076172 0)"/>
     <use xlink:href="#Helvetica-6f" transform="translate(594.775391 0)"/>
     <use xlink:href="#Helvetica-6c" transform="translate(650.390625 0)"/>
     <use xlink:href="#Helvetica-76" transform="translate(672.607422 0)"/>
     <use xlink:href="#Helvetica-65" transform="translate(722.607422 0)"/>
    </g>
   </g>
   <g id="PathCollection_2">
    <defs>
     <path id="C1_0_47d9cc5501" d="M 0 5.196152 
C 1.378036 5.196152 2.699816 4.648653 3.674235 3.674235 
C 4.648653 2.699816 5.196152 1.378036 5.196152 -0 
C 5.196152 -1.378036 4.648653 -2.699816 3.674235 -3.674235 
C 2.699816 -4.648653 1.378036 -5.196152 0 -5.196152 
C -1.378036 -5.196152 -2.699816 -4.648653 -3.674235 -3.674235 
C -4.648653 -2.699816 -5.196152 -1.378036 -5.196152 0 
C -5.196152 1.378036 -4.648653 2.699816 -3.674235 3.674235 
C -2.699816 4.648653 -1.378036 5.196152 0 5.196152 
z
"/>
    </defs>
    <g clip-path="url(#p3364bea387)">
     <use xlink:href="#C1_0_47d9cc5501" x="838.369153" y="98.415581" style="fill: #10a37f; stroke: #ffffff; stroke-width: 0.8"/>
    </g>
    <g clip-path="url(#p3364bea387)">
     <use xlink:href="#C1_0_47d9cc5501" x="716.0297" y="118.090035" style="fill: #10a37f; stroke: #ffffff; stroke-width: 0.8"/>
    </g>
    <g clip-path="url(#p3364bea387)">
     <use xlink:href="#C1_0_47d9cc5501" x="1078.121336" y="167.276168" style="fill: #d97757; stroke: #ffffff; stroke-width: 0.8"/>
    </g>
    <g clip-path="url(#p3364bea387)">
     <use xlink:href="#C1_0_47d9cc5501" x="934.021016" y="167.276168" style="fill: #d97757; stroke: #ffffff; stroke-width: 0.8"/>
    </g>
    <g clip-path="url(#p3364bea387)">
     <use xlink:href="#C1_0_47d9cc5501" x="726.772359" y="186.950621" style="fill: #7c3aed; stroke: #ffffff; stroke-width: 0.8"/>
    </g>
    <g clip-path="url(#p3364bea387)">
     <use xlink:href="#C1_0_47d9cc5501" x="684.082822" y="211.543687" style="fill: #111827; stroke: #ffffff; stroke-width: 0.8"/>
    </g>
    <g clip-path="url(#p3364bea387)">
     <use xlink:href="#C1_0_47d9cc5501" x="833.396668" y="236.136754" style="fill: #06b6d4; stroke: #ffffff; stroke-width: 0.8"/>
    </g>
    <g clip-path="url(#p3364bea387)">
     <use xlink:href="#C1_0_47d9cc5501" x="668.77327" y="275.48566" style="fill: #7c3aed; stroke: #ffffff; stroke-width: 0.8"/>
    </g>
    <g clip-path="url(#p3364bea387)">
     <use xlink:href="#C1_0_47d9cc5501" x="649.638039" y="290.2415" style="fill: #10a37f; stroke: #ffffff; stroke-width: 0.8"/>
    </g>
    <g clip-path="url(#p3364bea387)">
     <use xlink:href="#C1_0_47d9cc5501" x="668.955271" y="329.590406" style="fill: #2563eb; stroke: #ffffff; stroke-width: 0.8"/>
    </g>
   </g>
   <g id="line2d_67">
    <path d="M 668.77327 275.48566 
L 687.47327 261.18566 
" clip-path="url(#p3364bea387)" style="fill: none; stroke: #7c3aed; stroke-opacity: 0.75; stroke-width: 0.55; stroke-linecap: square"/>
   </g>
   <g id="line2d_68">
    <path d="M 649.638039 290.2415 
L 661.538039 299.3415 
" clip-path="url(#p3364bea387)" style="fill: none; stroke: #10a37f; stroke-opacity: 0.75; stroke-width: 0.55; stroke-linecap: square"/>
   </g>
   <g id="line2d_69">
    <path d="M 684.082822 211.543687 
L 695.982822 220.643687 
" clip-path="url(#p3364bea387)" style="fill: none; stroke: #111827; stroke-opacity: 0.75; stroke-width: 0.55; stroke-linecap: square"/>
   </g>
   <g id="line2d_70">
    <path d="M 726.772359 186.950621 
L 738.672359 177.850621 
" clip-path="url(#p3364bea387)" style="fill: none; stroke: #7c3aed; stroke-opacity: 0.75; stroke-width: 0.55; stroke-linecap: square"/>
   </g>
   <g id="line2d_71">
    <path d="M 668.955271 329.590406 
L 668.955271 343.590406 
" clip-path="url(#p3364bea387)" style="fill: none; stroke: #2563eb; stroke-opacity: 0.75; stroke-width: 0.55; stroke-linecap: square"/>
   </g>
   <g id="line2d_72">
    <path d="M 716.0297 118.090035 
L 716.0297 104.090035 
" clip-path="url(#p3364bea387)" style="fill: none; stroke: #10a37f; stroke-opacity: 0.75; stroke-width: 0.55; stroke-linecap: square"/>
   </g>
   <g id="line2d_73">
    <path d="M 833.396668 236.136754 
L 845.296668 245.236754 
" clip-path="url(#p3364bea387)" style="fill: none; stroke: #06b6d4; stroke-opacity: 0.75; stroke-width: 0.55; stroke-linecap: square"/>
   </g>
   <g id="line2d_74">
    <path d="M 838.369153 98.415581 
L 850.269153 89.315581 
" clip-path="url(#p3364bea387)" style="fill: none; stroke: #10a37f; stroke-opacity: 0.75; stroke-width: 0.55; stroke-linecap: square"/>
   </g>
   <g id="line2d_75">
    <path d="M 934.021016 167.276168 
L 948.021016 167.276168 
" clip-path="url(#p3364bea387)" style="fill: none; stroke: #d97757; stroke-opacity: 0.75; stroke-width: 0.55; stroke-linecap: square"/>
   </g>
   <g id="line2d_76">
    <path d="M 1078.121336 167.276168 
L 1064.121336 167.276168 
" clip-path="url(#p3364bea387)" style="fill: none; stroke: #d97757; stroke-opacity: 0.75; stroke-width: 0.55; stroke-linecap: square"/>
   </g>
   <g id="text_45">
    <!-- Kimi K2.5 -->
    <g style="fill: #7c3aed" transform="translate(687.47327 258.475973) scale(0.13 -0.13)">
     <use xlink:href="#Helvetica-4b"/>
     <use xlink:href="#Helvetica-69" transform="translate(66.699219 0)"/>
     <use xlink:href="#Helvetica-6d" transform="translate(88.916016 0)"/>
     <use xlink:href="#Helvetica-69" transform="translate(172.216797 0)"/>
     <use xlink:href="#Helvetica-20" transform="translate(194.433594 0)"/>
     <use xlink:href="#Helvetica-4b" transform="translate(222.216797 0)"/>
     <use xlink:href="#Helvetica-32" transform="translate(288.916016 0)"/>
     <use xlink:href="#Helvetica-2e" transform="translate(344.53125 0)"/>
     <use xlink:href="#Helvetica-35" transform="translate(372.314453 0)"/>
    </g>
   </g>
   <g id="text_46">
    <!-- GPT 5.3 Spark -->
    <g style="fill: #10a37f" transform="translate(661.538039 308.920875) scale(0.13 -0.13)">
     <use xlink:href="#Helvetica-47"/>
     <use xlink:href="#Helvetica-50" transform="translate(77.783203 0)"/>
     <use xlink:href="#Helvetica-54" transform="translate(144.482422 0)"/>
     <use xlink:href="#Helvetica-20" transform="translate(205.566406 0)"/>
     <use xlink:href="#Helvetica-35" transform="translate(233.349609 0)"/>
     <use xlink:href="#Helvetica-2e" transform="translate(288.964844 0)"/>
     <use xlink:href="#Helvetica-33" transform="translate(316.748047 0)"/>
     <use xlink:href="#Helvetica-20" transform="translate(372.363281 0)"/>
     <use xlink:href="#Helvetica-53" transform="translate(400.146484 0)"/>
     <use xlink:href="#Helvetica-70" transform="translate(466.845703 0)"/>
     <use xlink:href="#Helvetica-61" transform="translate(522.460938 0)"/>
     <use xlink:href="#Helvetica-72" transform="translate(578.076172 0)"/>
     <use xlink:href="#Helvetica-6b" transform="translate(611.376953 0)"/>
    </g>
   </g>
   <g id="text_47">
    <!-- Composer 2 -->
    <g style="fill: #111827" transform="translate(695.982822 230.223062) scale(0.13 -0.13)">
     <use xlink:href="#Helvetica-43"/>
     <use xlink:href="#Helvetica-6f" transform="translate(72.216797 0)"/>
     <use xlink:href="#Helvetica-6d" transform="translate(127.832031 0)"/>
     <use xlink:href="#Helvetica-70" transform="translate(211.132812 0)"/>
     <use xlink:href="#Helvetica-6f" transform="translate(266.748047 0)"/>
     <use xlink:href="#Helvetica-73" transform="translate(322.363281 0)"/>
     <use xlink:href="#Helvetica-65" transform="translate(372.363281 0)"/>
     <use xlink:href="#Helvetica-72" transform="translate(427.978516 0)"/>
     <use xlink:href="#Helvetica-20" transform="translate(461.279297 0)"/>
     <use xlink:href="#Helvetica-32" transform="translate(489.0625 0)"/>
    </g>
   </g>
   <g id="text_48">
    <!-- Kimi K2.6 -->
    <g style="fill: #7c3aed" transform="translate(738.672359 175.140933) scale(0.13 -0.13)">
     <use xlink:href="#Helvetica-4b"/>
     <use xlink:href="#Helvetica-69" transform="translate(66.699219 0)"/>
     <use xlink:href="#Helvetica-6d" transform="translate(88.916016 0)"/>
     <use xlink:href="#Helvetica-69" transform="translate(172.216797 0)"/>
     <use xlink:href="#Helvetica-20" transform="translate(194.433594 0)"/>
     <use xlink:href="#Helvetica-4b" transform="translate(222.216797 0)"/>
     <use xlink:href="#Helvetica-32" transform="translate(288.916016 0)"/>
     <use xlink:href="#Helvetica-2e" transform="translate(344.53125 0)"/>
     <use xlink:href="#Helvetica-36" transform="translate(372.314453 0)"/>
    </g>
   </g>
   <g id="text_49">
    <!-- MiniMax M2.7 -->
    <g style="fill: #2563eb" transform="translate(628.503943 352.915875) scale(0.13 -0.13)">
     <use xlink:href="#Helvetica-4d"/>
     <use xlink:href="#Helvetica-69" transform="translate(83.300781 0)"/>
     <use xlink:href="#Helvetica-6e" transform="translate(105.517578 0)"/>
     <use xlink:href="#Helvetica-69" transform="translate(161.132812 0)"/>
     <use xlink:href="#Helvetica-4d" transform="translate(183.349609 0)"/>
     <use xlink:href="#Helvetica-61" transform="translate(266.650391 0)"/>
     <use xlink:href="#Helvetica-78" transform="translate(322.265625 0)"/>
     <use xlink:href="#Helvetica-20" transform="translate(372.265625 0)"/>
     <use xlink:href="#Helvetica-4d" transform="translate(400.048828 0)"/>
     <use xlink:href="#Helvetica-32" transform="translate(483.349609 0)"/>
     <use xlink:href="#Helvetica-2e" transform="translate(538.964844 0)"/>
     <use xlink:href="#Helvetica-37" transform="translate(566.748047 0)"/>
    </g>
   </g>
   <g id="text_50">
    <!-- GPT 5.3 Codex -->
    <g style="fill: #10a37f" transform="translate(671.233528 101.380347) scale(0.13 -0.13)">
     <use xlink:href="#Helvetica-47"/>
     <use xlink:href="#Helvetica-50" transform="translate(77.783203 0)"/>
     <use xlink:href="#Helvetica-54" transform="translate(144.482422 0)"/>
     <use xlink:href="#Helvetica-20" transform="translate(205.566406 0)"/>
     <use xlink:href="#Helvetica-35" transform="translate(233.349609 0)"/>
     <use xlink:href="#Helvetica-2e" transform="translate(288.964844 0)"/>
     <use xlink:href="#Helvetica-33" transform="translate(316.748047 0)"/>
     <use xlink:href="#Helvetica-20" transform="translate(372.363281 0)"/>
     <use xlink:href="#Helvetica-43" transform="translate(400.146484 0)"/>
     <use xlink:href="#Helvetica-6f" transform="translate(472.363281 0)"/>
     <use xlink:href="#Helvetica-64" transform="translate(527.978516 0)"/>
     <use xlink:href="#Helvetica-65" transform="translate(583.59375 0)"/>
     <use xlink:href="#Helvetica-78" transform="translate(639.208984 0)"/>
    </g>
   </g>
   <g id="text_51">
    <!-- GLM 5.1 -->
    <g style="fill: #06b6d4" transform="translate(845.296668 254.562222) scale(0.13 -0.13)">
     <use xlink:href="#Helvetica-47"/>
     <use xlink:href="#Helvetica-4c" transform="translate(77.783203 0)"/>
     <use xlink:href="#Helvetica-4d" transform="translate(133.398438 0)"/>
     <use xlink:href="#Helvetica-20" transform="translate(216.699219 0)"/>
     <use xlink:href="#Helvetica-35" transform="translate(244.482422 0)"/>
     <use xlink:href="#Helvetica-2e" transform="translate(300.097656 0)"/>
     <use xlink:href="#Helvetica-31" transform="translate(327.880859 0)"/>
    </g>
   </g>
   <g id="text_52">
    <!-- GPT 5.5 -->
    <g style="fill: #10a37f" transform="translate(850.269153 86.605894) scale(0.13 -0.13)">
     <use xlink:href="#Helvetica-47"/>
     <use xlink:href="#Helvetica-50" transform="translate(77.783203 0)"/>
     <use xlink:href="#Helvetica-54" transform="translate(144.482422 0)"/>
     <use xlink:href="#Helvetica-20" transform="translate(205.566406 0)"/>
     <use xlink:href="#Helvetica-35" transform="translate(233.349609 0)"/>
     <use xlink:href="#Helvetica-2e" transform="translate(288.964844 0)"/>
     <use xlink:href="#Helvetica-35" transform="translate(316.748047 0)"/>
    </g>
   </g>
   <g id="text_53">
    <!-- Opus 4.7 -->
    <g style="fill: #d97757" transform="translate(948.021016 170.711011) scale(0.13 -0.13)">
     <use xlink:href="#Helvetica-4f"/>
     <use xlink:href="#Helvetica-70" transform="translate(77.783203 0)"/>
     <use xlink:href="#Helvetica-75" transform="translate(133.398438 0)"/>
     <use xlink:href="#Helvetica-73" transform="translate(189.013672 0)"/>
     <use xlink:href="#Helvetica-20" transform="translate(239.013672 0)"/>
     <use xlink:href="#Helvetica-34" transform="translate(266.796875 0)"/>
     <use xlink:href="#Helvetica-2e" transform="translate(322.412109 0)"/>
     <use xlink:href="#Helvetica-37" transform="translate(350.195312 0)"/>
    </g>
   </g>
   <g id="text_54">
    <!-- Opus 4.6 -->
    <g style="fill: #d97757" transform="translate(1011.369774 170.711011) scale(0.13 -0.13)">
     <use xlink:href="#Helvetica-4f"/>
     <use xlink:href="#Helvetica-70" transform="translate(77.783203 0)"/>
     <use xlink:href="#Helvetica-75" transform="translate(133.398438 0)"/>
     <use xlink:href="#Helvetica-73" transform="translate(189.013672 0)"/>
     <use xlink:href="#Helvetica-20" transform="translate(239.013672 0)"/>
     <use xlink:href="#Helvetica-34" transform="translate(266.796875 0)"/>
     <use xlink:href="#Helvetica-2e" transform="translate(322.412109 0)"/>
     <use xlink:href="#Helvetica-36" transform="translate(350.195312 0)"/>
    </g>
   </g>
  </g>
  <g id="axes_3">
   <g id="PathCollection_3">
    <defs>
     <path id="m2991869e9d" d="M 0 5.196152 
C 1.378036 5.196152 2.699816 4.648653 3.674235 3.674235 
C 4.648653 2.699816 5.196152 1.378036 5.196152 0 
C 5.196152 -1.378036 4.648653 -2.699816 3.674235 -3.674235 
C 2.699816 -4.648653 1.378036 -5.196152 0 -5.196152 
C -1.378036 -5.196152 -2.699816 -4.648653 -3.674235 -3.674235 
C -4.648653 -2.699816 -5.196152 -1.378036 -5.196152 0 
C -5.196152 1.378036 -4.648653 2.699816 -3.674235 3.674235 
C -2.699816 4.648653 -1.378036 5.196152 0 5.196152 
z
" style="stroke: #ffffff; stroke-width: 0.8"/>
    </defs>
    <g clip-path="url(#pf4a1a89347)">
     <use xlink:href="#m2991869e9d" x="126.612" y="466.321875" style="fill: #10a37f; stroke: #ffffff; stroke-width: 0.8"/>
    </g>
   </g>
   <g id="PathCollection_4">
    <defs>
     <path id="m11fab5aa46" d="M 0 5.196152 
C 1.378036 5.196152 2.699816 4.648653 3.674235 3.674235 
C 4.648653 2.699816 5.196152 1.378036 5.196152 0 
C 5.196152 -1.378036 4.648653 -2.699816 3.674235 -3.674235 
C 2.699816 -4.648653 1.378036 -5.196152 0 -5.196152 
C -1.378036 -5.196152 -2.699816 -4.648653 -3.674235 -3.674235 
C -4.648653 -2.699816 -5.196152 -1.378036 -5.196152 0 
C -5.196152 1.378036 -4.648653 2.699816 -3.674235 3.674235 
C -2.699816 4.648653 -1.378036 5.196152 0 5.196152 
z
" style="stroke: #ffffff; stroke-width: 0.8"/>
    </defs>
    <g clip-path="url(#pf4a1a89347)">
     <use xlink:href="#m11fab5aa46" x="266.112" y="466.321875" style="fill: #d97757; stroke: #ffffff; stroke-width: 0.8"/>
    </g>
   </g>
   <g id="PathCollection_5">
    <defs>
     <path id="m93aed5b1d0" d="M 0 5.196152 
C 1.378036 5.196152 2.699816 4.648653 3.674235 3.674235 
C 4.648653 2.699816 5.196152 1.378036 5.196152 0 
C 5.196152 -1.378036 4.648653 -2.699816 3.674235 -3.674235 
C 2.699816 -4.648653 1.378036 -5.196152 0 -5.196152 
C -1.378036 -5.196152 -2.699816 -4.648653 -3.674235 -3.674235 
C -4.648653 -2.699816 -5.196152 -1.378036 -5.196152 0 
C -5.196152 1.378036 -4.648653 2.699816 -3.674235 3.674235 
C -2.699816 4.648653 -1.378036 5.196152 0 5.196152 
z
" style="stroke: #ffffff; stroke-width: 0.8"/>
    </defs>
    <g clip-path="url(#pf4a1a89347)">
     <use xlink:href="#m93aed5b1d0" x="405.612" y="466.321875" style="fill: #111827; stroke: #ffffff; stroke-width: 0.8"/>
    </g>
   </g>
   <g id="PathCollection_6">
    <defs>
     <path id="mb030cf3133" d="M 0 5.196152 
C 1.378036 5.196152 2.699816 4.648653 3.674235 3.674235 
C 4.648653 2.699816 5.196152 1.378036 5.196152 0 
C 5.196152 -1.378036 4.648653 -2.699816 3.674235 -3.674235 
C 2.699816 -4.648653 1.378036 -5.196152 0 -5.196152 
C -1.378036 -5.196152 -2.699816 -4.648653 -3.674235 -3.674235 
C -4.648653 -2.699816 -5.196152 -1.378036 -5.196152 0 
C -5.196152 1.378036 -4.648653 2.699816 -3.674235 3.674235 
C -2.699816 4.648653 -1.378036 5.196152 0 5.196152 
z
" style="stroke: #ffffff; stroke-width: 0.8"/>
    </defs>
    <g clip-path="url(#pf4a1a89347)">
     <use xlink:href="#mb030cf3133" x="545.112" y="466.321875" style="fill: #7c3aed; stroke: #ffffff; stroke-width: 0.8"/>
    </g>
   </g>
   <g id="PathCollection_7">
    <defs>
     <path id="m2b3453d5a7" d="M 0 5.196152 
C 1.378036 5.196152 2.699816 4.648653 3.674235 3.674235 
C 4.648653 2.699816 5.196152 1.378036 5.196152 0 
C 5.196152 -1.378036 4.648653 -2.699816 3.674235 -3.674235 
C 2.699816 -4.648653 1.378036 -5.196152 0 -5.196152 
C -1.378036 -5.196152 -2.699816 -4.648653 -3.674235 -3.674235 
C -4.648653 -2.699816 -5.196152 -1.378036 -5.196152 0 
C -5.196152 1.378036 -4.648653 2.699816 -3.674235 3.674235 
C -2.699816 4.648653 -1.378036 5.196152 0 5.196152 
z
" style="stroke: #ffffff; stroke-width: 0.8"/>
    </defs>
    <g clip-path="url(#pf4a1a89347)">
     <use xlink:href="#m2b3453d5a7" x="684.612" y="466.321875" style="fill: #2563eb; stroke: #ffffff; stroke-width: 0.8"/>
    </g>
   </g>
   <g id="PathCollection_8">
    <defs>
     <path id="md86d2c328a" d="M 0 5.196152 
C 1.378036 5.196152 2.699816 4.648653 3.674235 3.674235 
C 4.648653 2.699816 5.196152 1.378036 5.196152 0 
C 5.196152 -1.378036 4.648653 -2.699816 3.674235 -3.674235 
C 2.699816 -4.648653 1.378036 -5.196152 0 -5.196152 
C -1.378036 -5.196152 -2.699816 -4.648653 -3.674235 -3.674235 
C -4.648653 -2.699816 -5.196152 -1.378036 -5.196152 0 
C -5.196152 1.378036 -4.648653 2.699816 -3.674235 3.674235 
C -2.699816 4.648653 -1.378036 5.196152 0 5.196152 
z
" style="stroke: #ffffff; stroke-width: 0.8"/>
    </defs>
    <g clip-path="url(#pf4a1a89347)">
     <use xlink:href="#md86d2c328a" x="824.112" y="466.321875" style="fill: #06b6d4; stroke: #ffffff; stroke-width: 0.8"/>
    </g>
   </g>
   <g id="line2d_77">
    <path d="M 944.64 466.321875 
L 983.7 466.321875 
" clip-path="url(#pf4a1a89347)" style="fill: none; stroke-dasharray: 9.6,4.8; stroke-dashoffset: 0; stroke: #7f7f7f; stroke-width: 1.6"/>
   </g>
   <g id="text_55">
    <!-- OpenAI -->
    <g style="fill: #10a37f" transform="translate(135.54 470.549375) scale(0.16 -0.16)">
     <defs>
      <path id="Helvetica-41" d="M 2844 1881 
L 2147 3909 
L 1406 1881 
L 2844 1881 
z
M 1822 4591 
L 2525 4591 
L 4191 0 
L 3509 0 
L 3044 1375 
L 1228 1375 
L 731 0 
L 94 0 
L 1822 4591 
z
" transform="scale(0.015625)"/>
      <path id="Helvetica-49" d="M 628 4591 
L 1256 4591 
L 1256 0 
L 628 0 
L 628 4591 
z
" transform="scale(0.015625)"/>
     </defs>
     <use xlink:href="#Helvetica-4f"/>
     <use xlink:href="#Helvetica-70" transform="translate(77.783203 0)"/>
     <use xlink:href="#Helvetica-65" transform="translate(133.398438 0)"/>
     <use xlink:href="#Helvetica-6e" transform="translate(189.013672 0)"/>
     <use xlink:href="#Helvetica-41" transform="translate(244.628906 0)"/>
     <use xlink:href="#Helvetica-49" transform="translate(311.328125 0)"/>
    </g>
   </g>
   <g id="text_56">
    <!-- Anthropic -->
    <g style="fill: #d97757" transform="translate(275.04 470.411875) scale(0.16 -0.16)">
     <use xlink:href="#Helvetica-41"/>
     <use xlink:href="#Helvetica-6e" transform="translate(66.699219 0)"/>
     <use xlink:href="#Helvetica-74" transform="translate(122.314453 0)"/>
     <use xlink:href="#Helvetica-68" transform="translate(150.097656 0)"/>
     <use xlink:href="#Helvetica-72" transform="translate(205.712891 0)"/>
     <use xlink:href="#Helvetica-6f" transform="translate(239.013672 0)"/>
     <use xlink:href="#Helvetica-70" transform="translate(294.628906 0)"/>
     <use xlink:href="#Helvetica-69" transform="translate(350.244141 0)"/>
     <use xlink:href="#Helvetica-63" transform="translate(372.460938 0)"/>
    </g>
   </g>
   <g id="text_57">
    <!-- Cursor -->
    <g style="fill: #111827" transform="translate(414.54 470.393125) scale(0.16 -0.16)">
     <use xlink:href="#Helvetica-43"/>
     <use xlink:href="#Helvetica-75" transform="translate(72.216797 0)"/>
     <use xlink:href="#Helvetica-72" transform="translate(127.832031 0)"/>
     <use xlink:href="#Helvetica-73" transform="translate(161.132812 0)"/>
     <use xlink:href="#Helvetica-6f" transform="translate(211.132812 0)"/>
     <use xlink:href="#Helvetica-72" transform="translate(266.748047 0)"/>
    </g>
   </g>
   <g id="text_58">
    <!-- Moonshot -->
    <g style="fill: #7c3aed" transform="translate(554.04 470.393125) scale(0.16 -0.16)">
     <use xlink:href="#Helvetica-4d"/>
     <use xlink:href="#Helvetica-6f" transform="translate(83.300781 0)"/>
     <use xlink:href="#Helvetica-6f" transform="translate(138.916016 0)"/>
     <use xlink:href="#Helvetica-6e" transform="translate(194.53125 0)"/>
     <use xlink:href="#Helvetica-73" transform="translate(250.146484 0)"/>
     <use xlink:href="#Helvetica-68" transform="translate(300.146484 0)"/>
     <use xlink:href="#Helvetica-6f" transform="translate(355.761719 0)"/>
     <use xlink:href="#Helvetica-74" transform="translate(411.376953 0)"/>
    </g>
   </g>
   <g id="text_59">
    <!-- MiniMax -->
    <g style="fill: #2563eb" transform="translate(693.54 470.393125) scale(0.16 -0.16)">
     <use xlink:href="#Helvetica-4d"/>
     <use xlink:href="#Helvetica-69" transform="translate(83.300781 0)"/>
     <use xlink:href="#Helvetica-6e" transform="translate(105.517578 0)"/>
     <use xlink:href="#Helvetica-69" transform="translate(161.132812 0)"/>
     <use xlink:href="#Helvetica-4d" transform="translate(183.349609 0)"/>
     <use xlink:href="#Helvetica-61" transform="translate(266.650391 0)"/>
     <use xlink:href="#Helvetica-78" transform="translate(322.265625 0)"/>
    </g>
   </g>
   <g id="text_60">
    <!-- Zhipu -->
    <g style="fill: #06b6d4" transform="translate(833.04 470.411875) scale(0.16 -0.16)">
     <defs>
      <path id="Helvetica-5a" d="M 147 516 
L 2963 4044 
L 353 4044 
L 353 4591 
L 3763 4591 
L 3763 4056 
L 931 547 
L 3763 547 
L 3763 0 
L 147 0 
L 147 516 
z
M 2059 4591 
L 2059 4591 
z
" transform="scale(0.015625)"/>
     </defs>
     <use xlink:href="#Helvetica-5a"/>
     <use xlink:href="#Helvetica-68" transform="translate(61.083984 0)"/>
     <use xlink:href="#Helvetica-69" transform="translate(116.699219 0)"/>
     <use xlink:href="#Helvetica-70" transform="translate(138.916016 0)"/>
     <use xlink:href="#Helvetica-75" transform="translate(194.53125 0)"/>
    </g>
   </g>
   <g id="text_61">
    <!-- Pareto optimal -->
    <g transform="translate(992.628 470.393125) scale(0.16 -0.16)">
     <use xlink:href="#Helvetica-50"/>
     <use xlink:href="#Helvetica-61" transform="translate(66.699219 0)"/>
     <use xlink:href="#Helvetica-72" transform="translate(122.314453 0)"/>
     <use xlink:href="#Helvetica-65" transform="translate(155.615234 0)"/>
     <use xlink:href="#Helvetica-74" transform="translate(211.230469 0)"/>
     <use xlink:href="#Helvetica-6f" transform="translate(239.013672 0)"/>
     <use xlink:href="#Helvetica-20" transform="translate(294.628906 0)"/>
     <use xlink:href="#Helvetica-6f" transform="translate(322.412109 0)"/>
     <use xlink:href="#Helvetica-70" transform="translate(378.027344 0)"/>
     <use xlink:href="#Helvetica-74" transform="translate(433.642578 0)"/>
     <use xlink:href="#Helvetica-69" transform="translate(461.425781 0)"/>
     <use xlink:href="#Helvetica-6d" transform="translate(483.642578 0)"/>
     <use xlink:href="#Helvetica-61" transform="translate(566.943359 0)"/>
     <use xlink:href="#Helvetica-6c" transform="translate(622.558594 0)"/>
    </g>
   </g>
  </g>
 </g>
 <defs>
  <clipPath id="pbcc56bf58b">
   <rect x="62.759375" y="40.621875" width="497.040625" height="330.58"/>
  </clipPath>
  <clipPath id="p3364bea387">
   <rect x="615.359375" y="40.621875" width="497.040625" height="330.58"/>
  </clipPath>
  <clipPath id="pf4a1a89347">
   <rect x="7.2" y="447.421875" width="1116" height="37.8"/>
  </clipPath>
 </defs>
</svg>
