<?xml version="1.0" encoding="utf-8" standalone="no"?>
<!DOCTYPE svg PUBLIC "-//W3C//DTD SVG 1.1//EN"
  "http://www.w3.org/Graphics/SVG/1.1/DTD/svg11.dtd">
<svg xmlns:xlink="http://www.w3.org/1999/xlink" width="924.141457pt" height="248.254281pt" viewBox="0 0 924.141457 248.254281" xmlns="http://www.w3.org/2000/svg" version="1.1">
 <metadata>
  <rdf:RDF xmlns:dc="http://purl.org/dc/elements/1.1/" xmlns:cc="http://creativecommons.org/ns#" xmlns:rdf="http://www.w3.org/1999/02/22-rdf-syntax-ns#">
   <cc:Work>
    <dc:type rdf:resource="http://purl.org/dc/dcmitype/StillImage"/>
    <dc:date>2026-04-27T11:09:52.885287</dc:date>
    <dc:format>image/svg+xml</dc:format>
    <dc:creator>
     <cc:Agent>
      <dc:title>Matplotlib v3.10.8, https://matplotlib.org/</dc:title>
     </cc:Agent>
    </dc:creator>
   </cc:Work>
  </rdf:RDF>
 </metadata>
 <defs>
  <style type="text/css">*{stroke-linejoin: round; stroke-linecap: butt}</style>
 </defs>
 <g id="figure_1">
  <g id="patch_1">
   <path d="M 0 248.254281 
L 924.141457 248.254281 
L 924.141457 0 
L 0 0 
z
" style="fill: #ffffff"/>
  </g>
  <g id="axes_1">
   <g id="patch_2">
    <path d="M 28.512812 202.478281 
L 218.788957 202.478281 
L 218.788957 21.558281 
L 28.512812 21.558281 
z
" style="fill: #ffffff"/>
   </g>
   <g id="matplotlib.axis_1">
    <g id="xtick_1">
     <g id="line2d_1">
      <defs>
       <path id="m77fcad6d3f" d="M 0 0 
L 0 3.5 
" style="stroke: #000000; stroke-width: 0.8"/>
      </defs>
      <g>
       <use xlink:href="#m77fcad6d3f" x="35.974622" y="202.478281" style="stroke: #000000; stroke-width: 0.8"/>
      </g>
     </g>
     <g id="text_1">
      <!-- Start -->
      <g transform="translate(24.981966 216.316875) scale(0.09 -0.09)">
       <defs>
        <path id="DejaVuSans-53" d="M 3425 4513 
L 3425 3897 
Q 3066 4069 2747 4153 
Q 2428 4238 2131 4238 
Q 1616 4238 1336 4038 
Q 1056 3838 1056 3469 
Q 1056 3159 1242 3001 
Q 1428 2844 1947 2747 
L 2328 2669 
Q 3034 2534 3370 2195 
Q 3706 1856 3706 1288 
Q 3706 609 3251 259 
Q 2797 -91 1919 -91 
Q 1588 -91 1214 -16 
Q 841 59 441 206 
L 441 856 
Q 825 641 1194 531 
Q 1563 422 1919 422 
Q 2459 422 2753 634 
Q 3047 847 3047 1241 
Q 3047 1584 2836 1778 
Q 2625 1972 2144 2069 
L 1759 2144 
Q 1053 2284 737 2584 
Q 422 2884 422 3419 
Q 422 4038 858 4394 
Q 1294 4750 2059 4750 
Q 2388 4750 2728 4690 
Q 3069 4631 3425 4513 
z
" transform="scale(0.015625)"/>
        <path id="DejaVuSans-74" d="M 1172 4494 
L 1172 3500 
L 2356 3500 
L 2356 3053 
L 1172 3053 
L 1172 1153 
Q 1172 725 1289 603 
Q 1406 481 1766 481 
L 2356 481 
L 2356 0 
L 1766 0 
Q 1100 0 847 248 
Q 594 497 594 1153 
L 594 3053 
L 172 3053 
L 172 3500 
L 594 3500 
L 594 4494 
L 1172 4494 
z
" transform="scale(0.015625)"/>
        <path id="DejaVuSans-61" d="M 2194 1759 
Q 1497 1759 1228 1600 
Q 959 1441 959 1056 
Q 959 750 1161 570 
Q 1363 391 1709 391 
Q 2188 391 2477 730 
Q 2766 1069 2766 1631 
L 2766 1759 
L 2194 1759 
z
M 3341 1997 
L 3341 0 
L 2766 0 
L 2766 531 
Q 2569 213 2275 61 
Q 1981 -91 1556 -91 
Q 1019 -91 701 211 
Q 384 513 384 1019 
Q 384 1609 779 1909 
Q 1175 2209 1959 2209 
L 2766 2209 
L 2766 2266 
Q 2766 2663 2505 2880 
Q 2244 3097 1772 3097 
Q 1472 3097 1187 3025 
Q 903 2953 641 2809 
L 641 3341 
Q 956 3463 1253 3523 
Q 1550 3584 1831 3584 
Q 2591 3584 2966 3190 
Q 3341 2797 3341 1997 
z
" transform="scale(0.015625)"/>
        <path id="DejaVuSans-72" d="M 2631 2963 
Q 2534 3019 2420 3045 
Q 2306 3072 2169 3072 
Q 1681 3072 1420 2755 
Q 1159 2438 1159 1844 
L 1159 0 
L 581 0 
L 581 3500 
L 1159 3500 
L 1159 2956 
Q 1341 3275 1631 3429 
Q 1922 3584 2338 3584 
Q 2397 3584 2469 3576 
Q 2541 3569 2628 3553 
L 2631 2963 
z
" transform="scale(0.015625)"/>
       </defs>
       <use xlink:href="#DejaVuSans-53"/>
       <use xlink:href="#DejaVuSans-74" transform="translate(63.476562 0)"/>
       <use xlink:href="#DejaVuSans-61" transform="translate(102.685547 0)"/>
       <use xlink:href="#DejaVuSans-72" transform="translate(163.964844 0)"/>
       <use xlink:href="#DejaVuSans-74" transform="translate(205.078125 0)"/>
      </g>
     </g>
    </g>
    <g id="xtick_2">
     <g id="line2d_2">
      <g>
       <use xlink:href="#m77fcad6d3f" x="73.28367" y="202.478281" style="stroke: #000000; stroke-width: 0.8"/>
      </g>
     </g>
     <g id="text_2">
      <!-- Early -->
      <g transform="translate(61.919061 216.316875) scale(0.09 -0.09)">
       <defs>
        <path id="DejaVuSans-45" d="M 628 4666 
L 3578 4666 
L 3578 4134 
L 1259 4134 
L 1259 2753 
L 3481 2753 
L 3481 2222 
L 1259 2222 
L 1259 531 
L 3634 531 
L 3634 0 
L 628 0 
L 628 4666 
z
" transform="scale(0.015625)"/>
        <path id="DejaVuSans-6c" d="M 603 4863 
L 1178 4863 
L 1178 0 
L 603 0 
L 603 4863 
z
" transform="scale(0.015625)"/>
        <path id="DejaVuSans-79" d="M 2059 -325 
Q 1816 -950 1584 -1140 
Q 1353 -1331 966 -1331 
L 506 -1331 
L 506 -850 
L 844 -850 
Q 1081 -850 1212 -737 
Q 1344 -625 1503 -206 
L 1606 56 
L 191 3500 
L 800 3500 
L 1894 763 
L 2988 3500 
L 3597 3500 
L 2059 -325 
z
" transform="scale(0.015625)"/>
       </defs>
       <use xlink:href="#DejaVuSans-45"/>
       <use xlink:href="#DejaVuSans-61" transform="translate(63.183594 0)"/>
       <use xlink:href="#DejaVuSans-72" transform="translate(124.462891 0)"/>
       <use xlink:href="#DejaVuSans-6c" transform="translate(165.576172 0)"/>
       <use xlink:href="#DejaVuSans-79" transform="translate(193.359375 0)"/>
      </g>
     </g>
    </g>
    <g id="xtick_3">
     <g id="line2d_3">
      <g>
       <use xlink:href="#m77fcad6d3f" x="110.592718" y="202.478281" style="stroke: #000000; stroke-width: 0.8"/>
      </g>
     </g>
     <g id="text_3">
      <!-- Mid -->
      <g transform="translate(102.603109 216.316875) scale(0.09 -0.09)">
       <defs>
        <path id="DejaVuSans-4d" d="M 628 4666 
L 1569 4666 
L 2759 1491 
L 3956 4666 
L 4897 4666 
L 4897 0 
L 4281 0 
L 4281 4097 
L 3078 897 
L 2444 897 
L 1241 4097 
L 1241 0 
L 628 0 
L 628 4666 
z
" transform="scale(0.015625)"/>
        <path id="DejaVuSans-69" d="M 603 3500 
L 1178 3500 
L 1178 0 
L 603 0 
L 603 3500 
z
M 603 4863 
L 1178 4863 
L 1178 4134 
L 603 4134 
L 603 4863 
z
" transform="scale(0.015625)"/>
        <path id="DejaVuSans-64" d="M 2906 2969 
L 2906 4863 
L 3481 4863 
L 3481 0 
L 2906 0 
L 2906 525 
Q 2725 213 2448 61 
Q 2172 -91 1784 -91 
Q 1150 -91 751 415 
Q 353 922 353 1747 
Q 353 2572 751 3078 
Q 1150 3584 1784 3584 
Q 2172 3584 2448 3432 
Q 2725 3281 2906 2969 
z
M 947 1747 
Q 947 1113 1208 752 
Q 1469 391 1925 391 
Q 2381 391 2643 752 
Q 2906 1113 2906 1747 
Q 2906 2381 2643 2742 
Q 2381 3103 1925 3103 
Q 1469 3103 1208 2742 
Q 947 2381 947 1747 
z
" transform="scale(0.015625)"/>
       </defs>
       <use xlink:href="#DejaVuSans-4d"/>
       <use xlink:href="#DejaVuSans-69" transform="translate(86.279297 0)"/>
       <use xlink:href="#DejaVuSans-64" transform="translate(114.0625 0)"/>
      </g>
     </g>
    </g>
    <g id="xtick_4">
     <g id="line2d_4">
      <g>
       <use xlink:href="#m77fcad6d3f" x="147.901766" y="202.478281" style="stroke: #000000; stroke-width: 0.8"/>
      </g>
     </g>
     <g id="text_4">
      <!-- Late -->
      <g transform="translate(138.103719 216.316875) scale(0.09 -0.09)">
       <defs>
        <path id="DejaVuSans-4c" d="M 628 4666 
L 1259 4666 
L 1259 531 
L 3531 531 
L 3531 0 
L 628 0 
L 628 4666 
z
" transform="scale(0.015625)"/>
        <path id="DejaVuSans-65" d="M 3597 1894 
L 3597 1613 
L 953 1613 
Q 991 1019 1311 708 
Q 1631 397 2203 397 
Q 2534 397 2845 478 
Q 3156 559 3463 722 
L 3463 178 
Q 3153 47 2828 -22 
Q 2503 -91 2169 -91 
Q 1331 -91 842 396 
Q 353 884 353 1716 
Q 353 2575 817 3079 
Q 1281 3584 2069 3584 
Q 2775 3584 3186 3129 
Q 3597 2675 3597 1894 
z
M 3022 2063 
Q 3016 2534 2758 2815 
Q 2500 3097 2075 3097 
Q 1594 3097 1305 2825 
Q 1016 2553 972 2059 
L 3022 2063 
z
" transform="scale(0.015625)"/>
       </defs>
       <use xlink:href="#DejaVuSans-4c"/>
       <use xlink:href="#DejaVuSans-61" transform="translate(55.712891 0)"/>
       <use xlink:href="#DejaVuSans-74" transform="translate(116.992188 0)"/>
       <use xlink:href="#DejaVuSans-65" transform="translate(156.201172 0)"/>
      </g>
     </g>
    </g>
    <g id="xtick_5">
     <g id="line2d_5">
      <g>
       <use xlink:href="#m77fcad6d3f" x="185.210814" y="202.478281" style="stroke: #000000; stroke-width: 0.8"/>
      </g>
     </g>
     <g id="text_5">
      <!-- Final -->
      <g transform="translate(174.839017 216.316875) scale(0.09 -0.09)">
       <defs>
        <path id="DejaVuSans-46" d="M 628 4666 
L 3309 4666 
L 3309 4134 
L 1259 4134 
L 1259 2759 
L 3109 2759 
L 3109 2228 
L 1259 2228 
L 1259 0 
L 628 0 
L 628 4666 
z
" transform="scale(0.015625)"/>
        <path id="DejaVuSans-6e" d="M 3513 2113 
L 3513 0 
L 2938 0 
L 2938 2094 
Q 2938 2591 2744 2837 
Q 2550 3084 2163 3084 
Q 1697 3084 1428 2787 
Q 1159 2491 1159 1978 
L 1159 0 
L 581 0 
L 581 3500 
L 1159 3500 
L 1159 2956 
Q 1366 3272 1645 3428 
Q 1925 3584 2291 3584 
Q 2894 3584 3203 3211 
Q 3513 2838 3513 2113 
z
" transform="scale(0.015625)"/>
       </defs>
       <use xlink:href="#DejaVuSans-46"/>
       <use xlink:href="#DejaVuSans-69" transform="translate(50.269531 0)"/>
       <use xlink:href="#DejaVuSans-6e" transform="translate(78.052734 0)"/>
       <use xlink:href="#DejaVuSans-61" transform="translate(141.431641 0)"/>
       <use xlink:href="#DejaVuSans-6c" transform="translate(202.710938 0)"/>
      </g>
     </g>
    </g>
   </g>
   <g id="matplotlib.axis_2">
    <g id="ytick_1">
     <g id="line2d_6">
      <path d="M 28.512812 179.388663 
L 218.788957 179.388663 
" clip-path="url(#pe47bf9b975)" style="fill: none; stroke: #cccccc; stroke-width: 0.5; stroke-linecap: square"/>
     </g>
     <g id="line2d_7">
      <defs>
       <path id="m3d664e6870" d="M 0 0 
L -3.5 0 
" style="stroke: #000000; stroke-width: 0.8"/>
      </defs>
      <g>
       <use xlink:href="#m3d664e6870" x="28.512812" y="179.388663" style="stroke: #000000; stroke-width: 0.8"/>
      </g>
     </g>
     <g id="text_6">
      <!-- 0.2 -->
      <g transform="translate(7.2 182.80796) scale(0.09 -0.09)">
       <defs>
        <path id="DejaVuSans-30" d="M 2034 4250 
Q 1547 4250 1301 3770 
Q 1056 3291 1056 2328 
Q 1056 1369 1301 889 
Q 1547 409 2034 409 
Q 2525 409 2770 889 
Q 3016 1369 3016 2328 
Q 3016 3291 2770 3770 
Q 2525 4250 2034 4250 
z
M 2034 4750 
Q 2819 4750 3233 4129 
Q 3647 3509 3647 2328 
Q 3647 1150 3233 529 
Q 2819 -91 2034 -91 
Q 1250 -91 836 529 
Q 422 1150 422 2328 
Q 422 3509 836 4129 
Q 1250 4750 2034 4750 
z
" transform="scale(0.015625)"/>
        <path id="DejaVuSans-2e" d="M 684 794 
L 1344 794 
L 1344 0 
L 684 0 
L 684 794 
z
" transform="scale(0.015625)"/>
        <path id="DejaVuSans-32" d="M 1228 531 
L 3431 531 
L 3431 0 
L 469 0 
L 469 531 
Q 828 903 1448 1529 
Q 2069 2156 2228 2338 
Q 2531 2678 2651 2914 
Q 2772 3150 2772 3378 
Q 2772 3750 2511 3984 
Q 2250 4219 1831 4219 
Q 1534 4219 1204 4116 
Q 875 4013 500 3803 
L 500 4441 
Q 881 4594 1212 4672 
Q 1544 4750 1819 4750 
Q 2544 4750 2975 4387 
Q 3406 4025 3406 3419 
Q 3406 3131 3298 2873 
Q 3191 2616 2906 2266 
Q 2828 2175 2409 1742 
Q 1991 1309 1228 531 
z
" transform="scale(0.015625)"/>
       </defs>
       <use xlink:href="#DejaVuSans-30"/>
       <use xlink:href="#DejaVuSans-2e" transform="translate(63.623047 0)"/>
       <use xlink:href="#DejaVuSans-32" transform="translate(95.410156 0)"/>
      </g>
     </g>
    </g>
    <g id="ytick_2">
     <g id="line2d_8">
      <path d="M 28.512812 149.418148 
L 218.788957 149.418148 
" clip-path="url(#pe47bf9b975)" style="fill: none; stroke: #cccccc; stroke-width: 0.5; stroke-linecap: square"/>
     </g>
     <g id="line2d_9">
      <g>
       <use xlink:href="#m3d664e6870" x="28.512812" y="149.418148" style="stroke: #000000; stroke-width: 0.8"/>
      </g>
     </g>
     <g id="text_7">
      <!-- 0.3 -->
      <g transform="translate(7.2 152.837445) scale(0.09 -0.09)">
       <defs>
        <path id="DejaVuSans-33" d="M 2597 2516 
Q 3050 2419 3304 2112 
Q 3559 1806 3559 1356 
Q 3559 666 3084 287 
Q 2609 -91 1734 -91 
Q 1441 -91 1130 -33 
Q 819 25 488 141 
L 488 750 
Q 750 597 1062 519 
Q 1375 441 1716 441 
Q 2309 441 2620 675 
Q 2931 909 2931 1356 
Q 2931 1769 2642 2001 
Q 2353 2234 1838 2234 
L 1294 2234 
L 1294 2753 
L 1863 2753 
Q 2328 2753 2575 2939 
Q 2822 3125 2822 3475 
Q 2822 3834 2567 4026 
Q 2313 4219 1838 4219 
Q 1578 4219 1281 4162 
Q 984 4106 628 3988 
L 628 4550 
Q 988 4650 1302 4700 
Q 1616 4750 1894 4750 
Q 2613 4750 3031 4423 
Q 3450 4097 3450 3541 
Q 3450 3153 3228 2886 
Q 3006 2619 2597 2516 
z
" transform="scale(0.015625)"/>
       </defs>
       <use xlink:href="#DejaVuSans-30"/>
       <use xlink:href="#DejaVuSans-2e" transform="translate(63.623047 0)"/>
       <use xlink:href="#DejaVuSans-33" transform="translate(95.410156 0)"/>
      </g>
     </g>
    </g>
    <g id="ytick_3">
     <g id="line2d_10">
      <path d="M 28.512812 119.447633 
L 218.788957 119.447633 
" clip-path="url(#pe47bf9b975)" style="fill: none; stroke: #cccccc; stroke-width: 0.5; stroke-linecap: square"/>
     </g>
     <g id="line2d_11">
      <g>
       <use xlink:href="#m3d664e6870" x="28.512812" y="119.447633" style="stroke: #000000; stroke-width: 0.8"/>
      </g>
     </g>
     <g id="text_8">
      <!-- 0.4 -->
      <g transform="translate(7.2 122.86693) scale(0.09 -0.09)">
       <defs>
        <path id="DejaVuSans-34" d="M 2419 4116 
L 825 1625 
L 2419 1625 
L 2419 4116 
z
M 2253 4666 
L 3047 4666 
L 3047 1625 
L 3713 1625 
L 3713 1100 
L 3047 1100 
L 3047 0 
L 2419 0 
L 2419 1100 
L 313 1100 
L 313 1709 
L 2253 4666 
z
" transform="scale(0.015625)"/>
       </defs>
       <use xlink:href="#DejaVuSans-30"/>
       <use xlink:href="#DejaVuSans-2e" transform="translate(63.623047 0)"/>
       <use xlink:href="#DejaVuSans-34" transform="translate(95.410156 0)"/>
      </g>
     </g>
    </g>
    <g id="ytick_4">
     <g id="line2d_12">
      <path d="M 28.512812 89.477117 
L 218.788957 89.477117 
" clip-path="url(#pe47bf9b975)" style="fill: none; stroke: #cccccc; stroke-width: 0.5; stroke-linecap: square"/>
     </g>
     <g id="line2d_13">
      <g>
       <use xlink:href="#m3d664e6870" x="28.512812" y="89.477117" style="stroke: #000000; stroke-width: 0.8"/>
      </g>
     </g>
     <g id="text_9">
      <!-- 0.5 -->
      <g transform="translate(7.2 92.896414) scale(0.09 -0.09)">
       <defs>
        <path id="DejaVuSans-35" d="M 691 4666 
L 3169 4666 
L 3169 4134 
L 1269 4134 
L 1269 2991 
Q 1406 3038 1543 3061 
Q 1681 3084 1819 3084 
Q 2600 3084 3056 2656 
Q 3513 2228 3513 1497 
Q 3513 744 3044 326 
Q 2575 -91 1722 -91 
Q 1428 -91 1123 -41 
Q 819 9 494 109 
L 494 744 
Q 775 591 1075 516 
Q 1375 441 1709 441 
Q 2250 441 2565 725 
Q 2881 1009 2881 1497 
Q 2881 1984 2565 2268 
Q 2250 2553 1709 2553 
Q 1456 2553 1204 2497 
Q 953 2441 691 2322 
L 691 4666 
z
" transform="scale(0.015625)"/>
       </defs>
       <use xlink:href="#DejaVuSans-30"/>
       <use xlink:href="#DejaVuSans-2e" transform="translate(63.623047 0)"/>
       <use xlink:href="#DejaVuSans-35" transform="translate(95.410156 0)"/>
      </g>
     </g>
    </g>
    <g id="ytick_5">
     <g id="line2d_14">
      <path d="M 28.512812 59.506602 
L 218.788957 59.506602 
" clip-path="url(#pe47bf9b975)" style="fill: none; stroke: #cccccc; stroke-width: 0.5; stroke-linecap: square"/>
     </g>
     <g id="line2d_15">
      <g>
       <use xlink:href="#m3d664e6870" x="28.512812" y="59.506602" style="stroke: #000000; stroke-width: 0.8"/>
      </g>
     </g>
     <g id="text_10">
      <!-- 0.6 -->
      <g transform="translate(7.2 62.925899) scale(0.09 -0.09)">
       <defs>
        <path id="DejaVuSans-36" d="M 2113 2584 
Q 1688 2584 1439 2293 
Q 1191 2003 1191 1497 
Q 1191 994 1439 701 
Q 1688 409 2113 409 
Q 2538 409 2786 701 
Q 3034 994 3034 1497 
Q 3034 2003 2786 2293 
Q 2538 2584 2113 2584 
z
M 3366 4563 
L 3366 3988 
Q 3128 4100 2886 4159 
Q 2644 4219 2406 4219 
Q 1781 4219 1451 3797 
Q 1122 3375 1075 2522 
Q 1259 2794 1537 2939 
Q 1816 3084 2150 3084 
Q 2853 3084 3261 2657 
Q 3669 2231 3669 1497 
Q 3669 778 3244 343 
Q 2819 -91 2113 -91 
Q 1303 -91 875 529 
Q 447 1150 447 2328 
Q 447 3434 972 4092 
Q 1497 4750 2381 4750 
Q 2619 4750 2861 4703 
Q 3103 4656 3366 4563 
z
" transform="scale(0.015625)"/>
       </defs>
       <use xlink:href="#DejaVuSans-30"/>
       <use xlink:href="#DejaVuSans-2e" transform="translate(63.623047 0)"/>
       <use xlink:href="#DejaVuSans-36" transform="translate(95.410156 0)"/>
      </g>
     </g>
    </g>
    <g id="ytick_6">
     <g id="line2d_16">
      <path d="M 28.512812 29.536087 
L 218.788957 29.536087 
" clip-path="url(#pe47bf9b975)" style="fill: none; stroke: #cccccc; stroke-width: 0.5; stroke-linecap: square"/>
     </g>
     <g id="line2d_17">
      <g>
       <use xlink:href="#m3d664e6870" x="28.512812" y="29.536087" style="stroke: #000000; stroke-width: 0.8"/>
      </g>
     </g>
     <g id="text_11">
      <!-- 0.7 -->
      <g transform="translate(7.2 32.955384) scale(0.09 -0.09)">
       <defs>
        <path id="DejaVuSans-37" d="M 525 4666 
L 3525 4666 
L 3525 4397 
L 1831 0 
L 1172 0 
L 2766 4134 
L 525 4134 
L 525 4666 
z
" transform="scale(0.015625)"/>
       </defs>
       <use xlink:href="#DejaVuSans-30"/>
       <use xlink:href="#DejaVuSans-2e" transform="translate(63.623047 0)"/>
       <use xlink:href="#DejaVuSans-37" transform="translate(95.410156 0)"/>
      </g>
     </g>
    </g>
   </g>
   <g id="FillBetweenPolyCollection_1">
    <defs>
     <path id="m12fbc3303c" d="M 35.974622 -179.426321 
L 35.974622 -128.348637 
L 73.28367 -149.676005 
L 110.592718 -162.764649 
L 147.901766 -164.771397 
L 185.210814 -174.887418 
L 185.210814 -218.472364 
L 185.210814 -218.472364 
L 147.901766 -208.087604 
L 110.592718 -203.041953 
L 73.28367 -197.716837 
L 35.974622 -179.426321 
z
"/>
    </defs>
    <g clip-path="url(#pe47bf9b975)">
     <use xlink:href="#m12fbc3303c" x="0" y="248.254281" style="fill: #08519c; fill-opacity: 0.15"/>
    </g>
   </g>
   <g id="FillBetweenPolyCollection_2">
    <defs>
     <path id="m8064173570" d="M 35.974622 -114.846044 
L 35.974622 -53.999636 
L 73.28367 -68.185381 
L 110.592718 -71.9617 
L 147.901766 -77.083784 
L 185.210814 -86.577788 
L 185.210814 -152.736579 
L 185.210814 -152.736579 
L 147.901766 -136.164916 
L 110.592718 -141.683012 
L 73.28367 -132.708313 
L 35.974622 -114.846044 
z
"/>
    </defs>
    <g clip-path="url(#pe47bf9b975)">
     <use xlink:href="#m8064173570" x="0" y="248.254281" style="fill: #e6550d; fill-opacity: 0.15"/>
    </g>
   </g>
   <g id="FillBetweenPolyCollection_3">
    <defs>
     <path id="mc1806f7da0" d="M 35.974622 -137.738255 
L 35.974622 -68.652284 
L 73.28367 -91.503661 
L 110.592718 -101.989041 
L 147.901766 -95.2984 
L 185.210814 -112.249309 
L 185.210814 -196.917227 
L 185.210814 -196.917227 
L 147.901766 -182.867503 
L 110.592718 -183.268045 
L 73.28367 -161.028547 
L 35.974622 -137.738255 
z
"/>
    </defs>
    <g clip-path="url(#pe47bf9b975)">
     <use xlink:href="#mc1806f7da0" x="0" y="248.254281" style="fill: #56a358; fill-opacity: 0.15"/>
    </g>
   </g>
   <g id="patch_3">
    <path d="M 28.512812 202.478281 
L 28.512812 21.558281 
" style="fill: none; stroke: #000000; stroke-width: 0.8; stroke-linejoin: miter; stroke-linecap: square"/>
   </g>
   <g id="patch_4">
    <path d="M 218.788957 202.478281 
L 218.788957 21.558281 
" style="fill: none; stroke: #000000; stroke-width: 0.8; stroke-linejoin: miter; stroke-linecap: square"/>
   </g>
   <g id="patch_5">
    <path d="M 28.512813 202.478281 
L 218.788957 202.478281 
" style="fill: none; stroke: #000000; stroke-width: 0.8; stroke-linejoin: miter; stroke-linecap: square"/>
   </g>
   <g id="patch_6">
    <path d="M 28.512813 21.558281 
L 218.788957 21.558281 
" style="fill: none; stroke: #000000; stroke-width: 0.8; stroke-linejoin: miter; stroke-linecap: square"/>
   </g>
   <g id="text_12">
    <!-- +0.13 -->
    <g style="fill: #08519c" transform="translate(191.210814 61.033505) scale(0.08 -0.08)">
     <defs>
      <path id="DejaVuSans-Bold-2b" d="M 3053 4013 
L 3053 2375 
L 4684 2375 
L 4684 1638 
L 3053 1638 
L 3053 0 
L 2309 0 
L 2309 1638 
L 678 1638 
L 678 2375 
L 2309 2375 
L 2309 4013 
L 3053 4013 
z
" transform="scale(0.015625)"/>
      <path id="DejaVuSans-Bold-30" d="M 2944 2338 
Q 2944 3213 2780 3570 
Q 2616 3928 2228 3928 
Q 1841 3928 1675 3570 
Q 1509 3213 1509 2338 
Q 1509 1453 1675 1090 
Q 1841 728 2228 728 
Q 2613 728 2778 1090 
Q 2944 1453 2944 2338 
z
M 4147 2328 
Q 4147 1169 3647 539 
Q 3147 -91 2228 -91 
Q 1306 -91 806 539 
Q 306 1169 306 2328 
Q 306 3491 806 4120 
Q 1306 4750 2228 4750 
Q 3147 4750 3647 4120 
Q 4147 3491 4147 2328 
z
" transform="scale(0.015625)"/>
      <path id="DejaVuSans-Bold-2e" d="M 653 1209 
L 1778 1209 
L 1778 0 
L 653 0 
L 653 1209 
z
" transform="scale(0.015625)"/>
      <path id="DejaVuSans-Bold-31" d="M 750 831 
L 1813 831 
L 1813 3847 
L 722 3622 
L 722 4441 
L 1806 4666 
L 2950 4666 
L 2950 831 
L 4013 831 
L 4013 0 
L 750 0 
L 750 831 
z
" transform="scale(0.015625)"/>
      <path id="DejaVuSans-Bold-33" d="M 2981 2516 
Q 3453 2394 3698 2092 
Q 3944 1791 3944 1325 
Q 3944 631 3412 270 
Q 2881 -91 1863 -91 
Q 1503 -91 1142 -33 
Q 781 25 428 141 
L 428 1069 
Q 766 900 1098 814 
Q 1431 728 1753 728 
Q 2231 728 2486 893 
Q 2741 1059 2741 1369 
Q 2741 1688 2480 1852 
Q 2219 2016 1709 2016 
L 1228 2016 
L 1228 2791 
L 1734 2791 
Q 2188 2791 2409 2933 
Q 2631 3075 2631 3366 
Q 2631 3634 2415 3781 
Q 2200 3928 1806 3928 
Q 1516 3928 1219 3862 
Q 922 3797 628 3669 
L 628 4550 
Q 984 4650 1334 4700 
Q 1684 4750 2022 4750 
Q 2931 4750 3382 4451 
Q 3834 4153 3834 3553 
Q 3834 3144 3618 2883 
Q 3403 2622 2981 2516 
z
" transform="scale(0.015625)"/>
     </defs>
     <use xlink:href="#DejaVuSans-Bold-2b"/>
     <use xlink:href="#DejaVuSans-Bold-30" transform="translate(83.789062 0)"/>
     <use xlink:href="#DejaVuSans-Bold-2e" transform="translate(153.369141 0)"/>
     <use xlink:href="#DejaVuSans-Bold-31" transform="translate(191.357422 0)"/>
     <use xlink:href="#DejaVuSans-Bold-33" transform="translate(260.9375 0)"/>
    </g>
   </g>
   <g id="text_13">
    <!-- +0.10 -->
    <g style="fill: #e6550d" transform="translate(191.210814 136.196536) scale(0.08 -0.08)">
     <use xlink:href="#DejaVuSans-Bold-2b"/>
     <use xlink:href="#DejaVuSans-Bold-30" transform="translate(83.789062 0)"/>
     <use xlink:href="#DejaVuSans-Bold-2e" transform="translate(153.369141 0)"/>
     <use xlink:href="#DejaVuSans-Bold-31" transform="translate(191.357422 0)"/>
     <use xlink:href="#DejaVuSans-Bold-30" transform="translate(260.9375 0)"/>
    </g>
   </g>
   <g id="text_14">
    <!-- +0.14 -->
    <g style="fill: #56a358" transform="translate(191.210814 100.444097) scale(0.08 -0.08)">
     <defs>
      <path id="DejaVuSans-Bold-34" d="M 2356 3675 
L 1038 1722 
L 2356 1722 
L 2356 3675 
z
M 2156 4666 
L 3494 4666 
L 3494 1722 
L 4159 1722 
L 4159 850 
L 3494 850 
L 3494 0 
L 2356 0 
L 2356 850 
L 288 850 
L 288 1881 
L 2156 4666 
z
" transform="scale(0.015625)"/>
     </defs>
     <use xlink:href="#DejaVuSans-Bold-2b"/>
     <use xlink:href="#DejaVuSans-Bold-30" transform="translate(83.789062 0)"/>
     <use xlink:href="#DejaVuSans-Bold-2e" transform="translate(153.369141 0)"/>
     <use xlink:href="#DejaVuSans-Bold-31" transform="translate(191.357422 0)"/>
     <use xlink:href="#DejaVuSans-Bold-34" transform="translate(260.9375 0)"/>
    </g>
   </g>
   <g id="text_15">
    <!-- Structural Erosion -->
    <g transform="translate(67.304244 15.558281) scale(0.11 -0.11)">
     <defs>
      <path id="DejaVuSans-Bold-53" d="M 3834 4519 
L 3834 3531 
Q 3450 3703 3084 3790 
Q 2719 3878 2394 3878 
Q 1963 3878 1756 3759 
Q 1550 3641 1550 3391 
Q 1550 3203 1689 3098 
Q 1828 2994 2194 2919 
L 2706 2816 
Q 3484 2659 3812 2340 
Q 4141 2022 4141 1434 
Q 4141 663 3683 286 
Q 3225 -91 2284 -91 
Q 1841 -91 1394 -6 
Q 947 78 500 244 
L 500 1259 
Q 947 1022 1364 901 
Q 1781 781 2169 781 
Q 2563 781 2772 912 
Q 2981 1044 2981 1288 
Q 2981 1506 2839 1625 
Q 2697 1744 2272 1838 
L 1806 1941 
Q 1106 2091 782 2419 
Q 459 2747 459 3303 
Q 459 4000 909 4375 
Q 1359 4750 2203 4750 
Q 2588 4750 2994 4692 
Q 3400 4634 3834 4519 
z
" transform="scale(0.015625)"/>
      <path id="DejaVuSans-Bold-74" d="M 1759 4494 
L 1759 3500 
L 2913 3500 
L 2913 2700 
L 1759 2700 
L 1759 1216 
Q 1759 972 1856 886 
Q 1953 800 2241 800 
L 2816 800 
L 2816 0 
L 1856 0 
Q 1194 0 917 276 
Q 641 553 641 1216 
L 641 2700 
L 84 2700 
L 84 3500 
L 641 3500 
L 641 4494 
L 1759 4494 
z
" transform="scale(0.015625)"/>
      <path id="DejaVuSans-Bold-72" d="M 3138 2547 
Q 2991 2616 2845 2648 
Q 2700 2681 2553 2681 
Q 2122 2681 1889 2404 
Q 1656 2128 1656 1613 
L 1656 0 
L 538 0 
L 538 3500 
L 1656 3500 
L 1656 2925 
Q 1872 3269 2151 3426 
Q 2431 3584 2822 3584 
Q 2878 3584 2943 3579 
Q 3009 3575 3134 3559 
L 3138 2547 
z
" transform="scale(0.015625)"/>
      <path id="DejaVuSans-Bold-75" d="M 500 1363 
L 500 3500 
L 1625 3500 
L 1625 3150 
Q 1625 2866 1622 2436 
Q 1619 2006 1619 1863 
Q 1619 1441 1641 1255 
Q 1663 1069 1716 984 
Q 1784 875 1895 815 
Q 2006 756 2150 756 
Q 2500 756 2700 1025 
Q 2900 1294 2900 1772 
L 2900 3500 
L 4019 3500 
L 4019 0 
L 2900 0 
L 2900 506 
Q 2647 200 2364 54 
Q 2081 -91 1741 -91 
Q 1134 -91 817 281 
Q 500 653 500 1363 
z
" transform="scale(0.015625)"/>
      <path id="DejaVuSans-Bold-63" d="M 3366 3391 
L 3366 2478 
Q 3138 2634 2908 2709 
Q 2678 2784 2431 2784 
Q 1963 2784 1702 2511 
Q 1441 2238 1441 1747 
Q 1441 1256 1702 982 
Q 1963 709 2431 709 
Q 2694 709 2930 787 
Q 3166 866 3366 1019 
L 3366 103 
Q 3103 6 2833 -42 
Q 2563 -91 2291 -91 
Q 1344 -91 809 395 
Q 275 881 275 1747 
Q 275 2613 809 3098 
Q 1344 3584 2291 3584 
Q 2566 3584 2833 3536 
Q 3100 3488 3366 3391 
z
" transform="scale(0.015625)"/>
      <path id="DejaVuSans-Bold-61" d="M 2106 1575 
Q 1756 1575 1579 1456 
Q 1403 1338 1403 1106 
Q 1403 894 1545 773 
Q 1688 653 1941 653 
Q 2256 653 2472 879 
Q 2688 1106 2688 1447 
L 2688 1575 
L 2106 1575 
z
M 3816 1997 
L 3816 0 
L 2688 0 
L 2688 519 
Q 2463 200 2181 54 
Q 1900 -91 1497 -91 
Q 953 -91 614 226 
Q 275 544 275 1050 
Q 275 1666 698 1953 
Q 1122 2241 2028 2241 
L 2688 2241 
L 2688 2328 
Q 2688 2594 2478 2717 
Q 2269 2841 1825 2841 
Q 1466 2841 1156 2769 
Q 847 2697 581 2553 
L 581 3406 
Q 941 3494 1303 3539 
Q 1666 3584 2028 3584 
Q 2975 3584 3395 3211 
Q 3816 2838 3816 1997 
z
" transform="scale(0.015625)"/>
      <path id="DejaVuSans-Bold-6c" d="M 538 4863 
L 1656 4863 
L 1656 0 
L 538 0 
L 538 4863 
z
" transform="scale(0.015625)"/>
      <path id="DejaVuSans-Bold-20" transform="scale(0.015625)"/>
      <path id="DejaVuSans-Bold-45" d="M 588 4666 
L 3834 4666 
L 3834 3756 
L 1791 3756 
L 1791 2888 
L 3713 2888 
L 3713 1978 
L 1791 1978 
L 1791 909 
L 3903 909 
L 3903 0 
L 588 0 
L 588 4666 
z
" transform="scale(0.015625)"/>
      <path id="DejaVuSans-Bold-6f" d="M 2203 2784 
Q 1831 2784 1636 2517 
Q 1441 2250 1441 1747 
Q 1441 1244 1636 976 
Q 1831 709 2203 709 
Q 2569 709 2762 976 
Q 2956 1244 2956 1747 
Q 2956 2250 2762 2517 
Q 2569 2784 2203 2784 
z
M 2203 3584 
Q 3106 3584 3614 3096 
Q 4122 2609 4122 1747 
Q 4122 884 3614 396 
Q 3106 -91 2203 -91 
Q 1297 -91 786 396 
Q 275 884 275 1747 
Q 275 2609 786 3096 
Q 1297 3584 2203 3584 
z
" transform="scale(0.015625)"/>
      <path id="DejaVuSans-Bold-73" d="M 3272 3391 
L 3272 2541 
Q 2913 2691 2578 2766 
Q 2244 2841 1947 2841 
Q 1628 2841 1473 2761 
Q 1319 2681 1319 2516 
Q 1319 2381 1436 2309 
Q 1553 2238 1856 2203 
L 2053 2175 
Q 2913 2066 3209 1816 
Q 3506 1566 3506 1031 
Q 3506 472 3093 190 
Q 2681 -91 1863 -91 
Q 1516 -91 1145 -36 
Q 775 19 384 128 
L 384 978 
Q 719 816 1070 734 
Q 1422 653 1784 653 
Q 2113 653 2278 743 
Q 2444 834 2444 1013 
Q 2444 1163 2330 1236 
Q 2216 1309 1875 1350 
L 1678 1375 
Q 931 1469 631 1722 
Q 331 1975 331 2491 
Q 331 3047 712 3315 
Q 1094 3584 1881 3584 
Q 2191 3584 2531 3537 
Q 2872 3491 3272 3391 
z
" transform="scale(0.015625)"/>
      <path id="DejaVuSans-Bold-69" d="M 538 3500 
L 1656 3500 
L 1656 0 
L 538 0 
L 538 3500 
z
M 538 4863 
L 1656 4863 
L 1656 3950 
L 538 3950 
L 538 4863 
z
" transform="scale(0.015625)"/>
      <path id="DejaVuSans-Bold-6e" d="M 4056 2131 
L 4056 0 
L 2931 0 
L 2931 347 
L 2931 1631 
Q 2931 2084 2911 2256 
Q 2891 2428 2841 2509 
Q 2775 2619 2662 2680 
Q 2550 2741 2406 2741 
Q 2056 2741 1856 2470 
Q 1656 2200 1656 1722 
L 1656 0 
L 538 0 
L 538 3500 
L 1656 3500 
L 1656 2988 
Q 1909 3294 2193 3439 
Q 2478 3584 2822 3584 
Q 3428 3584 3742 3212 
Q 4056 2841 4056 2131 
z
" transform="scale(0.015625)"/>
     </defs>
     <use xlink:href="#DejaVuSans-Bold-53"/>
     <use xlink:href="#DejaVuSans-Bold-74" transform="translate(72.021484 0)"/>
     <use xlink:href="#DejaVuSans-Bold-72" transform="translate(119.824219 0)"/>
     <use xlink:href="#DejaVuSans-Bold-75" transform="translate(169.140625 0)"/>
     <use xlink:href="#DejaVuSans-Bold-63" transform="translate(240.332031 0)"/>
     <use xlink:href="#DejaVuSans-Bold-74" transform="translate(299.609375 0)"/>
     <use xlink:href="#DejaVuSans-Bold-75" transform="translate(347.412109 0)"/>
     <use xlink:href="#DejaVuSans-Bold-72" transform="translate(418.603516 0)"/>
     <use xlink:href="#DejaVuSans-Bold-61" transform="translate(467.919922 0)"/>
     <use xlink:href="#DejaVuSans-Bold-6c" transform="translate(535.400391 0)"/>
     <use xlink:href="#DejaVuSans-Bold-20" transform="translate(569.677734 0)"/>
     <use xlink:href="#DejaVuSans-Bold-45" transform="translate(604.492188 0)"/>
     <use xlink:href="#DejaVuSans-Bold-72" transform="translate(672.802734 0)"/>
     <use xlink:href="#DejaVuSans-Bold-6f" transform="translate(722.119141 0)"/>
     <use xlink:href="#DejaVuSans-Bold-73" transform="translate(790.820312 0)"/>
     <use xlink:href="#DejaVuSans-Bold-69" transform="translate(850.341797 0)"/>
     <use xlink:href="#DejaVuSans-Bold-6f" transform="translate(884.619141 0)"/>
     <use xlink:href="#DejaVuSans-Bold-6e" transform="translate(953.320312 0)"/>
    </g>
   </g>
   <g id="line2d_18">
    <path d="M 35.974622 97.845023 
L 73.28367 80.678163 
L 110.592718 71.161457 
L 147.901766 68.638442 
L 185.210814 58.826005 
" clip-path="url(#pe47bf9b975)" style="fill: none; stroke: #08519c; stroke-width: 2.2; stroke-linecap: square"/>
    <defs>
     <path id="mf6d79c27a0" d="M 0 2 
C 0.530406 2 1.03916 1.789267 1.414214 1.414214 
C 1.789267 1.03916 2 0.530406 2 0 
C 2 -0.530406 1.789267 -1.03916 1.414214 -1.414214 
C 1.03916 -1.789267 0.530406 -2 0 -2 
C -0.530406 -2 -1.03916 -1.789267 -1.414214 -1.414214 
C -1.789267 -1.03916 -2 -0.530406 -2 0 
C -2 0.530406 -1.789267 1.03916 -1.414214 1.414214 
C -1.03916 1.789267 -0.530406 2 0 2 
z
" style="stroke: #08519c"/>
    </defs>
    <g clip-path="url(#pe47bf9b975)">
     <use xlink:href="#mf6d79c27a0" x="35.974622" y="97.845023" style="fill: #08519c; stroke: #08519c"/>
     <use xlink:href="#mf6d79c27a0" x="73.28367" y="80.678163" style="fill: #08519c; stroke: #08519c"/>
     <use xlink:href="#mf6d79c27a0" x="110.592718" y="71.161457" style="fill: #08519c; stroke: #08519c"/>
     <use xlink:href="#mf6d79c27a0" x="147.901766" y="68.638442" style="fill: #08519c; stroke: #08519c"/>
     <use xlink:href="#mf6d79c27a0" x="185.210814" y="58.826005" style="fill: #08519c; stroke: #08519c"/>
    </g>
   </g>
   <g id="line2d_19">
    <path d="M 35.974622 164.656469 
L 73.28367 153.418597 
L 110.592718 145.548661 
L 147.901766 146.839548 
L 185.210814 133.989036 
" clip-path="url(#pe47bf9b975)" style="fill: none; stroke: #e6550d; stroke-width: 2.2; stroke-linecap: square"/>
    <defs>
     <path id="md01fa59ee2" d="M 0 2 
C 0.530406 2 1.03916 1.789267 1.414214 1.414214 
C 1.789267 1.03916 2 0.530406 2 0 
C 2 -0.530406 1.789267 -1.03916 1.414214 -1.414214 
C 1.03916 -1.789267 0.530406 -2 0 -2 
C -0.530406 -2 -1.03916 -1.789267 -1.414214 -1.414214 
C -1.789267 -1.03916 -2 -0.530406 -2 0 
C -2 0.530406 -1.789267 1.03916 -1.414214 1.414214 
C -1.03916 1.789267 -0.530406 2 0 2 
z
" style="stroke: #e6550d"/>
    </defs>
    <g clip-path="url(#pe47bf9b975)">
     <use xlink:href="#md01fa59ee2" x="35.974622" y="164.656469" style="fill: #e6550d; stroke: #e6550d"/>
     <use xlink:href="#md01fa59ee2" x="73.28367" y="153.418597" style="fill: #e6550d; stroke: #e6550d"/>
     <use xlink:href="#md01fa59ee2" x="110.592718" y="145.548661" style="fill: #e6550d; stroke: #e6550d"/>
     <use xlink:href="#md01fa59ee2" x="147.901766" y="146.839548" style="fill: #e6550d; stroke: #e6550d"/>
     <use xlink:href="#md01fa59ee2" x="185.210814" y="133.989036" style="fill: #e6550d; stroke: #e6550d"/>
    </g>
   </g>
   <g id="line2d_20">
    <path d="M 35.974622 140.703891 
L 73.28367 123.751185 
L 110.592718 110.503996 
L 147.901766 111.726201 
L 185.210814 98.236597 
" clip-path="url(#pe47bf9b975)" style="fill: none; stroke: #56a358; stroke-width: 2.2; stroke-linecap: square"/>
    <defs>
     <path id="m26515c9f52" d="M 0 2 
C 0.530406 2 1.03916 1.789267 1.414214 1.414214 
C 1.789267 1.03916 2 0.530406 2 0 
C 2 -0.530406 1.789267 -1.03916 1.414214 -1.414214 
C 1.03916 -1.789267 0.530406 -2 0 -2 
C -0.530406 -2 -1.03916 -1.789267 -1.414214 -1.414214 
C -1.789267 -1.03916 -2 -0.530406 -2 0 
C -2 0.530406 -1.789267 1.03916 -1.414214 1.414214 
C -1.03916 1.789267 -0.530406 2 0 2 
z
" style="stroke: #56a358"/>
    </defs>
    <g clip-path="url(#pe47bf9b975)">
     <use xlink:href="#m26515c9f52" x="35.974622" y="140.703891" style="fill: #56a358; stroke: #56a358"/>
     <use xlink:href="#m26515c9f52" x="73.28367" y="123.751185" style="fill: #56a358; stroke: #56a358"/>
     <use xlink:href="#m26515c9f52" x="110.592718" y="110.503996" style="fill: #56a358; stroke: #56a358"/>
     <use xlink:href="#m26515c9f52" x="147.901766" y="111.726201" style="fill: #56a358; stroke: #56a358"/>
     <use xlink:href="#m26515c9f52" x="185.210814" y="98.236597" style="fill: #56a358; stroke: #56a358"/>
    </g>
   </g>
  </g>
  <g id="axes_2">
   <g id="patch_7">
    <path d="M 261.230313 202.478281 
L 451.506457 202.478281 
L 451.506457 21.558281 
L 261.230313 21.558281 
z
" style="fill: #ffffff"/>
   </g>
   <g id="matplotlib.axis_3">
    <g id="xtick_6">
     <g id="line2d_21">
      <g>
       <use xlink:href="#m77fcad6d3f" x="268.692122" y="202.478281" style="stroke: #000000; stroke-width: 0.8"/>
      </g>
     </g>
     <g id="text_16">
      <!-- Start -->
      <g transform="translate(257.699466 216.316875) scale(0.09 -0.09)">
       <use xlink:href="#DejaVuSans-53"/>
       <use xlink:href="#DejaVuSans-74" transform="translate(63.476562 0)"/>
       <use xlink:href="#DejaVuSans-61" transform="translate(102.685547 0)"/>
       <use xlink:href="#DejaVuSans-72" transform="translate(163.964844 0)"/>
       <use xlink:href="#DejaVuSans-74" transform="translate(205.078125 0)"/>
      </g>
     </g>
    </g>
    <g id="xtick_7">
     <g id="line2d_22">
      <g>
       <use xlink:href="#m77fcad6d3f" x="306.00117" y="202.478281" style="stroke: #000000; stroke-width: 0.8"/>
      </g>
     </g>
     <g id="text_17">
      <!-- Early -->
      <g transform="translate(294.636561 216.316875) scale(0.09 -0.09)">
       <use xlink:href="#DejaVuSans-45"/>
       <use xlink:href="#DejaVuSans-61" transform="translate(63.183594 0)"/>
       <use xlink:href="#DejaVuSans-72" transform="translate(124.462891 0)"/>
       <use xlink:href="#DejaVuSans-6c" transform="translate(165.576172 0)"/>
       <use xlink:href="#DejaVuSans-79" transform="translate(193.359375 0)"/>
      </g>
     </g>
    </g>
    <g id="xtick_8">
     <g id="line2d_23">
      <g>
       <use xlink:href="#m77fcad6d3f" x="343.310218" y="202.478281" style="stroke: #000000; stroke-width: 0.8"/>
      </g>
     </g>
     <g id="text_18">
      <!-- Mid -->
      <g transform="translate(335.320609 216.316875) scale(0.09 -0.09)">
       <use xlink:href="#DejaVuSans-4d"/>
       <use xlink:href="#DejaVuSans-69" transform="translate(86.279297 0)"/>
       <use xlink:href="#DejaVuSans-64" transform="translate(114.0625 0)"/>
      </g>
     </g>
    </g>
    <g id="xtick_9">
     <g id="line2d_24">
      <g>
       <use xlink:href="#m77fcad6d3f" x="380.619266" y="202.478281" style="stroke: #000000; stroke-width: 0.8"/>
      </g>
     </g>
     <g id="text_19">
      <!-- Late -->
      <g transform="translate(370.821219 216.316875) scale(0.09 -0.09)">
       <use xlink:href="#DejaVuSans-4c"/>
       <use xlink:href="#DejaVuSans-61" transform="translate(55.712891 0)"/>
       <use xlink:href="#DejaVuSans-74" transform="translate(116.992188 0)"/>
       <use xlink:href="#DejaVuSans-65" transform="translate(156.201172 0)"/>
      </g>
     </g>
    </g>
    <g id="xtick_10">
     <g id="line2d_25">
      <g>
       <use xlink:href="#m77fcad6d3f" x="417.928314" y="202.478281" style="stroke: #000000; stroke-width: 0.8"/>
      </g>
     </g>
     <g id="text_20">
      <!-- Final -->
      <g transform="translate(407.556517 216.316875) scale(0.09 -0.09)">
       <use xlink:href="#DejaVuSans-46"/>
       <use xlink:href="#DejaVuSans-69" transform="translate(50.269531 0)"/>
       <use xlink:href="#DejaVuSans-6e" transform="translate(78.052734 0)"/>
       <use xlink:href="#DejaVuSans-61" transform="translate(141.431641 0)"/>
       <use xlink:href="#DejaVuSans-6c" transform="translate(202.710938 0)"/>
      </g>
     </g>
    </g>
   </g>
   <g id="matplotlib.axis_4">
    <g id="ytick_7">
     <g id="line2d_26">
      <path d="M 261.230313 181.22141 
L 451.506457 181.22141 
" clip-path="url(#pdf43f8f026)" style="fill: none; stroke: #cccccc; stroke-width: 0.5; stroke-linecap: square"/>
     </g>
     <g id="line2d_27">
      <g>
       <use xlink:href="#m3d664e6870" x="261.230313" y="181.22141" style="stroke: #000000; stroke-width: 0.8"/>
      </g>
     </g>
     <g id="text_21">
      <!-- 0.20 -->
      <g transform="translate(234.19125 184.640707) scale(0.09 -0.09)">
       <use xlink:href="#DejaVuSans-30"/>
       <use xlink:href="#DejaVuSans-2e" transform="translate(63.623047 0)"/>
       <use xlink:href="#DejaVuSans-32" transform="translate(95.410156 0)"/>
       <use xlink:href="#DejaVuSans-30" transform="translate(159.033203 0)"/>
      </g>
     </g>
    </g>
    <g id="ytick_8">
     <g id="line2d_28">
      <path d="M 261.230313 142.648995 
L 451.506457 142.648995 
" clip-path="url(#pdf43f8f026)" style="fill: none; stroke: #cccccc; stroke-width: 0.5; stroke-linecap: square"/>
     </g>
     <g id="line2d_29">
      <g>
       <use xlink:href="#m3d664e6870" x="261.230313" y="142.648995" style="stroke: #000000; stroke-width: 0.8"/>
      </g>
     </g>
     <g id="text_22">
      <!-- 0.25 -->
      <g transform="translate(234.19125 146.068292) scale(0.09 -0.09)">
       <use xlink:href="#DejaVuSans-30"/>
       <use xlink:href="#DejaVuSans-2e" transform="translate(63.623047 0)"/>
       <use xlink:href="#DejaVuSans-32" transform="translate(95.410156 0)"/>
       <use xlink:href="#DejaVuSans-35" transform="translate(159.033203 0)"/>
      </g>
     </g>
    </g>
    <g id="ytick_9">
     <g id="line2d_30">
      <path d="M 261.230313 104.076581 
L 451.506457 104.076581 
" clip-path="url(#pdf43f8f026)" style="fill: none; stroke: #cccccc; stroke-width: 0.5; stroke-linecap: square"/>
     </g>
     <g id="line2d_31">
      <g>
       <use xlink:href="#m3d664e6870" x="261.230313" y="104.076581" style="stroke: #000000; stroke-width: 0.8"/>
      </g>
     </g>
     <g id="text_23">
      <!-- 0.30 -->
      <g transform="translate(234.19125 107.495877) scale(0.09 -0.09)">
       <use xlink:href="#DejaVuSans-30"/>
       <use xlink:href="#DejaVuSans-2e" transform="translate(63.623047 0)"/>
       <use xlink:href="#DejaVuSans-33" transform="translate(95.410156 0)"/>
       <use xlink:href="#DejaVuSans-30" transform="translate(159.033203 0)"/>
      </g>
     </g>
    </g>
    <g id="ytick_10">
     <g id="line2d_32">
      <path d="M 261.230313 65.504166 
L 451.506457 65.504166 
" clip-path="url(#pdf43f8f026)" style="fill: none; stroke: #cccccc; stroke-width: 0.5; stroke-linecap: square"/>
     </g>
     <g id="line2d_33">
      <g>
       <use xlink:href="#m3d664e6870" x="261.230313" y="65.504166" style="stroke: #000000; stroke-width: 0.8"/>
      </g>
     </g>
     <g id="text_24">
      <!-- 0.35 -->
      <g transform="translate(234.19125 68.923463) scale(0.09 -0.09)">
       <use xlink:href="#DejaVuSans-30"/>
       <use xlink:href="#DejaVuSans-2e" transform="translate(63.623047 0)"/>
       <use xlink:href="#DejaVuSans-33" transform="translate(95.410156 0)"/>
       <use xlink:href="#DejaVuSans-35" transform="translate(159.033203 0)"/>
      </g>
     </g>
    </g>
    <g id="ytick_11">
     <g id="line2d_34">
      <path d="M 261.230313 26.931751 
L 451.506457 26.931751 
" clip-path="url(#pdf43f8f026)" style="fill: none; stroke: #cccccc; stroke-width: 0.5; stroke-linecap: square"/>
     </g>
     <g id="line2d_35">
      <g>
       <use xlink:href="#m3d664e6870" x="261.230313" y="26.931751" style="stroke: #000000; stroke-width: 0.8"/>
      </g>
     </g>
     <g id="text_25">
      <!-- 0.40 -->
      <g transform="translate(234.19125 30.351048) scale(0.09 -0.09)">
       <use xlink:href="#DejaVuSans-30"/>
       <use xlink:href="#DejaVuSans-2e" transform="translate(63.623047 0)"/>
       <use xlink:href="#DejaVuSans-34" transform="translate(95.410156 0)"/>
       <use xlink:href="#DejaVuSans-30" transform="translate(159.033203 0)"/>
      </g>
     </g>
    </g>
   </g>
   <g id="FillBetweenPolyCollection_4">
    <defs>
     <path id="m0029d08839" d="M 268.692122 -153.944989 
L 268.692122 -98.875474 
L 306.00117 -136.408418 
L 343.310218 -152.492209 
L 380.619266 -164.988944 
L 417.928314 -160.383496 
L 417.928314 -218.472364 
L 417.928314 -218.472364 
L 380.619266 -216.835209 
L 343.310218 -203.328124 
L 306.00117 -180.142356 
L 268.692122 -153.944989 
z
"/>
    </defs>
    <g clip-path="url(#pdf43f8f026)">
     <use xlink:href="#m0029d08839" x="0" y="248.254281" style="fill: #08519c; fill-opacity: 0.15"/>
    </g>
   </g>
   <g id="FillBetweenPolyCollection_5">
    <defs>
     <path id="m68662cd36b" d="M 268.692122 -73.609484 
L 268.692122 -53.999636 
L 306.00117 -66.099539 
L 343.310218 -76.422252 
L 380.619266 -75.87533 
L 417.928314 -81.523469 
L 417.928314 -126.388556 
L 417.928314 -126.388556 
L 380.619266 -126.640158 
L 343.310218 -121.27988 
L 306.00117 -104.62131 
L 268.692122 -73.609484 
z
"/>
    </defs>
    <g clip-path="url(#pdf43f8f026)">
     <use xlink:href="#m68662cd36b" x="0" y="248.254281" style="fill: #e6550d; fill-opacity: 0.15"/>
    </g>
   </g>
   <g id="FillBetweenPolyCollection_6">
    <defs>
     <path id="maca59a677d" d="M 268.692122 -119.180187 
L 268.692122 -92.096093 
L 306.00117 -112.889413 
L 343.310218 -113.214986 
L 380.619266 -113.032422 
L 417.928314 -110.334291 
L 417.928314 -182.324204 
L 417.928314 -182.324204 
L 380.619266 -186.266624 
L 343.310218 -169.340209 
L 306.00117 -149.053318 
L 268.692122 -119.180187 
z
"/>
    </defs>
    <g clip-path="url(#pdf43f8f026)">
     <use xlink:href="#maca59a677d" x="0" y="248.254281" style="fill: #56a358; fill-opacity: 0.15"/>
    </g>
   </g>
   <g id="patch_8">
    <path d="M 261.230313 202.478281 
L 261.230313 21.558281 
" style="fill: none; stroke: #000000; stroke-width: 0.8; stroke-linejoin: miter; stroke-linecap: square"/>
   </g>
   <g id="patch_9">
    <path d="M 451.506457 202.478281 
L 451.506457 21.558281 
" style="fill: none; stroke: #000000; stroke-width: 0.8; stroke-linejoin: miter; stroke-linecap: square"/>
   </g>
   <g id="patch_10">
    <path d="M 261.230313 202.478281 
L 451.506457 202.478281 
" style="fill: none; stroke: #000000; stroke-width: 0.8; stroke-linejoin: miter; stroke-linecap: square"/>
   </g>
   <g id="patch_11">
    <path d="M 261.230313 21.558281 
L 451.506457 21.558281 
" style="fill: none; stroke: #000000; stroke-width: 0.8; stroke-linejoin: miter; stroke-linecap: square"/>
   </g>
   <g id="text_26">
    <!-- +0.07 -->
    <g style="fill: #08519c" transform="translate(423.928314 69.65148) scale(0.08 -0.08)">
     <defs>
      <path id="DejaVuSans-Bold-37" d="M 428 4666 
L 3944 4666 
L 3944 3988 
L 2125 0 
L 953 0 
L 2675 3781 
L 428 3781 
L 428 4666 
z
" transform="scale(0.015625)"/>
     </defs>
     <use xlink:href="#DejaVuSans-Bold-2b"/>
     <use xlink:href="#DejaVuSans-Bold-30" transform="translate(83.789062 0)"/>
     <use xlink:href="#DejaVuSans-Bold-2e" transform="translate(153.369141 0)"/>
     <use xlink:href="#DejaVuSans-Bold-30" transform="translate(191.357422 0)"/>
     <use xlink:href="#DejaVuSans-Bold-37" transform="translate(260.9375 0)"/>
    </g>
   </g>
   <g id="text_27">
    <!-- +0.05 -->
    <g style="fill: #e6550d" transform="translate(423.928314 151.005574) scale(0.08 -0.08)">
     <defs>
      <path id="DejaVuSans-Bold-35" d="M 678 4666 
L 3669 4666 
L 3669 3781 
L 1638 3781 
L 1638 3059 
Q 1775 3097 1914 3117 
Q 2053 3138 2203 3138 
Q 3056 3138 3531 2711 
Q 4006 2284 4006 1522 
Q 4006 766 3489 337 
Q 2972 -91 2053 -91 
Q 1656 -91 1267 -14 
Q 878 63 494 219 
L 494 1166 
Q 875 947 1217 837 
Q 1559 728 1863 728 
Q 2300 728 2551 942 
Q 2803 1156 2803 1522 
Q 2803 1891 2551 2103 
Q 2300 2316 1863 2316 
Q 1603 2316 1309 2248 
Q 1016 2181 678 2041 
L 678 4666 
z
" transform="scale(0.015625)"/>
     </defs>
     <use xlink:href="#DejaVuSans-Bold-2b"/>
     <use xlink:href="#DejaVuSans-Bold-30" transform="translate(83.789062 0)"/>
     <use xlink:href="#DejaVuSans-Bold-2e" transform="translate(153.369141 0)"/>
     <use xlink:href="#DejaVuSans-Bold-30" transform="translate(191.357422 0)"/>
     <use xlink:href="#DejaVuSans-Bold-35" transform="translate(260.9375 0)"/>
    </g>
   </g>
   <g id="text_28">
    <!-- +0.05 -->
    <g style="fill: #56a358" transform="translate(423.928314 109.489154) scale(0.08 -0.08)">
     <use xlink:href="#DejaVuSans-Bold-2b"/>
     <use xlink:href="#DejaVuSans-Bold-30" transform="translate(83.789062 0)"/>
     <use xlink:href="#DejaVuSans-Bold-2e" transform="translate(153.369141 0)"/>
     <use xlink:href="#DejaVuSans-Bold-30" transform="translate(191.357422 0)"/>
     <use xlink:href="#DejaVuSans-Bold-35" transform="translate(260.9375 0)"/>
    </g>
   </g>
   <g id="text_29">
    <!-- Verbosity -->
    <g transform="translate(326.883229 15.558281) scale(0.11 -0.11)">
     <defs>
      <path id="DejaVuSans-Bold-56" d="M 31 4666 
L 1241 4666 
L 2478 1222 
L 3713 4666 
L 4922 4666 
L 3194 0 
L 1759 0 
L 31 4666 
z
" transform="scale(0.015625)"/>
      <path id="DejaVuSans-Bold-65" d="M 4031 1759 
L 4031 1441 
L 1416 1441 
Q 1456 1047 1700 850 
Q 1944 653 2381 653 
Q 2734 653 3104 758 
Q 3475 863 3866 1075 
L 3866 213 
Q 3469 63 3072 -14 
Q 2675 -91 2278 -91 
Q 1328 -91 801 392 
Q 275 875 275 1747 
Q 275 2603 792 3093 
Q 1309 3584 2216 3584 
Q 3041 3584 3536 3087 
Q 4031 2591 4031 1759 
z
M 2881 2131 
Q 2881 2450 2695 2645 
Q 2509 2841 2209 2841 
Q 1884 2841 1681 2658 
Q 1478 2475 1428 2131 
L 2881 2131 
z
" transform="scale(0.015625)"/>
      <path id="DejaVuSans-Bold-62" d="M 2400 722 
Q 2759 722 2948 984 
Q 3138 1247 3138 1747 
Q 3138 2247 2948 2509 
Q 2759 2772 2400 2772 
Q 2041 2772 1848 2508 
Q 1656 2244 1656 1747 
Q 1656 1250 1848 986 
Q 2041 722 2400 722 
z
M 1656 2988 
Q 1888 3294 2169 3439 
Q 2450 3584 2816 3584 
Q 3463 3584 3878 3070 
Q 4294 2556 4294 1747 
Q 4294 938 3878 423 
Q 3463 -91 2816 -91 
Q 2450 -91 2169 54 
Q 1888 200 1656 506 
L 1656 0 
L 538 0 
L 538 4863 
L 1656 4863 
L 1656 2988 
z
" transform="scale(0.015625)"/>
      <path id="DejaVuSans-Bold-79" d="M 78 3500 
L 1197 3500 
L 2138 1125 
L 2938 3500 
L 4056 3500 
L 2584 -331 
Q 2363 -916 2067 -1148 
Q 1772 -1381 1288 -1381 
L 641 -1381 
L 641 -647 
L 991 -647 
Q 1275 -647 1404 -556 
Q 1534 -466 1606 -231 
L 1638 -134 
L 78 3500 
z
" transform="scale(0.015625)"/>
     </defs>
     <use xlink:href="#DejaVuSans-Bold-56"/>
     <use xlink:href="#DejaVuSans-Bold-65" transform="translate(71.892578 0)"/>
     <use xlink:href="#DejaVuSans-Bold-72" transform="translate(139.714844 0)"/>
     <use xlink:href="#DejaVuSans-Bold-62" transform="translate(189.03125 0)"/>
     <use xlink:href="#DejaVuSans-Bold-6f" transform="translate(260.613281 0)"/>
     <use xlink:href="#DejaVuSans-Bold-73" transform="translate(329.314453 0)"/>
     <use xlink:href="#DejaVuSans-Bold-69" transform="translate(388.835938 0)"/>
     <use xlink:href="#DejaVuSans-Bold-74" transform="translate(423.113281 0)"/>
     <use xlink:href="#DejaVuSans-Bold-79" transform="translate(470.916016 0)"/>
    </g>
   </g>
   <g id="line2d_36">
    <path d="M 268.692122 123.169444 
L 306.00117 96.913726 
L 343.310218 77.374497 
L 380.619266 63.587063 
L 417.928314 67.44398 
" clip-path="url(#pdf43f8f026)" style="fill: none; stroke: #08519c; stroke-width: 2.2; stroke-linecap: square"/>
    <g clip-path="url(#pdf43f8f026)">
     <use xlink:href="#mf6d79c27a0" x="268.692122" y="123.169444" style="fill: #08519c; stroke: #08519c"/>
     <use xlink:href="#mf6d79c27a0" x="306.00117" y="96.913726" style="fill: #08519c; stroke: #08519c"/>
     <use xlink:href="#mf6d79c27a0" x="343.310218" y="77.374497" style="fill: #08519c; stroke: #08519c"/>
     <use xlink:href="#mf6d79c27a0" x="380.619266" y="63.587063" style="fill: #08519c; stroke: #08519c"/>
     <use xlink:href="#mf6d79c27a0" x="417.928314" y="67.44398" style="fill: #08519c; stroke: #08519c"/>
    </g>
   </g>
   <g id="line2d_37">
    <path d="M 268.692122 185.941046 
L 306.00117 166.24612 
L 343.310218 154.991798 
L 380.619266 148.086429 
L 417.928314 148.798074 
" clip-path="url(#pdf43f8f026)" style="fill: none; stroke: #e6550d; stroke-width: 2.2; stroke-linecap: square"/>
    <g clip-path="url(#pdf43f8f026)">
     <use xlink:href="#md01fa59ee2" x="268.692122" y="185.941046" style="fill: #e6550d; stroke: #e6550d"/>
     <use xlink:href="#md01fa59ee2" x="306.00117" y="166.24612" style="fill: #e6550d; stroke: #e6550d"/>
     <use xlink:href="#md01fa59ee2" x="343.310218" y="154.991798" style="fill: #e6550d; stroke: #e6550d"/>
     <use xlink:href="#md01fa59ee2" x="380.619266" y="148.086429" style="fill: #e6550d; stroke: #e6550d"/>
     <use xlink:href="#md01fa59ee2" x="417.928314" y="148.798074" style="fill: #e6550d; stroke: #e6550d"/>
    </g>
   </g>
   <g id="line2d_38">
    <path d="M 268.692122 143.041121 
L 306.00117 122.803935 
L 343.310218 113.700366 
L 380.619266 104.441642 
L 417.928314 107.281654 
" clip-path="url(#pdf43f8f026)" style="fill: none; stroke: #56a358; stroke-width: 2.2; stroke-linecap: square"/>
    <g clip-path="url(#pdf43f8f026)">
     <use xlink:href="#m26515c9f52" x="268.692122" y="143.041121" style="fill: #56a358; stroke: #56a358"/>
     <use xlink:href="#m26515c9f52" x="306.00117" y="122.803935" style="fill: #56a358; stroke: #56a358"/>
     <use xlink:href="#m26515c9f52" x="343.310218" y="113.700366" style="fill: #56a358; stroke: #56a358"/>
     <use xlink:href="#m26515c9f52" x="380.619266" y="104.441642" style="fill: #56a358; stroke: #56a358"/>
     <use xlink:href="#m26515c9f52" x="417.928314" y="107.281654" style="fill: #56a358; stroke: #56a358"/>
    </g>
   </g>
  </g>
  <g id="axes_3">
   <g id="patch_12">
    <path d="M 493.947813 202.478281 
L 684.223957 202.478281 
L 684.223957 21.558281 
L 493.947813 21.558281 
z
" style="fill: #ffffff"/>
   </g>
   <g id="matplotlib.axis_5">
    <g id="xtick_11">
     <g id="line2d_39">
      <g>
       <use xlink:href="#m77fcad6d3f" x="501.409622" y="202.478281" style="stroke: #000000; stroke-width: 0.8"/>
      </g>
     </g>
     <g id="text_30">
      <!-- Start -->
      <g transform="translate(490.416966 216.316875) scale(0.09 -0.09)">
       <use xlink:href="#DejaVuSans-53"/>
       <use xlink:href="#DejaVuSans-74" transform="translate(63.476562 0)"/>
       <use xlink:href="#DejaVuSans-61" transform="translate(102.685547 0)"/>
       <use xlink:href="#DejaVuSans-72" transform="translate(163.964844 0)"/>
       <use xlink:href="#DejaVuSans-74" transform="translate(205.078125 0)"/>
      </g>
     </g>
    </g>
    <g id="xtick_12">
     <g id="line2d_40">
      <g>
       <use xlink:href="#m77fcad6d3f" x="538.71867" y="202.478281" style="stroke: #000000; stroke-width: 0.8"/>
      </g>
     </g>
     <g id="text_31">
      <!-- Early -->
      <g transform="translate(527.354061 216.316875) scale(0.09 -0.09)">
       <use xlink:href="#DejaVuSans-45"/>
       <use xlink:href="#DejaVuSans-61" transform="translate(63.183594 0)"/>
       <use xlink:href="#DejaVuSans-72" transform="translate(124.462891 0)"/>
       <use xlink:href="#DejaVuSans-6c" transform="translate(165.576172 0)"/>
       <use xlink:href="#DejaVuSans-79" transform="translate(193.359375 0)"/>
      </g>
     </g>
    </g>
    <g id="xtick_13">
     <g id="line2d_41">
      <g>
       <use xlink:href="#m77fcad6d3f" x="576.027718" y="202.478281" style="stroke: #000000; stroke-width: 0.8"/>
      </g>
     </g>
     <g id="text_32">
      <!-- Mid -->
      <g transform="translate(568.038109 216.316875) scale(0.09 -0.09)">
       <use xlink:href="#DejaVuSans-4d"/>
       <use xlink:href="#DejaVuSans-69" transform="translate(86.279297 0)"/>
       <use xlink:href="#DejaVuSans-64" transform="translate(114.0625 0)"/>
      </g>
     </g>
    </g>
    <g id="xtick_14">
     <g id="line2d_42">
      <g>
       <use xlink:href="#m77fcad6d3f" x="613.336766" y="202.478281" style="stroke: #000000; stroke-width: 0.8"/>
      </g>
     </g>
     <g id="text_33">
      <!-- Late -->
      <g transform="translate(603.538719 216.316875) scale(0.09 -0.09)">
       <use xlink:href="#DejaVuSans-4c"/>
       <use xlink:href="#DejaVuSans-61" transform="translate(55.712891 0)"/>
       <use xlink:href="#DejaVuSans-74" transform="translate(116.992188 0)"/>
       <use xlink:href="#DejaVuSans-65" transform="translate(156.201172 0)"/>
      </g>
     </g>
    </g>
    <g id="xtick_15">
     <g id="line2d_43">
      <g>
       <use xlink:href="#m77fcad6d3f" x="650.645814" y="202.478281" style="stroke: #000000; stroke-width: 0.8"/>
      </g>
     </g>
     <g id="text_34">
      <!-- Final -->
      <g transform="translate(640.274017 216.316875) scale(0.09 -0.09)">
       <use xlink:href="#DejaVuSans-46"/>
       <use xlink:href="#DejaVuSans-69" transform="translate(50.269531 0)"/>
       <use xlink:href="#DejaVuSans-6e" transform="translate(78.052734 0)"/>
       <use xlink:href="#DejaVuSans-61" transform="translate(141.431641 0)"/>
       <use xlink:href="#DejaVuSans-6c" transform="translate(202.710938 0)"/>
      </g>
     </g>
    </g>
   </g>
   <g id="matplotlib.axis_6">
    <g id="ytick_12">
     <g id="line2d_44">
      <path d="M 493.947813 193.429355 
L 684.223957 193.429355 
" clip-path="url(#p6a3490a6c6)" style="fill: none; stroke: #cccccc; stroke-width: 0.5; stroke-linecap: square"/>
     </g>
     <g id="line2d_45">
      <g>
       <use xlink:href="#m3d664e6870" x="493.947813" y="193.429355" style="stroke: #000000; stroke-width: 0.8"/>
      </g>
     </g>
     <g id="text_35">
      <!-- 65 -->
      <g transform="translate(475.495313 196.848652) scale(0.09 -0.09)">
       <use xlink:href="#DejaVuSans-36"/>
       <use xlink:href="#DejaVuSans-35" transform="translate(63.623047 0)"/>
      </g>
     </g>
    </g>
    <g id="ytick_13">
     <g id="line2d_46">
      <path d="M 493.947813 158.599815 
L 684.223957 158.599815 
" clip-path="url(#p6a3490a6c6)" style="fill: none; stroke: #cccccc; stroke-width: 0.5; stroke-linecap: square"/>
     </g>
     <g id="line2d_47">
      <g>
       <use xlink:href="#m3d664e6870" x="493.947813" y="158.599815" style="stroke: #000000; stroke-width: 0.8"/>
      </g>
     </g>
     <g id="text_36">
      <!-- 70 -->
      <g transform="translate(475.495313 162.019112) scale(0.09 -0.09)">
       <use xlink:href="#DejaVuSans-37"/>
       <use xlink:href="#DejaVuSans-30" transform="translate(63.623047 0)"/>
      </g>
     </g>
    </g>
    <g id="ytick_14">
     <g id="line2d_48">
      <path d="M 493.947813 123.770275 
L 684.223957 123.770275 
" clip-path="url(#p6a3490a6c6)" style="fill: none; stroke: #cccccc; stroke-width: 0.5; stroke-linecap: square"/>
     </g>
     <g id="line2d_49">
      <g>
       <use xlink:href="#m3d664e6870" x="493.947813" y="123.770275" style="stroke: #000000; stroke-width: 0.8"/>
      </g>
     </g>
     <g id="text_37">
      <!-- 75 -->
      <g transform="translate(475.495313 127.189572) scale(0.09 -0.09)">
       <use xlink:href="#DejaVuSans-37"/>
       <use xlink:href="#DejaVuSans-35" transform="translate(63.623047 0)"/>
      </g>
     </g>
    </g>
    <g id="ytick_15">
     <g id="line2d_50">
      <path d="M 493.947813 88.940735 
L 684.223957 88.940735 
" clip-path="url(#p6a3490a6c6)" style="fill: none; stroke: #cccccc; stroke-width: 0.5; stroke-linecap: square"/>
     </g>
     <g id="line2d_51">
      <g>
       <use xlink:href="#m3d664e6870" x="493.947813" y="88.940735" style="stroke: #000000; stroke-width: 0.8"/>
      </g>
     </g>
     <g id="text_38">
      <!-- 80 -->
      <g transform="translate(475.495313 92.360032) scale(0.09 -0.09)">
       <defs>
        <path id="DejaVuSans-38" d="M 2034 2216 
Q 1584 2216 1326 1975 
Q 1069 1734 1069 1313 
Q 1069 891 1326 650 
Q 1584 409 2034 409 
Q 2484 409 2743 651 
Q 3003 894 3003 1313 
Q 3003 1734 2745 1975 
Q 2488 2216 2034 2216 
z
M 1403 2484 
Q 997 2584 770 2862 
Q 544 3141 544 3541 
Q 544 4100 942 4425 
Q 1341 4750 2034 4750 
Q 2731 4750 3128 4425 
Q 3525 4100 3525 3541 
Q 3525 3141 3298 2862 
Q 3072 2584 2669 2484 
Q 3125 2378 3379 2068 
Q 3634 1759 3634 1313 
Q 3634 634 3220 271 
Q 2806 -91 2034 -91 
Q 1263 -91 848 271 
Q 434 634 434 1313 
Q 434 1759 690 2068 
Q 947 2378 1403 2484 
z
M 1172 3481 
Q 1172 3119 1398 2916 
Q 1625 2713 2034 2713 
Q 2441 2713 2670 2916 
Q 2900 3119 2900 3481 
Q 2900 3844 2670 4047 
Q 2441 4250 2034 4250 
Q 1625 4250 1398 4047 
Q 1172 3844 1172 3481 
z
" transform="scale(0.015625)"/>
       </defs>
       <use xlink:href="#DejaVuSans-38"/>
       <use xlink:href="#DejaVuSans-30" transform="translate(63.623047 0)"/>
      </g>
     </g>
    </g>
    <g id="ytick_16">
     <g id="line2d_52">
      <path d="M 493.947813 54.111196 
L 684.223957 54.111196 
" clip-path="url(#p6a3490a6c6)" style="fill: none; stroke: #cccccc; stroke-width: 0.5; stroke-linecap: square"/>
     </g>
     <g id="line2d_53">
      <g>
       <use xlink:href="#m3d664e6870" x="493.947813" y="54.111196" style="stroke: #000000; stroke-width: 0.8"/>
      </g>
     </g>
     <g id="text_39">
      <!-- 85 -->
      <g transform="translate(475.495313 57.530492) scale(0.09 -0.09)">
       <use xlink:href="#DejaVuSans-38"/>
       <use xlink:href="#DejaVuSans-35" transform="translate(63.623047 0)"/>
      </g>
     </g>
    </g>
   </g>
   <g id="FillBetweenPolyCollection_7">
    <defs>
     <path id="mf20e7f2ee7" d="M 501.409622 -218.472364 
L 501.409622 -192.091673 
L 538.71867 -135.205 
L 576.027718 -131.78277 
L 613.336766 -150.78625 
L 650.645814 -80.845931 
L 650.645814 -114.001545 
L 650.645814 -114.001545 
L 613.336766 -177.298043 
L 576.027718 -159.097941 
L 538.71867 -193.949184 
L 501.409622 -218.472364 
z
"/>
    </defs>
    <g clip-path="url(#p6a3490a6c6)">
     <use xlink:href="#mf20e7f2ee7" x="0" y="248.254281" style="fill: #08519c; fill-opacity: 0.15"/>
    </g>
   </g>
   <g id="FillBetweenPolyCollection_8">
    <defs>
     <path id="mad93c394f2" d="M 501.409622 -194.380262 
L 501.409622 -161.350736 
L 538.71867 -151.917547 
L 576.027718 -108.161942 
L 613.336766 -140.841414 
L 650.645814 -53.999636 
L 650.645814 -82.5254 
L 650.645814 -82.5254 
L 613.336766 -197.43112 
L 576.027718 -140.109754 
L 538.71867 -159.430902 
L 501.409622 -194.380262 
z
"/>
    </defs>
    <g clip-path="url(#p6a3490a6c6)">
     <use xlink:href="#mad93c394f2" x="0" y="248.254281" style="fill: #e6550d; fill-opacity: 0.15"/>
    </g>
   </g>
   <g id="FillBetweenPolyCollection_9">
    <defs>
     <path id="m6d44c81582" d="M 501.409622 -211.899126 
L 501.409622 -183.230118 
L 538.71867 -161.718176 
L 576.027718 -122.582507 
L 613.336766 -158.202502 
L 650.645814 -85.258395 
L 650.645814 -117.688394 
L 650.645814 -117.688394 
L 613.336766 -181.220483 
L 576.027718 -152.296995 
L 538.71867 -187.515736 
L 501.409622 -211.899126 
z
"/>
    </defs>
    <g clip-path="url(#p6a3490a6c6)">
     <use xlink:href="#m6d44c81582" x="0" y="248.254281" style="fill: #56a358; fill-opacity: 0.15"/>
    </g>
   </g>
   <g id="patch_13">
    <path d="M 493.947813 202.478281 
L 493.947813 21.558281 
" style="fill: none; stroke: #000000; stroke-width: 0.8; stroke-linejoin: miter; stroke-linecap: square"/>
   </g>
   <g id="patch_14">
    <path d="M 684.223957 202.478281 
L 684.223957 21.558281 
" style="fill: none; stroke: #000000; stroke-width: 0.8; stroke-linejoin: miter; stroke-linecap: square"/>
   </g>
   <g id="patch_15">
    <path d="M 493.947813 202.478281 
L 684.223957 202.478281 
" style="fill: none; stroke: #000000; stroke-width: 0.8; stroke-linejoin: miter; stroke-linecap: square"/>
   </g>
   <g id="patch_16">
    <path d="M 493.947813 21.558281 
L 684.223957 21.558281 
" style="fill: none; stroke: #000000; stroke-width: 0.8; stroke-linejoin: miter; stroke-linecap: square"/>
   </g>
   <g id="text_40">
    <!-- -15.1 -->
    <g style="fill: #08519c" transform="translate(656.645814 151.19212) scale(0.08 -0.08)">
     <defs>
      <path id="DejaVuSans-Bold-2d" d="M 347 2297 
L 2309 2297 
L 2309 1388 
L 347 1388 
L 347 2297 
z
" transform="scale(0.015625)"/>
     </defs>
     <use xlink:href="#DejaVuSans-Bold-2d"/>
     <use xlink:href="#DejaVuSans-Bold-31" transform="translate(41.503906 0)"/>
     <use xlink:href="#DejaVuSans-Bold-35" transform="translate(111.083984 0)"/>
     <use xlink:href="#DejaVuSans-Bold-2e" transform="translate(180.664062 0)"/>
     <use xlink:href="#DejaVuSans-Bold-31" transform="translate(218.652344 0)"/>
    </g>
   </g>
   <g id="text_41">
    <!-- -14.8 -->
    <g style="fill: #e6550d" transform="translate(656.645814 178.980826) scale(0.08 -0.08)">
     <defs>
      <path id="DejaVuSans-Bold-38" d="M 2228 2088 
Q 1891 2088 1709 1903 
Q 1528 1719 1528 1375 
Q 1528 1031 1709 848 
Q 1891 666 2228 666 
Q 2563 666 2741 848 
Q 2919 1031 2919 1375 
Q 2919 1722 2741 1905 
Q 2563 2088 2228 2088 
z
M 1350 2484 
Q 925 2613 709 2878 
Q 494 3144 494 3541 
Q 494 4131 934 4440 
Q 1375 4750 2228 4750 
Q 3075 4750 3515 4442 
Q 3956 4134 3956 3541 
Q 3956 3144 3739 2878 
Q 3522 2613 3097 2484 
Q 3572 2353 3814 2058 
Q 4056 1763 4056 1313 
Q 4056 619 3595 264 
Q 3134 -91 2228 -91 
Q 1319 -91 855 264 
Q 391 619 391 1313 
Q 391 1763 633 2058 
Q 875 2353 1350 2484 
z
M 1631 3419 
Q 1631 3141 1786 2991 
Q 1941 2841 2228 2841 
Q 2509 2841 2662 2991 
Q 2816 3141 2816 3419 
Q 2816 3697 2662 3845 
Q 2509 3994 2228 3994 
Q 1941 3994 1786 3844 
Q 1631 3694 1631 3419 
z
" transform="scale(0.015625)"/>
     </defs>
     <use xlink:href="#DejaVuSans-Bold-2d"/>
     <use xlink:href="#DejaVuSans-Bold-31" transform="translate(41.503906 0)"/>
     <use xlink:href="#DejaVuSans-Bold-34" transform="translate(111.083984 0)"/>
     <use xlink:href="#DejaVuSans-Bold-2e" transform="translate(180.664062 0)"/>
     <use xlink:href="#DejaVuSans-Bold-38" transform="translate(218.652344 0)"/>
    </g>
   </g>
   <g id="text_42">
    <!-- -12.9 -->
    <g style="fill: #56a358" transform="translate(656.645814 145.98905) scale(0.08 -0.08)">
     <defs>
      <path id="DejaVuSans-Bold-32" d="M 1844 884 
L 3897 884 
L 3897 0 
L 506 0 
L 506 884 
L 2209 2388 
Q 2438 2594 2547 2791 
Q 2656 2988 2656 3200 
Q 2656 3528 2436 3728 
Q 2216 3928 1850 3928 
Q 1569 3928 1234 3808 
Q 900 3688 519 3450 
L 519 4475 
Q 925 4609 1322 4679 
Q 1719 4750 2100 4750 
Q 2938 4750 3402 4381 
Q 3866 4013 3866 3353 
Q 3866 2972 3669 2642 
Q 3472 2313 2841 1759 
L 1844 884 
z
" transform="scale(0.015625)"/>
      <path id="DejaVuSans-Bold-39" d="M 641 103 
L 641 966 
Q 928 831 1190 764 
Q 1453 697 1709 697 
Q 2247 697 2547 995 
Q 2847 1294 2900 1881 
Q 2688 1725 2447 1647 
Q 2206 1569 1925 1569 
Q 1209 1569 770 1986 
Q 331 2403 331 3084 
Q 331 3838 820 4291 
Q 1309 4744 2131 4744 
Q 3044 4744 3544 4128 
Q 4044 3513 4044 2388 
Q 4044 1231 3459 570 
Q 2875 -91 1856 -91 
Q 1528 -91 1228 -42 
Q 928 6 641 103 
z
M 2125 2350 
Q 2441 2350 2600 2554 
Q 2759 2759 2759 3169 
Q 2759 3575 2600 3781 
Q 2441 3988 2125 3988 
Q 1809 3988 1650 3781 
Q 1491 3575 1491 3169 
Q 1491 2759 1650 2554 
Q 1809 2350 2125 2350 
z
" transform="scale(0.015625)"/>
     </defs>
     <use xlink:href="#DejaVuSans-Bold-2d"/>
     <use xlink:href="#DejaVuSans-Bold-31" transform="translate(41.503906 0)"/>
     <use xlink:href="#DejaVuSans-Bold-32" transform="translate(111.083984 0)"/>
     <use xlink:href="#DejaVuSans-Bold-2e" transform="translate(180.664062 0)"/>
     <use xlink:href="#DejaVuSans-Bold-39" transform="translate(218.652344 0)"/>
    </g>
   </g>
   <g id="text_43">
    <!-- Iso. Test Pass Rate (%) -->
    <g transform="translate(518.593932 15.558281) scale(0.11 -0.11)">
     <defs>
      <path id="DejaVuSans-Bold-49" d="M 588 4666 
L 1791 4666 
L 1791 0 
L 588 0 
L 588 4666 
z
" transform="scale(0.015625)"/>
      <path id="DejaVuSans-Bold-54" d="M 31 4666 
L 4331 4666 
L 4331 3756 
L 2784 3756 
L 2784 0 
L 1581 0 
L 1581 3756 
L 31 3756 
L 31 4666 
z
" transform="scale(0.015625)"/>
      <path id="DejaVuSans-Bold-50" d="M 588 4666 
L 2584 4666 
Q 3475 4666 3951 4270 
Q 4428 3875 4428 3144 
Q 4428 2409 3951 2014 
Q 3475 1619 2584 1619 
L 1791 1619 
L 1791 0 
L 588 0 
L 588 4666 
z
M 1791 3794 
L 1791 2491 
L 2456 2491 
Q 2806 2491 2997 2661 
Q 3188 2831 3188 3144 
Q 3188 3456 2997 3625 
Q 2806 3794 2456 3794 
L 1791 3794 
z
" transform="scale(0.015625)"/>
      <path id="DejaVuSans-Bold-52" d="M 2297 2597 
Q 2675 2597 2839 2737 
Q 3003 2878 3003 3200 
Q 3003 3519 2839 3656 
Q 2675 3794 2297 3794 
L 1791 3794 
L 1791 2597 
L 2297 2597 
z
M 1791 1766 
L 1791 0 
L 588 0 
L 588 4666 
L 2425 4666 
Q 3347 4666 3776 4356 
Q 4206 4047 4206 3378 
Q 4206 2916 3982 2619 
Q 3759 2322 3309 2181 
Q 3556 2125 3751 1926 
Q 3947 1728 4147 1325 
L 4800 0 
L 3519 0 
L 2950 1159 
Q 2778 1509 2601 1637 
Q 2425 1766 2131 1766 
L 1791 1766 
z
" transform="scale(0.015625)"/>
      <path id="DejaVuSans-Bold-28" d="M 2413 -844 
L 1484 -844 
Q 1006 -72 778 623 
Q 550 1319 550 2003 
Q 550 2688 779 3389 
Q 1009 4091 1484 4856 
L 2413 4856 
Q 2013 4116 1813 3408 
Q 1613 2700 1613 2009 
Q 1613 1319 1811 609 
Q 2009 -100 2413 -844 
z
" transform="scale(0.015625)"/>
      <path id="DejaVuSans-Bold-25" d="M 4959 1925 
Q 4738 1925 4616 1733 
Q 4494 1541 4494 1184 
Q 4494 825 4614 633 
Q 4734 441 4959 441 
Q 5184 441 5303 633 
Q 5422 825 5422 1184 
Q 5422 1541 5301 1733 
Q 5181 1925 4959 1925 
z
M 4959 2450 
Q 5541 2450 5875 2112 
Q 6209 1775 6209 1184 
Q 6209 594 5875 251 
Q 5541 -91 4959 -91 
Q 4378 -91 4042 251 
Q 3706 594 3706 1184 
Q 3706 1772 4042 2111 
Q 4378 2450 4959 2450 
z
M 2094 -91 
L 1403 -91 
L 4319 4750 
L 5013 4750 
L 2094 -91 
z
M 1453 4750 
Q 2034 4750 2367 4411 
Q 2700 4072 2700 3481 
Q 2700 2891 2367 2550 
Q 2034 2209 1453 2209 
Q 872 2209 539 2550 
Q 206 2891 206 3481 
Q 206 4072 539 4411 
Q 872 4750 1453 4750 
z
M 1453 4225 
Q 1228 4225 1106 4031 
Q 984 3838 984 3481 
Q 984 3122 1106 2926 
Q 1228 2731 1453 2731 
Q 1678 2731 1798 2926 
Q 1919 3122 1919 3481 
Q 1919 3838 1797 4031 
Q 1675 4225 1453 4225 
z
" transform="scale(0.015625)"/>
      <path id="DejaVuSans-Bold-29" d="M 513 -844 
Q 913 -100 1113 609 
Q 1313 1319 1313 2009 
Q 1313 2700 1113 3408 
Q 913 4116 513 4856 
L 1441 4856 
Q 1916 4091 2145 3389 
Q 2375 2688 2375 2003 
Q 2375 1319 2147 623 
Q 1919 -72 1441 -844 
L 513 -844 
z
" transform="scale(0.015625)"/>
     </defs>
     <use xlink:href="#DejaVuSans-Bold-49"/>
     <use xlink:href="#DejaVuSans-Bold-73" transform="translate(37.207031 0)"/>
     <use xlink:href="#DejaVuSans-Bold-6f" transform="translate(96.728516 0)"/>
     <use xlink:href="#DejaVuSans-Bold-2e" transform="translate(165.429688 0)"/>
     <use xlink:href="#DejaVuSans-Bold-20" transform="translate(203.417969 0)"/>
     <use xlink:href="#DejaVuSans-Bold-54" transform="translate(238.232422 0)"/>
     <use xlink:href="#DejaVuSans-Bold-65" transform="translate(293.195312 0)"/>
     <use xlink:href="#DejaVuSans-Bold-73" transform="translate(361.017578 0)"/>
     <use xlink:href="#DejaVuSans-Bold-74" transform="translate(420.539062 0)"/>
     <use xlink:href="#DejaVuSans-Bold-20" transform="translate(468.341797 0)"/>
     <use xlink:href="#DejaVuSans-Bold-50" transform="translate(503.15625 0)"/>
     <use xlink:href="#DejaVuSans-Bold-61" transform="translate(573.822266 0)"/>
     <use xlink:href="#DejaVuSans-Bold-73" transform="translate(641.302734 0)"/>
     <use xlink:href="#DejaVuSans-Bold-73" transform="translate(700.824219 0)"/>
     <use xlink:href="#DejaVuSans-Bold-20" transform="translate(760.345703 0)"/>
     <use xlink:href="#DejaVuSans-Bold-52" transform="translate(795.160156 0)"/>
     <use xlink:href="#DejaVuSans-Bold-61" transform="translate(872.162109 0)"/>
     <use xlink:href="#DejaVuSans-Bold-74" transform="translate(939.642578 0)"/>
     <use xlink:href="#DejaVuSans-Bold-65" transform="translate(987.445312 0)"/>
     <use xlink:href="#DejaVuSans-Bold-20" transform="translate(1055.267578 0)"/>
     <use xlink:href="#DejaVuSans-Bold-28" transform="translate(1090.082031 0)"/>
     <use xlink:href="#DejaVuSans-Bold-25" transform="translate(1135.785156 0)"/>
     <use xlink:href="#DejaVuSans-Bold-29" transform="translate(1235.980469 0)"/>
    </g>
   </g>
   <g id="line2d_54">
    <path d="M 501.409622 43.993289 
L 538.71867 75.893702 
L 576.027718 100.170691 
L 613.336766 81.729722 
L 650.645814 148.98462 
" clip-path="url(#p6a3490a6c6)" style="fill: none; stroke: #08519c; stroke-width: 2.2; stroke-linecap: square"/>
    <g clip-path="url(#p6a3490a6c6)">
     <use xlink:href="#mf6d79c27a0" x="501.409622" y="43.993289" style="fill: #08519c; stroke: #08519c"/>
     <use xlink:href="#mf6d79c27a0" x="538.71867" y="75.893702" style="fill: #08519c; stroke: #08519c"/>
     <use xlink:href="#mf6d79c27a0" x="576.027718" y="100.170691" style="fill: #08519c; stroke: #08519c"/>
     <use xlink:href="#mf6d79c27a0" x="613.336766" y="81.729722" style="fill: #08519c; stroke: #08519c"/>
     <use xlink:href="#mf6d79c27a0" x="650.645814" y="148.98462" style="fill: #08519c; stroke: #08519c"/>
    </g>
   </g>
   <g id="line2d_55">
    <path d="M 501.409622 73.365663 
L 538.71867 92.415101 
L 576.027718 122.543836 
L 613.336766 85.809084 
L 650.645814 176.773326 
" clip-path="url(#p6a3490a6c6)" style="fill: none; stroke: #e6550d; stroke-width: 2.2; stroke-linecap: square"/>
    <g clip-path="url(#p6a3490a6c6)">
     <use xlink:href="#md01fa59ee2" x="501.409622" y="73.365663" style="fill: #e6550d; stroke: #e6550d"/>
     <use xlink:href="#md01fa59ee2" x="538.71867" y="92.415101" style="fill: #e6550d; stroke: #e6550d"/>
     <use xlink:href="#md01fa59ee2" x="576.027718" y="122.543836" style="fill: #e6550d; stroke: #e6550d"/>
     <use xlink:href="#md01fa59ee2" x="613.336766" y="85.809084" style="fill: #e6550d; stroke: #e6550d"/>
     <use xlink:href="#md01fa59ee2" x="650.645814" y="176.773326" style="fill: #e6550d; stroke: #e6550d"/>
    </g>
   </g>
   <g id="line2d_56">
    <path d="M 501.409622 53.808518 
L 538.71867 75.174496 
L 576.027718 106.781797 
L 613.336766 80.347514 
L 650.645814 143.78155 
" clip-path="url(#p6a3490a6c6)" style="fill: none; stroke: #56a358; stroke-width: 2.2; stroke-linecap: square"/>
    <g clip-path="url(#p6a3490a6c6)">
     <use xlink:href="#m26515c9f52" x="501.409622" y="53.808518" style="fill: #56a358; stroke: #56a358"/>
     <use xlink:href="#m26515c9f52" x="538.71867" y="75.174496" style="fill: #56a358; stroke: #56a358"/>
     <use xlink:href="#m26515c9f52" x="576.027718" y="106.781797" style="fill: #56a358; stroke: #56a358"/>
     <use xlink:href="#m26515c9f52" x="613.336766" y="80.347514" style="fill: #56a358; stroke: #56a358"/>
     <use xlink:href="#m26515c9f52" x="650.645814" y="143.78155" style="fill: #56a358; stroke: #56a358"/>
    </g>
   </g>
  </g>
  <g id="axes_4">
   <g id="patch_17">
    <path d="M 726.665313 202.478281 
L 916.941457 202.478281 
L 916.941457 21.558281 
L 726.665313 21.558281 
z
" style="fill: #ffffff"/>
   </g>
   <g id="matplotlib.axis_7">
    <g id="xtick_16">
     <g id="line2d_57">
      <g>
       <use xlink:href="#m77fcad6d3f" x="734.127122" y="202.478281" style="stroke: #000000; stroke-width: 0.8"/>
      </g>
     </g>
     <g id="text_44">
      <!-- Start -->
      <g transform="translate(723.134466 216.316875) scale(0.09 -0.09)">
       <use xlink:href="#DejaVuSans-53"/>
       <use xlink:href="#DejaVuSans-74" transform="translate(63.476562 0)"/>
       <use xlink:href="#DejaVuSans-61" transform="translate(102.685547 0)"/>
       <use xlink:href="#DejaVuSans-72" transform="translate(163.964844 0)"/>
       <use xlink:href="#DejaVuSans-74" transform="translate(205.078125 0)"/>
      </g>
     </g>
    </g>
    <g id="xtick_17">
     <g id="line2d_58">
      <g>
       <use xlink:href="#m77fcad6d3f" x="771.43617" y="202.478281" style="stroke: #000000; stroke-width: 0.8"/>
      </g>
     </g>
     <g id="text_45">
      <!-- Early -->
      <g transform="translate(760.071561 216.316875) scale(0.09 -0.09)">
       <use xlink:href="#DejaVuSans-45"/>
       <use xlink:href="#DejaVuSans-61" transform="translate(63.183594 0)"/>
       <use xlink:href="#DejaVuSans-72" transform="translate(124.462891 0)"/>
       <use xlink:href="#DejaVuSans-6c" transform="translate(165.576172 0)"/>
       <use xlink:href="#DejaVuSans-79" transform="translate(193.359375 0)"/>
      </g>
     </g>
    </g>
    <g id="xtick_18">
     <g id="line2d_59">
      <g>
       <use xlink:href="#m77fcad6d3f" x="808.745218" y="202.478281" style="stroke: #000000; stroke-width: 0.8"/>
      </g>
     </g>
     <g id="text_46">
      <!-- Mid -->
      <g transform="translate(800.755609 216.316875) scale(0.09 -0.09)">
       <use xlink:href="#DejaVuSans-4d"/>
       <use xlink:href="#DejaVuSans-69" transform="translate(86.279297 0)"/>
       <use xlink:href="#DejaVuSans-64" transform="translate(114.0625 0)"/>
      </g>
     </g>
    </g>
    <g id="xtick_19">
     <g id="line2d_60">
      <g>
       <use xlink:href="#m77fcad6d3f" x="846.054266" y="202.478281" style="stroke: #000000; stroke-width: 0.8"/>
      </g>
     </g>
     <g id="text_47">
      <!-- Late -->
      <g transform="translate(836.256219 216.316875) scale(0.09 -0.09)">
       <use xlink:href="#DejaVuSans-4c"/>
       <use xlink:href="#DejaVuSans-61" transform="translate(55.712891 0)"/>
       <use xlink:href="#DejaVuSans-74" transform="translate(116.992188 0)"/>
       <use xlink:href="#DejaVuSans-65" transform="translate(156.201172 0)"/>
      </g>
     </g>
    </g>
    <g id="xtick_20">
     <g id="line2d_61">
      <g>
       <use xlink:href="#m77fcad6d3f" x="883.363314" y="202.478281" style="stroke: #000000; stroke-width: 0.8"/>
      </g>
     </g>
     <g id="text_48">
      <!-- Final -->
      <g transform="translate(872.991517 216.316875) scale(0.09 -0.09)">
       <use xlink:href="#DejaVuSans-46"/>
       <use xlink:href="#DejaVuSans-69" transform="translate(50.269531 0)"/>
       <use xlink:href="#DejaVuSans-6e" transform="translate(78.052734 0)"/>
       <use xlink:href="#DejaVuSans-61" transform="translate(141.431641 0)"/>
       <use xlink:href="#DejaVuSans-6c" transform="translate(202.710938 0)"/>
      </g>
     </g>
    </g>
   </g>
   <g id="matplotlib.axis_8">
    <g id="ytick_17">
     <g id="line2d_62">
      <path d="M 726.665313 180.687284 
L 916.941457 180.687284 
" clip-path="url(#p5b806d799f)" style="fill: none; stroke: #cccccc; stroke-width: 0.5; stroke-linecap: square"/>
     </g>
     <g id="line2d_63">
      <g>
       <use xlink:href="#m3d664e6870" x="726.665313" y="180.687284" style="stroke: #000000; stroke-width: 0.8"/>
      </g>
     </g>
     <g id="text_49">
      <!-- 0.50 -->
      <g transform="translate(699.62625 184.106581) scale(0.09 -0.09)">
       <use xlink:href="#DejaVuSans-30"/>
       <use xlink:href="#DejaVuSans-2e" transform="translate(63.623047 0)"/>
       <use xlink:href="#DejaVuSans-35" transform="translate(95.410156 0)"/>
       <use xlink:href="#DejaVuSans-30" transform="translate(159.033203 0)"/>
      </g>
     </g>
    </g>
    <g id="ytick_18">
     <g id="line2d_64">
      <path d="M 726.665313 157.260587 
L 916.941457 157.260587 
" clip-path="url(#p5b806d799f)" style="fill: none; stroke: #cccccc; stroke-width: 0.5; stroke-linecap: square"/>
     </g>
     <g id="line2d_65">
      <g>
       <use xlink:href="#m3d664e6870" x="726.665313" y="157.260587" style="stroke: #000000; stroke-width: 0.8"/>
      </g>
     </g>
     <g id="text_50">
      <!-- 0.75 -->
      <g transform="translate(699.62625 160.679883) scale(0.09 -0.09)">
       <use xlink:href="#DejaVuSans-30"/>
       <use xlink:href="#DejaVuSans-2e" transform="translate(63.623047 0)"/>
       <use xlink:href="#DejaVuSans-37" transform="translate(95.410156 0)"/>
       <use xlink:href="#DejaVuSans-35" transform="translate(159.033203 0)"/>
      </g>
     </g>
    </g>
    <g id="ytick_19">
     <g id="line2d_66">
      <path d="M 726.665313 133.833889 
L 916.941457 133.833889 
" clip-path="url(#p5b806d799f)" style="fill: none; stroke: #cccccc; stroke-width: 0.5; stroke-linecap: square"/>
     </g>
     <g id="line2d_67">
      <g>
       <use xlink:href="#m3d664e6870" x="726.665313" y="133.833889" style="stroke: #000000; stroke-width: 0.8"/>
      </g>
     </g>
     <g id="text_51">
      <!-- 1.00 -->
      <g transform="translate(699.62625 137.253186) scale(0.09 -0.09)">
       <defs>
        <path id="DejaVuSans-31" d="M 794 531 
L 1825 531 
L 1825 4091 
L 703 3866 
L 703 4441 
L 1819 4666 
L 2450 4666 
L 2450 531 
L 3481 531 
L 3481 0 
L 794 0 
L 794 531 
z
" transform="scale(0.015625)"/>
       </defs>
       <use xlink:href="#DejaVuSans-31"/>
       <use xlink:href="#DejaVuSans-2e" transform="translate(63.623047 0)"/>
       <use xlink:href="#DejaVuSans-30" transform="translate(95.410156 0)"/>
       <use xlink:href="#DejaVuSans-30" transform="translate(159.033203 0)"/>
      </g>
     </g>
    </g>
    <g id="ytick_20">
     <g id="line2d_68">
      <path d="M 726.665313 110.407192 
L 916.941457 110.407192 
" clip-path="url(#p5b806d799f)" style="fill: none; stroke: #cccccc; stroke-width: 0.5; stroke-linecap: square"/>
     </g>
     <g id="line2d_69">
      <g>
       <use xlink:href="#m3d664e6870" x="726.665313" y="110.407192" style="stroke: #000000; stroke-width: 0.8"/>
      </g>
     </g>
     <g id="text_52">
      <!-- 1.25 -->
      <g transform="translate(699.62625 113.826489) scale(0.09 -0.09)">
       <use xlink:href="#DejaVuSans-31"/>
       <use xlink:href="#DejaVuSans-2e" transform="translate(63.623047 0)"/>
       <use xlink:href="#DejaVuSans-32" transform="translate(95.410156 0)"/>
       <use xlink:href="#DejaVuSans-35" transform="translate(159.033203 0)"/>
      </g>
     </g>
    </g>
    <g id="ytick_21">
     <g id="line2d_70">
      <path d="M 726.665313 86.980495 
L 916.941457 86.980495 
" clip-path="url(#p5b806d799f)" style="fill: none; stroke: #cccccc; stroke-width: 0.5; stroke-linecap: square"/>
     </g>
     <g id="line2d_71">
      <g>
       <use xlink:href="#m3d664e6870" x="726.665313" y="86.980495" style="stroke: #000000; stroke-width: 0.8"/>
      </g>
     </g>
     <g id="text_53">
      <!-- 1.50 -->
      <g transform="translate(699.62625 90.399792) scale(0.09 -0.09)">
       <use xlink:href="#DejaVuSans-31"/>
       <use xlink:href="#DejaVuSans-2e" transform="translate(63.623047 0)"/>
       <use xlink:href="#DejaVuSans-35" transform="translate(95.410156 0)"/>
       <use xlink:href="#DejaVuSans-30" transform="translate(159.033203 0)"/>
      </g>
     </g>
    </g>
    <g id="ytick_22">
     <g id="line2d_72">
      <path d="M 726.665313 63.553798 
L 916.941457 63.553798 
" clip-path="url(#p5b806d799f)" style="fill: none; stroke: #cccccc; stroke-width: 0.5; stroke-linecap: square"/>
     </g>
     <g id="line2d_73">
      <g>
       <use xlink:href="#m3d664e6870" x="726.665313" y="63.553798" style="stroke: #000000; stroke-width: 0.8"/>
      </g>
     </g>
     <g id="text_54">
      <!-- 1.75 -->
      <g transform="translate(699.62625 66.973094) scale(0.09 -0.09)">
       <use xlink:href="#DejaVuSans-31"/>
       <use xlink:href="#DejaVuSans-2e" transform="translate(63.623047 0)"/>
       <use xlink:href="#DejaVuSans-37" transform="translate(95.410156 0)"/>
       <use xlink:href="#DejaVuSans-35" transform="translate(159.033203 0)"/>
      </g>
     </g>
    </g>
    <g id="ytick_23">
     <g id="line2d_74">
      <path d="M 726.665313 40.1271 
L 916.941457 40.1271 
" clip-path="url(#p5b806d799f)" style="fill: none; stroke: #cccccc; stroke-width: 0.5; stroke-linecap: square"/>
     </g>
     <g id="line2d_75">
      <g>
       <use xlink:href="#m3d664e6870" x="726.665313" y="40.1271" style="stroke: #000000; stroke-width: 0.8"/>
      </g>
     </g>
     <g id="text_55">
      <!-- 2.00 -->
      <g transform="translate(699.62625 43.546397) scale(0.09 -0.09)">
       <use xlink:href="#DejaVuSans-32"/>
       <use xlink:href="#DejaVuSans-2e" transform="translate(63.623047 0)"/>
       <use xlink:href="#DejaVuSans-30" transform="translate(95.410156 0)"/>
       <use xlink:href="#DejaVuSans-30" transform="translate(159.033203 0)"/>
      </g>
     </g>
    </g>
   </g>
   <g id="FillBetweenPolyCollection_10">
    <defs>
     <path id="ma7679a152d" d="M 734.127122 -118.925721 
L 734.127122 -53.999636 
L 771.43617 -73.444393 
L 808.745218 -83.312804 
L 846.054266 -89.800723 
L 883.363314 -110.943111 
L 883.363314 -209.494355 
L 883.363314 -209.494355 
L 846.054266 -171.235136 
L 808.745218 -159.5145 
L 771.43617 -152.496838 
L 734.127122 -118.925721 
z
"/>
    </defs>
    <g clip-path="url(#p5b806d799f)">
     <use xlink:href="#ma7679a152d" x="0" y="248.254281" style="fill: #08519c; fill-opacity: 0.15"/>
    </g>
   </g>
   <g id="FillBetweenPolyCollection_11">
    <defs>
     <path id="mb28bc4a033" d="M 734.127122 -125.626326 
L 734.127122 -62.172757 
L 771.43617 -77.740997 
L 808.745218 -87.050989 
L 846.054266 -100.706813 
L 883.363314 -116.390877 
L 883.363314 -218.472364 
L 883.363314 -218.472364 
L 846.054266 -202.392579 
L 808.745218 -178.101517 
L 771.43617 -168.060641 
L 734.127122 -125.626326 
z
"/>
    </defs>
    <g clip-path="url(#p5b806d799f)">
     <use xlink:href="#mb28bc4a033" x="0" y="248.254281" style="fill: #e6550d; fill-opacity: 0.15"/>
    </g>
   </g>
   <g id="FillBetweenPolyCollection_12">
    <defs>
     <path id="m6eb20f0fa2" d="M 734.127122 -124.405938 
L 734.127122 -56.162602 
L 771.43617 -76.270505 
L 808.745218 -88.365443 
L 846.054266 -91.282315 
L 883.363314 -113.218715 
L 883.363314 -215.603424 
L 883.363314 -215.603424 
L 846.054266 -196.878845 
L 808.745218 -167.042476 
L 771.43617 -160.211362 
L 734.127122 -124.405938 
z
"/>
    </defs>
    <g clip-path="url(#p5b806d799f)">
     <use xlink:href="#m6eb20f0fa2" x="0" y="248.254281" style="fill: #56a358; fill-opacity: 0.15"/>
    </g>
   </g>
   <g id="patch_18">
    <path d="M 726.665313 202.478281 
L 726.665313 21.558281 
" style="fill: none; stroke: #000000; stroke-width: 0.8; stroke-linejoin: miter; stroke-linecap: square"/>
   </g>
   <g id="patch_19">
    <path d="M 916.941457 202.478281 
L 916.941457 21.558281 
" style="fill: none; stroke: #000000; stroke-width: 0.8; stroke-linejoin: miter; stroke-linecap: square"/>
   </g>
   <g id="patch_20">
    <path d="M 726.665313 202.478281 
L 916.941457 202.478281 
" style="fill: none; stroke: #000000; stroke-width: 0.8; stroke-linejoin: miter; stroke-linecap: square"/>
   </g>
   <g id="patch_21">
    <path d="M 726.665313 21.558281 
L 916.941457 21.558281 
" style="fill: none; stroke: #000000; stroke-width: 0.8; stroke-linejoin: miter; stroke-linecap: square"/>
   </g>
   <g id="text_56">
    <!-- +0.72 -->
    <g style="fill: #08519c" transform="translate(889.363314 104.313841) scale(0.08 -0.08)">
     <use xlink:href="#DejaVuSans-Bold-2b"/>
     <use xlink:href="#DejaVuSans-Bold-30" transform="translate(83.789062 0)"/>
     <use xlink:href="#DejaVuSans-Bold-2e" transform="translate(153.369141 0)"/>
     <use xlink:href="#DejaVuSans-Bold-37" transform="translate(191.357422 0)"/>
     <use xlink:href="#DejaVuSans-Bold-32" transform="translate(260.9375 0)"/>
    </g>
   </g>
   <g id="text_57">
    <!-- +0.81 -->
    <g style="fill: #e6550d" transform="translate(889.363314 87.951674) scale(0.08 -0.08)">
     <use xlink:href="#DejaVuSans-Bold-2b"/>
     <use xlink:href="#DejaVuSans-Bold-30" transform="translate(83.789062 0)"/>
     <use xlink:href="#DejaVuSans-Bold-2e" transform="translate(153.369141 0)"/>
     <use xlink:href="#DejaVuSans-Bold-38" transform="translate(191.357422 0)"/>
     <use xlink:href="#DejaVuSans-Bold-31" transform="translate(260.9375 0)"/>
    </g>
   </g>
   <g id="text_58">
    <!-- +0.76 -->
    <g style="fill: #56a358" transform="translate(889.363314 96.216829) scale(0.08 -0.08)">
     <defs>
      <path id="DejaVuSans-Bold-36" d="M 2316 2303 
Q 2000 2303 1842 2098 
Q 1684 1894 1684 1484 
Q 1684 1075 1842 870 
Q 2000 666 2316 666 
Q 2634 666 2792 870 
Q 2950 1075 2950 1484 
Q 2950 1894 2792 2098 
Q 2634 2303 2316 2303 
z
M 3803 4544 
L 3803 3681 
Q 3506 3822 3243 3889 
Q 2981 3956 2731 3956 
Q 2194 3956 1894 3657 
Q 1594 3359 1544 2772 
Q 1750 2925 1990 3001 
Q 2231 3078 2516 3078 
Q 3231 3078 3670 2659 
Q 4109 2241 4109 1563 
Q 4109 813 3618 361 
Q 3128 -91 2303 -91 
Q 1394 -91 895 523 
Q 397 1138 397 2266 
Q 397 3422 980 4083 
Q 1563 4744 2578 4744 
Q 2900 4744 3203 4694 
Q 3506 4644 3803 4544 
z
" transform="scale(0.015625)"/>
     </defs>
     <use xlink:href="#DejaVuSans-Bold-2b"/>
     <use xlink:href="#DejaVuSans-Bold-30" transform="translate(83.789062 0)"/>
     <use xlink:href="#DejaVuSans-Bold-2e" transform="translate(153.369141 0)"/>
     <use xlink:href="#DejaVuSans-Bold-37" transform="translate(191.357422 0)"/>
     <use xlink:href="#DejaVuSans-Bold-36" transform="translate(260.9375 0)"/>
    </g>
   </g>
   <g id="text_59">
    <!-- $ / Checkpoint -->
    <g transform="translate(777.392604 15.558281) scale(0.11 -0.11)">
     <defs>
      <path id="DejaVuSans-Bold-24" d="M 2484 -941 
L 1978 -941 
L 1975 0 
Q 1584 16 1218 87 
Q 853 159 506 288 
L 506 1106 
Q 866 922 1233 823 
Q 1600 725 1978 713 
L 1978 1684 
L 1875 1703 
Q 1128 1834 814 2115 
Q 500 2397 500 2925 
Q 500 3484 883 3798 
Q 1266 4113 1975 4141 
L 1978 4863 
L 2484 4863 
L 2484 4153 
Q 2797 4128 3109 4075 
Q 3422 4022 3738 3938 
L 3738 3144 
Q 3425 3275 3112 3348 
Q 2800 3422 2484 3438 
L 2484 2541 
L 2584 2522 
Q 3378 2397 3698 2105 
Q 4019 1813 4019 1241 
Q 4019 666 3637 358 
Q 3256 50 2484 6 
L 2484 -941 
z
M 1978 2613 
L 1978 3428 
Q 1756 3416 1623 3308 
Q 1491 3200 1491 3034 
Q 1491 2850 1612 2745 
Q 1734 2641 1978 2613 
z
M 2484 1594 
L 2484 725 
Q 2756 728 2892 831 
Q 3028 934 3028 1141 
Q 3028 1353 2903 1458 
Q 2778 1563 2484 1594 
z
" transform="scale(0.015625)"/>
      <path id="DejaVuSans-Bold-2f" d="M 1644 4666 
L 2338 4666 
L 691 -594 
L 0 -594 
L 1644 4666 
z
" transform="scale(0.015625)"/>
      <path id="DejaVuSans-Bold-43" d="M 4288 256 
Q 3956 84 3597 -3 
Q 3238 -91 2847 -91 
Q 1681 -91 1000 561 
Q 319 1213 319 2328 
Q 319 3447 1000 4098 
Q 1681 4750 2847 4750 
Q 3238 4750 3597 4662 
Q 3956 4575 4288 4403 
L 4288 3438 
Q 3953 3666 3628 3772 
Q 3303 3878 2944 3878 
Q 2300 3878 1931 3465 
Q 1563 3053 1563 2328 
Q 1563 1606 1931 1193 
Q 2300 781 2944 781 
Q 3303 781 3628 887 
Q 3953 994 4288 1222 
L 4288 256 
z
" transform="scale(0.015625)"/>
      <path id="DejaVuSans-Bold-68" d="M 4056 2131 
L 4056 0 
L 2931 0 
L 2931 347 
L 2931 1625 
Q 2931 2084 2911 2256 
Q 2891 2428 2841 2509 
Q 2775 2619 2662 2680 
Q 2550 2741 2406 2741 
Q 2056 2741 1856 2470 
Q 1656 2200 1656 1722 
L 1656 0 
L 538 0 
L 538 4863 
L 1656 4863 
L 1656 2988 
Q 1909 3294 2193 3439 
Q 2478 3584 2822 3584 
Q 3428 3584 3742 3212 
Q 4056 2841 4056 2131 
z
" transform="scale(0.015625)"/>
      <path id="DejaVuSans-Bold-6b" d="M 538 4863 
L 1656 4863 
L 1656 2216 
L 2944 3500 
L 4244 3500 
L 2534 1894 
L 4378 0 
L 3022 0 
L 1656 1459 
L 1656 0 
L 538 0 
L 538 4863 
z
" transform="scale(0.015625)"/>
      <path id="DejaVuSans-Bold-70" d="M 1656 506 
L 1656 -1331 
L 538 -1331 
L 538 3500 
L 1656 3500 
L 1656 2988 
Q 1888 3294 2169 3439 
Q 2450 3584 2816 3584 
Q 3463 3584 3878 3070 
Q 4294 2556 4294 1747 
Q 4294 938 3878 423 
Q 3463 -91 2816 -91 
Q 2450 -91 2169 54 
Q 1888 200 1656 506 
z
M 2400 2772 
Q 2041 2772 1848 2508 
Q 1656 2244 1656 1747 
Q 1656 1250 1848 986 
Q 2041 722 2400 722 
Q 2759 722 2948 984 
Q 3138 1247 3138 1747 
Q 3138 2247 2948 2509 
Q 2759 2772 2400 2772 
z
" transform="scale(0.015625)"/>
     </defs>
     <use xlink:href="#DejaVuSans-Bold-24"/>
     <use xlink:href="#DejaVuSans-Bold-20" transform="translate(69.580078 0)"/>
     <use xlink:href="#DejaVuSans-Bold-2f" transform="translate(104.394531 0)"/>
     <use xlink:href="#DejaVuSans-Bold-20" transform="translate(140.917969 0)"/>
     <use xlink:href="#DejaVuSans-Bold-43" transform="translate(175.732422 0)"/>
     <use xlink:href="#DejaVuSans-Bold-68" transform="translate(249.121094 0)"/>
     <use xlink:href="#DejaVuSans-Bold-65" transform="translate(320.3125 0)"/>
     <use xlink:href="#DejaVuSans-Bold-63" transform="translate(388.134766 0)"/>
     <use xlink:href="#DejaVuSans-Bold-6b" transform="translate(447.412109 0)"/>
     <use xlink:href="#DejaVuSans-Bold-70" transform="translate(513.916016 0)"/>
     <use xlink:href="#DejaVuSans-Bold-6f" transform="translate(585.498047 0)"/>
     <use xlink:href="#DejaVuSans-Bold-69" transform="translate(654.199219 0)"/>
     <use xlink:href="#DejaVuSans-Bold-6e" transform="translate(688.476562 0)"/>
     <use xlink:href="#DejaVuSans-Bold-74" transform="translate(759.667969 0)"/>
    </g>
   </g>
   <g id="line2d_76">
    <path d="M 734.127122 169.213322 
L 771.43617 146.973117 
L 808.745218 138.100154 
L 846.054266 128.290701 
L 883.363314 102.106341 
" clip-path="url(#p5b806d799f)" style="fill: none; stroke: #08519c; stroke-width: 2.2; stroke-linecap: square"/>
    <g clip-path="url(#p5b806d799f)">
     <use xlink:href="#mf6d79c27a0" x="734.127122" y="169.213322" style="fill: #08519c; stroke: #08519c"/>
     <use xlink:href="#mf6d79c27a0" x="771.43617" y="146.973117" style="fill: #08519c; stroke: #08519c"/>
     <use xlink:href="#mf6d79c27a0" x="808.745218" y="138.100154" style="fill: #08519c; stroke: #08519c"/>
     <use xlink:href="#mf6d79c27a0" x="846.054266" y="128.290701" style="fill: #08519c; stroke: #08519c"/>
     <use xlink:href="#mf6d79c27a0" x="883.363314" y="102.106341" style="fill: #08519c; stroke: #08519c"/>
    </g>
   </g>
   <g id="line2d_77">
    <path d="M 734.127122 161.69162 
L 771.43617 136.313594 
L 808.745218 126.94702 
L 846.054266 107.968883 
L 883.363314 85.744174 
" clip-path="url(#p5b806d799f)" style="fill: none; stroke: #e6550d; stroke-width: 2.2; stroke-linecap: square"/>
    <g clip-path="url(#p5b806d799f)">
     <use xlink:href="#md01fa59ee2" x="734.127122" y="161.69162" style="fill: #e6550d; stroke: #e6550d"/>
     <use xlink:href="#md01fa59ee2" x="771.43617" y="136.313594" style="fill: #e6550d; stroke: #e6550d"/>
     <use xlink:href="#md01fa59ee2" x="808.745218" y="126.94702" style="fill: #e6550d; stroke: #e6550d"/>
     <use xlink:href="#md01fa59ee2" x="846.054266" y="107.968883" style="fill: #e6550d; stroke: #e6550d"/>
     <use xlink:href="#md01fa59ee2" x="883.363314" y="85.744174" style="fill: #e6550d; stroke: #e6550d"/>
    </g>
   </g>
   <g id="line2d_78">
    <path d="M 734.127122 165.367545 
L 771.43617 139.34956 
L 808.745218 132.236882 
L 846.054266 114.020368 
L 883.363314 94.009329 
" clip-path="url(#p5b806d799f)" style="fill: none; stroke: #56a358; stroke-width: 2.2; stroke-linecap: square"/>
    <g clip-path="url(#p5b806d799f)">
     <use xlink:href="#m26515c9f52" x="734.127122" y="165.367545" style="fill: #56a358; stroke: #56a358"/>
     <use xlink:href="#m26515c9f52" x="771.43617" y="139.34956" style="fill: #56a358; stroke: #56a358"/>
     <use xlink:href="#m26515c9f52" x="808.745218" y="132.236882" style="fill: #56a358; stroke: #56a358"/>
     <use xlink:href="#m26515c9f52" x="846.054266" y="114.020368" style="fill: #56a358; stroke: #56a358"/>
     <use xlink:href="#m26515c9f52" x="883.363314" y="94.009329" style="fill: #56a358; stroke: #56a358"/>
    </g>
   </g>
  </g>
  <g id="legend_1">
   <g id="line2d_79">
    <path d="M 335.67125 231.474594 
L 345.67125 231.474594 
L 355.67125 231.474594 
" style="fill: none; stroke: #08519c; stroke-width: 2.2; stroke-linecap: square"/>
    <g>
     <use xlink:href="#mf6d79c27a0" x="345.67125" y="231.474594" style="fill: #08519c; stroke: #08519c"/>
    </g>
   </g>
   <g id="text_60">
    <!-- Baseline -->
    <g transform="translate(363.67125 234.974594) scale(0.1 -0.1)">
     <defs>
      <path id="DejaVuSans-42" d="M 1259 2228 
L 1259 519 
L 2272 519 
Q 2781 519 3026 730 
Q 3272 941 3272 1375 
Q 3272 1813 3026 2020 
Q 2781 2228 2272 2228 
L 1259 2228 
z
M 1259 4147 
L 1259 2741 
L 2194 2741 
Q 2656 2741 2882 2914 
Q 3109 3088 3109 3444 
Q 3109 3797 2882 3972 
Q 2656 4147 2194 4147 
L 1259 4147 
z
M 628 4666 
L 2241 4666 
Q 2963 4666 3353 4366 
Q 3744 4066 3744 3513 
Q 3744 3084 3544 2831 
Q 3344 2578 2956 2516 
Q 3422 2416 3680 2098 
Q 3938 1781 3938 1306 
Q 3938 681 3513 340 
Q 3088 0 2303 0 
L 628 0 
L 628 4666 
z
" transform="scale(0.015625)"/>
      <path id="DejaVuSans-73" d="M 2834 3397 
L 2834 2853 
Q 2591 2978 2328 3040 
Q 2066 3103 1784 3103 
Q 1356 3103 1142 2972 
Q 928 2841 928 2578 
Q 928 2378 1081 2264 
Q 1234 2150 1697 2047 
L 1894 2003 
Q 2506 1872 2764 1633 
Q 3022 1394 3022 966 
Q 3022 478 2636 193 
Q 2250 -91 1575 -91 
Q 1294 -91 989 -36 
Q 684 19 347 128 
L 347 722 
Q 666 556 975 473 
Q 1284 391 1588 391 
Q 1994 391 2212 530 
Q 2431 669 2431 922 
Q 2431 1156 2273 1281 
Q 2116 1406 1581 1522 
L 1381 1569 
Q 847 1681 609 1914 
Q 372 2147 372 2553 
Q 372 3047 722 3315 
Q 1072 3584 1716 3584 
Q 2034 3584 2315 3537 
Q 2597 3491 2834 3397 
z
" transform="scale(0.015625)"/>
     </defs>
     <use xlink:href="#DejaVuSans-42"/>
     <use xlink:href="#DejaVuSans-61" transform="translate(68.603516 0)"/>
     <use xlink:href="#DejaVuSans-73" transform="translate(129.882812 0)"/>
     <use xlink:href="#DejaVuSans-65" transform="translate(181.982422 0)"/>
     <use xlink:href="#DejaVuSans-6c" transform="translate(243.505859 0)"/>
     <use xlink:href="#DejaVuSans-69" transform="translate(271.289062 0)"/>
     <use xlink:href="#DejaVuSans-6e" transform="translate(299.072266 0)"/>
     <use xlink:href="#DejaVuSans-65" transform="translate(362.451172 0)"/>
    </g>
   </g>
   <g id="line2d_80">
    <path d="M 426.069687 231.474594 
L 436.069687 231.474594 
L 446.069687 231.474594 
" style="fill: none; stroke: #e6550d; stroke-width: 2.2; stroke-linecap: square"/>
    <g>
     <use xlink:href="#md01fa59ee2" x="436.069687" y="231.474594" style="fill: #e6550d; stroke: #e6550d"/>
    </g>
   </g>
   <g id="text_61">
    <!-- Anti-Slop -->
    <g transform="translate(454.069687 234.974594) scale(0.1 -0.1)">
     <defs>
      <path id="DejaVuSans-41" d="M 2188 4044 
L 1331 1722 
L 3047 1722 
L 2188 4044 
z
M 1831 4666 
L 2547 4666 
L 4325 0 
L 3669 0 
L 3244 1197 
L 1141 1197 
L 716 0 
L 50 0 
L 1831 4666 
z
" transform="scale(0.015625)"/>
      <path id="DejaVuSans-2d" d="M 313 2009 
L 1997 2009 
L 1997 1497 
L 313 1497 
L 313 2009 
z
" transform="scale(0.015625)"/>
      <path id="DejaVuSans-6f" d="M 1959 3097 
Q 1497 3097 1228 2736 
Q 959 2375 959 1747 
Q 959 1119 1226 758 
Q 1494 397 1959 397 
Q 2419 397 2687 759 
Q 2956 1122 2956 1747 
Q 2956 2369 2687 2733 
Q 2419 3097 1959 3097 
z
M 1959 3584 
Q 2709 3584 3137 3096 
Q 3566 2609 3566 1747 
Q 3566 888 3137 398 
Q 2709 -91 1959 -91 
Q 1206 -91 779 398 
Q 353 888 353 1747 
Q 353 2609 779 3096 
Q 1206 3584 1959 3584 
z
" transform="scale(0.015625)"/>
      <path id="DejaVuSans-70" d="M 1159 525 
L 1159 -1331 
L 581 -1331 
L 581 3500 
L 1159 3500 
L 1159 2969 
Q 1341 3281 1617 3432 
Q 1894 3584 2278 3584 
Q 2916 3584 3314 3078 
Q 3713 2572 3713 1747 
Q 3713 922 3314 415 
Q 2916 -91 2278 -91 
Q 1894 -91 1617 61 
Q 1341 213 1159 525 
z
M 3116 1747 
Q 3116 2381 2855 2742 
Q 2594 3103 2138 3103 
Q 1681 3103 1420 2742 
Q 1159 2381 1159 1747 
Q 1159 1113 1420 752 
Q 1681 391 2138 391 
Q 2594 391 2855 752 
Q 3116 1113 3116 1747 
z
" transform="scale(0.015625)"/>
     </defs>
     <use xlink:href="#DejaVuSans-41"/>
     <use xlink:href="#DejaVuSans-6e" transform="translate(68.408203 0)"/>
     <use xlink:href="#DejaVuSans-74" transform="translate(131.787109 0)"/>
     <use xlink:href="#DejaVuSans-69" transform="translate(170.996094 0)"/>
     <use xlink:href="#DejaVuSans-2d" transform="translate(198.779297 0)"/>
     <use xlink:href="#DejaVuSans-53" transform="translate(234.863281 0)"/>
     <use xlink:href="#DejaVuSans-6c" transform="translate(298.339844 0)"/>
     <use xlink:href="#DejaVuSans-6f" transform="translate(326.123047 0)"/>
     <use xlink:href="#DejaVuSans-70" transform="translate(387.304688 0)"/>
    </g>
   </g>
   <g id="line2d_81">
    <path d="M 519.147812 231.474594 
L 529.147812 231.474594 
L 539.147812 231.474594 
" style="fill: none; stroke: #56a358; stroke-width: 2.2; stroke-linecap: square"/>
    <g>
     <use xlink:href="#m26515c9f52" x="529.147812" y="231.474594" style="fill: #56a358; stroke: #56a358"/>
    </g>
   </g>
   <g id="text_62">
    <!-- Plan-First -->
    <g transform="translate(547.147812 234.974594) scale(0.1 -0.1)">
     <defs>
      <path id="DejaVuSans-50" d="M 1259 4147 
L 1259 2394 
L 2053 2394 
Q 2494 2394 2734 2622 
Q 2975 2850 2975 3272 
Q 2975 3691 2734 3919 
Q 2494 4147 2053 4147 
L 1259 4147 
z
M 628 4666 
L 2053 4666 
Q 2838 4666 3239 4311 
Q 3641 3956 3641 3272 
Q 3641 2581 3239 2228 
Q 2838 1875 2053 1875 
L 1259 1875 
L 1259 0 
L 628 0 
L 628 4666 
z
" transform="scale(0.015625)"/>
     </defs>
     <use xlink:href="#DejaVuSans-50"/>
     <use xlink:href="#DejaVuSans-6c" transform="translate(60.302734 0)"/>
     <use xlink:href="#DejaVuSans-61" transform="translate(88.085938 0)"/>
     <use xlink:href="#DejaVuSans-6e" transform="translate(149.365234 0)"/>
     <use xlink:href="#DejaVuSans-2d" transform="translate(212.744141 0)"/>
     <use xlink:href="#DejaVuSans-46" transform="translate(248.828125 0)"/>
     <use xlink:href="#DejaVuSans-69" transform="translate(299.097656 0)"/>
     <use xlink:href="#DejaVuSans-72" transform="translate(326.880859 0)"/>
     <use xlink:href="#DejaVuSans-73" transform="translate(367.994141 0)"/>
     <use xlink:href="#DejaVuSans-74" transform="translate(420.09375 0)"/>
    </g>
   </g>
  </g>
 </g>
 <defs>
  <clipPath id="pe47bf9b975">
   <rect x="28.512812" y="21.558281" width="190.276145" height="180.92"/>
  </clipPath>
  <clipPath id="pdf43f8f026">
   <rect x="261.230313" y="21.558281" width="190.276145" height="180.92"/>
  </clipPath>
  <clipPath id="p6a3490a6c6">
   <rect x="493.947813" y="21.558281" width="190.276145" height="180.92"/>
  </clipPath>
  <clipPath id="p5b806d799f">
   <rect x="726.665313" y="21.558281" width="190.276145" height="180.92"/>
  </clipPath>
 </defs>
</svg>
