<?xml version="1.0" encoding="utf-8" standalone="no"?>
<!DOCTYPE svg PUBLIC "-//W3C//DTD SVG 1.1//EN"
  "http://www.w3.org/Graphics/SVG/1.1/DTD/svg11.dtd">
<svg xmlns:xlink="http://www.w3.org/1999/xlink" width="568.487922pt" height="144.81675pt" viewBox="0 0 568.487922 144.81675" xmlns="http://www.w3.org/2000/svg" version="1.1">
 <metadata>
  <rdf:RDF xmlns:dc="http://purl.org/dc/elements/1.1/" xmlns:cc="http://creativecommons.org/ns#" xmlns:rdf="http://www.w3.org/1999/02/22-rdf-syntax-ns#">
   <cc:Work>
    <dc:type rdf:resource="http://purl.org/dc/dcmitype/StillImage"/>
    <dc:date>2026-05-05T14:21:42.294598</dc:date>
    <dc:format>image/svg+xml</dc:format>
    <dc:creator>
     <cc:Agent>
      <dc:title>Matplotlib v3.10.8, https://matplotlib.org/</dc:title>
     </cc:Agent>
    </dc:creator>
   </cc:Work>
  </rdf:RDF>
 </metadata>
 <defs>
  <style type="text/css">*{stroke-linejoin: round; stroke-linecap: butt}</style>
 </defs>
 <g id="figure_1">
  <g id="patch_1">
   <path d="M 0 144.81675 
L 568.487922 144.81675 
L 568.487922 0 
L 0 0 
z
" style="fill: #ffffff"/>
  </g>
  <g id="axes_1">
   <g id="patch_2">
    <path d="M 29.76875 102.51675 
L 133.430442 102.51675 
L 133.430442 20.56875 
L 29.76875 20.56875 
z
" style="fill: #ffffff"/>
   </g>
   <g id="matplotlib.axis_1">
    <g id="xtick_1">
     <g id="line2d_1">
      <defs>
       <path id="ma89789ef1c" d="M 0 0 
L 0 3.5 
" style="stroke: #000000; stroke-width: 0.8"/>
      </defs>
      <g>
       <use xlink:href="#ma89789ef1c" x="34.480645" y="102.51675" style="stroke: #000000; stroke-width: 0.8"/>
      </g>
     </g>
     <g id="text_1">
      <!-- Start -->
      <g transform="translate(26.03377 115.2555) scale(0.08 -0.08)">
       <defs>
        <path id="Helvetica-53" d="M 894 1481 
Q 916 1091 1078 847 
Q 1388 391 2169 391 
Q 2519 391 2806 491 
Q 3363 684 3363 1184 
Q 3363 1559 3128 1719 
Q 2891 1875 2384 1991 
L 1763 2131 
Q 1153 2269 900 2434 
Q 463 2722 463 3294 
Q 463 3913 891 4309 
Q 1319 4706 2103 4706 
Q 2825 4706 3329 4357 
Q 3834 4009 3834 3244 
L 3250 3244 
Q 3203 3613 3050 3809 
Q 2766 4169 2084 4169 
Q 1534 4169 1293 3937 
Q 1053 3706 1053 3400 
Q 1053 3063 1334 2906 
Q 1519 2806 2169 2656 
L 2813 2509 
Q 3278 2403 3531 2219 
Q 3969 1897 3969 1284 
Q 3969 522 3414 194 
Q 2859 -134 2125 -134 
Q 1269 -134 784 303 
Q 300 738 309 1481 
L 894 1481 
z
M 2150 4716 
L 2150 4716 
z
" transform="scale(0.015625)"/>
        <path id="Helvetica-74" d="M 525 4281 
L 1094 4281 
L 1094 3347 
L 1628 3347 
L 1628 2888 
L 1094 2888 
L 1094 703 
Q 1094 528 1213 469 
Q 1278 434 1431 434 
Q 1472 434 1519 436 
Q 1566 438 1628 444 
L 1628 0 
Q 1531 -28 1426 -40 
Q 1322 -53 1200 -53 
Q 806 -53 665 148 
Q 525 350 525 672 
L 525 2888 
L 72 2888 
L 72 3347 
L 525 3347 
L 525 4281 
z
" transform="scale(0.015625)"/>
        <path id="Helvetica-61" d="M 844 891 
Q 844 647 1022 506 
Q 1200 366 1444 366 
Q 1741 366 2019 503 
Q 2488 731 2488 1250 
L 2488 1703 
Q 2384 1638 2221 1594 
Q 2059 1550 1903 1531 
L 1563 1488 
Q 1256 1447 1103 1359 
Q 844 1213 844 891 
z
M 2206 2028 
Q 2400 2053 2466 2191 
Q 2503 2266 2503 2406 
Q 2503 2694 2298 2823 
Q 2094 2953 1713 2953 
Q 1272 2953 1088 2716 
Q 984 2584 953 2325 
L 428 2325 
Q 444 2944 830 3186 
Q 1216 3428 1725 3428 
Q 2316 3428 2684 3203 
Q 3050 2978 3050 2503 
L 3050 575 
Q 3050 488 3086 434 
Q 3122 381 3238 381 
Q 3275 381 3322 386 
Q 3369 391 3422 400 
L 3422 -16 
Q 3291 -53 3222 -62 
Q 3153 -72 3034 -72 
Q 2744 -72 2613 134 
Q 2544 244 2516 444 
Q 2344 219 2022 53 
Q 1700 -113 1313 -113 
Q 847 -113 551 170 
Q 256 453 256 878 
Q 256 1344 547 1600 
Q 838 1856 1309 1916 
L 2206 2028 
z
M 1741 3428 
L 1741 3428 
z
" transform="scale(0.015625)"/>
        <path id="Helvetica-72" d="M 428 3347 
L 963 3347 
L 963 2769 
Q 1028 2938 1284 3180 
Q 1541 3422 1875 3422 
Q 1891 3422 1928 3419 
Q 1966 3416 2056 3406 
L 2056 2813 
Q 2006 2822 1964 2825 
Q 1922 2828 1872 2828 
Q 1447 2828 1219 2554 
Q 991 2281 991 1925 
L 991 0 
L 428 0 
L 428 3347 
z
" transform="scale(0.015625)"/>
       </defs>
       <use xlink:href="#Helvetica-53"/>
       <use xlink:href="#Helvetica-74" transform="translate(66.699219 0)"/>
       <use xlink:href="#Helvetica-61" transform="translate(94.482422 0)"/>
       <use xlink:href="#Helvetica-72" transform="translate(150.097656 0)"/>
       <use xlink:href="#Helvetica-74" transform="translate(183.398438 0)"/>
      </g>
     </g>
    </g>
    <g id="xtick_2">
     <g id="line2d_2">
      <g>
       <use xlink:href="#ma89789ef1c" x="58.040121" y="102.51675" style="stroke: #000000; stroke-width: 0.8"/>
      </g>
     </g>
     <g id="text_2">
      <!-- Early -->
      <g transform="translate(48.926996 115.2555) scale(0.08 -0.08)">
       <defs>
        <path id="Helvetica-45" d="M 547 4591 
L 3894 4591 
L 3894 4028 
L 1153 4028 
L 1153 2634 
L 3688 2634 
L 3688 2103 
L 1153 2103 
L 1153 547 
L 3941 547 
L 3941 0 
L 547 0 
L 547 4591 
z
M 2244 4591 
L 2244 4591 
z
" transform="scale(0.015625)"/>
        <path id="Helvetica-6c" d="M 428 4591 
L 991 4591 
L 991 0 
L 428 0 
L 428 4591 
z
" transform="scale(0.015625)"/>
        <path id="Helvetica-79" d="M 2503 3347 
L 3125 3347 
Q 3006 3025 2597 1878 
Q 2291 1016 2084 472 
Q 1597 -809 1397 -1090 
Q 1197 -1372 709 -1372 
Q 591 -1372 527 -1362 
Q 463 -1353 369 -1328 
L 369 -816 
Q 516 -856 581 -865 
Q 647 -875 697 -875 
Q 853 -875 926 -823 
Q 1000 -772 1050 -697 
Q 1066 -672 1162 -440 
Q 1259 -209 1303 -97 
L 66 3347 
L 703 3347 
L 1600 622 
L 2503 3347 
z
M 1597 3428 
L 1597 3428 
z
" transform="scale(0.015625)"/>
       </defs>
       <use xlink:href="#Helvetica-45"/>
       <use xlink:href="#Helvetica-61" transform="translate(66.699219 0)"/>
       <use xlink:href="#Helvetica-72" transform="translate(122.314453 0)"/>
       <use xlink:href="#Helvetica-6c" transform="translate(155.615234 0)"/>
       <use xlink:href="#Helvetica-79" transform="translate(177.832031 0)"/>
      </g>
     </g>
    </g>
    <g id="xtick_3">
     <g id="line2d_3">
      <g>
       <use xlink:href="#ma89789ef1c" x="81.599596" y="102.51675" style="stroke: #000000; stroke-width: 0.8"/>
      </g>
     </g>
     <g id="text_3">
      <!-- Mid -->
      <g transform="translate(75.154596 115.2555) scale(0.08 -0.08)">
       <defs>
        <path id="Helvetica-4d" d="M 472 4591 
L 1363 4591 
L 2681 709 
L 3991 4591 
L 4872 4591 
L 4872 0 
L 4281 0 
L 4281 2709 
Q 4281 2850 4287 3175 
Q 4294 3500 4294 3872 
L 2984 0 
L 2369 0 
L 1050 3872 
L 1050 3731 
Q 1050 3563 1058 3217 
Q 1066 2872 1066 2709 
L 1066 0 
L 472 0 
L 472 4591 
z
" transform="scale(0.015625)"/>
        <path id="Helvetica-69" d="M 413 3331 
L 984 3331 
L 984 0 
L 413 0 
L 413 3331 
z
M 413 4591 
L 984 4591 
L 984 3953 
L 413 3953 
L 413 4591 
z
" transform="scale(0.015625)"/>
        <path id="Helvetica-64" d="M 769 1634 
Q 769 1097 997 734 
Q 1225 372 1728 372 
Q 2119 372 2370 708 
Q 2622 1044 2622 1672 
Q 2622 2306 2362 2611 
Q 2103 2916 1722 2916 
Q 1297 2916 1033 2591 
Q 769 2266 769 1634 
z
M 1616 3406 
Q 2000 3406 2259 3244 
Q 2409 3150 2600 2916 
L 2600 4606 
L 3141 4606 
L 3141 0 
L 2634 0 
L 2634 466 
Q 2438 156 2169 18 
Q 1900 -119 1553 -119 
Q 994 -119 584 351 
Q 175 822 175 1603 
Q 175 2334 548 2870 
Q 922 3406 1616 3406 
z
" transform="scale(0.015625)"/>
       </defs>
       <use xlink:href="#Helvetica-4d"/>
       <use xlink:href="#Helvetica-69" transform="translate(83.300781 0)"/>
       <use xlink:href="#Helvetica-64" transform="translate(105.517578 0)"/>
      </g>
     </g>
    </g>
    <g id="xtick_4">
     <g id="line2d_4">
      <g>
       <use xlink:href="#ma89789ef1c" x="105.159072" y="102.51675" style="stroke: #000000; stroke-width: 0.8"/>
      </g>
     </g>
     <g id="text_4">
      <!-- Late -->
      <g transform="translate(97.374697 115.2555) scale(0.08 -0.08)">
       <defs>
        <path id="Helvetica-4c" d="M 488 4591 
L 1109 4591 
L 1109 547 
L 3434 547 
L 3434 0 
L 488 0 
L 488 4591 
z
" transform="scale(0.015625)"/>
        <path id="Helvetica-65" d="M 1806 3422 
Q 2163 3422 2497 3255 
Q 2831 3088 3006 2822 
Q 3175 2569 3231 2231 
Q 3281 2000 3281 1494 
L 828 1494 
Q 844 984 1069 676 
Q 1294 369 1766 369 
Q 2206 369 2469 659 
Q 2619 828 2681 1050 
L 3234 1050 
Q 3213 866 3089 639 
Q 2966 413 2813 269 
Q 2556 19 2178 -69 
Q 1975 -119 1719 -119 
Q 1094 -119 659 336 
Q 225 791 225 1609 
Q 225 2416 662 2919 
Q 1100 3422 1806 3422 
z
M 2703 1941 
Q 2669 2306 2544 2525 
Q 2313 2931 1772 2931 
Q 1384 2931 1121 2651 
Q 859 2372 844 1941 
L 2703 1941 
z
M 1753 3428 
L 1753 3428 
z
" transform="scale(0.015625)"/>
       </defs>
       <use xlink:href="#Helvetica-4c"/>
       <use xlink:href="#Helvetica-61" transform="translate(55.615234 0)"/>
       <use xlink:href="#Helvetica-74" transform="translate(111.230469 0)"/>
       <use xlink:href="#Helvetica-65" transform="translate(139.013672 0)"/>
      </g>
     </g>
    </g>
    <g id="xtick_5">
     <g id="line2d_5">
      <g>
       <use xlink:href="#ma89789ef1c" x="128.718547" y="102.51675" style="stroke: #000000; stroke-width: 0.8"/>
      </g>
     </g>
     <g id="text_5">
      <!-- Final -->
      <g transform="translate(120.049172 115.2555) scale(0.08 -0.08)">
       <defs>
        <path id="Helvetica-46" d="M 547 4591 
L 3731 4591 
L 3731 4028 
L 1169 4028 
L 1169 2634 
L 3422 2634 
L 3422 2088 
L 1169 2088 
L 1169 0 
L 547 0 
L 547 4591 
z
" transform="scale(0.015625)"/>
        <path id="Helvetica-6e" d="M 413 3347 
L 947 3347 
L 947 2872 
Q 1184 3166 1450 3294 
Q 1716 3422 2041 3422 
Q 2753 3422 3003 2925 
Q 3141 2653 3141 2147 
L 3141 0 
L 2569 0 
L 2569 2109 
Q 2569 2416 2478 2603 
Q 2328 2916 1934 2916 
Q 1734 2916 1606 2875 
Q 1375 2806 1200 2600 
Q 1059 2434 1017 2257 
Q 975 2081 975 1753 
L 975 0 
L 413 0 
L 413 3347 
z
M 1734 3428 
L 1734 3428 
z
" transform="scale(0.015625)"/>
       </defs>
       <use xlink:href="#Helvetica-46"/>
       <use xlink:href="#Helvetica-69" transform="translate(61.083984 0)"/>
       <use xlink:href="#Helvetica-6e" transform="translate(83.300781 0)"/>
       <use xlink:href="#Helvetica-61" transform="translate(138.916016 0)"/>
       <use xlink:href="#Helvetica-6c" transform="translate(194.53125 0)"/>
      </g>
     </g>
    </g>
   </g>
   <g id="matplotlib.axis_2">
    <g id="ytick_1">
     <g id="line2d_6">
      <path d="M 29.76875 88.524276 
L 133.430442 88.524276 
" clip-path="url(#p0bb0adf7d7)" style="fill: none; stroke: #cccccc; stroke-width: 0.6; stroke-linecap: square"/>
     </g>
     <g id="line2d_7">
      <defs>
       <path id="me45b956ace" d="M 0 0 
L -3.5 0 
" style="stroke: #000000; stroke-width: 0.8"/>
      </defs>
      <g>
       <use xlink:href="#me45b956ace" x="29.76875" y="88.524276" style="stroke: #000000; stroke-width: 0.8"/>
      </g>
     </g>
     <g id="text_6">
      <!-- 0.65 -->
      <g transform="translate(7.2 91.393651) scale(0.08 -0.08)">
       <defs>
        <path id="Helvetica-30" d="M 1731 4475 
Q 2600 4475 2988 3759 
Q 3288 3206 3288 2244 
Q 3288 1331 3016 734 
Q 2622 -122 1728 -122 
Q 922 -122 528 578 
Q 200 1163 200 2147 
Q 200 2909 397 3456 
Q 766 4475 1731 4475 
z
M 1725 391 
Q 2163 391 2422 778 
Q 2681 1166 2681 2222 
Q 2681 2984 2493 3476 
Q 2306 3969 1766 3969 
Q 1269 3969 1039 3501 
Q 809 3034 809 2125 
Q 809 1441 956 1025 
Q 1181 391 1725 391 
z
" transform="scale(0.015625)"/>
        <path id="Helvetica-2e" d="M 547 681 
L 1200 681 
L 1200 0 
L 547 0 
L 547 681 
z
" transform="scale(0.015625)"/>
        <path id="Helvetica-36" d="M 1872 4494 
Q 2622 4494 2917 4105 
Q 3213 3716 3213 3303 
L 2656 3303 
Q 2606 3569 2497 3719 
Q 2294 4000 1881 4000 
Q 1409 4000 1131 3564 
Q 853 3128 822 2316 
Q 1016 2600 1309 2741 
Q 1578 2866 1909 2866 
Q 2472 2866 2890 2506 
Q 3309 2147 3309 1434 
Q 3309 825 2912 354 
Q 2516 -116 1781 -116 
Q 1153 -116 697 361 
Q 241 838 241 1966 
Q 241 2800 444 3381 
Q 834 4494 1872 4494 
z
M 1831 384 
Q 2275 384 2495 682 
Q 2716 981 2716 1388 
Q 2716 1731 2519 2042 
Q 2322 2353 1803 2353 
Q 1441 2353 1167 2112 
Q 894 1872 894 1388 
Q 894 963 1142 673 
Q 1391 384 1831 384 
z
" transform="scale(0.015625)"/>
        <path id="Helvetica-35" d="M 791 1141 
Q 847 659 1238 475 
Q 1438 381 1700 381 
Q 2200 381 2440 700 
Q 2681 1019 2681 1406 
Q 2681 1875 2395 2131 
Q 2109 2388 1709 2388 
Q 1419 2388 1211 2275 
Q 1003 2163 856 1963 
L 369 1991 
L 709 4400 
L 3034 4400 
L 3034 3856 
L 1131 3856 
L 941 2613 
Q 1097 2731 1238 2791 
Q 1488 2894 1816 2894 
Q 2431 2894 2859 2497 
Q 3288 2100 3288 1491 
Q 3288 856 2895 371 
Q 2503 -113 1644 -113 
Q 1097 -113 676 195 
Q 256 503 206 1141 
L 791 1141 
z
" transform="scale(0.015625)"/>
       </defs>
       <use xlink:href="#Helvetica-30"/>
       <use xlink:href="#Helvetica-2e" transform="translate(55.615234 0)"/>
       <use xlink:href="#Helvetica-36" transform="translate(83.398438 0)"/>
       <use xlink:href="#Helvetica-35" transform="translate(139.013672 0)"/>
      </g>
     </g>
    </g>
    <g id="ytick_2">
     <g id="line2d_8">
      <path d="M 29.76875 66.58955 
L 133.430442 66.58955 
" clip-path="url(#p0bb0adf7d7)" style="fill: none; stroke: #cccccc; stroke-width: 0.6; stroke-linecap: square"/>
     </g>
     <g id="line2d_9">
      <g>
       <use xlink:href="#me45b956ace" x="29.76875" y="66.58955" style="stroke: #000000; stroke-width: 0.8"/>
      </g>
     </g>
     <g id="text_7">
      <!-- 0.70 -->
      <g transform="translate(7.2 69.458925) scale(0.08 -0.08)">
       <defs>
        <path id="Helvetica-37" d="M 3347 4400 
L 3347 3909 
Q 3131 3700 2773 3181 
Q 2416 2663 2141 2063 
Q 1869 1478 1728 997 
Q 1638 688 1494 0 
L 872 0 
Q 1084 1281 1809 2550 
Q 2238 3294 2709 3834 
L 234 3834 
L 234 4400 
L 3347 4400 
z
" transform="scale(0.015625)"/>
       </defs>
       <use xlink:href="#Helvetica-30"/>
       <use xlink:href="#Helvetica-2e" transform="translate(55.615234 0)"/>
       <use xlink:href="#Helvetica-37" transform="translate(83.398438 0)"/>
       <use xlink:href="#Helvetica-30" transform="translate(139.013672 0)"/>
      </g>
     </g>
    </g>
    <g id="ytick_3">
     <g id="line2d_10">
      <path d="M 29.76875 44.654825 
L 133.430442 44.654825 
" clip-path="url(#p0bb0adf7d7)" style="fill: none; stroke: #cccccc; stroke-width: 0.6; stroke-linecap: square"/>
     </g>
     <g id="line2d_11">
      <g>
       <use xlink:href="#me45b956ace" x="29.76875" y="44.654825" style="stroke: #000000; stroke-width: 0.8"/>
      </g>
     </g>
     <g id="text_8">
      <!-- 0.75 -->
      <g transform="translate(7.2 47.5242) scale(0.08 -0.08)">
       <use xlink:href="#Helvetica-30"/>
       <use xlink:href="#Helvetica-2e" transform="translate(55.615234 0)"/>
       <use xlink:href="#Helvetica-37" transform="translate(83.398438 0)"/>
       <use xlink:href="#Helvetica-35" transform="translate(139.013672 0)"/>
      </g>
     </g>
    </g>
    <g id="ytick_4">
     <g id="line2d_12">
      <path d="M 29.76875 22.720099 
L 133.430442 22.720099 
" clip-path="url(#p0bb0adf7d7)" style="fill: none; stroke: #cccccc; stroke-width: 0.6; stroke-linecap: square"/>
     </g>
     <g id="line2d_13">
      <g>
       <use xlink:href="#me45b956ace" x="29.76875" y="22.720099" style="stroke: #000000; stroke-width: 0.8"/>
      </g>
     </g>
     <g id="text_9">
      <!-- 0.80 -->
      <g transform="translate(7.2 25.589474) scale(0.08 -0.08)">
       <defs>
        <path id="Helvetica-38" d="M 1741 2600 
Q 2113 2600 2322 2808 
Q 2531 3016 2531 3303 
Q 2531 3553 2331 3762 
Q 2131 3972 1722 3972 
Q 1316 3972 1134 3762 
Q 953 3553 953 3272 
Q 953 2956 1187 2778 
Q 1422 2600 1741 2600 
z
M 1775 384 
Q 2166 384 2423 595 
Q 2681 806 2681 1225 
Q 2681 1659 2415 1884 
Q 2150 2109 1734 2109 
Q 1331 2109 1076 1879 
Q 822 1650 822 1244 
Q 822 894 1055 639 
Q 1288 384 1775 384 
z
M 975 2384 
Q 741 2484 609 2619 
Q 363 2869 363 3269 
Q 363 3769 725 4128 
Q 1088 4488 1753 4488 
Q 2397 4488 2762 4148 
Q 3128 3809 3128 3356 
Q 3128 2938 2916 2678 
Q 2797 2531 2547 2391 
Q 2825 2263 2984 2097 
Q 3281 1784 3281 1284 
Q 3281 694 2884 283 
Q 2488 -128 1763 -128 
Q 1109 -128 657 226 
Q 206 581 206 1256 
Q 206 1653 400 1942 
Q 594 2231 975 2384 
z
" transform="scale(0.015625)"/>
       </defs>
       <use xlink:href="#Helvetica-30"/>
       <use xlink:href="#Helvetica-2e" transform="translate(55.615234 0)"/>
       <use xlink:href="#Helvetica-38" transform="translate(83.398438 0)"/>
       <use xlink:href="#Helvetica-30" transform="translate(139.013672 0)"/>
      </g>
     </g>
    </g>
   </g>
   <g id="line2d_14">
    <path d="M 34.480645 98.791841 
L 58.040121 43.482826 
L 81.599596 36.983197 
L 105.159072 41.398952 
L 128.718547 24.293659 
" clip-path="url(#p0bb0adf7d7)" style="fill: none; stroke: #f59a5a; stroke-width: 2.5; stroke-linecap: square"/>
   </g>
   <g id="line2d_15">
    <path d="M 34.480645 66.481923 
L 58.040121 49.60987 
L 81.599596 48.426005 
L 105.159072 44.457418 
L 128.718547 42.511071 
" clip-path="url(#p0bb0adf7d7)" style="fill: none; stroke: #ea6b41; stroke-width: 2.5; stroke-linecap: square"/>
   </g>
   <g id="line2d_16">
    <path d="M 34.480645 66.159446 
L 58.040121 45.199029 
L 81.599596 27.209378 
L 105.159072 34.79336 
L 128.718547 29.357353 
" clip-path="url(#p0bb0adf7d7)" style="fill: none; stroke: #7a2a1b; stroke-width: 2.5; stroke-linecap: square"/>
   </g>
   <g id="patch_3">
    <path d="M 29.76875 102.51675 
L 29.76875 20.56875 
" style="fill: none; stroke: #000000; stroke-width: 0.8; stroke-linejoin: miter; stroke-linecap: square"/>
   </g>
   <g id="patch_4">
    <path d="M 133.430442 102.51675 
L 133.430442 20.56875 
" style="fill: none; stroke: #000000; stroke-width: 0.8; stroke-linejoin: miter; stroke-linecap: square"/>
   </g>
   <g id="patch_5">
    <path d="M 29.76875 102.51675 
L 133.430442 102.51675 
" style="fill: none; stroke: #000000; stroke-width: 0.8; stroke-linejoin: miter; stroke-linecap: square"/>
   </g>
   <g id="patch_6">
    <path d="M 29.76875 20.56875 
L 133.430442 20.56875 
" style="fill: none; stroke: #000000; stroke-width: 0.8; stroke-linejoin: miter; stroke-linecap: square"/>
   </g>
   <g id="text_10">
    <!-- Anthropic Erosion -->
    <g transform="translate(42.136315 14.56875) scale(0.1 -0.1)">
     <defs>
      <path id="Helvetica-41" d="M 2844 1881 
L 2147 3909 
L 1406 1881 
L 2844 1881 
z
M 1822 4591 
L 2525 4591 
L 4191 0 
L 3509 0 
L 3044 1375 
L 1228 1375 
L 731 0 
L 94 0 
L 1822 4591 
z
" transform="scale(0.015625)"/>
      <path id="Helvetica-68" d="M 413 4606 
L 975 4606 
L 975 2894 
Q 1175 3147 1334 3250 
Q 1606 3428 2013 3428 
Q 2741 3428 3000 2919 
Q 3141 2641 3141 2147 
L 3141 0 
L 2563 0 
L 2563 2109 
Q 2563 2478 2469 2650 
Q 2316 2925 1894 2925 
Q 1544 2925 1259 2684 
Q 975 2444 975 1775 
L 975 0 
L 413 0 
L 413 4606 
z
" transform="scale(0.015625)"/>
      <path id="Helvetica-6f" d="M 1741 363 
Q 2300 363 2508 786 
Q 2716 1209 2716 1728 
Q 2716 2197 2566 2491 
Q 2328 2953 1747 2953 
Q 1231 2953 997 2559 
Q 763 2166 763 1609 
Q 763 1075 997 719 
Q 1231 363 1741 363 
z
M 1763 3444 
Q 2409 3444 2856 3012 
Q 3303 2581 3303 1744 
Q 3303 934 2909 406 
Q 2516 -122 1688 -122 
Q 997 -122 590 345 
Q 184 813 184 1600 
Q 184 2444 612 2944 
Q 1041 3444 1763 3444 
z
M 1744 3428 
L 1744 3428 
z
" transform="scale(0.015625)"/>
      <path id="Helvetica-70" d="M 1825 378 
Q 2219 378 2480 708 
Q 2741 1038 2741 1694 
Q 2741 2094 2625 2381 
Q 2406 2934 1825 2934 
Q 1241 2934 1025 2350 
Q 909 2038 909 1556 
Q 909 1169 1025 897 
Q 1244 378 1825 378 
z
M 369 3331 
L 916 3331 
L 916 2888 
Q 1084 3116 1284 3241 
Q 1569 3428 1953 3428 
Q 2522 3428 2919 2992 
Q 3316 2556 3316 1747 
Q 3316 653 2744 184 
Q 2381 -113 1900 -113 
Q 1522 -113 1266 53 
Q 1116 147 931 375 
L 931 -1334 
L 369 -1334 
L 369 3331 
z
" transform="scale(0.015625)"/>
      <path id="Helvetica-63" d="M 1703 3444 
Q 2269 3444 2623 3169 
Q 2978 2894 3050 2222 
L 2503 2222 
Q 2453 2531 2275 2736 
Q 2097 2941 1703 2941 
Q 1166 2941 934 2416 
Q 784 2075 784 1575 
Q 784 1072 996 728 
Q 1209 384 1666 384 
Q 2016 384 2220 598 
Q 2425 813 2503 1184 
L 3050 1184 
Q 2956 519 2581 211 
Q 2206 -97 1622 -97 
Q 966 -97 575 383 
Q 184 863 184 1581 
Q 184 2463 612 2953 
Q 1041 3444 1703 3444 
z
M 1616 3428 
L 1616 3428 
z
" transform="scale(0.015625)"/>
      <path id="Helvetica-20" transform="scale(0.015625)"/>
      <path id="Helvetica-73" d="M 747 1050 
Q 772 769 888 619 
Q 1100 347 1625 347 
Q 1938 347 2175 483 
Q 2413 619 2413 903 
Q 2413 1119 2222 1231 
Q 2100 1300 1741 1391 
L 1294 1503 
Q 866 1609 663 1741 
Q 300 1969 300 2372 
Q 300 2847 642 3140 
Q 984 3434 1563 3434 
Q 2319 3434 2653 2991 
Q 2863 2709 2856 2384 
L 2325 2384 
Q 2309 2575 2191 2731 
Q 1997 2953 1519 2953 
Q 1200 2953 1036 2831 
Q 872 2709 872 2509 
Q 872 2291 1088 2159 
Q 1213 2081 1456 2022 
L 1828 1931 
Q 2434 1784 2641 1647 
Q 2969 1431 2969 969 
Q 2969 522 2630 197 
Q 2291 -128 1597 -128 
Q 850 -128 539 211 
Q 228 550 206 1050 
L 747 1050 
z
M 1578 3428 
L 1578 3428 
z
" transform="scale(0.015625)"/>
     </defs>
     <use xlink:href="#Helvetica-41"/>
     <use xlink:href="#Helvetica-6e" transform="translate(66.699219 0)"/>
     <use xlink:href="#Helvetica-74" transform="translate(122.314453 0)"/>
     <use xlink:href="#Helvetica-68" transform="translate(150.097656 0)"/>
     <use xlink:href="#Helvetica-72" transform="translate(205.712891 0)"/>
     <use xlink:href="#Helvetica-6f" transform="translate(239.013672 0)"/>
     <use xlink:href="#Helvetica-70" transform="translate(294.628906 0)"/>
     <use xlink:href="#Helvetica-69" transform="translate(350.244141 0)"/>
     <use xlink:href="#Helvetica-63" transform="translate(372.460938 0)"/>
     <use xlink:href="#Helvetica-20" transform="translate(422.460938 0)"/>
     <use xlink:href="#Helvetica-45" transform="translate(450.244141 0)"/>
     <use xlink:href="#Helvetica-72" transform="translate(516.943359 0)"/>
     <use xlink:href="#Helvetica-6f" transform="translate(550.244141 0)"/>
     <use xlink:href="#Helvetica-73" transform="translate(605.859375 0)"/>
     <use xlink:href="#Helvetica-69" transform="translate(655.859375 0)"/>
     <use xlink:href="#Helvetica-6f" transform="translate(678.076172 0)"/>
     <use xlink:href="#Helvetica-6e" transform="translate(733.691406 0)"/>
    </g>
   </g>
  </g>
  <g id="axes_2">
   <g id="patch_7">
    <path d="M 171.06875 102.51675 
L 274.730442 102.51675 
L 274.730442 20.56875 
L 171.06875 20.56875 
z
" style="fill: #ffffff"/>
   </g>
   <g id="matplotlib.axis_3">
    <g id="xtick_6">
     <g id="line2d_17">
      <g>
       <use xlink:href="#ma89789ef1c" x="175.780645" y="102.51675" style="stroke: #000000; stroke-width: 0.8"/>
      </g>
     </g>
     <g id="text_11">
      <!-- Start -->
      <g transform="translate(167.33377 115.2555) scale(0.08 -0.08)">
       <use xlink:href="#Helvetica-53"/>
       <use xlink:href="#Helvetica-74" transform="translate(66.699219 0)"/>
       <use xlink:href="#Helvetica-61" transform="translate(94.482422 0)"/>
       <use xlink:href="#Helvetica-72" transform="translate(150.097656 0)"/>
       <use xlink:href="#Helvetica-74" transform="translate(183.398438 0)"/>
      </g>
     </g>
    </g>
    <g id="xtick_7">
     <g id="line2d_18">
      <g>
       <use xlink:href="#ma89789ef1c" x="199.340121" y="102.51675" style="stroke: #000000; stroke-width: 0.8"/>
      </g>
     </g>
     <g id="text_12">
      <!-- Early -->
      <g transform="translate(190.226996 115.2555) scale(0.08 -0.08)">
       <use xlink:href="#Helvetica-45"/>
       <use xlink:href="#Helvetica-61" transform="translate(66.699219 0)"/>
       <use xlink:href="#Helvetica-72" transform="translate(122.314453 0)"/>
       <use xlink:href="#Helvetica-6c" transform="translate(155.615234 0)"/>
       <use xlink:href="#Helvetica-79" transform="translate(177.832031 0)"/>
      </g>
     </g>
    </g>
    <g id="xtick_8">
     <g id="line2d_19">
      <g>
       <use xlink:href="#ma89789ef1c" x="222.899596" y="102.51675" style="stroke: #000000; stroke-width: 0.8"/>
      </g>
     </g>
     <g id="text_13">
      <!-- Mid -->
      <g transform="translate(216.454596 115.2555) scale(0.08 -0.08)">
       <use xlink:href="#Helvetica-4d"/>
       <use xlink:href="#Helvetica-69" transform="translate(83.300781 0)"/>
       <use xlink:href="#Helvetica-64" transform="translate(105.517578 0)"/>
      </g>
     </g>
    </g>
    <g id="xtick_9">
     <g id="line2d_20">
      <g>
       <use xlink:href="#ma89789ef1c" x="246.459072" y="102.51675" style="stroke: #000000; stroke-width: 0.8"/>
      </g>
     </g>
     <g id="text_14">
      <!-- Late -->
      <g transform="translate(238.674697 115.2555) scale(0.08 -0.08)">
       <use xlink:href="#Helvetica-4c"/>
       <use xlink:href="#Helvetica-61" transform="translate(55.615234 0)"/>
       <use xlink:href="#Helvetica-74" transform="translate(111.230469 0)"/>
       <use xlink:href="#Helvetica-65" transform="translate(139.013672 0)"/>
      </g>
     </g>
    </g>
    <g id="xtick_10">
     <g id="line2d_21">
      <g>
       <use xlink:href="#ma89789ef1c" x="270.018547" y="102.51675" style="stroke: #000000; stroke-width: 0.8"/>
      </g>
     </g>
     <g id="text_15">
      <!-- Final -->
      <g transform="translate(261.349172 115.2555) scale(0.08 -0.08)">
       <use xlink:href="#Helvetica-46"/>
       <use xlink:href="#Helvetica-69" transform="translate(61.083984 0)"/>
       <use xlink:href="#Helvetica-6e" transform="translate(83.300781 0)"/>
       <use xlink:href="#Helvetica-61" transform="translate(138.916016 0)"/>
       <use xlink:href="#Helvetica-6c" transform="translate(194.53125 0)"/>
      </g>
     </g>
    </g>
   </g>
   <g id="matplotlib.axis_4">
    <g id="ytick_5">
     <g id="line2d_22">
      <path d="M 171.06875 81.348152 
L 274.730442 81.348152 
" clip-path="url(#p4bc57cc589)" style="fill: none; stroke: #cccccc; stroke-width: 0.6; stroke-linecap: square"/>
     </g>
     <g id="line2d_23">
      <g>
       <use xlink:href="#me45b956ace" x="171.06875" y="81.348152" style="stroke: #000000; stroke-width: 0.8"/>
      </g>
     </g>
     <g id="text_16">
      <!-- 0.40 -->
      <g transform="translate(148.5 84.217527) scale(0.08 -0.08)">
       <defs>
        <path id="Helvetica-34" d="M 2116 1584 
L 2116 3613 
L 681 1584 
L 2116 1584 
z
M 2125 0 
L 2125 1094 
L 163 1094 
L 163 1644 
L 2213 4488 
L 2688 4488 
L 2688 1584 
L 3347 1584 
L 3347 1094 
L 2688 1094 
L 2688 0 
L 2125 0 
z
" transform="scale(0.015625)"/>
       </defs>
       <use xlink:href="#Helvetica-30"/>
       <use xlink:href="#Helvetica-2e" transform="translate(55.615234 0)"/>
       <use xlink:href="#Helvetica-34" transform="translate(83.398438 0)"/>
       <use xlink:href="#Helvetica-30" transform="translate(139.013672 0)"/>
      </g>
     </g>
    </g>
    <g id="ytick_6">
     <g id="line2d_24">
      <path d="M 171.06875 58.13686 
L 274.730442 58.13686 
" clip-path="url(#p4bc57cc589)" style="fill: none; stroke: #cccccc; stroke-width: 0.6; stroke-linecap: square"/>
     </g>
     <g id="line2d_25">
      <g>
       <use xlink:href="#me45b956ace" x="171.06875" y="58.13686" style="stroke: #000000; stroke-width: 0.8"/>
      </g>
     </g>
     <g id="text_17">
      <!-- 0.45 -->
      <g transform="translate(148.5 61.006235) scale(0.08 -0.08)">
       <use xlink:href="#Helvetica-30"/>
       <use xlink:href="#Helvetica-2e" transform="translate(55.615234 0)"/>
       <use xlink:href="#Helvetica-34" transform="translate(83.398438 0)"/>
       <use xlink:href="#Helvetica-35" transform="translate(139.013672 0)"/>
      </g>
     </g>
    </g>
    <g id="ytick_7">
     <g id="line2d_26">
      <path d="M 171.06875 34.925569 
L 274.730442 34.925569 
" clip-path="url(#p4bc57cc589)" style="fill: none; stroke: #cccccc; stroke-width: 0.6; stroke-linecap: square"/>
     </g>
     <g id="line2d_27">
      <g>
       <use xlink:href="#me45b956ace" x="171.06875" y="34.925569" style="stroke: #000000; stroke-width: 0.8"/>
      </g>
     </g>
     <g id="text_18">
      <!-- 0.50 -->
      <g transform="translate(148.5 37.794944) scale(0.08 -0.08)">
       <use xlink:href="#Helvetica-30"/>
       <use xlink:href="#Helvetica-2e" transform="translate(55.615234 0)"/>
       <use xlink:href="#Helvetica-35" transform="translate(83.398438 0)"/>
       <use xlink:href="#Helvetica-30" transform="translate(139.013672 0)"/>
      </g>
     </g>
    </g>
   </g>
   <g id="line2d_28">
    <path d="M 175.780645 98.780639 
L 199.340121 71.985568 
L 222.899596 53.78262 
L 246.459072 47.477579 
L 270.018547 46.693269 
" clip-path="url(#p4bc57cc589)" style="fill: none; stroke: #f59a5a; stroke-width: 2.5; stroke-linecap: square"/>
   </g>
   <g id="line2d_29">
    <path d="M 175.780645 98.791841 
L 199.340121 68.175956 
L 222.899596 45.726853 
L 246.459072 46.681093 
L 270.018547 57.77619 
" clip-path="url(#p4bc57cc589)" style="fill: none; stroke: #ea6b41; stroke-width: 2.5; stroke-linecap: square"/>
   </g>
   <g id="line2d_30">
    <path d="M 175.780645 84.23192 
L 199.340121 50.070926 
L 222.899596 28.179471 
L 246.459072 29.32491 
L 270.018547 24.293659 
" clip-path="url(#p4bc57cc589)" style="fill: none; stroke: #7a2a1b; stroke-width: 2.5; stroke-linecap: square"/>
   </g>
   <g id="patch_8">
    <path d="M 171.06875 102.51675 
L 171.06875 20.56875 
" style="fill: none; stroke: #000000; stroke-width: 0.8; stroke-linejoin: miter; stroke-linecap: square"/>
   </g>
   <g id="patch_9">
    <path d="M 274.730442 102.51675 
L 274.730442 20.56875 
" style="fill: none; stroke: #000000; stroke-width: 0.8; stroke-linejoin: miter; stroke-linecap: square"/>
   </g>
   <g id="patch_10">
    <path d="M 171.06875 102.51675 
L 274.730442 102.51675 
" style="fill: none; stroke: #000000; stroke-width: 0.8; stroke-linejoin: miter; stroke-linecap: square"/>
   </g>
   <g id="patch_11">
    <path d="M 171.06875 20.56875 
L 274.730442 20.56875 
" style="fill: none; stroke: #000000; stroke-width: 0.8; stroke-linejoin: miter; stroke-linecap: square"/>
   </g>
   <g id="text_19">
    <!-- Anthropic Verbosity -->
    <g transform="translate(179.547252 14.56875) scale(0.1 -0.1)">
     <defs>
      <path id="Helvetica-56" d="M 850 4591 
L 2169 681 
L 3472 4591 
L 4169 4591 
L 2494 0 
L 1834 0 
L 163 4591 
L 850 4591 
z
" transform="scale(0.015625)"/>
      <path id="Helvetica-62" d="M 369 4606 
L 916 4606 
L 916 2941 
Q 1100 3181 1356 3307 
Q 1613 3434 1913 3434 
Q 2538 3434 2927 3004 
Q 3316 2575 3316 1738 
Q 3316 944 2931 419 
Q 2547 -106 1866 -106 
Q 1484 -106 1222 78 
Q 1066 188 888 428 
L 888 0 
L 369 0 
L 369 4606 
z
M 1831 391 
Q 2288 391 2514 753 
Q 2741 1116 2741 1709 
Q 2741 2238 2514 2584 
Q 2288 2931 1847 2931 
Q 1463 2931 1173 2647 
Q 884 2363 884 1709 
Q 884 1238 1003 944 
Q 1225 391 1831 391 
z
" transform="scale(0.015625)"/>
     </defs>
     <use xlink:href="#Helvetica-41"/>
     <use xlink:href="#Helvetica-6e" transform="translate(66.699219 0)"/>
     <use xlink:href="#Helvetica-74" transform="translate(122.314453 0)"/>
     <use xlink:href="#Helvetica-68" transform="translate(150.097656 0)"/>
     <use xlink:href="#Helvetica-72" transform="translate(205.712891 0)"/>
     <use xlink:href="#Helvetica-6f" transform="translate(239.013672 0)"/>
     <use xlink:href="#Helvetica-70" transform="translate(294.628906 0)"/>
     <use xlink:href="#Helvetica-69" transform="translate(350.244141 0)"/>
     <use xlink:href="#Helvetica-63" transform="translate(372.460938 0)"/>
     <use xlink:href="#Helvetica-20" transform="translate(422.460938 0)"/>
     <use xlink:href="#Helvetica-56" transform="translate(450.244141 0)"/>
     <use xlink:href="#Helvetica-65" transform="translate(516.943359 0)"/>
     <use xlink:href="#Helvetica-72" transform="translate(572.558594 0)"/>
     <use xlink:href="#Helvetica-62" transform="translate(605.859375 0)"/>
     <use xlink:href="#Helvetica-6f" transform="translate(661.474609 0)"/>
     <use xlink:href="#Helvetica-73" transform="translate(717.089844 0)"/>
     <use xlink:href="#Helvetica-69" transform="translate(767.089844 0)"/>
     <use xlink:href="#Helvetica-74" transform="translate(789.306641 0)"/>
     <use xlink:href="#Helvetica-79" transform="translate(817.089844 0)"/>
    </g>
   </g>
  </g>
  <g id="axes_3">
   <g id="patch_12">
    <path d="M 312.36875 102.51675 
L 416.030442 102.51675 
L 416.030442 20.56875 
L 312.36875 20.56875 
z
" style="fill: #ffffff"/>
   </g>
   <g id="matplotlib.axis_5">
    <g id="xtick_11">
     <g id="line2d_31">
      <g>
       <use xlink:href="#ma89789ef1c" x="317.080645" y="102.51675" style="stroke: #000000; stroke-width: 0.8"/>
      </g>
     </g>
     <g id="text_20">
      <!-- Start -->
      <g transform="translate(308.63377 115.2555) scale(0.08 -0.08)">
       <use xlink:href="#Helvetica-53"/>
       <use xlink:href="#Helvetica-74" transform="translate(66.699219 0)"/>
       <use xlink:href="#Helvetica-61" transform="translate(94.482422 0)"/>
       <use xlink:href="#Helvetica-72" transform="translate(150.097656 0)"/>
       <use xlink:href="#Helvetica-74" transform="translate(183.398438 0)"/>
      </g>
     </g>
    </g>
    <g id="xtick_12">
     <g id="line2d_32">
      <g>
       <use xlink:href="#ma89789ef1c" x="340.640121" y="102.51675" style="stroke: #000000; stroke-width: 0.8"/>
      </g>
     </g>
     <g id="text_21">
      <!-- Early -->
      <g transform="translate(331.526996 115.2555) scale(0.08 -0.08)">
       <use xlink:href="#Helvetica-45"/>
       <use xlink:href="#Helvetica-61" transform="translate(66.699219 0)"/>
       <use xlink:href="#Helvetica-72" transform="translate(122.314453 0)"/>
       <use xlink:href="#Helvetica-6c" transform="translate(155.615234 0)"/>
       <use xlink:href="#Helvetica-79" transform="translate(177.832031 0)"/>
      </g>
     </g>
    </g>
    <g id="xtick_13">
     <g id="line2d_33">
      <g>
       <use xlink:href="#ma89789ef1c" x="364.199596" y="102.51675" style="stroke: #000000; stroke-width: 0.8"/>
      </g>
     </g>
     <g id="text_22">
      <!-- Mid -->
      <g transform="translate(357.754596 115.2555) scale(0.08 -0.08)">
       <use xlink:href="#Helvetica-4d"/>
       <use xlink:href="#Helvetica-69" transform="translate(83.300781 0)"/>
       <use xlink:href="#Helvetica-64" transform="translate(105.517578 0)"/>
      </g>
     </g>
    </g>
    <g id="xtick_14">
     <g id="line2d_34">
      <g>
       <use xlink:href="#ma89789ef1c" x="387.759072" y="102.51675" style="stroke: #000000; stroke-width: 0.8"/>
      </g>
     </g>
     <g id="text_23">
      <!-- Late -->
      <g transform="translate(379.974697 115.2555) scale(0.08 -0.08)">
       <use xlink:href="#Helvetica-4c"/>
       <use xlink:href="#Helvetica-61" transform="translate(55.615234 0)"/>
       <use xlink:href="#Helvetica-74" transform="translate(111.230469 0)"/>
       <use xlink:href="#Helvetica-65" transform="translate(139.013672 0)"/>
      </g>
     </g>
    </g>
    <g id="xtick_15">
     <g id="line2d_35">
      <g>
       <use xlink:href="#ma89789ef1c" x="411.318547" y="102.51675" style="stroke: #000000; stroke-width: 0.8"/>
      </g>
     </g>
     <g id="text_24">
      <!-- Final -->
      <g transform="translate(402.649172 115.2555) scale(0.08 -0.08)">
       <use xlink:href="#Helvetica-46"/>
       <use xlink:href="#Helvetica-69" transform="translate(61.083984 0)"/>
       <use xlink:href="#Helvetica-6e" transform="translate(83.300781 0)"/>
       <use xlink:href="#Helvetica-61" transform="translate(138.916016 0)"/>
       <use xlink:href="#Helvetica-6c" transform="translate(194.53125 0)"/>
      </g>
     </g>
    </g>
   </g>
   <g id="matplotlib.axis_6">
    <g id="ytick_8">
     <g id="line2d_36">
      <path d="M 312.36875 98.413239 
L 416.030442 98.413239 
" clip-path="url(#p971498aa8d)" style="fill: none; stroke: #cccccc; stroke-width: 0.6; stroke-linecap: square"/>
     </g>
     <g id="line2d_37">
      <g>
       <use xlink:href="#me45b956ace" x="312.36875" y="98.413239" style="stroke: #000000; stroke-width: 0.8"/>
      </g>
     </g>
     <g id="text_25">
      <!-- 0.4 -->
      <g transform="translate(294.24875 101.282614) scale(0.08 -0.08)">
       <use xlink:href="#Helvetica-30"/>
       <use xlink:href="#Helvetica-2e" transform="translate(55.615234 0)"/>
       <use xlink:href="#Helvetica-34" transform="translate(83.398438 0)"/>
      </g>
     </g>
    </g>
    <g id="ytick_9">
     <g id="line2d_38">
      <path d="M 312.36875 73.638976 
L 416.030442 73.638976 
" clip-path="url(#p971498aa8d)" style="fill: none; stroke: #cccccc; stroke-width: 0.6; stroke-linecap: square"/>
     </g>
     <g id="line2d_39">
      <g>
       <use xlink:href="#me45b956ace" x="312.36875" y="73.638976" style="stroke: #000000; stroke-width: 0.8"/>
      </g>
     </g>
     <g id="text_26">
      <!-- 0.5 -->
      <g transform="translate(294.24875 76.508351) scale(0.08 -0.08)">
       <use xlink:href="#Helvetica-30"/>
       <use xlink:href="#Helvetica-2e" transform="translate(55.615234 0)"/>
       <use xlink:href="#Helvetica-35" transform="translate(83.398438 0)"/>
      </g>
     </g>
    </g>
    <g id="ytick_10">
     <g id="line2d_40">
      <path d="M 312.36875 48.864713 
L 416.030442 48.864713 
" clip-path="url(#p971498aa8d)" style="fill: none; stroke: #cccccc; stroke-width: 0.6; stroke-linecap: square"/>
     </g>
     <g id="line2d_41">
      <g>
       <use xlink:href="#me45b956ace" x="312.36875" y="48.864713" style="stroke: #000000; stroke-width: 0.8"/>
      </g>
     </g>
     <g id="text_27">
      <!-- 0.6 -->
      <g transform="translate(294.24875 51.734088) scale(0.08 -0.08)">
       <use xlink:href="#Helvetica-30"/>
       <use xlink:href="#Helvetica-2e" transform="translate(55.615234 0)"/>
       <use xlink:href="#Helvetica-36" transform="translate(83.398438 0)"/>
      </g>
     </g>
    </g>
    <g id="ytick_11">
     <g id="line2d_42">
      <path d="M 312.36875 24.09045 
L 416.030442 24.09045 
" clip-path="url(#p971498aa8d)" style="fill: none; stroke: #cccccc; stroke-width: 0.6; stroke-linecap: square"/>
     </g>
     <g id="line2d_43">
      <g>
       <use xlink:href="#me45b956ace" x="312.36875" y="24.09045" style="stroke: #000000; stroke-width: 0.8"/>
      </g>
     </g>
     <g id="text_28">
      <!-- 0.7 -->
      <g transform="translate(294.24875 26.959825) scale(0.08 -0.08)">
       <use xlink:href="#Helvetica-30"/>
       <use xlink:href="#Helvetica-2e" transform="translate(55.615234 0)"/>
       <use xlink:href="#Helvetica-37" transform="translate(83.398438 0)"/>
      </g>
     </g>
    </g>
   </g>
   <g id="line2d_44">
    <path d="M 317.080645 56.569945 
L 340.640121 42.392339 
L 364.199596 34.889405 
L 387.759072 30.251935 
L 411.318547 24.293659 
" clip-path="url(#p971498aa8d)" style="fill: none; stroke: #3b82f6; stroke-width: 2.5; stroke-linecap: square"/>
   </g>
   <g id="line2d_45">
    <path d="M 317.080645 86.306406 
L 340.640121 78.957577 
L 364.199596 65.317471 
L 387.759072 65.469944 
L 411.318547 60.321898 
" clip-path="url(#p971498aa8d)" style="fill: none; stroke: #60a5fa; stroke-width: 2.5; stroke-linecap: square"/>
   </g>
   <g id="line2d_46">
    <path d="M 317.080645 98.791841 
L 340.640121 84.805859 
L 364.199596 64.267038 
L 387.759072 64.750587 
L 411.318547 60.290793 
" clip-path="url(#p971498aa8d)" style="fill: none; stroke: #0e2f63; stroke-width: 2.5; stroke-linecap: square"/>
   </g>
   <g id="patch_13">
    <path d="M 312.36875 102.51675 
L 312.36875 20.56875 
" style="fill: none; stroke: #000000; stroke-width: 0.8; stroke-linejoin: miter; stroke-linecap: square"/>
   </g>
   <g id="patch_14">
    <path d="M 416.030442 102.51675 
L 416.030442 20.56875 
" style="fill: none; stroke: #000000; stroke-width: 0.8; stroke-linejoin: miter; stroke-linecap: square"/>
   </g>
   <g id="patch_15">
    <path d="M 312.36875 102.51675 
L 416.030442 102.51675 
" style="fill: none; stroke: #000000; stroke-width: 0.8; stroke-linejoin: miter; stroke-linecap: square"/>
   </g>
   <g id="patch_16">
    <path d="M 312.36875 20.56875 
L 416.030442 20.56875 
" style="fill: none; stroke: #000000; stroke-width: 0.8; stroke-linejoin: miter; stroke-linecap: square"/>
   </g>
   <g id="text_29">
    <!-- OpenAI Erosion -->
    <g transform="translate(328.903502 14.56875) scale(0.1 -0.1)">
     <defs>
      <path id="Helvetica-4f" d="M 2469 4716 
Q 3684 4716 4269 3934 
Q 4725 3325 4725 2375 
Q 4725 1347 4203 666 
Q 3591 -134 2456 -134 
Q 1397 -134 791 566 
Q 250 1241 250 2272 
Q 250 3203 713 3866 
Q 1306 4716 2469 4716 
z
M 2531 422 
Q 3353 422 3720 1011 
Q 4088 1600 4088 2366 
Q 4088 3175 3664 3669 
Q 3241 4163 2506 4163 
Q 1794 4163 1344 3673 
Q 894 3184 894 2231 
Q 894 1469 1280 945 
Q 1666 422 2531 422 
z
M 2488 4716 
L 2488 4716 
z
" transform="scale(0.015625)"/>
      <path id="Helvetica-49" d="M 628 4591 
L 1256 4591 
L 1256 0 
L 628 0 
L 628 4591 
z
" transform="scale(0.015625)"/>
     </defs>
     <use xlink:href="#Helvetica-4f"/>
     <use xlink:href="#Helvetica-70" transform="translate(77.783203 0)"/>
     <use xlink:href="#Helvetica-65" transform="translate(133.398438 0)"/>
     <use xlink:href="#Helvetica-6e" transform="translate(189.013672 0)"/>
     <use xlink:href="#Helvetica-41" transform="translate(244.628906 0)"/>
     <use xlink:href="#Helvetica-49" transform="translate(311.328125 0)"/>
     <use xlink:href="#Helvetica-20" transform="translate(339.111328 0)"/>
     <use xlink:href="#Helvetica-45" transform="translate(366.894531 0)"/>
     <use xlink:href="#Helvetica-72" transform="translate(433.59375 0)"/>
     <use xlink:href="#Helvetica-6f" transform="translate(466.894531 0)"/>
     <use xlink:href="#Helvetica-73" transform="translate(522.509766 0)"/>
     <use xlink:href="#Helvetica-69" transform="translate(572.509766 0)"/>
     <use xlink:href="#Helvetica-6f" transform="translate(594.726562 0)"/>
     <use xlink:href="#Helvetica-6e" transform="translate(650.341797 0)"/>
    </g>
   </g>
  </g>
  <g id="axes_4">
   <g id="patch_17">
    <path d="M 453.66875 102.51675 
L 557.330442 102.51675 
L 557.330442 20.56875 
L 453.66875 20.56875 
z
" style="fill: #ffffff"/>
   </g>
   <g id="matplotlib.axis_7">
    <g id="xtick_16">
     <g id="line2d_47">
      <g>
       <use xlink:href="#ma89789ef1c" x="458.380645" y="102.51675" style="stroke: #000000; stroke-width: 0.8"/>
      </g>
     </g>
     <g id="text_30">
      <!-- Start -->
      <g transform="translate(449.93377 115.2555) scale(0.08 -0.08)">
       <use xlink:href="#Helvetica-53"/>
       <use xlink:href="#Helvetica-74" transform="translate(66.699219 0)"/>
       <use xlink:href="#Helvetica-61" transform="translate(94.482422 0)"/>
       <use xlink:href="#Helvetica-72" transform="translate(150.097656 0)"/>
       <use xlink:href="#Helvetica-74" transform="translate(183.398438 0)"/>
      </g>
     </g>
    </g>
    <g id="xtick_17">
     <g id="line2d_48">
      <g>
       <use xlink:href="#ma89789ef1c" x="481.940121" y="102.51675" style="stroke: #000000; stroke-width: 0.8"/>
      </g>
     </g>
     <g id="text_31">
      <!-- Early -->
      <g transform="translate(472.826996 115.2555) scale(0.08 -0.08)">
       <use xlink:href="#Helvetica-45"/>
       <use xlink:href="#Helvetica-61" transform="translate(66.699219 0)"/>
       <use xlink:href="#Helvetica-72" transform="translate(122.314453 0)"/>
       <use xlink:href="#Helvetica-6c" transform="translate(155.615234 0)"/>
       <use xlink:href="#Helvetica-79" transform="translate(177.832031 0)"/>
      </g>
     </g>
    </g>
    <g id="xtick_18">
     <g id="line2d_49">
      <g>
       <use xlink:href="#ma89789ef1c" x="505.499596" y="102.51675" style="stroke: #000000; stroke-width: 0.8"/>
      </g>
     </g>
     <g id="text_32">
      <!-- Mid -->
      <g transform="translate(499.054596 115.2555) scale(0.08 -0.08)">
       <use xlink:href="#Helvetica-4d"/>
       <use xlink:href="#Helvetica-69" transform="translate(83.300781 0)"/>
       <use xlink:href="#Helvetica-64" transform="translate(105.517578 0)"/>
      </g>
     </g>
    </g>
    <g id="xtick_19">
     <g id="line2d_50">
      <g>
       <use xlink:href="#ma89789ef1c" x="529.059072" y="102.51675" style="stroke: #000000; stroke-width: 0.8"/>
      </g>
     </g>
     <g id="text_33">
      <!-- Late -->
      <g transform="translate(521.274697 115.2555) scale(0.08 -0.08)">
       <use xlink:href="#Helvetica-4c"/>
       <use xlink:href="#Helvetica-61" transform="translate(55.615234 0)"/>
       <use xlink:href="#Helvetica-74" transform="translate(111.230469 0)"/>
       <use xlink:href="#Helvetica-65" transform="translate(139.013672 0)"/>
      </g>
     </g>
    </g>
    <g id="xtick_20">
     <g id="line2d_51">
      <g>
       <use xlink:href="#ma89789ef1c" x="552.618547" y="102.51675" style="stroke: #000000; stroke-width: 0.8"/>
      </g>
     </g>
     <g id="text_34">
      <!-- Final -->
      <g transform="translate(543.949172 115.2555) scale(0.08 -0.08)">
       <use xlink:href="#Helvetica-46"/>
       <use xlink:href="#Helvetica-69" transform="translate(61.083984 0)"/>
       <use xlink:href="#Helvetica-6e" transform="translate(83.300781 0)"/>
       <use xlink:href="#Helvetica-61" transform="translate(138.916016 0)"/>
       <use xlink:href="#Helvetica-6c" transform="translate(194.53125 0)"/>
      </g>
     </g>
    </g>
   </g>
   <g id="matplotlib.axis_8">
    <g id="ytick_12">
     <g id="line2d_52">
      <path d="M 453.66875 86.945322 
L 557.330442 86.945322 
" clip-path="url(#p44b7d52d90)" style="fill: none; stroke: #cccccc; stroke-width: 0.6; stroke-linecap: square"/>
     </g>
     <g id="line2d_53">
      <g>
       <use xlink:href="#me45b956ace" x="453.66875" y="86.945322" style="stroke: #000000; stroke-width: 0.8"/>
      </g>
     </g>
     <g id="text_35">
      <!-- 0.30 -->
      <g transform="translate(431.1 89.814697) scale(0.08 -0.08)">
       <defs>
        <path id="Helvetica-33" d="M 1663 -122 
Q 869 -122 511 314 
Q 153 750 153 1375 
L 741 1375 
Q 778 941 903 744 
Q 1122 391 1694 391 
Q 2138 391 2406 628 
Q 2675 866 2675 1241 
Q 2675 1703 2392 1887 
Q 2109 2072 1606 2072 
Q 1550 2072 1492 2070 
Q 1434 2069 1375 2066 
L 1375 2563 
Q 1463 2553 1522 2550 
Q 1581 2547 1650 2547 
Q 1966 2547 2169 2647 
Q 2525 2822 2525 3272 
Q 2525 3606 2287 3787 
Q 2050 3969 1734 3969 
Q 1172 3969 956 3594 
Q 838 3388 822 3006 
L 266 3006 
Q 266 3506 466 3856 
Q 809 4481 1675 4481 
Q 2359 4481 2734 4176 
Q 3109 3872 3109 3294 
Q 3109 2881 2888 2625 
Q 2750 2466 2531 2375 
Q 2884 2278 3082 2001 
Q 3281 1725 3281 1325 
Q 3281 684 2859 281 
Q 2438 -122 1663 -122 
z
" transform="scale(0.015625)"/>
       </defs>
       <use xlink:href="#Helvetica-30"/>
       <use xlink:href="#Helvetica-2e" transform="translate(55.615234 0)"/>
       <use xlink:href="#Helvetica-33" transform="translate(83.398438 0)"/>
       <use xlink:href="#Helvetica-30" transform="translate(139.013672 0)"/>
      </g>
     </g>
    </g>
    <g id="ytick_13">
     <g id="line2d_54">
      <path d="M 453.66875 70.416583 
L 557.330442 70.416583 
" clip-path="url(#p44b7d52d90)" style="fill: none; stroke: #cccccc; stroke-width: 0.6; stroke-linecap: square"/>
     </g>
     <g id="line2d_55">
      <g>
       <use xlink:href="#me45b956ace" x="453.66875" y="70.416583" style="stroke: #000000; stroke-width: 0.8"/>
      </g>
     </g>
     <g id="text_36">
      <!-- 0.35 -->
      <g transform="translate(431.1 73.285958) scale(0.08 -0.08)">
       <use xlink:href="#Helvetica-30"/>
       <use xlink:href="#Helvetica-2e" transform="translate(55.615234 0)"/>
       <use xlink:href="#Helvetica-33" transform="translate(83.398438 0)"/>
       <use xlink:href="#Helvetica-35" transform="translate(139.013672 0)"/>
      </g>
     </g>
    </g>
    <g id="ytick_14">
     <g id="line2d_56">
      <path d="M 453.66875 53.887845 
L 557.330442 53.887845 
" clip-path="url(#p44b7d52d90)" style="fill: none; stroke: #cccccc; stroke-width: 0.6; stroke-linecap: square"/>
     </g>
     <g id="line2d_57">
      <g>
       <use xlink:href="#me45b956ace" x="453.66875" y="53.887845" style="stroke: #000000; stroke-width: 0.8"/>
      </g>
     </g>
     <g id="text_37">
      <!-- 0.40 -->
      <g transform="translate(431.1 56.75722) scale(0.08 -0.08)">
       <use xlink:href="#Helvetica-30"/>
       <use xlink:href="#Helvetica-2e" transform="translate(55.615234 0)"/>
       <use xlink:href="#Helvetica-34" transform="translate(83.398438 0)"/>
       <use xlink:href="#Helvetica-30" transform="translate(139.013672 0)"/>
      </g>
     </g>
    </g>
    <g id="ytick_15">
     <g id="line2d_58">
      <path d="M 453.66875 37.359106 
L 557.330442 37.359106 
" clip-path="url(#p44b7d52d90)" style="fill: none; stroke: #cccccc; stroke-width: 0.6; stroke-linecap: square"/>
     </g>
     <g id="line2d_59">
      <g>
       <use xlink:href="#me45b956ace" x="453.66875" y="37.359106" style="stroke: #000000; stroke-width: 0.8"/>
      </g>
     </g>
     <g id="text_38">
      <!-- 0.45 -->
      <g transform="translate(431.1 40.228481) scale(0.08 -0.08)">
       <use xlink:href="#Helvetica-30"/>
       <use xlink:href="#Helvetica-2e" transform="translate(55.615234 0)"/>
       <use xlink:href="#Helvetica-34" transform="translate(83.398438 0)"/>
       <use xlink:href="#Helvetica-35" transform="translate(139.013672 0)"/>
      </g>
     </g>
    </g>
    <g id="ytick_16">
     <g id="line2d_60">
      <path d="M 453.66875 20.830367 
L 557.330442 20.830367 
" clip-path="url(#p44b7d52d90)" style="fill: none; stroke: #cccccc; stroke-width: 0.6; stroke-linecap: square"/>
     </g>
     <g id="line2d_61">
      <g>
       <use xlink:href="#me45b956ace" x="453.66875" y="20.830367" style="stroke: #000000; stroke-width: 0.8"/>
      </g>
     </g>
     <g id="text_39">
      <!-- 0.50 -->
      <g transform="translate(431.1 23.699742) scale(0.08 -0.08)">
       <use xlink:href="#Helvetica-30"/>
       <use xlink:href="#Helvetica-2e" transform="translate(55.615234 0)"/>
       <use xlink:href="#Helvetica-35" transform="translate(83.398438 0)"/>
       <use xlink:href="#Helvetica-30" transform="translate(139.013672 0)"/>
      </g>
     </g>
    </g>
   </g>
   <g id="line2d_62">
    <path d="M 458.380645 52.411512 
L 481.940121 34.781433 
L 505.499596 26.761142 
L 529.059072 30.971788 
L 552.618547 24.293659 
" clip-path="url(#p44b7d52d90)" style="fill: none; stroke: #3b82f6; stroke-width: 2.5; stroke-linecap: square"/>
   </g>
   <g id="line2d_63">
    <path d="M 458.380645 78.023318 
L 481.940121 79.882511 
L 505.499596 74.435638 
L 529.059072 79.63717 
L 552.618547 77.407155 
" clip-path="url(#p44b7d52d90)" style="fill: none; stroke: #60a5fa; stroke-width: 2.5; stroke-linecap: square"/>
   </g>
   <g id="line2d_64">
    <path d="M 458.380645 98.791841 
L 481.940121 82.11151 
L 505.499596 75.621774 
L 529.059072 70.518599 
L 552.618547 75.369959 
" clip-path="url(#p44b7d52d90)" style="fill: none; stroke: #0e2f63; stroke-width: 2.5; stroke-linecap: square"/>
   </g>
   <g id="patch_18">
    <path d="M 453.66875 102.51675 
L 453.66875 20.56875 
" style="fill: none; stroke: #000000; stroke-width: 0.8; stroke-linejoin: miter; stroke-linecap: square"/>
   </g>
   <g id="patch_19">
    <path d="M 557.330442 102.51675 
L 557.330442 20.56875 
" style="fill: none; stroke: #000000; stroke-width: 0.8; stroke-linejoin: miter; stroke-linecap: square"/>
   </g>
   <g id="patch_20">
    <path d="M 453.66875 102.51675 
L 557.330442 102.51675 
" style="fill: none; stroke: #000000; stroke-width: 0.8; stroke-linejoin: miter; stroke-linecap: square"/>
   </g>
   <g id="patch_21">
    <path d="M 453.66875 20.56875 
L 557.330442 20.56875 
" style="fill: none; stroke: #000000; stroke-width: 0.8; stroke-linejoin: miter; stroke-linecap: square"/>
   </g>
   <g id="text_40">
    <!-- OpenAI Verbosity -->
    <g transform="translate(466.31444 14.56875) scale(0.1 -0.1)">
     <use xlink:href="#Helvetica-4f"/>
     <use xlink:href="#Helvetica-70" transform="translate(77.783203 0)"/>
     <use xlink:href="#Helvetica-65" transform="translate(133.398438 0)"/>
     <use xlink:href="#Helvetica-6e" transform="translate(189.013672 0)"/>
     <use xlink:href="#Helvetica-41" transform="translate(244.628906 0)"/>
     <use xlink:href="#Helvetica-49" transform="translate(311.328125 0)"/>
     <use xlink:href="#Helvetica-20" transform="translate(339.111328 0)"/>
     <use xlink:href="#Helvetica-56" transform="translate(366.894531 0)"/>
     <use xlink:href="#Helvetica-65" transform="translate(433.59375 0)"/>
     <use xlink:href="#Helvetica-72" transform="translate(489.208984 0)"/>
     <use xlink:href="#Helvetica-62" transform="translate(522.509766 0)"/>
     <use xlink:href="#Helvetica-6f" transform="translate(578.125 0)"/>
     <use xlink:href="#Helvetica-73" transform="translate(633.740234 0)"/>
     <use xlink:href="#Helvetica-69" transform="translate(683.740234 0)"/>
     <use xlink:href="#Helvetica-74" transform="translate(705.957031 0)"/>
     <use xlink:href="#Helvetica-79" transform="translate(733.740234 0)"/>
    </g>
   </g>
  </g>
  <g id="legend_1">
   <g id="line2d_65">
    <path d="M 60.330625 128.990813 
L 69.330625 128.990813 
L 78.330625 128.990813 
" style="fill: none; stroke: #f59a5a; stroke-width: 3; stroke-linecap: square"/>
   </g>
   <g id="text_41">
    <!-- Sonnet 4.6 -->
    <g transform="translate(82.830625 132.140813) scale(0.09 -0.09)">
     <use xlink:href="#Helvetica-53"/>
     <use xlink:href="#Helvetica-6f" transform="translate(66.699219 0)"/>
     <use xlink:href="#Helvetica-6e" transform="translate(122.314453 0)"/>
     <use xlink:href="#Helvetica-6e" transform="translate(177.929688 0)"/>
     <use xlink:href="#Helvetica-65" transform="translate(233.544922 0)"/>
     <use xlink:href="#Helvetica-74" transform="translate(289.160156 0)"/>
     <use xlink:href="#Helvetica-20" transform="translate(316.943359 0)"/>
     <use xlink:href="#Helvetica-34" transform="translate(344.726562 0)"/>
     <use xlink:href="#Helvetica-2e" transform="translate(400.341797 0)"/>
     <use xlink:href="#Helvetica-36" transform="translate(428.125 0)"/>
    </g>
   </g>
   <g id="line2d_66">
    <path d="M 139.863906 128.990813 
L 148.863906 128.990813 
L 157.863906 128.990813 
" style="fill: none; stroke: #ea6b41; stroke-width: 3; stroke-linecap: square"/>
   </g>
   <g id="text_42">
    <!-- Opus 4.6 -->
    <g transform="translate(162.363906 132.140813) scale(0.09 -0.09)">
     <defs>
      <path id="Helvetica-75" d="M 975 3347 
L 975 1125 
Q 975 869 1056 706 
Q 1206 406 1616 406 
Q 2203 406 2416 931 
Q 2531 1213 2531 1703 
L 2531 3347 
L 3094 3347 
L 3094 0 
L 2563 0 
L 2569 494 
Q 2459 303 2297 172 
Q 1975 -91 1516 -91 
Q 800 -91 541 388 
Q 400 644 400 1072 
L 400 3347 
L 975 3347 
z
M 1747 3428 
L 1747 3428 
z
" transform="scale(0.015625)"/>
     </defs>
     <use xlink:href="#Helvetica-4f"/>
     <use xlink:href="#Helvetica-70" transform="translate(77.783203 0)"/>
     <use xlink:href="#Helvetica-75" transform="translate(133.398438 0)"/>
     <use xlink:href="#Helvetica-73" transform="translate(189.013672 0)"/>
     <use xlink:href="#Helvetica-20" transform="translate(239.013672 0)"/>
     <use xlink:href="#Helvetica-34" transform="translate(266.796875 0)"/>
     <use xlink:href="#Helvetica-2e" transform="translate(322.412109 0)"/>
     <use xlink:href="#Helvetica-36" transform="translate(350.195312 0)"/>
    </g>
   </g>
   <g id="line2d_67">
    <path d="M 212.384219 128.990813 
L 221.384219 128.990813 
L 230.384219 128.990813 
" style="fill: none; stroke: #7a2a1b; stroke-width: 3; stroke-linecap: square"/>
   </g>
   <g id="text_43">
    <!-- Opus 4.7 -->
    <g transform="translate(234.884219 132.140813) scale(0.09 -0.09)">
     <use xlink:href="#Helvetica-4f"/>
     <use xlink:href="#Helvetica-70" transform="translate(77.783203 0)"/>
     <use xlink:href="#Helvetica-75" transform="translate(133.398438 0)"/>
     <use xlink:href="#Helvetica-73" transform="translate(189.013672 0)"/>
     <use xlink:href="#Helvetica-20" transform="translate(239.013672 0)"/>
     <use xlink:href="#Helvetica-34" transform="translate(266.796875 0)"/>
     <use xlink:href="#Helvetica-2e" transform="translate(322.412109 0)"/>
     <use xlink:href="#Helvetica-37" transform="translate(350.195312 0)"/>
    </g>
   </g>
   <g id="line2d_68">
    <path d="M 284.904531 128.990813 
L 293.904531 128.990813 
L 302.904531 128.990813 
" style="fill: none; stroke: #3b82f6; stroke-width: 3; stroke-linecap: square"/>
   </g>
   <g id="text_44">
    <!-- GPT 5.3 Codex -->
    <g transform="translate(307.404531 132.140813) scale(0.09 -0.09)">
     <defs>
      <path id="Helvetica-47" d="M 2472 4709 
Q 3119 4709 3591 4459 
Q 4275 4100 4428 3200 
L 3813 3200 
Q 3700 3703 3347 3933 
Q 2994 4163 2456 4163 
Q 1819 4163 1383 3684 
Q 947 3206 947 2259 
Q 947 1441 1306 927 
Q 1666 413 2478 413 
Q 3100 413 3508 773 
Q 3916 1134 3925 1941 
L 2488 1941 
L 2488 2456 
L 4503 2456 
L 4503 0 
L 4103 0 
L 3953 591 
Q 3638 244 3394 109 
Q 2984 -122 2353 -122 
Q 1538 -122 950 406 
Q 309 1069 309 2225 
Q 309 3378 934 4059 
Q 1528 4709 2472 4709 
z
M 2369 4716 
L 2369 4716 
z
" transform="scale(0.015625)"/>
      <path id="Helvetica-50" d="M 547 4591 
L 2613 4591 
Q 3225 4591 3600 4245 
Q 3975 3900 3975 3275 
Q 3975 2738 3640 2339 
Q 3306 1941 2613 1941 
L 1169 1941 
L 1169 0 
L 547 0 
L 547 4591 
z
M 3347 3272 
Q 3347 3778 2972 3959 
Q 2766 4056 2406 4056 
L 1169 4056 
L 1169 2466 
L 2406 2466 
Q 2825 2466 3086 2644 
Q 3347 2822 3347 3272 
z
" transform="scale(0.015625)"/>
      <path id="Helvetica-54" d="M 3828 4591 
L 3828 4044 
L 2281 4044 
L 2281 0 
L 1650 0 
L 1650 4044 
L 103 4044 
L 103 4591 
L 3828 4591 
z
" transform="scale(0.015625)"/>
      <path id="Helvetica-43" d="M 2422 4716 
Q 3294 4716 3775 4256 
Q 4256 3797 4309 3213 
L 3703 3213 
Q 3600 3656 3292 3915 
Q 2984 4175 2428 4175 
Q 1750 4175 1333 3698 
Q 916 3222 916 2238 
Q 916 1431 1292 929 
Q 1669 428 2416 428 
Q 3103 428 3463 956 
Q 3653 1234 3747 1688 
L 4353 1688 
Q 4272 963 3816 472 
Q 3269 -119 2341 -119 
Q 1541 -119 997 366 
Q 281 1006 281 2344 
Q 281 3359 819 4009 
Q 1400 4716 2422 4716 
z
M 2297 4716 
L 2297 4716 
z
" transform="scale(0.015625)"/>
      <path id="Helvetica-78" d="M 94 3347 
L 822 3347 
L 1591 2169 
L 2369 3347 
L 3053 3331 
L 1925 1716 
L 3103 0 
L 2384 0 
L 1553 1256 
L 747 0 
L 34 0 
L 1213 1716 
L 94 3347 
z
" transform="scale(0.015625)"/>
     </defs>
     <use xlink:href="#Helvetica-47"/>
     <use xlink:href="#Helvetica-50" transform="translate(77.783203 0)"/>
     <use xlink:href="#Helvetica-54" transform="translate(144.482422 0)"/>
     <use xlink:href="#Helvetica-20" transform="translate(205.566406 0)"/>
     <use xlink:href="#Helvetica-35" transform="translate(233.349609 0)"/>
     <use xlink:href="#Helvetica-2e" transform="translate(288.964844 0)"/>
     <use xlink:href="#Helvetica-33" transform="translate(316.748047 0)"/>
     <use xlink:href="#Helvetica-20" transform="translate(372.363281 0)"/>
     <use xlink:href="#Helvetica-43" transform="translate(400.146484 0)"/>
     <use xlink:href="#Helvetica-6f" transform="translate(472.363281 0)"/>
     <use xlink:href="#Helvetica-64" transform="translate(527.978516 0)"/>
     <use xlink:href="#Helvetica-65" transform="translate(583.59375 0)"/>
     <use xlink:href="#Helvetica-78" transform="translate(639.208984 0)"/>
    </g>
   </g>
   <g id="line2d_69">
    <path d="M 382.93 128.990813 
L 391.93 128.990813 
L 400.93 128.990813 
" style="fill: none; stroke: #60a5fa; stroke-width: 3; stroke-linecap: square"/>
   </g>
   <g id="text_45">
    <!-- GPT 5.4 -->
    <g transform="translate(405.43 132.140813) scale(0.09 -0.09)">
     <use xlink:href="#Helvetica-47"/>
     <use xlink:href="#Helvetica-50" transform="translate(77.783203 0)"/>
     <use xlink:href="#Helvetica-54" transform="translate(144.482422 0)"/>
     <use xlink:href="#Helvetica-20" transform="translate(205.566406 0)"/>
     <use xlink:href="#Helvetica-35" transform="translate(233.349609 0)"/>
     <use xlink:href="#Helvetica-2e" transform="translate(288.964844 0)"/>
     <use xlink:href="#Helvetica-34" transform="translate(316.748047 0)"/>
    </g>
   </g>
   <g id="line2d_70">
    <path d="M 452.440938 128.990813 
L 461.440938 128.990813 
L 470.440938 128.990813 
" style="fill: none; stroke: #0e2f63; stroke-width: 3; stroke-linecap: square"/>
   </g>
   <g id="text_46">
    <!-- GPT 5.5 -->
    <g transform="translate(474.940938 132.140813) scale(0.09 -0.09)">
     <use xlink:href="#Helvetica-47"/>
     <use xlink:href="#Helvetica-50" transform="translate(77.783203 0)"/>
     <use xlink:href="#Helvetica-54" transform="translate(144.482422 0)"/>
     <use xlink:href="#Helvetica-20" transform="translate(205.566406 0)"/>
     <use xlink:href="#Helvetica-35" transform="translate(233.349609 0)"/>
     <use xlink:href="#Helvetica-2e" transform="translate(288.964844 0)"/>
     <use xlink:href="#Helvetica-35" transform="translate(316.748047 0)"/>
    </g>
   </g>
  </g>
 </g>
 <defs>
  <clipPath id="p0bb0adf7d7">
   <rect x="29.76875" y="20.56875" width="103.661692" height="81.948"/>
  </clipPath>
  <clipPath id="p4bc57cc589">
   <rect x="171.06875" y="20.56875" width="103.661692" height="81.948"/>
  </clipPath>
  <clipPath id="p971498aa8d">
   <rect x="312.36875" y="20.56875" width="103.661692" height="81.948"/>
  </clipPath>
  <clipPath id="p44b7d52d90">
   <rect x="453.66875" y="20.56875" width="103.661692" height="81.948"/>
  </clipPath>
 </defs>
</svg>
