<?xml version="1.0" encoding="utf-8" standalone="no"?>
<!DOCTYPE svg PUBLIC "-//W3C//DTD SVG 1.1//EN"
  "http://www.w3.org/Graphics/SVG/1.1/DTD/svg11.dtd">
<svg xmlns:xlink="http://www.w3.org/1999/xlink" width="424.7725pt" height="136.755625pt" viewBox="0 0 424.7725 136.755625" xmlns="http://www.w3.org/2000/svg" version="1.1">
 <metadata>
  <rdf:RDF xmlns:dc="http://purl.org/dc/elements/1.1/" xmlns:cc="http://creativecommons.org/ns#" xmlns:rdf="http://www.w3.org/1999/02/22-rdf-syntax-ns#">
   <cc:Work>
    <dc:type rdf:resource="http://purl.org/dc/dcmitype/StillImage"/>
    <dc:date>2026-05-05T14:21:40.287290</dc:date>
    <dc:format>image/svg+xml</dc:format>
    <dc:creator>
     <cc:Agent>
      <dc:title>Matplotlib v3.10.8, https://matplotlib.org/</dc:title>
     </cc:Agent>
    </dc:creator>
   </cc:Work>
  </rdf:RDF>
 </metadata>
 <defs>
  <style type="text/css">*{stroke-linejoin: round; stroke-linecap: butt}</style>
 </defs>
 <g id="figure_1">
  <g id="patch_1">
   <path d="M 0 136.755625 
L 424.7725 136.755625 
L 424.7725 0 
L 0 0 
z
" style="fill: #ffffff"/>
  </g>
  <g id="axes_1">
   <g id="patch_2">
    <path d="M 23.0975 115.101875 
L 203.723678 115.101875 
L 203.723678 20.56875 
L 23.0975 20.56875 
z
" style="fill: #ffffff"/>
   </g>
   <g id="matplotlib.axis_1">
    <g id="xtick_1">
     <g id="line2d_1">
      <defs>
       <path id="ma12cd1becc" d="M 0 0 
L 0 3.5 
" style="stroke: #000000; stroke-width: 0.8"/>
      </defs>
      <g>
       <use xlink:href="#ma12cd1becc" x="31.307781" y="115.101875" style="stroke: #000000; stroke-width: 0.8"/>
      </g>
     </g>
     <g id="text_1">
      <!-- Start -->
      <g transform="translate(22.860906 127.840625) scale(0.08 -0.08)">
       <defs>
        <path id="Helvetica-53" d="M 894 1481 
Q 916 1091 1078 847 
Q 1388 391 2169 391 
Q 2519 391 2806 491 
Q 3363 684 3363 1184 
Q 3363 1559 3128 1719 
Q 2891 1875 2384 1991 
L 1763 2131 
Q 1153 2269 900 2434 
Q 463 2722 463 3294 
Q 463 3913 891 4309 
Q 1319 4706 2103 4706 
Q 2825 4706 3329 4357 
Q 3834 4009 3834 3244 
L 3250 3244 
Q 3203 3613 3050 3809 
Q 2766 4169 2084 4169 
Q 1534 4169 1293 3937 
Q 1053 3706 1053 3400 
Q 1053 3063 1334 2906 
Q 1519 2806 2169 2656 
L 2813 2509 
Q 3278 2403 3531 2219 
Q 3969 1897 3969 1284 
Q 3969 522 3414 194 
Q 2859 -134 2125 -134 
Q 1269 -134 784 303 
Q 300 738 309 1481 
L 894 1481 
z
M 2150 4716 
L 2150 4716 
z
" transform="scale(0.015625)"/>
        <path id="Helvetica-74" d="M 525 4281 
L 1094 4281 
L 1094 3347 
L 1628 3347 
L 1628 2888 
L 1094 2888 
L 1094 703 
Q 1094 528 1213 469 
Q 1278 434 1431 434 
Q 1472 434 1519 436 
Q 1566 438 1628 444 
L 1628 0 
Q 1531 -28 1426 -40 
Q 1322 -53 1200 -53 
Q 806 -53 665 148 
Q 525 350 525 672 
L 525 2888 
L 72 2888 
L 72 3347 
L 525 3347 
L 525 4281 
z
" transform="scale(0.015625)"/>
        <path id="Helvetica-61" d="M 844 891 
Q 844 647 1022 506 
Q 1200 366 1444 366 
Q 1741 366 2019 503 
Q 2488 731 2488 1250 
L 2488 1703 
Q 2384 1638 2221 1594 
Q 2059 1550 1903 1531 
L 1563 1488 
Q 1256 1447 1103 1359 
Q 844 1213 844 891 
z
M 2206 2028 
Q 2400 2053 2466 2191 
Q 2503 2266 2503 2406 
Q 2503 2694 2298 2823 
Q 2094 2953 1713 2953 
Q 1272 2953 1088 2716 
Q 984 2584 953 2325 
L 428 2325 
Q 444 2944 830 3186 
Q 1216 3428 1725 3428 
Q 2316 3428 2684 3203 
Q 3050 2978 3050 2503 
L 3050 575 
Q 3050 488 3086 434 
Q 3122 381 3238 381 
Q 3275 381 3322 386 
Q 3369 391 3422 400 
L 3422 -16 
Q 3291 -53 3222 -62 
Q 3153 -72 3034 -72 
Q 2744 -72 2613 134 
Q 2544 244 2516 444 
Q 2344 219 2022 53 
Q 1700 -113 1313 -113 
Q 847 -113 551 170 
Q 256 453 256 878 
Q 256 1344 547 1600 
Q 838 1856 1309 1916 
L 2206 2028 
z
M 1741 3428 
L 1741 3428 
z
" transform="scale(0.015625)"/>
        <path id="Helvetica-72" d="M 428 3347 
L 963 3347 
L 963 2769 
Q 1028 2938 1284 3180 
Q 1541 3422 1875 3422 
Q 1891 3422 1928 3419 
Q 1966 3416 2056 3406 
L 2056 2813 
Q 2006 2822 1964 2825 
Q 1922 2828 1872 2828 
Q 1447 2828 1219 2554 
Q 991 2281 991 1925 
L 991 0 
L 428 0 
L 428 3347 
z
" transform="scale(0.015625)"/>
       </defs>
       <use xlink:href="#Helvetica-53"/>
       <use xlink:href="#Helvetica-74" transform="translate(66.699219 0)"/>
       <use xlink:href="#Helvetica-61" transform="translate(94.482422 0)"/>
       <use xlink:href="#Helvetica-72" transform="translate(150.097656 0)"/>
       <use xlink:href="#Helvetica-74" transform="translate(183.398438 0)"/>
      </g>
     </g>
    </g>
    <g id="xtick_2">
     <g id="line2d_2">
      <g>
       <use xlink:href="#ma12cd1becc" x="72.359185" y="115.101875" style="stroke: #000000; stroke-width: 0.8"/>
      </g>
     </g>
     <g id="text_2">
      <!-- Early -->
      <g transform="translate(63.24606 127.840625) scale(0.08 -0.08)">
       <defs>
        <path id="Helvetica-45" d="M 547 4591 
L 3894 4591 
L 3894 4028 
L 1153 4028 
L 1153 2634 
L 3688 2634 
L 3688 2103 
L 1153 2103 
L 1153 547 
L 3941 547 
L 3941 0 
L 547 0 
L 547 4591 
z
M 2244 4591 
L 2244 4591 
z
" transform="scale(0.015625)"/>
        <path id="Helvetica-6c" d="M 428 4591 
L 991 4591 
L 991 0 
L 428 0 
L 428 4591 
z
" transform="scale(0.015625)"/>
        <path id="Helvetica-79" d="M 2503 3347 
L 3125 3347 
Q 3006 3025 2597 1878 
Q 2291 1016 2084 472 
Q 1597 -809 1397 -1090 
Q 1197 -1372 709 -1372 
Q 591 -1372 527 -1362 
Q 463 -1353 369 -1328 
L 369 -816 
Q 516 -856 581 -865 
Q 647 -875 697 -875 
Q 853 -875 926 -823 
Q 1000 -772 1050 -697 
Q 1066 -672 1162 -440 
Q 1259 -209 1303 -97 
L 66 3347 
L 703 3347 
L 1600 622 
L 2503 3347 
z
M 1597 3428 
L 1597 3428 
z
" transform="scale(0.015625)"/>
       </defs>
       <use xlink:href="#Helvetica-45"/>
       <use xlink:href="#Helvetica-61" transform="translate(66.699219 0)"/>
       <use xlink:href="#Helvetica-72" transform="translate(122.314453 0)"/>
       <use xlink:href="#Helvetica-6c" transform="translate(155.615234 0)"/>
       <use xlink:href="#Helvetica-79" transform="translate(177.832031 0)"/>
      </g>
     </g>
    </g>
    <g id="xtick_3">
     <g id="line2d_3">
      <g>
       <use xlink:href="#ma12cd1becc" x="113.410589" y="115.101875" style="stroke: #000000; stroke-width: 0.8"/>
      </g>
     </g>
     <g id="text_3">
      <!-- Mid -->
      <g transform="translate(106.965589 127.840625) scale(0.08 -0.08)">
       <defs>
        <path id="Helvetica-4d" d="M 472 4591 
L 1363 4591 
L 2681 709 
L 3991 4591 
L 4872 4591 
L 4872 0 
L 4281 0 
L 4281 2709 
Q 4281 2850 4287 3175 
Q 4294 3500 4294 3872 
L 2984 0 
L 2369 0 
L 1050 3872 
L 1050 3731 
Q 1050 3563 1058 3217 
Q 1066 2872 1066 2709 
L 1066 0 
L 472 0 
L 472 4591 
z
" transform="scale(0.015625)"/>
        <path id="Helvetica-69" d="M 413 3331 
L 984 3331 
L 984 0 
L 413 0 
L 413 3331 
z
M 413 4591 
L 984 4591 
L 984 3953 
L 413 3953 
L 413 4591 
z
" transform="scale(0.015625)"/>
        <path id="Helvetica-64" d="M 769 1634 
Q 769 1097 997 734 
Q 1225 372 1728 372 
Q 2119 372 2370 708 
Q 2622 1044 2622 1672 
Q 2622 2306 2362 2611 
Q 2103 2916 1722 2916 
Q 1297 2916 1033 2591 
Q 769 2266 769 1634 
z
M 1616 3406 
Q 2000 3406 2259 3244 
Q 2409 3150 2600 2916 
L 2600 4606 
L 3141 4606 
L 3141 0 
L 2634 0 
L 2634 466 
Q 2438 156 2169 18 
Q 1900 -119 1553 -119 
Q 994 -119 584 351 
Q 175 822 175 1603 
Q 175 2334 548 2870 
Q 922 3406 1616 3406 
z
" transform="scale(0.015625)"/>
       </defs>
       <use xlink:href="#Helvetica-4d"/>
       <use xlink:href="#Helvetica-69" transform="translate(83.300781 0)"/>
       <use xlink:href="#Helvetica-64" transform="translate(105.517578 0)"/>
      </g>
     </g>
    </g>
    <g id="xtick_4">
     <g id="line2d_4">
      <g>
       <use xlink:href="#ma12cd1becc" x="154.461993" y="115.101875" style="stroke: #000000; stroke-width: 0.8"/>
      </g>
     </g>
     <g id="text_4">
      <!-- Late -->
      <g transform="translate(146.677618 127.840625) scale(0.08 -0.08)">
       <defs>
        <path id="Helvetica-4c" d="M 488 4591 
L 1109 4591 
L 1109 547 
L 3434 547 
L 3434 0 
L 488 0 
L 488 4591 
z
" transform="scale(0.015625)"/>
        <path id="Helvetica-65" d="M 1806 3422 
Q 2163 3422 2497 3255 
Q 2831 3088 3006 2822 
Q 3175 2569 3231 2231 
Q 3281 2000 3281 1494 
L 828 1494 
Q 844 984 1069 676 
Q 1294 369 1766 369 
Q 2206 369 2469 659 
Q 2619 828 2681 1050 
L 3234 1050 
Q 3213 866 3089 639 
Q 2966 413 2813 269 
Q 2556 19 2178 -69 
Q 1975 -119 1719 -119 
Q 1094 -119 659 336 
Q 225 791 225 1609 
Q 225 2416 662 2919 
Q 1100 3422 1806 3422 
z
M 2703 1941 
Q 2669 2306 2544 2525 
Q 2313 2931 1772 2931 
Q 1384 2931 1121 2651 
Q 859 2372 844 1941 
L 2703 1941 
z
M 1753 3428 
L 1753 3428 
z
" transform="scale(0.015625)"/>
       </defs>
       <use xlink:href="#Helvetica-4c"/>
       <use xlink:href="#Helvetica-61" transform="translate(55.615234 0)"/>
       <use xlink:href="#Helvetica-74" transform="translate(111.230469 0)"/>
       <use xlink:href="#Helvetica-65" transform="translate(139.013672 0)"/>
      </g>
     </g>
    </g>
    <g id="xtick_5">
     <g id="line2d_5">
      <g>
       <use xlink:href="#ma12cd1becc" x="195.513397" y="115.101875" style="stroke: #000000; stroke-width: 0.8"/>
      </g>
     </g>
     <g id="text_5">
      <!-- Final -->
      <g transform="translate(186.844022 127.840625) scale(0.08 -0.08)">
       <defs>
        <path id="Helvetica-46" d="M 547 4591 
L 3731 4591 
L 3731 4028 
L 1169 4028 
L 1169 2634 
L 3422 2634 
L 3422 2088 
L 1169 2088 
L 1169 0 
L 547 0 
L 547 4591 
z
" transform="scale(0.015625)"/>
        <path id="Helvetica-6e" d="M 413 3347 
L 947 3347 
L 947 2872 
Q 1184 3166 1450 3294 
Q 1716 3422 2041 3422 
Q 2753 3422 3003 2925 
Q 3141 2653 3141 2147 
L 3141 0 
L 2569 0 
L 2569 2109 
Q 2569 2416 2478 2603 
Q 2328 2916 1934 2916 
Q 1734 2916 1606 2875 
Q 1375 2806 1200 2600 
Q 1059 2434 1017 2257 
Q 975 2081 975 1753 
L 975 0 
L 413 0 
L 413 3347 
z
M 1734 3428 
L 1734 3428 
z
" transform="scale(0.015625)"/>
       </defs>
       <use xlink:href="#Helvetica-46"/>
       <use xlink:href="#Helvetica-69" transform="translate(61.083984 0)"/>
       <use xlink:href="#Helvetica-6e" transform="translate(83.300781 0)"/>
       <use xlink:href="#Helvetica-61" transform="translate(138.916016 0)"/>
       <use xlink:href="#Helvetica-6c" transform="translate(194.53125 0)"/>
      </g>
     </g>
    </g>
   </g>
   <g id="matplotlib.axis_2">
    <g id="ytick_1">
     <g id="line2d_6">
      <path d="M 23.0975 115.101875 
L 203.723678 115.101875 
" clip-path="url(#p01df1c4e5c)" style="fill: none; stroke: #cccccc; stroke-width: 0.5; stroke-linecap: square"/>
     </g>
     <g id="line2d_7">
      <defs>
       <path id="m070f7709db" d="M 0 0 
L -3.5 0 
" style="stroke: #000000; stroke-width: 0.8"/>
      </defs>
      <g>
       <use xlink:href="#m070f7709db" x="23.0975" y="115.101875" style="stroke: #000000; stroke-width: 0.8"/>
      </g>
     </g>
     <g id="text_6">
      <!-- 0 -->
      <g transform="translate(11.64875 117.97125) scale(0.08 -0.08)">
       <defs>
        <path id="Helvetica-30" d="M 1731 4475 
Q 2600 4475 2988 3759 
Q 3288 3206 3288 2244 
Q 3288 1331 3016 734 
Q 2622 -122 1728 -122 
Q 922 -122 528 578 
Q 200 1163 200 2147 
Q 200 2909 397 3456 
Q 766 4475 1731 4475 
z
M 1725 391 
Q 2163 391 2422 778 
Q 2681 1166 2681 2222 
Q 2681 2984 2493 3476 
Q 2306 3969 1766 3969 
Q 1269 3969 1039 3501 
Q 809 3034 809 2125 
Q 809 1441 956 1025 
Q 1181 391 1725 391 
z
" transform="scale(0.015625)"/>
       </defs>
       <use xlink:href="#Helvetica-30"/>
      </g>
     </g>
    </g>
    <g id="ytick_2">
     <g id="line2d_8">
      <path d="M 23.0975 88.092411 
L 203.723678 88.092411 
" clip-path="url(#p01df1c4e5c)" style="fill: none; stroke: #cccccc; stroke-width: 0.5; stroke-linecap: square"/>
     </g>
     <g id="line2d_9">
      <g>
       <use xlink:href="#m070f7709db" x="23.0975" y="88.092411" style="stroke: #000000; stroke-width: 0.8"/>
      </g>
     </g>
     <g id="text_7">
      <!-- 20 -->
      <g transform="translate(7.2 90.961786) scale(0.08 -0.08)">
       <defs>
        <path id="Helvetica-32" d="M 200 0 
Q 231 578 439 1006 
Q 647 1434 1250 1784 
L 1850 2131 
Q 2253 2366 2416 2531 
Q 2672 2791 2672 3125 
Q 2672 3516 2437 3745 
Q 2203 3975 1813 3975 
Q 1234 3975 1013 3538 
Q 894 3303 881 2888 
L 309 2888 
Q 319 3472 525 3841 
Q 891 4491 1816 4491 
Q 2584 4491 2939 4075 
Q 3294 3659 3294 3150 
Q 3294 2613 2916 2231 
Q 2697 2009 2131 1694 
L 1703 1456 
Q 1397 1288 1222 1134 
Q 909 863 828 531 
L 3272 531 
L 3272 0 
L 200 0 
z
" transform="scale(0.015625)"/>
       </defs>
       <use xlink:href="#Helvetica-32"/>
       <use xlink:href="#Helvetica-30" transform="translate(55.615234 0)"/>
      </g>
     </g>
    </g>
    <g id="ytick_3">
     <g id="line2d_10">
      <path d="M 23.0975 61.082946 
L 203.723678 61.082946 
" clip-path="url(#p01df1c4e5c)" style="fill: none; stroke: #cccccc; stroke-width: 0.5; stroke-linecap: square"/>
     </g>
     <g id="line2d_11">
      <g>
       <use xlink:href="#m070f7709db" x="23.0975" y="61.082946" style="stroke: #000000; stroke-width: 0.8"/>
      </g>
     </g>
     <g id="text_8">
      <!-- 40 -->
      <g transform="translate(7.2 63.952321) scale(0.08 -0.08)">
       <defs>
        <path id="Helvetica-34" d="M 2116 1584 
L 2116 3613 
L 681 1584 
L 2116 1584 
z
M 2125 0 
L 2125 1094 
L 163 1094 
L 163 1644 
L 2213 4488 
L 2688 4488 
L 2688 1584 
L 3347 1584 
L 3347 1094 
L 2688 1094 
L 2688 0 
L 2125 0 
z
" transform="scale(0.015625)"/>
       </defs>
       <use xlink:href="#Helvetica-34"/>
       <use xlink:href="#Helvetica-30" transform="translate(55.615234 0)"/>
      </g>
     </g>
    </g>
    <g id="ytick_4">
     <g id="line2d_12">
      <path d="M 23.0975 34.073482 
L 203.723678 34.073482 
" clip-path="url(#p01df1c4e5c)" style="fill: none; stroke: #cccccc; stroke-width: 0.5; stroke-linecap: square"/>
     </g>
     <g id="line2d_13">
      <g>
       <use xlink:href="#m070f7709db" x="23.0975" y="34.073482" style="stroke: #000000; stroke-width: 0.8"/>
      </g>
     </g>
     <g id="text_9">
      <!-- 60 -->
      <g transform="translate(7.2 36.942857) scale(0.08 -0.08)">
       <defs>
        <path id="Helvetica-36" d="M 1872 4494 
Q 2622 4494 2917 4105 
Q 3213 3716 3213 3303 
L 2656 3303 
Q 2606 3569 2497 3719 
Q 2294 4000 1881 4000 
Q 1409 4000 1131 3564 
Q 853 3128 822 2316 
Q 1016 2600 1309 2741 
Q 1578 2866 1909 2866 
Q 2472 2866 2890 2506 
Q 3309 2147 3309 1434 
Q 3309 825 2912 354 
Q 2516 -116 1781 -116 
Q 1153 -116 697 361 
Q 241 838 241 1966 
Q 241 2800 444 3381 
Q 834 4494 1872 4494 
z
M 1831 384 
Q 2275 384 2495 682 
Q 2716 981 2716 1388 
Q 2716 1731 2519 2042 
Q 2322 2353 1803 2353 
Q 1441 2353 1167 2112 
Q 894 1872 894 1388 
Q 894 963 1142 673 
Q 1391 384 1831 384 
z
" transform="scale(0.015625)"/>
       </defs>
       <use xlink:href="#Helvetica-36"/>
       <use xlink:href="#Helvetica-30" transform="translate(55.615234 0)"/>
      </g>
     </g>
    </g>
   </g>
   <g id="FillBetweenPolyCollection_1">
    <defs>
     <path id="mb5ff3126be" d="M 31.307781 -57.416281 
L 31.307781 -110.684947 
L 72.359185 -98.771436 
L 113.410589 -93.425588 
L 154.461993 -97.6352 
L 195.513397 -65.323258 
L 195.513397 -29.731347 
L 195.513397 -29.731347 
L 154.461993 -48.829597 
L 113.410589 -36.410577 
L 72.359185 -52.90286 
L 31.307781 -57.416281 
z
" style="stroke: #e67e22; stroke-opacity: 0.15"/>
    </defs>
    <g clip-path="url(#p01df1c4e5c)">
     <use xlink:href="#mb5ff3126be" x="0" y="136.755625" style="fill: #e67e22; fill-opacity: 0.15; stroke: #e67e22; stroke-opacity: 0.15"/>
    </g>
   </g>
   <g id="patch_3">
    <path d="M 23.0975 115.101875 
L 23.0975 20.56875 
" style="fill: none; stroke: #000000; stroke-width: 0.8; stroke-linejoin: miter; stroke-linecap: square"/>
   </g>
   <g id="patch_4">
    <path d="M 203.723678 115.101875 
L 203.723678 20.56875 
" style="fill: none; stroke: #000000; stroke-width: 0.8; stroke-linejoin: miter; stroke-linecap: square"/>
   </g>
   <g id="patch_5">
    <path d="M 23.0975 115.101875 
L 203.723678 115.101875 
" style="fill: none; stroke: #000000; stroke-width: 0.8; stroke-linejoin: miter; stroke-linecap: square"/>
   </g>
   <g id="patch_6">
    <path d="M 23.0975 20.56875 
L 203.723678 20.56875 
" style="fill: none; stroke: #000000; stroke-width: 0.8; stroke-linejoin: miter; stroke-linecap: square"/>
   </g>
   <g id="text_10">
    <!-- 42pp -->
    <g style="fill: #e67e22" transform="translate(117.515729 69.544918) scale(0.08 -0.08)">
     <defs>
      <path id="Helvetica-70" d="M 1825 378 
Q 2219 378 2480 708 
Q 2741 1038 2741 1694 
Q 2741 2094 2625 2381 
Q 2406 2934 1825 2934 
Q 1241 2934 1025 2350 
Q 909 2038 909 1556 
Q 909 1169 1025 897 
Q 1244 378 1825 378 
z
M 369 3331 
L 916 3331 
L 916 2888 
Q 1084 3116 1284 3241 
Q 1569 3428 1953 3428 
Q 2522 3428 2919 2992 
Q 3316 2556 3316 1747 
Q 3316 653 2744 184 
Q 2381 -113 1900 -113 
Q 1522 -113 1266 53 
Q 1116 147 931 375 
L 931 -1334 
L 369 -1334 
L 369 3331 
z
" transform="scale(0.015625)"/>
     </defs>
     <use xlink:href="#Helvetica-34"/>
     <use xlink:href="#Helvetica-32" transform="translate(55.615234 0)"/>
     <use xlink:href="#Helvetica-70" transform="translate(111.230469 0)"/>
     <use xlink:href="#Helvetica-70" transform="translate(166.845703 0)"/>
    </g>
    <!-- gap -->
    <g style="fill: #e67e22" transform="translate(117.515729 78.098918) scale(0.08 -0.08)">
     <defs>
      <path id="Helvetica-67" d="M 1594 3406 
Q 1988 3406 2281 3213 
Q 2441 3103 2606 2894 
L 2606 3316 
L 3125 3316 
L 3125 272 
Q 3125 -366 2938 -734 
Q 2588 -1416 1616 -1416 
Q 1075 -1416 706 -1173 
Q 338 -931 294 -416 
L 866 -416 
Q 906 -641 1028 -763 
Q 1219 -950 1628 -950 
Q 2275 -950 2475 -494 
Q 2594 -225 2584 466 
Q 2416 209 2178 84 
Q 1941 -41 1550 -41 
Q 1006 -41 598 345 
Q 191 731 191 1622 
Q 191 2463 602 2934 
Q 1013 3406 1594 3406 
z
M 2606 1688 
Q 2606 2309 2350 2609 
Q 2094 2909 1697 2909 
Q 1103 2909 884 2353 
Q 769 2056 769 1575 
Q 769 1009 998 714 
Q 1228 419 1616 419 
Q 2222 419 2469 966 
Q 2606 1275 2606 1688 
z
M 1659 3428 
L 1659 3428 
z
" transform="scale(0.015625)"/>
     </defs>
     <use xlink:href="#Helvetica-67"/>
     <use xlink:href="#Helvetica-61" transform="translate(55.615234 0)"/>
     <use xlink:href="#Helvetica-70" transform="translate(111.230469 0)"/>
    </g>
   </g>
   <g id="text_11">
    <!-- Solve Rates (%) -->
    <g transform="translate(23.0975 14.56875) scale(0.1 -0.1)">
     <defs>
      <path id="Helvetica-6f" d="M 1741 363 
Q 2300 363 2508 786 
Q 2716 1209 2716 1728 
Q 2716 2197 2566 2491 
Q 2328 2953 1747 2953 
Q 1231 2953 997 2559 
Q 763 2166 763 1609 
Q 763 1075 997 719 
Q 1231 363 1741 363 
z
M 1763 3444 
Q 2409 3444 2856 3012 
Q 3303 2581 3303 1744 
Q 3303 934 2909 406 
Q 2516 -122 1688 -122 
Q 997 -122 590 345 
Q 184 813 184 1600 
Q 184 2444 612 2944 
Q 1041 3444 1763 3444 
z
M 1744 3428 
L 1744 3428 
z
" transform="scale(0.015625)"/>
      <path id="Helvetica-76" d="M 688 3347 
L 1581 622 
L 2516 3347 
L 3131 3347 
L 1869 0 
L 1269 0 
L 34 3347 
L 688 3347 
z
" transform="scale(0.015625)"/>
      <path id="Helvetica-20" transform="scale(0.015625)"/>
      <path id="Helvetica-52" d="M 2622 2488 
Q 3059 2488 3314 2663 
Q 3569 2838 3569 3294 
Q 3569 3784 3213 3963 
Q 3022 4056 2703 4056 
L 1184 4056 
L 1184 2488 
L 2622 2488 
z
M 563 4591 
L 2688 4591 
Q 3213 4591 3553 4438 
Q 4200 4144 4200 3353 
Q 4200 2941 4029 2678 
Q 3859 2416 3553 2256 
Q 3822 2147 3958 1969 
Q 4094 1791 4109 1391 
L 4131 775 
Q 4141 513 4175 384 
Q 4231 166 4375 103 
L 4375 0 
L 3613 0 
Q 3581 59 3562 153 
Q 3544 247 3531 516 
L 3494 1281 
Q 3472 1731 3159 1884 
Q 2981 1969 2600 1969 
L 1184 1969 
L 1184 0 
L 563 0 
L 563 4591 
z
" transform="scale(0.015625)"/>
      <path id="Helvetica-73" d="M 747 1050 
Q 772 769 888 619 
Q 1100 347 1625 347 
Q 1938 347 2175 483 
Q 2413 619 2413 903 
Q 2413 1119 2222 1231 
Q 2100 1300 1741 1391 
L 1294 1503 
Q 866 1609 663 1741 
Q 300 1969 300 2372 
Q 300 2847 642 3140 
Q 984 3434 1563 3434 
Q 2319 3434 2653 2991 
Q 2863 2709 2856 2384 
L 2325 2384 
Q 2309 2575 2191 2731 
Q 1997 2953 1519 2953 
Q 1200 2953 1036 2831 
Q 872 2709 872 2509 
Q 872 2291 1088 2159 
Q 1213 2081 1456 2022 
L 1828 1931 
Q 2434 1784 2641 1647 
Q 2969 1431 2969 969 
Q 2969 522 2630 197 
Q 2291 -128 1597 -128 
Q 850 -128 539 211 
Q 228 550 206 1050 
L 747 1050 
z
M 1578 3428 
L 1578 3428 
z
" transform="scale(0.015625)"/>
      <path id="Helvetica-28" d="M 1894 4666 
Q 1403 3713 1256 3263 
Q 1034 2578 1034 1681 
Q 1034 775 1288 25 
Q 1444 -438 1903 -1306 
L 1525 -1306 
Q 1069 -594 959 -397 
Q 850 -200 722 138 
Q 547 600 478 1125 
Q 444 1397 444 1644 
Q 444 2569 734 3291 
Q 919 3750 1503 4666 
L 1894 4666 
z
" transform="scale(0.015625)"/>
      <path id="Helvetica-25" d="M 4363 2175 
Q 4813 2175 5131 1856 
Q 5450 1538 5450 1088 
Q 5450 638 5131 319 
Q 4813 0 4363 0 
Q 3909 0 3590 319 
Q 3272 638 3272 1088 
Q 3272 1538 3590 1856 
Q 3909 2175 4363 2175 
z
M 3909 4456 
L 4256 4456 
L 1753 -119 
L 1406 -119 
L 3909 4456 
z
M 1294 2606 
Q 1563 2606 1752 2795 
Q 1941 2984 1941 3250 
Q 1941 3516 1752 3705 
Q 1563 3894 1294 3894 
Q 1028 3894 839 3706 
Q 650 3519 650 3250 
Q 650 2984 839 2795 
Q 1028 2606 1294 2606 
z
M 1294 4341 
Q 1747 4341 2065 4020 
Q 2384 3700 2384 3250 
Q 2384 2800 2065 2481 
Q 1747 2163 1294 2163 
Q 844 2163 525 2481 
Q 206 2800 206 3250 
Q 206 3700 525 4020 
Q 844 4341 1294 4341 
z
M 4363 444 
Q 4628 444 4817 633 
Q 5006 822 5006 1088 
Q 5006 1353 4817 1542 
Q 4628 1731 4363 1731 
Q 4094 1731 3905 1542 
Q 3716 1353 3716 1088 
Q 3716 822 3905 633 
Q 4094 444 4363 444 
z
" transform="scale(0.015625)"/>
      <path id="Helvetica-29" d="M 222 -1306 
Q 719 -338 863 106 
Q 1081 778 1081 1681 
Q 1081 2584 828 3334 
Q 672 3797 213 4666 
L 591 4666 
Q 1072 3897 1173 3717 
Q 1275 3538 1394 3222 
Q 1544 2831 1608 2450 
Q 1672 2069 1672 1716 
Q 1672 791 1378 66 
Q 1194 -400 613 -1306 
L 222 -1306 
z
" transform="scale(0.015625)"/>
     </defs>
     <use xlink:href="#Helvetica-53"/>
     <use xlink:href="#Helvetica-6f" transform="translate(66.699219 0)"/>
     <use xlink:href="#Helvetica-6c" transform="translate(122.314453 0)"/>
     <use xlink:href="#Helvetica-76" transform="translate(144.53125 0)"/>
     <use xlink:href="#Helvetica-65" transform="translate(194.53125 0)"/>
     <use xlink:href="#Helvetica-20" transform="translate(250.146484 0)"/>
     <use xlink:href="#Helvetica-52" transform="translate(277.929688 0)"/>
     <use xlink:href="#Helvetica-61" transform="translate(350.146484 0)"/>
     <use xlink:href="#Helvetica-74" transform="translate(405.761719 0)"/>
     <use xlink:href="#Helvetica-65" transform="translate(433.544922 0)"/>
     <use xlink:href="#Helvetica-73" transform="translate(489.160156 0)"/>
     <use xlink:href="#Helvetica-20" transform="translate(539.160156 0)"/>
     <use xlink:href="#Helvetica-28" transform="translate(566.943359 0)"/>
     <use xlink:href="#Helvetica-25" transform="translate(600.244141 0)"/>
     <use xlink:href="#Helvetica-29" transform="translate(689.160156 0)"/>
    </g>
   </g>
   <g id="line2d_14">
    <path d="M 31.307781 26.070678 
L 72.359185 37.984189 
L 113.410589 43.330037 
L 154.461993 39.120425 
L 195.513397 71.432367 
" clip-path="url(#p01df1c4e5c)" style="fill: none; stroke: #2c3e50; stroke-width: 2.5; stroke-linecap: square"/>
    <defs>
     <path id="m140d752e4f" d="M 0 2.5 
C 0.663008 2.5 1.29895 2.236584 1.767767 1.767767 
C 2.236584 1.29895 2.5 0.663008 2.5 0 
C 2.5 -0.663008 2.236584 -1.29895 1.767767 -1.767767 
C 1.29895 -2.236584 0.663008 -2.5 0 -2.5 
C -0.663008 -2.5 -1.29895 -2.236584 -1.767767 -1.767767 
C -2.236584 -1.29895 -2.5 -0.663008 -2.5 0 
C -2.5 0.663008 -2.236584 1.29895 -1.767767 1.767767 
C -1.29895 2.236584 -0.663008 2.5 0 2.5 
z
" style="stroke: #2c3e50"/>
    </defs>
    <g clip-path="url(#p01df1c4e5c)">
     <use xlink:href="#m140d752e4f" x="31.307781" y="26.070678" style="fill: #2c3e50; stroke: #2c3e50"/>
     <use xlink:href="#m140d752e4f" x="72.359185" y="37.984189" style="fill: #2c3e50; stroke: #2c3e50"/>
     <use xlink:href="#m140d752e4f" x="113.410589" y="43.330037" style="fill: #2c3e50; stroke: #2c3e50"/>
     <use xlink:href="#m140d752e4f" x="154.461993" y="39.120425" style="fill: #2c3e50; stroke: #2c3e50"/>
     <use xlink:href="#m140d752e4f" x="195.513397" y="71.432367" style="fill: #2c3e50; stroke: #2c3e50"/>
    </g>
   </g>
   <g id="line2d_15">
    <path d="M 31.307781 79.339344 
L 72.359185 83.852765 
L 113.410589 100.345048 
L 154.461993 87.926028 
L 195.513397 107.024278 
" clip-path="url(#p01df1c4e5c)" style="fill: none; stroke: #e67e22; stroke-width: 2.5; stroke-linecap: square"/>
    <defs>
     <path id="mbc203fbe8f" d="M -2.5 2.5 
L 2.5 2.5 
L 2.5 -2.5 
L -2.5 -2.5 
z
" style="stroke: #e67e22; stroke-linejoin: miter"/>
    </defs>
    <g clip-path="url(#p01df1c4e5c)">
     <use xlink:href="#mbc203fbe8f" x="31.307781" y="79.339344" style="fill: #e67e22; stroke: #e67e22; stroke-linejoin: miter"/>
     <use xlink:href="#mbc203fbe8f" x="72.359185" y="83.852765" style="fill: #e67e22; stroke: #e67e22; stroke-linejoin: miter"/>
     <use xlink:href="#mbc203fbe8f" x="113.410589" y="100.345048" style="fill: #e67e22; stroke: #e67e22; stroke-linejoin: miter"/>
     <use xlink:href="#mbc203fbe8f" x="154.461993" y="87.926028" style="fill: #e67e22; stroke: #e67e22; stroke-linejoin: miter"/>
     <use xlink:href="#mbc203fbe8f" x="195.513397" y="107.024278" style="fill: #e67e22; stroke: #e67e22; stroke-linejoin: miter"/>
    </g>
   </g>
   <g id="line2d_16">
    <path d="M 31.307781 79.339344 
L 72.359185 102.127099 
L 113.410589 111.748051 
L 154.461993 114.269961 
L 195.513397 113.334901 
" clip-path="url(#p01df1c4e5c)" style="fill: none; stroke-dasharray: 7.4,3.2; stroke-dashoffset: 0; stroke: #c0392b; stroke-width: 2"/>
    <defs>
     <path id="m33671c8f2d" d="M -0 2.828427 
L 2.828427 0 
L 0 -2.828427 
L -2.828427 -0 
z
" style="stroke: #c0392b; stroke-linejoin: miter"/>
    </defs>
    <g clip-path="url(#p01df1c4e5c)">
     <use xlink:href="#m33671c8f2d" x="31.307781" y="79.339344" style="fill: #c0392b; stroke: #c0392b; stroke-linejoin: miter"/>
     <use xlink:href="#m33671c8f2d" x="72.359185" y="102.127099" style="fill: #c0392b; stroke: #c0392b; stroke-linejoin: miter"/>
     <use xlink:href="#m33671c8f2d" x="113.410589" y="111.748051" style="fill: #c0392b; stroke: #c0392b; stroke-linejoin: miter"/>
     <use xlink:href="#m33671c8f2d" x="154.461993" y="114.269961" style="fill: #c0392b; stroke: #c0392b; stroke-linejoin: miter"/>
     <use xlink:href="#m33671c8f2d" x="195.513397" y="113.334901" style="fill: #c0392b; stroke: #c0392b; stroke-linejoin: miter"/>
    </g>
   </g>
   <g id="legend_1">
    <g id="line2d_17">
     <path d="M 70.17024 29.440156 
L 77.17024 29.440156 
L 84.17024 29.440156 
" style="fill: none; stroke: #2c3e50; stroke-width: 2.5; stroke-linecap: square"/>
     <g>
      <use xlink:href="#m140d752e4f" x="77.17024" y="29.440156" style="fill: #2c3e50; stroke: #2c3e50"/>
     </g>
    </g>
    <g id="text_12">
     <!-- Core -->
     <g transform="translate(89.77024 31.890156) scale(0.07 -0.07)">
      <defs>
       <path id="Helvetica-43" d="M 2422 4716 
Q 3294 4716 3775 4256 
Q 4256 3797 4309 3213 
L 3703 3213 
Q 3600 3656 3292 3915 
Q 2984 4175 2428 4175 
Q 1750 4175 1333 3698 
Q 916 3222 916 2238 
Q 916 1431 1292 929 
Q 1669 428 2416 428 
Q 3103 428 3463 956 
Q 3653 1234 3747 1688 
L 4353 1688 
Q 4272 963 3816 472 
Q 3269 -119 2341 -119 
Q 1541 -119 997 366 
Q 281 1006 281 2344 
Q 281 3359 819 4009 
Q 1400 4716 2422 4716 
z
M 2297 4716 
L 2297 4716 
z
" transform="scale(0.015625)"/>
      </defs>
      <use xlink:href="#Helvetica-43"/>
      <use xlink:href="#Helvetica-6f" transform="translate(72.216797 0)"/>
      <use xlink:href="#Helvetica-72" transform="translate(127.832031 0)"/>
      <use xlink:href="#Helvetica-65" transform="translate(161.132812 0)"/>
     </g>
    </g>
    <g id="line2d_18">
     <path d="M 118.941646 29.440156 
L 125.941646 29.440156 
L 132.941646 29.440156 
" style="fill: none; stroke: #e67e22; stroke-width: 2.5; stroke-linecap: square"/>
     <g>
      <use xlink:href="#mbc203fbe8f" x="125.941646" y="29.440156" style="fill: #e67e22; stroke: #e67e22; stroke-linejoin: miter"/>
     </g>
    </g>
    <g id="text_13">
     <!-- Iso -->
     <g transform="translate(138.541646 31.890156) scale(0.07 -0.07)">
      <defs>
       <path id="Helvetica-49" d="M 628 4591 
L 1256 4591 
L 1256 0 
L 628 0 
L 628 4591 
z
" transform="scale(0.015625)"/>
      </defs>
      <use xlink:href="#Helvetica-49"/>
      <use xlink:href="#Helvetica-73" transform="translate(27.783203 0)"/>
      <use xlink:href="#Helvetica-6f" transform="translate(77.783203 0)"/>
     </g>
    </g>
    <g id="line2d_19">
     <path d="M 161.87899 29.440156 
L 168.87899 29.440156 
L 175.87899 29.440156 
" style="fill: none; stroke-dasharray: 7.4,3.2; stroke-dashoffset: 0; stroke: #c0392b; stroke-width: 2"/>
     <g>
      <use xlink:href="#m33671c8f2d" x="168.87899" y="29.440156" style="fill: #c0392b; stroke: #c0392b; stroke-linejoin: miter"/>
     </g>
    </g>
    <g id="text_14">
     <!-- Strict -->
     <g transform="translate(181.47899 31.890156) scale(0.07 -0.07)">
      <defs>
       <path id="Helvetica-63" d="M 1703 3444 
Q 2269 3444 2623 3169 
Q 2978 2894 3050 2222 
L 2503 2222 
Q 2453 2531 2275 2736 
Q 2097 2941 1703 2941 
Q 1166 2941 934 2416 
Q 784 2075 784 1575 
Q 784 1072 996 728 
Q 1209 384 1666 384 
Q 2016 384 2220 598 
Q 2425 813 2503 1184 
L 3050 1184 
Q 2956 519 2581 211 
Q 2206 -97 1622 -97 
Q 966 -97 575 383 
Q 184 863 184 1581 
Q 184 2463 612 2953 
Q 1041 3444 1703 3444 
z
M 1616 3428 
L 1616 3428 
z
" transform="scale(0.015625)"/>
      </defs>
      <use xlink:href="#Helvetica-53"/>
      <use xlink:href="#Helvetica-74" transform="translate(66.699219 0)"/>
      <use xlink:href="#Helvetica-72" transform="translate(94.482422 0)"/>
      <use xlink:href="#Helvetica-69" transform="translate(127.783203 0)"/>
      <use xlink:href="#Helvetica-63" transform="translate(150 0)"/>
      <use xlink:href="#Helvetica-74" transform="translate(200 0)"/>
     </g>
    </g>
   </g>
  </g>
  <g id="axes_2">
   <g id="patch_7">
    <path d="M 236.946322 115.101875 
L 417.5725 115.101875 
L 417.5725 20.56875 
L 236.946322 20.56875 
z
" style="fill: #ffffff"/>
   </g>
   <g id="matplotlib.axis_3">
    <g id="xtick_6">
     <g id="line2d_20">
      <g>
       <use xlink:href="#ma12cd1becc" x="249.743393" y="115.101875" style="stroke: #000000; stroke-width: 0.8"/>
      </g>
     </g>
     <g id="text_15">
      <!-- Start -->
      <g transform="translate(241.296518 127.840625) scale(0.08 -0.08)">
       <use xlink:href="#Helvetica-53"/>
       <use xlink:href="#Helvetica-74" transform="translate(66.699219 0)"/>
       <use xlink:href="#Helvetica-61" transform="translate(94.482422 0)"/>
       <use xlink:href="#Helvetica-72" transform="translate(150.097656 0)"/>
       <use xlink:href="#Helvetica-74" transform="translate(183.398438 0)"/>
      </g>
     </g>
    </g>
    <g id="xtick_7">
     <g id="line2d_21">
      <g>
       <use xlink:href="#ma12cd1becc" x="288.71431" y="115.101875" style="stroke: #000000; stroke-width: 0.8"/>
      </g>
     </g>
     <g id="text_16">
      <!-- Early -->
      <g transform="translate(279.601185 127.840625) scale(0.08 -0.08)">
       <use xlink:href="#Helvetica-45"/>
       <use xlink:href="#Helvetica-61" transform="translate(66.699219 0)"/>
       <use xlink:href="#Helvetica-72" transform="translate(122.314453 0)"/>
       <use xlink:href="#Helvetica-6c" transform="translate(155.615234 0)"/>
       <use xlink:href="#Helvetica-79" transform="translate(177.832031 0)"/>
      </g>
     </g>
    </g>
    <g id="xtick_8">
     <g id="line2d_22">
      <g>
       <use xlink:href="#ma12cd1becc" x="327.685226" y="115.101875" style="stroke: #000000; stroke-width: 0.8"/>
      </g>
     </g>
     <g id="text_17">
      <!-- Mid -->
      <g transform="translate(321.240226 127.840625) scale(0.08 -0.08)">
       <use xlink:href="#Helvetica-4d"/>
       <use xlink:href="#Helvetica-69" transform="translate(83.300781 0)"/>
       <use xlink:href="#Helvetica-64" transform="translate(105.517578 0)"/>
      </g>
     </g>
    </g>
    <g id="xtick_9">
     <g id="line2d_23">
      <g>
       <use xlink:href="#ma12cd1becc" x="366.656143" y="115.101875" style="stroke: #000000; stroke-width: 0.8"/>
      </g>
     </g>
     <g id="text_18">
      <!-- Late -->
      <g transform="translate(358.871768 127.840625) scale(0.08 -0.08)">
       <use xlink:href="#Helvetica-4c"/>
       <use xlink:href="#Helvetica-61" transform="translate(55.615234 0)"/>
       <use xlink:href="#Helvetica-74" transform="translate(111.230469 0)"/>
       <use xlink:href="#Helvetica-65" transform="translate(139.013672 0)"/>
      </g>
     </g>
    </g>
    <g id="xtick_10">
     <g id="line2d_24">
      <g>
       <use xlink:href="#ma12cd1becc" x="405.62706" y="115.101875" style="stroke: #000000; stroke-width: 0.8"/>
      </g>
     </g>
     <g id="text_19">
      <!-- Final -->
      <g transform="translate(396.957685 127.840625) scale(0.08 -0.08)">
       <use xlink:href="#Helvetica-46"/>
       <use xlink:href="#Helvetica-69" transform="translate(61.083984 0)"/>
       <use xlink:href="#Helvetica-6e" transform="translate(83.300781 0)"/>
       <use xlink:href="#Helvetica-61" transform="translate(138.916016 0)"/>
       <use xlink:href="#Helvetica-6c" transform="translate(194.53125 0)"/>
      </g>
     </g>
    </g>
   </g>
   <g id="matplotlib.axis_4">
    <g id="ytick_5">
     <g id="line2d_25">
      <path d="M 236.946322 112.278017 
L 417.5725 112.278017 
" clip-path="url(#p9c791b1ba1)" style="fill: none; stroke: #cccccc; stroke-width: 0.5; stroke-linecap: square"/>
     </g>
     <g id="line2d_26">
      <g>
       <use xlink:href="#m070f7709db" x="236.946322" y="112.278017" style="stroke: #000000; stroke-width: 0.8"/>
      </g>
     </g>
     <g id="text_20">
      <!-- 0 -->
      <g transform="translate(225.497572 115.147392) scale(0.08 -0.08)">
       <use xlink:href="#Helvetica-30"/>
      </g>
     </g>
    </g>
    <g id="ytick_6">
     <g id="line2d_27">
      <path d="M 236.946322 92.858576 
L 417.5725 92.858576 
" clip-path="url(#p9c791b1ba1)" style="fill: none; stroke: #cccccc; stroke-width: 0.5; stroke-linecap: square"/>
     </g>
     <g id="line2d_28">
      <g>
       <use xlink:href="#m070f7709db" x="236.946322" y="92.858576" style="stroke: #000000; stroke-width: 0.8"/>
      </g>
     </g>
     <g id="text_21">
      <!-- 1 -->
      <g transform="translate(225.497572 95.727951) scale(0.08 -0.08)">
       <defs>
        <path id="Helvetica-31" d="M 613 3169 
L 613 3600 
Q 1222 3659 1462 3798 
Q 1703 3938 1822 4456 
L 2266 4456 
L 2266 0 
L 1666 0 
L 1666 3169 
L 613 3169 
z
" transform="scale(0.015625)"/>
       </defs>
       <use xlink:href="#Helvetica-31"/>
      </g>
     </g>
    </g>
    <g id="ytick_7">
     <g id="line2d_29">
      <path d="M 236.946322 73.439134 
L 417.5725 73.439134 
" clip-path="url(#p9c791b1ba1)" style="fill: none; stroke: #cccccc; stroke-width: 0.5; stroke-linecap: square"/>
     </g>
     <g id="line2d_30">
      <g>
       <use xlink:href="#m070f7709db" x="236.946322" y="73.439134" style="stroke: #000000; stroke-width: 0.8"/>
      </g>
     </g>
     <g id="text_22">
      <!-- 2 -->
      <g transform="translate(225.497572 76.308509) scale(0.08 -0.08)">
       <use xlink:href="#Helvetica-32"/>
      </g>
     </g>
    </g>
    <g id="ytick_8">
     <g id="line2d_31">
      <path d="M 236.946322 54.019693 
L 417.5725 54.019693 
" clip-path="url(#p9c791b1ba1)" style="fill: none; stroke: #cccccc; stroke-width: 0.5; stroke-linecap: square"/>
     </g>
     <g id="line2d_32">
      <g>
       <use xlink:href="#m070f7709db" x="236.946322" y="54.019693" style="stroke: #000000; stroke-width: 0.8"/>
      </g>
     </g>
     <g id="text_23">
      <!-- 3 -->
      <g transform="translate(225.497572 56.889068) scale(0.08 -0.08)">
       <defs>
        <path id="Helvetica-33" d="M 1663 -122 
Q 869 -122 511 314 
Q 153 750 153 1375 
L 741 1375 
Q 778 941 903 744 
Q 1122 391 1694 391 
Q 2138 391 2406 628 
Q 2675 866 2675 1241 
Q 2675 1703 2392 1887 
Q 2109 2072 1606 2072 
Q 1550 2072 1492 2070 
Q 1434 2069 1375 2066 
L 1375 2563 
Q 1463 2553 1522 2550 
Q 1581 2547 1650 2547 
Q 1966 2547 2169 2647 
Q 2525 2822 2525 3272 
Q 2525 3606 2287 3787 
Q 2050 3969 1734 3969 
Q 1172 3969 956 3594 
Q 838 3388 822 3006 
L 266 3006 
Q 266 3506 466 3856 
Q 809 4481 1675 4481 
Q 2359 4481 2734 4176 
Q 3109 3872 3109 3294 
Q 3109 2881 2888 2625 
Q 2750 2466 2531 2375 
Q 2884 2278 3082 2001 
Q 3281 1725 3281 1325 
Q 3281 684 2859 281 
Q 2438 -122 1663 -122 
z
" transform="scale(0.015625)"/>
       </defs>
       <use xlink:href="#Helvetica-33"/>
      </g>
     </g>
    </g>
    <g id="ytick_9">
     <g id="line2d_33">
      <path d="M 236.946322 34.600251 
L 417.5725 34.600251 
" clip-path="url(#p9c791b1ba1)" style="fill: none; stroke: #cccccc; stroke-width: 0.5; stroke-linecap: square"/>
     </g>
     <g id="line2d_34">
      <g>
       <use xlink:href="#m070f7709db" x="236.946322" y="34.600251" style="stroke: #000000; stroke-width: 0.8"/>
      </g>
     </g>
     <g id="text_24">
      <!-- 4 -->
      <g transform="translate(225.497572 37.469626) scale(0.08 -0.08)">
       <use xlink:href="#Helvetica-34"/>
      </g>
     </g>
    </g>
   </g>
   <g id="patch_8">
    <path d="M 236.946322 115.101875 
L 236.946322 20.56875 
" style="fill: none; stroke: #000000; stroke-width: 0.8; stroke-linejoin: miter; stroke-linecap: square"/>
   </g>
   <g id="patch_9">
    <path d="M 417.5725 115.101875 
L 417.5725 20.56875 
" style="fill: none; stroke: #000000; stroke-width: 0.8; stroke-linejoin: miter; stroke-linecap: square"/>
   </g>
   <g id="patch_10">
    <path d="M 236.946322 115.101875 
L 417.5725 115.101875 
" style="fill: none; stroke: #000000; stroke-width: 0.8; stroke-linejoin: miter; stroke-linecap: square"/>
   </g>
   <g id="patch_11">
    <path d="M 236.946322 20.56875 
L 417.5725 20.56875 
" style="fill: none; stroke: #000000; stroke-width: 0.8; stroke-linejoin: miter; stroke-linecap: square"/>
   </g>
   <g id="PathCollection_1">
    <defs>
     <path id="mf9e5eaf316" d="M 0 1.936492 
C 0.513564 1.936492 1.006162 1.732451 1.369306 1.369306 
C 1.732451 1.006162 1.936492 0.513564 1.936492 0 
C 1.936492 -0.513564 1.732451 -1.006162 1.369306 -1.369306 
C 1.006162 -1.732451 0.513564 -1.936492 0 -1.936492 
C -0.513564 -1.936492 -1.006162 -1.732451 -1.369306 -1.369306 
C -1.732451 -1.006162 -1.936492 -0.513564 -1.936492 0 
C -1.936492 0.513564 -1.732451 1.006162 -1.369306 1.369306 
C -1.006162 1.732451 -0.513564 1.936492 0 1.936492 
z
" style="stroke: #ffffff; stroke-opacity: 0.4; stroke-width: 0.2"/>
    </defs>
    <g clip-path="url(#p9c791b1ba1)">
     <use xlink:href="#mf9e5eaf316" x="246.434134" y="106.833298" style="fill: #888888; fill-opacity: 0.4; stroke: #ffffff; stroke-opacity: 0.4; stroke-width: 0.2"/>
     <use xlink:href="#mf9e5eaf316" x="292.79059" y="105.330107" style="fill: #888888; fill-opacity: 0.4; stroke: #ffffff; stroke-opacity: 0.4; stroke-width: 0.2"/>
     <use xlink:href="#mf9e5eaf316" x="329.585772" y="104.342217" style="fill: #888888; fill-opacity: 0.4; stroke: #ffffff; stroke-opacity: 0.4; stroke-width: 0.2"/>
     <use xlink:href="#mf9e5eaf316" x="367.780771" y="101.488922" style="fill: #888888; fill-opacity: 0.4; stroke: #ffffff; stroke-opacity: 0.4; stroke-width: 0.2"/>
     <use xlink:href="#mf9e5eaf316" x="401.921359" y="99.740483" style="fill: #888888; fill-opacity: 0.4; stroke: #ffffff; stroke-opacity: 0.4; stroke-width: 0.2"/>
    </g>
   </g>
   <g id="PathCollection_2">
    <g clip-path="url(#p9c791b1ba1)">
     <use xlink:href="#mf9e5eaf316" x="248.039211" y="85.639696" style="fill: #888888; fill-opacity: 0.4; stroke: #ffffff; stroke-opacity: 0.4; stroke-width: 0.2"/>
     <use xlink:href="#mf9e5eaf316" x="284.942417" y="87.080303" style="fill: #888888; fill-opacity: 0.4; stroke: #ffffff; stroke-opacity: 0.4; stroke-width: 0.2"/>
     <use xlink:href="#mf9e5eaf316" x="329.524259" y="83.471767" style="fill: #888888; fill-opacity: 0.4; stroke: #ffffff; stroke-opacity: 0.4; stroke-width: 0.2"/>
     <use xlink:href="#mf9e5eaf316" x="367.59803" y="85.087249" style="fill: #888888; fill-opacity: 0.4; stroke: #ffffff; stroke-opacity: 0.4; stroke-width: 0.2"/>
     <use xlink:href="#mf9e5eaf316" x="409.362219" y="75.832406" style="fill: #888888; fill-opacity: 0.4; stroke: #ffffff; stroke-opacity: 0.4; stroke-width: 0.2"/>
    </g>
   </g>
   <g id="PathCollection_3">
    <defs>
     <path id="m8813a7655d" d="M 0 1.936492 
C 0.513564 1.936492 1.006162 1.732451 1.369306 1.369306 
C 1.732451 1.006162 1.936492 0.513564 1.936492 0 
C 1.936492 -0.513564 1.732451 -1.006162 1.369306 -1.369306 
C 1.006162 -1.732451 0.513564 -1.936492 0 -1.936492 
C -0.513564 -1.936492 -1.006162 -1.732451 -1.369306 -1.369306 
C -1.732451 -1.006162 -1.936492 -0.513564 -1.936492 0 
C -1.936492 0.513564 -1.732451 1.006162 -1.369306 1.369306 
C -1.006162 1.732451 -0.513564 1.936492 0 1.936492 
z
" style="stroke: #ffffff; stroke-opacity: 0.4; stroke-width: 0.2"/>
    </defs>
    <g clip-path="url(#p9c791b1ba1)">
     <use xlink:href="#m8813a7655d" x="250.247244" y="103.151023" style="fill: #9ecae1; fill-opacity: 0.4; stroke: #ffffff; stroke-opacity: 0.4; stroke-width: 0.2"/>
     <use xlink:href="#m8813a7655d" x="291.225199" y="97.66414" style="fill: #9ecae1; fill-opacity: 0.4; stroke: #ffffff; stroke-opacity: 0.4; stroke-width: 0.2"/>
     <use xlink:href="#m8813a7655d" x="324.420821" y="96.421603" style="fill: #9ecae1; fill-opacity: 0.4; stroke: #ffffff; stroke-opacity: 0.4; stroke-width: 0.2"/>
     <use xlink:href="#m8813a7655d" x="362.510084" y="93.632351" style="fill: #9ecae1; fill-opacity: 0.4; stroke: #ffffff; stroke-opacity: 0.4; stroke-width: 0.2"/>
     <use xlink:href="#m8813a7655d" x="404.973112" y="86.613476" style="fill: #9ecae1; fill-opacity: 0.4; stroke: #ffffff; stroke-opacity: 0.4; stroke-width: 0.2"/>
    </g>
   </g>
   <g id="PathCollection_4">
    <defs>
     <path id="m66181f8eb2" d="M 0 1.936492 
C 0.513564 1.936492 1.006162 1.732451 1.369306 1.369306 
C 1.732451 1.006162 1.936492 0.513564 1.936492 0 
C 1.936492 -0.513564 1.732451 -1.006162 1.369306 -1.369306 
C 1.006162 -1.732451 0.513564 -1.936492 0 -1.936492 
C -0.513564 -1.936492 -1.006162 -1.732451 -1.369306 -1.369306 
C -1.732451 -1.006162 -1.936492 -0.513564 -1.936492 0 
C -1.936492 0.513564 -1.732451 1.006162 -1.369306 1.369306 
C -1.006162 1.732451 -0.513564 1.936492 0 1.936492 
z
" style="stroke: #ffffff; stroke-opacity: 0.4; stroke-width: 0.2"/>
    </defs>
    <g clip-path="url(#p9c791b1ba1)">
     <use xlink:href="#m66181f8eb2" x="249.187235" y="105.379945" style="fill: #2171b5; fill-opacity: 0.4; stroke: #ffffff; stroke-opacity: 0.4; stroke-width: 0.2"/>
     <use xlink:href="#m66181f8eb2" x="289.090294" y="100.571085" style="fill: #2171b5; fill-opacity: 0.4; stroke: #ffffff; stroke-opacity: 0.4; stroke-width: 0.2"/>
     <use xlink:href="#m66181f8eb2" x="327.106498" y="99.686704" style="fill: #2171b5; fill-opacity: 0.4; stroke: #ffffff; stroke-opacity: 0.4; stroke-width: 0.2"/>
     <use xlink:href="#m66181f8eb2" x="363.248333" y="97.290061" style="fill: #2171b5; fill-opacity: 0.4; stroke: #ffffff; stroke-opacity: 0.4; stroke-width: 0.2"/>
     <use xlink:href="#m66181f8eb2" x="401.477289" y="93.579194" style="fill: #2171b5; fill-opacity: 0.4; stroke: #ffffff; stroke-opacity: 0.4; stroke-width: 0.2"/>
    </g>
   </g>
   <g id="PathCollection_5">
    <defs>
     <path id="m3fe81d3a8d" d="M 0 1.936492 
C 0.513564 1.936492 1.006162 1.732451 1.369306 1.369306 
C 1.732451 1.006162 1.936492 0.513564 1.936492 0 
C 1.936492 -0.513564 1.732451 -1.006162 1.369306 -1.369306 
C 1.006162 -1.732451 0.513564 -1.936492 0 -1.936492 
C -0.513564 -1.936492 -1.006162 -1.732451 -1.369306 -1.369306 
C -1.732451 -1.006162 -1.936492 -0.513564 -1.936492 0 
C -1.936492 0.513564 -1.732451 1.006162 -1.369306 1.369306 
C -1.006162 1.732451 -0.513564 1.936492 0 1.936492 
z
" style="stroke: #ffffff; stroke-opacity: 0.4; stroke-width: 0.2"/>
    </defs>
    <g clip-path="url(#p9c791b1ba1)">
     <use xlink:href="#m3fe81d3a8d" x="245.156603" y="110.804915" style="fill: #3182bd; fill-opacity: 0.4; stroke: #ffffff; stroke-opacity: 0.4; stroke-width: 0.2"/>
     <use xlink:href="#m3fe81d3a8d" x="290.997365" y="109.492748" style="fill: #3182bd; fill-opacity: 0.4; stroke: #ffffff; stroke-opacity: 0.4; stroke-width: 0.2"/>
     <use xlink:href="#m3fe81d3a8d" x="332.095026" y="108.639155" style="fill: #3182bd; fill-opacity: 0.4; stroke: #ffffff; stroke-opacity: 0.4; stroke-width: 0.2"/>
     <use xlink:href="#m3fe81d3a8d" x="366.509727" y="107.815394" style="fill: #3182bd; fill-opacity: 0.4; stroke: #ffffff; stroke-opacity: 0.4; stroke-width: 0.2"/>
     <use xlink:href="#m3fe81d3a8d" x="404.069761" y="104.38189" style="fill: #3182bd; fill-opacity: 0.4; stroke: #ffffff; stroke-opacity: 0.4; stroke-width: 0.2"/>
    </g>
   </g>
   <g id="PathCollection_6">
    <defs>
     <path id="m5d1dc455d6" d="M 0 1.936492 
C 0.513564 1.936492 1.006162 1.732451 1.369306 1.369306 
C 1.732451 1.006162 1.936492 0.513564 1.936492 0 
C 1.936492 -0.513564 1.732451 -1.006162 1.369306 -1.369306 
C 1.006162 -1.732451 0.513564 -1.936492 0 -1.936492 
C -0.513564 -1.936492 -1.006162 -1.732451 -1.369306 -1.369306 
C -1.732451 -1.006162 -1.936492 -0.513564 -1.936492 0 
C -1.936492 0.513564 -1.732451 1.006162 -1.369306 1.369306 
C -1.006162 1.732451 -0.513564 1.936492 0 1.936492 
z
" style="stroke: #ffffff; stroke-opacity: 0.4; stroke-width: 0.2"/>
    </defs>
    <g clip-path="url(#p9c791b1ba1)">
     <use xlink:href="#m5d1dc455d6" x="253.182347" y="103.266574" style="fill: #084594; fill-opacity: 0.4; stroke: #ffffff; stroke-opacity: 0.4; stroke-width: 0.2"/>
     <use xlink:href="#m5d1dc455d6" x="291.778252" y="101.053149" style="fill: #084594; fill-opacity: 0.4; stroke: #ffffff; stroke-opacity: 0.4; stroke-width: 0.2"/>
     <use xlink:href="#m5d1dc455d6" x="331.801969" y="98.494581" style="fill: #084594; fill-opacity: 0.4; stroke: #ffffff; stroke-opacity: 0.4; stroke-width: 0.2"/>
     <use xlink:href="#m5d1dc455d6" x="367.089644" y="95.073405" style="fill: #084594; fill-opacity: 0.4; stroke: #ffffff; stroke-opacity: 0.4; stroke-width: 0.2"/>
     <use xlink:href="#m5d1dc455d6" x="401.444879" y="92.115434" style="fill: #084594; fill-opacity: 0.4; stroke: #ffffff; stroke-opacity: 0.4; stroke-width: 0.2"/>
    </g>
   </g>
   <g id="PathCollection_7">
    <defs>
     <path id="md2024f692e" d="M 0 1.936492 
C 0.513564 1.936492 1.006162 1.732451 1.369306 1.369306 
C 1.732451 1.006162 1.936492 0.513564 1.936492 0 
C 1.936492 -0.513564 1.732451 -1.006162 1.369306 -1.369306 
C 1.006162 -1.732451 0.513564 -1.936492 0 -1.936492 
C -0.513564 -1.936492 -1.006162 -1.732451 -1.369306 -1.369306 
C -1.732451 -1.006162 -1.936492 -0.513564 -1.936492 0 
C -1.936492 0.513564 -1.732451 1.006162 -1.369306 1.369306 
C -1.006162 1.732451 -0.513564 1.936492 0 1.936492 
z
" style="stroke: #ffffff; stroke-opacity: 0.4; stroke-width: 0.2"/>
    </defs>
    <g clip-path="url(#p9c791b1ba1)">
     <use xlink:href="#md2024f692e" x="249.559789" y="106.721316" style="fill: #4292c6; fill-opacity: 0.4; stroke: #ffffff; stroke-opacity: 0.4; stroke-width: 0.2"/>
     <use xlink:href="#md2024f692e" x="290.209148" y="103.943716" style="fill: #4292c6; fill-opacity: 0.4; stroke: #ffffff; stroke-opacity: 0.4; stroke-width: 0.2"/>
     <use xlink:href="#md2024f692e" x="331.879505" y="104.005245" style="fill: #4292c6; fill-opacity: 0.4; stroke: #ffffff; stroke-opacity: 0.4; stroke-width: 0.2"/>
     <use xlink:href="#md2024f692e" x="369.242791" y="101.592667" style="fill: #4292c6; fill-opacity: 0.4; stroke: #ffffff; stroke-opacity: 0.4; stroke-width: 0.2"/>
     <use xlink:href="#md2024f692e" x="406.690168" y="100.600285" style="fill: #4292c6; fill-opacity: 0.4; stroke: #ffffff; stroke-opacity: 0.4; stroke-width: 0.2"/>
    </g>
   </g>
   <g id="PathCollection_8">
    <defs>
     <path id="m9a15d6a1d4" d="M 0 1.936492 
C 0.513564 1.936492 1.006162 1.732451 1.369306 1.369306 
C 1.732451 1.006162 1.936492 0.513564 1.936492 0 
C 1.936492 -0.513564 1.732451 -1.006162 1.369306 -1.369306 
C 1.006162 -1.732451 0.513564 -1.936492 0 -1.936492 
C -0.513564 -1.936492 -1.006162 -1.732451 -1.369306 -1.369306 
C -1.732451 -1.006162 -1.936492 -0.513564 -1.936492 0 
C -1.936492 0.513564 -1.732451 1.006162 -1.369306 1.369306 
C -1.006162 1.732451 -0.513564 1.936492 0 1.936492 
z
" style="stroke: #ffffff; stroke-opacity: 0.4; stroke-width: 0.2"/>
    </defs>
    <g clip-path="url(#p9c791b1ba1)">
     <use xlink:href="#m9a15d6a1d4" x="251.535136" y="91.924908" style="fill: #041e42; fill-opacity: 0.4; stroke: #ffffff; stroke-opacity: 0.4; stroke-width: 0.2"/>
     <use xlink:href="#m9a15d6a1d4" x="285.051033" y="85.580911" style="fill: #041e42; fill-opacity: 0.4; stroke: #ffffff; stroke-opacity: 0.4; stroke-width: 0.2"/>
     <use xlink:href="#m9a15d6a1d4" x="330.90703" y="83.315737" style="fill: #041e42; fill-opacity: 0.4; stroke: #ffffff; stroke-opacity: 0.4; stroke-width: 0.2"/>
     <use xlink:href="#m9a15d6a1d4" x="367.269674" y="79.647126" style="fill: #041e42; fill-opacity: 0.4; stroke: #ffffff; stroke-opacity: 0.4; stroke-width: 0.2"/>
     <use xlink:href="#m9a15d6a1d4" x="408.152621" y="73.155806" style="fill: #041e42; fill-opacity: 0.4; stroke: #ffffff; stroke-opacity: 0.4; stroke-width: 0.2"/>
    </g>
   </g>
   <g id="PathCollection_9">
    <defs>
     <path id="mf52f391b97" d="M 0 1.936492 
C 0.513564 1.936492 1.006162 1.732451 1.369306 1.369306 
C 1.732451 1.006162 1.936492 0.513564 1.936492 0 
C 1.936492 -0.513564 1.732451 -1.006162 1.369306 -1.369306 
C 1.006162 -1.732451 0.513564 -1.936492 0 -1.936492 
C -0.513564 -1.936492 -1.006162 -1.732451 -1.369306 -1.369306 
C -1.732451 -1.006162 -1.936492 -0.513564 -1.936492 0 
C -1.936492 0.513564 -1.732451 1.006162 -1.369306 1.369306 
C -1.006162 1.732451 -0.513564 1.936492 0 1.936492 
z
" style="stroke: #ffffff; stroke-opacity: 0.4; stroke-width: 0.2"/>
    </defs>
    <g clip-path="url(#p9c791b1ba1)">
     <use xlink:href="#mf52f391b97" x="252.249607" y="107.621226" style="fill: #af7ac5; fill-opacity: 0.4; stroke: #ffffff; stroke-opacity: 0.4; stroke-width: 0.2"/>
     <use xlink:href="#mf52f391b97" x="284.33868" y="106.605733" style="fill: #af7ac5; fill-opacity: 0.4; stroke: #ffffff; stroke-opacity: 0.4; stroke-width: 0.2"/>
     <use xlink:href="#mf52f391b97" x="328.61038" y="106.000999" style="fill: #af7ac5; fill-opacity: 0.4; stroke: #ffffff; stroke-opacity: 0.4; stroke-width: 0.2"/>
     <use xlink:href="#mf52f391b97" x="362.218708" y="105.019625" style="fill: #af7ac5; fill-opacity: 0.4; stroke: #ffffff; stroke-opacity: 0.4; stroke-width: 0.2"/>
     <use xlink:href="#mf52f391b97" x="408.39008" y="103.147225" style="fill: #af7ac5; fill-opacity: 0.4; stroke: #ffffff; stroke-opacity: 0.4; stroke-width: 0.2"/>
    </g>
   </g>
   <g id="PathCollection_10">
    <defs>
     <path id="m54f859fa9e" d="M 0 1.936492 
C 0.513564 1.936492 1.006162 1.732451 1.369306 1.369306 
C 1.732451 1.006162 1.936492 0.513564 1.936492 0 
C 1.936492 -0.513564 1.732451 -1.006162 1.369306 -1.369306 
C 1.006162 -1.732451 0.513564 -1.936492 0 -1.936492 
C -0.513564 -1.936492 -1.006162 -1.732451 -1.369306 -1.369306 
C -1.732451 -1.006162 -1.936492 -0.513564 -1.936492 0 
C -1.936492 0.513564 -1.732451 1.006162 -1.369306 1.369306 
C -1.006162 1.732451 -0.513564 1.936492 0 1.936492 
z
" style="stroke: #ffffff; stroke-opacity: 0.4; stroke-width: 0.2"/>
    </defs>
    <g clip-path="url(#p9c791b1ba1)">
     <use xlink:href="#m54f859fa9e" x="252.567043" y="101.358173" style="fill: #7d3c98; fill-opacity: 0.4; stroke: #ffffff; stroke-opacity: 0.4; stroke-width: 0.2"/>
     <use xlink:href="#m54f859fa9e" x="286.260712" y="100.723621" style="fill: #7d3c98; fill-opacity: 0.4; stroke: #ffffff; stroke-opacity: 0.4; stroke-width: 0.2"/>
     <use xlink:href="#m54f859fa9e" x="324.439918" y="99.329878" style="fill: #7d3c98; fill-opacity: 0.4; stroke: #ffffff; stroke-opacity: 0.4; stroke-width: 0.2"/>
     <use xlink:href="#m54f859fa9e" x="367.353862" y="98.261524" style="fill: #7d3c98; fill-opacity: 0.4; stroke: #ffffff; stroke-opacity: 0.4; stroke-width: 0.2"/>
     <use xlink:href="#m54f859fa9e" x="404.29299" y="89.40243" style="fill: #7d3c98; fill-opacity: 0.4; stroke: #ffffff; stroke-opacity: 0.4; stroke-width: 0.2"/>
    </g>
   </g>
   <g id="PathCollection_11">
    <defs>
     <path id="m01a67820ad" d="M 0 1.936492 
C 0.513564 1.936492 1.006162 1.732451 1.369306 1.369306 
C 1.732451 1.006162 1.936492 0.513564 1.936492 0 
C 1.936492 -0.513564 1.732451 -1.006162 1.369306 -1.369306 
C 1.006162 -1.732451 0.513564 -1.936492 0 -1.936492 
C -0.513564 -1.936492 -1.006162 -1.732451 -1.369306 -1.369306 
C -1.732451 -1.006162 -1.936492 -0.513564 -1.936492 0 
C -1.936492 0.513564 -1.732451 1.006162 -1.369306 1.369306 
C -1.006162 1.732451 -0.513564 1.936492 0 1.936492 
z
" style="stroke: #ffffff; stroke-opacity: 0.4; stroke-width: 0.2"/>
    </defs>
    <g clip-path="url(#p9c791b1ba1)">
     <use xlink:href="#m01a67820ad" x="246.338526" y="107.754958" style="fill: #f39c12; fill-opacity: 0.4; stroke: #ffffff; stroke-opacity: 0.4; stroke-width: 0.2"/>
     <use xlink:href="#m01a67820ad" x="289.17297" y="107.07592" style="fill: #f39c12; fill-opacity: 0.4; stroke: #ffffff; stroke-opacity: 0.4; stroke-width: 0.2"/>
     <use xlink:href="#m01a67820ad" x="331.62228" y="105.526638" style="fill: #f39c12; fill-opacity: 0.4; stroke: #ffffff; stroke-opacity: 0.4; stroke-width: 0.2"/>
     <use xlink:href="#m01a67820ad" x="369.321967" y="104.060132" style="fill: #f39c12; fill-opacity: 0.4; stroke: #ffffff; stroke-opacity: 0.4; stroke-width: 0.2"/>
     <use xlink:href="#m01a67820ad" x="407.981489" y="103.757014" style="fill: #f39c12; fill-opacity: 0.4; stroke: #ffffff; stroke-opacity: 0.4; stroke-width: 0.2"/>
    </g>
   </g>
   <g id="PathCollection_12">
    <defs>
     <path id="m41624edd56" d="M 0 1.936492 
C 0.513564 1.936492 1.006162 1.732451 1.369306 1.369306 
C 1.732451 1.006162 1.936492 0.513564 1.936492 0 
C 1.936492 -0.513564 1.732451 -1.006162 1.369306 -1.369306 
C 1.006162 -1.732451 0.513564 -1.936492 0 -1.936492 
C -0.513564 -1.936492 -1.006162 -1.732451 -1.369306 -1.369306 
C -1.732451 -1.006162 -1.936492 -0.513564 -1.936492 0 
C -1.936492 0.513564 -1.732451 1.006162 -1.369306 1.369306 
C -1.006162 1.732451 -0.513564 1.936492 0 1.936492 
z
" style="stroke: #ffffff; stroke-opacity: 0.4; stroke-width: 0.2"/>
    </defs>
    <g clip-path="url(#p9c791b1ba1)">
     <use xlink:href="#m41624edd56" x="246.424605" y="81.443677" style="fill: #e6550d; fill-opacity: 0.4; stroke: #ffffff; stroke-opacity: 0.4; stroke-width: 0.2"/>
     <use xlink:href="#m41624edd56" x="284.625385" y="73.10405" style="fill: #e6550d; fill-opacity: 0.4; stroke: #ffffff; stroke-opacity: 0.4; stroke-width: 0.2"/>
     <use xlink:href="#m41624edd56" x="323.037662" y="66.118815" style="fill: #e6550d; fill-opacity: 0.4; stroke: #ffffff; stroke-opacity: 0.4; stroke-width: 0.2"/>
     <use xlink:href="#m41624edd56" x="369.490173" y="44.964299" style="fill: #e6550d; fill-opacity: 0.4; stroke: #ffffff; stroke-opacity: 0.4; stroke-width: 0.2"/>
     <use xlink:href="#m41624edd56" x="402.034782" y="44.900421" style="fill: #e6550d; fill-opacity: 0.4; stroke: #ffffff; stroke-opacity: 0.4; stroke-width: 0.2"/>
    </g>
   </g>
   <g id="PathCollection_13">
    <defs>
     <path id="m8fc5eb3f19" d="M 0 1.936492 
C 0.513564 1.936492 1.006162 1.732451 1.369306 1.369306 
C 1.732451 1.006162 1.936492 0.513564 1.936492 0 
C 1.936492 -0.513564 1.732451 -1.006162 1.369306 -1.369306 
C 1.006162 -1.732451 0.513564 -1.936492 0 -1.936492 
C -0.513564 -1.936492 -1.006162 -1.732451 -1.369306 -1.369306 
C -1.732451 -1.006162 -1.936492 -0.513564 -1.936492 0 
C -1.936492 0.513564 -1.732451 1.006162 -1.369306 1.369306 
C -1.006162 1.732451 -0.513564 1.936492 0 1.936492 
z
" style="stroke: #ffffff; stroke-opacity: 0.4; stroke-width: 0.2"/>
    </defs>
    <g clip-path="url(#p9c791b1ba1)">
     <use xlink:href="#m8fc5eb3f19" x="246.055079" y="72.772372" style="fill: #8c2d04; fill-opacity: 0.4; stroke: #ffffff; stroke-opacity: 0.4; stroke-width: 0.2"/>
     <use xlink:href="#m8fc5eb3f19" x="289.680686" y="58.921976" style="fill: #8c2d04; fill-opacity: 0.4; stroke: #ffffff; stroke-opacity: 0.4; stroke-width: 0.2"/>
     <use xlink:href="#m8fc5eb3f19" x="323.526455" y="53.684248" style="fill: #8c2d04; fill-opacity: 0.4; stroke: #ffffff; stroke-opacity: 0.4; stroke-width: 0.2"/>
     <use xlink:href="#m8fc5eb3f19" x="364.188171" y="39.054124" style="fill: #8c2d04; fill-opacity: 0.4; stroke: #ffffff; stroke-opacity: 0.4; stroke-width: 0.2"/>
     <use xlink:href="#m8fc5eb3f19" x="404.800965" y="24.86571" style="fill: #8c2d04; fill-opacity: 0.4; stroke: #ffffff; stroke-opacity: 0.4; stroke-width: 0.2"/>
    </g>
   </g>
   <g id="PathCollection_14">
    <g clip-path="url(#p9c791b1ba1)">
     <use xlink:href="#mf9e5eaf316" x="249.451359" y="89.211415" style="fill: #888888; fill-opacity: 0.4; stroke: #ffffff; stroke-opacity: 0.4; stroke-width: 0.2"/>
     <use xlink:href="#mf9e5eaf316" x="287.481154" y="77.100448" style="fill: #888888; fill-opacity: 0.4; stroke: #ffffff; stroke-opacity: 0.4; stroke-width: 0.2"/>
     <use xlink:href="#mf9e5eaf316" x="327.118581" y="68.190138" style="fill: #888888; fill-opacity: 0.4; stroke: #ffffff; stroke-opacity: 0.4; stroke-width: 0.2"/>
     <use xlink:href="#mf9e5eaf316" x="362.986493" y="57.87169" style="fill: #888888; fill-opacity: 0.4; stroke: #ffffff; stroke-opacity: 0.4; stroke-width: 0.2"/>
     <use xlink:href="#mf9e5eaf316" x="402.558137" y="54.846652" style="fill: #888888; fill-opacity: 0.4; stroke: #ffffff; stroke-opacity: 0.4; stroke-width: 0.2"/>
    </g>
   </g>
   <g id="PathCollection_15">
    <defs>
     <path id="m5f6edc7d94" d="M 0 1.936492 
C 0.513564 1.936492 1.006162 1.732451 1.369306 1.369306 
C 1.732451 1.006162 1.936492 0.513564 1.936492 0 
C 1.936492 -0.513564 1.732451 -1.006162 1.369306 -1.369306 
C 1.006162 -1.732451 0.513564 -1.936492 0 -1.936492 
C -0.513564 -1.936492 -1.006162 -1.732451 -1.369306 -1.369306 
C -1.732451 -1.006162 -1.936492 -0.513564 -1.936492 0 
C -1.936492 0.513564 -1.732451 1.006162 -1.369306 1.369306 
C -1.006162 1.732451 -0.513564 1.936492 0 1.936492 
z
" style="stroke: #ffffff; stroke-opacity: 0.4; stroke-width: 0.2"/>
    </defs>
    <g clip-path="url(#p9c791b1ba1)">
     <use xlink:href="#m5f6edc7d94" x="245.429077" y="86.437344" style="fill: #fdae6b; fill-opacity: 0.4; stroke: #ffffff; stroke-opacity: 0.4; stroke-width: 0.2"/>
     <use xlink:href="#m5f6edc7d94" x="289.2651" y="84.16023" style="fill: #fdae6b; fill-opacity: 0.4; stroke: #ffffff; stroke-opacity: 0.4; stroke-width: 0.2"/>
     <use xlink:href="#m5f6edc7d94" x="330.38941" y="74.302442" style="fill: #fdae6b; fill-opacity: 0.4; stroke: #ffffff; stroke-opacity: 0.4; stroke-width: 0.2"/>
     <use xlink:href="#m5f6edc7d94" x="366.381127" y="68.06246" style="fill: #fdae6b; fill-opacity: 0.4; stroke: #ffffff; stroke-opacity: 0.4; stroke-width: 0.2"/>
     <use xlink:href="#m5f6edc7d94" x="403.400277" y="53.903303" style="fill: #fdae6b; fill-opacity: 0.4; stroke: #ffffff; stroke-opacity: 0.4; stroke-width: 0.2"/>
    </g>
   </g>
   <g id="text_25">
    <!-- Cost / Checkpoint (USD) -->
    <g transform="translate(236.946322 14.56875) scale(0.1 -0.1)">
     <defs>
      <path id="Helvetica-2f" d="M 1456 4591 
L 1931 4591 
L 475 0 
L 0 0 
L 1456 4591 
z
" transform="scale(0.015625)"/>
      <path id="Helvetica-68" d="M 413 4606 
L 975 4606 
L 975 2894 
Q 1175 3147 1334 3250 
Q 1606 3428 2013 3428 
Q 2741 3428 3000 2919 
Q 3141 2641 3141 2147 
L 3141 0 
L 2563 0 
L 2563 2109 
Q 2563 2478 2469 2650 
Q 2316 2925 1894 2925 
Q 1544 2925 1259 2684 
Q 975 2444 975 1775 
L 975 0 
L 413 0 
L 413 4606 
z
" transform="scale(0.015625)"/>
      <path id="Helvetica-6b" d="M 400 4591 
L 941 4591 
L 941 1925 
L 2384 3347 
L 3103 3347 
L 1822 2094 
L 3175 0 
L 2456 0 
L 1413 1688 
L 941 1256 
L 941 0 
L 400 0 
L 400 4591 
z
" transform="scale(0.015625)"/>
      <path id="Helvetica-55" d="M 1163 4591 
L 1163 1753 
Q 1163 1253 1350 922 
Q 1628 422 2288 422 
Q 3078 422 3363 963 
Q 3516 1256 3516 1753 
L 3516 4591 
L 4147 4591 
L 4147 2013 
Q 4147 1166 3919 709 
Q 3500 -122 2338 -122 
Q 1175 -122 759 709 
Q 531 1166 531 2013 
L 531 4591 
L 1163 4591 
z
M 2341 4591 
L 2341 4591 
z
" transform="scale(0.015625)"/>
      <path id="Helvetica-44" d="M 2250 531 
Q 2566 531 2769 597 
Q 3131 719 3363 1066 
Q 3547 1344 3628 1778 
Q 3675 2038 3675 2259 
Q 3675 3113 3336 3584 
Q 2997 4056 2244 4056 
L 1141 4056 
L 1141 531 
L 2250 531 
z
M 516 4591 
L 2375 4591 
Q 3322 4591 3844 3919 
Q 4309 3313 4309 2366 
Q 4309 1634 4034 1044 
Q 3550 0 2369 0 
L 516 0 
L 516 4591 
z
" transform="scale(0.015625)"/>
     </defs>
     <use xlink:href="#Helvetica-43"/>
     <use xlink:href="#Helvetica-6f" transform="translate(72.216797 0)"/>
     <use xlink:href="#Helvetica-73" transform="translate(127.832031 0)"/>
     <use xlink:href="#Helvetica-74" transform="translate(177.832031 0)"/>
     <use xlink:href="#Helvetica-20" transform="translate(205.615234 0)"/>
     <use xlink:href="#Helvetica-2f" transform="translate(233.398438 0)"/>
     <use xlink:href="#Helvetica-20" transform="translate(261.181641 0)"/>
     <use xlink:href="#Helvetica-43" transform="translate(288.964844 0)"/>
     <use xlink:href="#Helvetica-68" transform="translate(361.181641 0)"/>
     <use xlink:href="#Helvetica-65" transform="translate(416.796875 0)"/>
     <use xlink:href="#Helvetica-63" transform="translate(472.412109 0)"/>
     <use xlink:href="#Helvetica-6b" transform="translate(522.412109 0)"/>
     <use xlink:href="#Helvetica-70" transform="translate(572.412109 0)"/>
     <use xlink:href="#Helvetica-6f" transform="translate(628.027344 0)"/>
     <use xlink:href="#Helvetica-69" transform="translate(683.642578 0)"/>
     <use xlink:href="#Helvetica-6e" transform="translate(705.859375 0)"/>
     <use xlink:href="#Helvetica-74" transform="translate(761.474609 0)"/>
     <use xlink:href="#Helvetica-20" transform="translate(789.257812 0)"/>
     <use xlink:href="#Helvetica-28" transform="translate(817.041016 0)"/>
     <use xlink:href="#Helvetica-55" transform="translate(850.341797 0)"/>
     <use xlink:href="#Helvetica-53" transform="translate(922.558594 0)"/>
     <use xlink:href="#Helvetica-44" transform="translate(989.257812 0)"/>
     <use xlink:href="#Helvetica-29" transform="translate(1061.474609 0)"/>
    </g>
   </g>
   <g id="line2d_35">
    <path d="M 249.743393 97.354723 
L 288.71431 93.052241 
L 327.685226 89.920611 
L 366.656143 84.975117 
L 405.62706 79.861386 
" clip-path="url(#p9c791b1ba1)" style="fill: none; stroke: #2c3e50; stroke-width: 2.5; stroke-linecap: square"/>
    <g clip-path="url(#p9c791b1ba1)">
     <use xlink:href="#m140d752e4f" x="249.743393" y="97.354723" style="fill: #2c3e50; stroke: #2c3e50"/>
     <use xlink:href="#m140d752e4f" x="288.71431" y="93.052241" style="fill: #2c3e50; stroke: #2c3e50"/>
     <use xlink:href="#m140d752e4f" x="327.685226" y="89.920611" style="fill: #2c3e50; stroke: #2c3e50"/>
     <use xlink:href="#m140d752e4f" x="366.656143" y="84.975117" style="fill: #2c3e50; stroke: #2c3e50"/>
     <use xlink:href="#m140d752e4f" x="405.62706" y="79.861386" style="fill: #2c3e50; stroke: #2c3e50"/>
    </g>
   </g>
   <g id="text_26">
    <path d="M 242.120893 93.339028 
Q 242.789643 93.307778 243.043393 92.850278 
Q 243.175893 92.616528 243.175893 92.307778 
Q 243.175893 91.819028 242.817143 91.565278 
Q 242.609643 91.416528 242.120893 91.284028 
L 242.120893 93.339028 
z
M 240.797143 89.569028 
Q 240.797143 89.956528 241.052143 90.175278 
Q 241.308393 90.394028 241.742143 90.479028 
L 241.742143 88.644028 
Q 241.230893 88.662778 241.013393 88.956528 
Q 240.797143 89.249028 240.797143 89.569028 
z
M 240.094643 89.616528 
Q 240.094643 89.022778 240.529643 88.546528 
Q 240.964643 88.069028 241.750893 88.061528 
L 241.750893 87.541528 
L 242.120893 87.541528 
L 242.120893 88.054028 
Q 242.898393 88.109028 243.314643 88.512778 
Q 243.730893 88.916528 243.750893 89.581528 
L 243.067143 89.581528 
Q 243.039643 89.284028 242.907143 89.069028 
Q 242.660893 88.675278 242.120893 88.655278 
L 242.120893 90.554028 
Q 243.027143 90.807778 243.352143 91.030278 
Q 243.879643 91.397778 243.879643 92.116528 
Q 243.879643 93.155278 243.203393 93.592778 
Q 242.828393 93.835278 242.120893 93.912778 
L 242.120893 94.671528 
L 241.750893 94.671528 
L 241.750893 93.912778 
Q 240.613393 93.839028 240.207143 93.109028 
Q 239.984643 92.714028 239.984643 92.041528 
L 240.675893 92.041528 
Q 240.707143 92.577778 240.844643 92.822778 
Q 241.085893 93.265278 241.742143 93.319028 
L 241.742143 91.190278 
Q 240.898393 91.030278 240.495893 90.655278 
Q 240.094643 90.280278 240.094643 89.616528 
z
M 246.347612 88.151528 
Q 247.433862 88.151528 247.918862 89.046528 
Q 248.293862 89.737778 248.293862 90.940278 
Q 248.293862 92.081528 247.953862 92.827778 
Q 247.461362 93.897778 246.343862 93.897778 
Q 245.336362 93.897778 244.843862 93.022778 
Q 244.433862 92.291528 244.433862 91.061528 
Q 244.433862 90.109028 244.680112 89.425278 
Q 245.141362 88.151528 246.347612 88.151528 
z
M 246.340112 93.256528 
Q 246.887612 93.256528 247.211362 92.772778 
Q 247.535112 92.287778 247.535112 90.967778 
Q 247.535112 90.015278 247.300112 89.400278 
Q 247.066362 88.784028 246.391362 88.784028 
Q 245.770112 88.784028 245.482612 89.369028 
Q 245.195112 89.952778 245.195112 91.089028 
Q 245.195112 91.944028 245.378862 92.464028 
Q 245.660112 93.256528 246.340112 93.256528 
z
M 249.316831 92.894028 
L 250.133081 92.894028 
L 250.133081 93.745278 
L 249.316831 93.745278 
L 249.316831 92.894028 
z
M 255.039487 88.245278 
L 255.039487 88.859028 
Q 254.769487 89.120278 254.321987 89.769028 
Q 253.875737 90.416528 253.531987 91.166528 
Q 253.191987 91.897778 253.015737 92.499028 
Q 252.903237 92.885278 252.723237 93.745278 
L 251.945737 93.745278 
Q 252.210737 92.144028 253.116987 90.557778 
Q 253.653237 89.627778 254.241987 88.952778 
L 251.148237 88.952778 
L 251.148237 88.245278 
L 255.039487 88.245278 
z
M 259.488706 88.245278 
L 259.488706 88.859028 
Q 259.218706 89.120278 258.771206 89.769028 
Q 258.324956 90.416528 257.981206 91.166528 
Q 257.641206 91.897778 257.464956 92.499028 
Q 257.352456 92.885278 257.172456 93.745278 
L 256.394956 93.745278 
Q 256.659956 92.144028 257.566206 90.557778 
Q 258.102456 89.627778 258.691206 88.952778 
L 255.597456 88.952778 
L 255.597456 88.245278 
L 259.488706 88.245278 
z
" style="stroke: #ffffff; stroke-width: 2"/>
    <path d="M 242.120893 93.339028 
Q 242.789643 93.307778 243.043393 92.850278 
Q 243.175893 92.616528 243.175893 92.307778 
Q 243.175893 91.819028 242.817143 91.565278 
Q 242.609643 91.416528 242.120893 91.284028 
L 242.120893 93.339028 
z
M 240.797143 89.569028 
Q 240.797143 89.956528 241.052143 90.175278 
Q 241.308393 90.394028 241.742143 90.479028 
L 241.742143 88.644028 
Q 241.230893 88.662778 241.013393 88.956528 
Q 240.797143 89.249028 240.797143 89.569028 
z
M 240.094643 89.616528 
Q 240.094643 89.022778 240.529643 88.546528 
Q 240.964643 88.069028 241.750893 88.061528 
L 241.750893 87.541528 
L 242.120893 87.541528 
L 242.120893 88.054028 
Q 242.898393 88.109028 243.314643 88.512778 
Q 243.730893 88.916528 243.750893 89.581528 
L 243.067143 89.581528 
Q 243.039643 89.284028 242.907143 89.069028 
Q 242.660893 88.675278 242.120893 88.655278 
L 242.120893 90.554028 
Q 243.027143 90.807778 243.352143 91.030278 
Q 243.879643 91.397778 243.879643 92.116528 
Q 243.879643 93.155278 243.203393 93.592778 
Q 242.828393 93.835278 242.120893 93.912778 
L 242.120893 94.671528 
L 241.750893 94.671528 
L 241.750893 93.912778 
Q 240.613393 93.839028 240.207143 93.109028 
Q 239.984643 92.714028 239.984643 92.041528 
L 240.675893 92.041528 
Q 240.707143 92.577778 240.844643 92.822778 
Q 241.085893 93.265278 241.742143 93.319028 
L 241.742143 91.190278 
Q 240.898393 91.030278 240.495893 90.655278 
Q 240.094643 90.280278 240.094643 89.616528 
z
M 246.347612 88.151528 
Q 247.433862 88.151528 247.918862 89.046528 
Q 248.293862 89.737778 248.293862 90.940278 
Q 248.293862 92.081528 247.953862 92.827778 
Q 247.461362 93.897778 246.343862 93.897778 
Q 245.336362 93.897778 244.843862 93.022778 
Q 244.433862 92.291528 244.433862 91.061528 
Q 244.433862 90.109028 244.680112 89.425278 
Q 245.141362 88.151528 246.347612 88.151528 
z
M 246.340112 93.256528 
Q 246.887612 93.256528 247.211362 92.772778 
Q 247.535112 92.287778 247.535112 90.967778 
Q 247.535112 90.015278 247.300112 89.400278 
Q 247.066362 88.784028 246.391362 88.784028 
Q 245.770112 88.784028 245.482612 89.369028 
Q 245.195112 89.952778 245.195112 91.089028 
Q 245.195112 91.944028 245.378862 92.464028 
Q 245.660112 93.256528 246.340112 93.256528 
z
M 249.316831 92.894028 
L 250.133081 92.894028 
L 250.133081 93.745278 
L 249.316831 93.745278 
L 249.316831 92.894028 
z
M 255.039487 88.245278 
L 255.039487 88.859028 
Q 254.769487 89.120278 254.321987 89.769028 
Q 253.875737 90.416528 253.531987 91.166528 
Q 253.191987 91.897778 253.015737 92.499028 
Q 252.903237 92.885278 252.723237 93.745278 
L 251.945737 93.745278 
Q 252.210737 92.144028 253.116987 90.557778 
Q 253.653237 89.627778 254.241987 88.952778 
L 251.148237 88.952778 
L 251.148237 88.245278 
L 255.039487 88.245278 
z
M 259.488706 88.245278 
L 259.488706 88.859028 
Q 259.218706 89.120278 258.771206 89.769028 
Q 258.324956 90.416528 257.981206 91.166528 
Q 257.641206 91.897778 257.464956 92.499028 
Q 257.352456 92.885278 257.172456 93.745278 
L 256.394956 93.745278 
Q 256.659956 92.144028 257.566206 90.557778 
Q 258.102456 89.627778 258.691206 88.952778 
L 255.597456 88.952778 
L 255.597456 88.245278 
L 259.488706 88.245278 
z
"/>
   </g>
   <g id="text_27">
    <path d="M 281.09181 89.036547 
Q 281.76056 89.005297 282.01431 88.547797 
Q 282.14681 88.314047 282.14681 88.005297 
Q 282.14681 87.516547 281.78806 87.262797 
Q 281.58056 87.114047 281.09181 86.981547 
L 281.09181 89.036547 
z
M 279.76806 85.266547 
Q 279.76806 85.654047 280.02306 85.872797 
Q 280.27931 86.091547 280.71306 86.176547 
L 280.71306 84.341547 
Q 280.20181 84.360297 279.98431 84.654047 
Q 279.76806 84.946547 279.76806 85.266547 
z
M 279.06556 85.314047 
Q 279.06556 84.720297 279.50056 84.244047 
Q 279.93556 83.766547 280.72181 83.759047 
L 280.72181 83.239047 
L 281.09181 83.239047 
L 281.09181 83.751547 
Q 281.86931 83.806547 282.28556 84.210297 
Q 282.70181 84.614047 282.72181 85.279047 
L 282.03806 85.279047 
Q 282.01056 84.981547 281.87806 84.766547 
Q 281.63181 84.372797 281.09181 84.352797 
L 281.09181 86.251547 
Q 281.99806 86.505297 282.32306 86.727797 
Q 282.85056 87.095297 282.85056 87.814047 
Q 282.85056 88.852797 282.17431 89.290297 
Q 281.79931 89.532797 281.09181 89.610297 
L 281.09181 90.369047 
L 280.72181 90.369047 
L 280.72181 89.610297 
Q 279.58431 89.536547 279.17806 88.806547 
Q 278.95556 88.411547 278.95556 87.739047 
L 279.64681 87.739047 
Q 279.67806 88.275297 279.81556 88.520297 
Q 280.05681 88.962797 280.71306 89.016547 
L 280.71306 86.887797 
Q 279.86931 86.727797 279.46681 86.352797 
Q 279.06556 85.977797 279.06556 85.314047 
z
M 285.318529 83.849047 
Q 286.404779 83.849047 286.889779 84.744047 
Q 287.264779 85.435297 287.264779 86.637797 
Q 287.264779 87.779047 286.924779 88.525297 
Q 286.432279 89.595297 285.314779 89.595297 
Q 284.307279 89.595297 283.814779 88.720297 
Q 283.404779 87.989047 283.404779 86.759047 
Q 283.404779 85.806547 283.651029 85.122797 
Q 284.112279 83.849047 285.318529 83.849047 
z
M 285.311029 88.954047 
Q 285.858529 88.954047 286.182279 88.470297 
Q 286.506029 87.985297 286.506029 86.665297 
Q 286.506029 85.712797 286.271029 85.097797 
Q 286.037279 84.481547 285.362279 84.481547 
Q 284.741029 84.481547 284.453529 85.066547 
Q 284.166029 85.650297 284.166029 86.786547 
Q 284.166029 87.641547 284.349779 88.161547 
Q 284.631029 88.954047 285.311029 88.954047 
z
M 288.287747 88.591547 
L 289.103997 88.591547 
L 289.103997 89.442797 
L 288.287747 89.442797 
L 288.287747 88.591547 
z
M 290.889154 88.091547 
Q 290.920404 88.672797 291.337904 88.895297 
Q 291.552904 89.012797 291.822904 89.012797 
Q 292.326654 89.012797 292.681654 88.592797 
Q 293.037904 88.172797 293.186654 86.887797 
Q 292.951654 87.259047 292.605404 87.410297 
Q 292.260404 87.560297 291.861654 87.560297 
Q 291.052904 87.560297 290.581654 87.056547 
Q 290.111654 86.551547 290.111654 85.759047 
Q 290.111654 84.997797 290.576654 84.420297 
Q 291.041654 83.841547 291.947904 83.841547 
Q 293.170404 83.841547 293.635404 84.942797 
Q 293.892904 85.547797 293.892904 86.457797 
Q 293.892904 87.485297 293.584154 88.279047 
Q 293.072904 89.599047 291.850404 89.599047 
Q 291.030404 89.599047 290.604154 89.169047 
Q 290.177904 88.739047 290.177904 88.091547 
L 290.889154 88.091547 
z
M 291.955404 86.942797 
Q 292.374154 86.942797 292.719154 86.667797 
Q 293.065404 86.391547 293.065404 85.704047 
Q 293.065404 85.087797 292.754154 84.785297 
Q 292.444154 84.481547 291.962904 84.481547 
Q 291.447904 84.481547 291.145404 84.827797 
Q 290.842904 85.172797 290.842904 85.751547 
Q 290.842904 86.297797 291.107904 86.620297 
Q 291.374154 86.942797 291.955404 86.942797 
z
M 295.338372 88.091547 
Q 295.369622 88.672797 295.787122 88.895297 
Q 296.002122 89.012797 296.272122 89.012797 
Q 296.775872 89.012797 297.130872 88.592797 
Q 297.487122 88.172797 297.635872 86.887797 
Q 297.400872 87.259047 297.054622 87.410297 
Q 296.709622 87.560297 296.310872 87.560297 
Q 295.502122 87.560297 295.030872 87.056547 
Q 294.560872 86.551547 294.560872 85.759047 
Q 294.560872 84.997797 295.025872 84.420297 
Q 295.490872 83.841547 296.397122 83.841547 
Q 297.619622 83.841547 298.084622 84.942797 
Q 298.342122 85.547797 298.342122 86.457797 
Q 298.342122 87.485297 298.033372 88.279047 
Q 297.522122 89.599047 296.299622 89.599047 
Q 295.479622 89.599047 295.053372 89.169047 
Q 294.627122 88.739047 294.627122 88.091547 
L 295.338372 88.091547 
z
M 296.404622 86.942797 
Q 296.823372 86.942797 297.168372 86.667797 
Q 297.514622 86.391547 297.514622 85.704047 
Q 297.514622 85.087797 297.203372 84.785297 
Q 296.893372 84.481547 296.412122 84.481547 
Q 295.897122 84.481547 295.594622 84.827797 
Q 295.292122 85.172797 295.292122 85.751547 
Q 295.292122 86.297797 295.557122 86.620297 
Q 295.823372 86.942797 296.404622 86.942797 
z
" style="stroke: #ffffff; stroke-width: 2"/>
    <path d="M 281.09181 89.036547 
Q 281.76056 89.005297 282.01431 88.547797 
Q 282.14681 88.314047 282.14681 88.005297 
Q 282.14681 87.516547 281.78806 87.262797 
Q 281.58056 87.114047 281.09181 86.981547 
L 281.09181 89.036547 
z
M 279.76806 85.266547 
Q 279.76806 85.654047 280.02306 85.872797 
Q 280.27931 86.091547 280.71306 86.176547 
L 280.71306 84.341547 
Q 280.20181 84.360297 279.98431 84.654047 
Q 279.76806 84.946547 279.76806 85.266547 
z
M 279.06556 85.314047 
Q 279.06556 84.720297 279.50056 84.244047 
Q 279.93556 83.766547 280.72181 83.759047 
L 280.72181 83.239047 
L 281.09181 83.239047 
L 281.09181 83.751547 
Q 281.86931 83.806547 282.28556 84.210297 
Q 282.70181 84.614047 282.72181 85.279047 
L 282.03806 85.279047 
Q 282.01056 84.981547 281.87806 84.766547 
Q 281.63181 84.372797 281.09181 84.352797 
L 281.09181 86.251547 
Q 281.99806 86.505297 282.32306 86.727797 
Q 282.85056 87.095297 282.85056 87.814047 
Q 282.85056 88.852797 282.17431 89.290297 
Q 281.79931 89.532797 281.09181 89.610297 
L 281.09181 90.369047 
L 280.72181 90.369047 
L 280.72181 89.610297 
Q 279.58431 89.536547 279.17806 88.806547 
Q 278.95556 88.411547 278.95556 87.739047 
L 279.64681 87.739047 
Q 279.67806 88.275297 279.81556 88.520297 
Q 280.05681 88.962797 280.71306 89.016547 
L 280.71306 86.887797 
Q 279.86931 86.727797 279.46681 86.352797 
Q 279.06556 85.977797 279.06556 85.314047 
z
M 285.318529 83.849047 
Q 286.404779 83.849047 286.889779 84.744047 
Q 287.264779 85.435297 287.264779 86.637797 
Q 287.264779 87.779047 286.924779 88.525297 
Q 286.432279 89.595297 285.314779 89.595297 
Q 284.307279 89.595297 283.814779 88.720297 
Q 283.404779 87.989047 283.404779 86.759047 
Q 283.404779 85.806547 283.651029 85.122797 
Q 284.112279 83.849047 285.318529 83.849047 
z
M 285.311029 88.954047 
Q 285.858529 88.954047 286.182279 88.470297 
Q 286.506029 87.985297 286.506029 86.665297 
Q 286.506029 85.712797 286.271029 85.097797 
Q 286.037279 84.481547 285.362279 84.481547 
Q 284.741029 84.481547 284.453529 85.066547 
Q 284.166029 85.650297 284.166029 86.786547 
Q 284.166029 87.641547 284.349779 88.161547 
Q 284.631029 88.954047 285.311029 88.954047 
z
M 288.287747 88.591547 
L 289.103997 88.591547 
L 289.103997 89.442797 
L 288.287747 89.442797 
L 288.287747 88.591547 
z
M 290.889154 88.091547 
Q 290.920404 88.672797 291.337904 88.895297 
Q 291.552904 89.012797 291.822904 89.012797 
Q 292.326654 89.012797 292.681654 88.592797 
Q 293.037904 88.172797 293.186654 86.887797 
Q 292.951654 87.259047 292.605404 87.410297 
Q 292.260404 87.560297 291.861654 87.560297 
Q 291.052904 87.560297 290.581654 87.056547 
Q 290.111654 86.551547 290.111654 85.759047 
Q 290.111654 84.997797 290.576654 84.420297 
Q 291.041654 83.841547 291.947904 83.841547 
Q 293.170404 83.841547 293.635404 84.942797 
Q 293.892904 85.547797 293.892904 86.457797 
Q 293.892904 87.485297 293.584154 88.279047 
Q 293.072904 89.599047 291.850404 89.599047 
Q 291.030404 89.599047 290.604154 89.169047 
Q 290.177904 88.739047 290.177904 88.091547 
L 290.889154 88.091547 
z
M 291.955404 86.942797 
Q 292.374154 86.942797 292.719154 86.667797 
Q 293.065404 86.391547 293.065404 85.704047 
Q 293.065404 85.087797 292.754154 84.785297 
Q 292.444154 84.481547 291.962904 84.481547 
Q 291.447904 84.481547 291.145404 84.827797 
Q 290.842904 85.172797 290.842904 85.751547 
Q 290.842904 86.297797 291.107904 86.620297 
Q 291.374154 86.942797 291.955404 86.942797 
z
M 295.338372 88.091547 
Q 295.369622 88.672797 295.787122 88.895297 
Q 296.002122 89.012797 296.272122 89.012797 
Q 296.775872 89.012797 297.130872 88.592797 
Q 297.487122 88.172797 297.635872 86.887797 
Q 297.400872 87.259047 297.054622 87.410297 
Q 296.709622 87.560297 296.310872 87.560297 
Q 295.502122 87.560297 295.030872 87.056547 
Q 294.560872 86.551547 294.560872 85.759047 
Q 294.560872 84.997797 295.025872 84.420297 
Q 295.490872 83.841547 296.397122 83.841547 
Q 297.619622 83.841547 298.084622 84.942797 
Q 298.342122 85.547797 298.342122 86.457797 
Q 298.342122 87.485297 298.033372 88.279047 
Q 297.522122 89.599047 296.299622 89.599047 
Q 295.479622 89.599047 295.053372 89.169047 
Q 294.627122 88.739047 294.627122 88.091547 
L 295.338372 88.091547 
z
M 296.404622 86.942797 
Q 296.823372 86.942797 297.168372 86.667797 
Q 297.514622 86.391547 297.514622 85.704047 
Q 297.514622 85.087797 297.203372 84.785297 
Q 296.893372 84.481547 296.412122 84.481547 
Q 295.897122 84.481547 295.594622 84.827797 
Q 295.292122 85.172797 295.292122 85.751547 
Q 295.292122 86.297797 295.557122 86.620297 
Q 295.823372 86.942797 296.404622 86.942797 
z
"/>
   </g>
   <g id="text_28">
    <path d="M 320.062726 85.904917 
Q 320.731476 85.873667 320.985226 85.416167 
Q 321.117726 85.182417 321.117726 84.873667 
Q 321.117726 84.384917 320.758976 84.131167 
Q 320.551476 83.982417 320.062726 83.849917 
L 320.062726 85.904917 
z
M 318.738976 82.134917 
Q 318.738976 82.522417 318.993976 82.741167 
Q 319.250226 82.959917 319.683976 83.044917 
L 319.683976 81.209917 
Q 319.172726 81.228667 318.955226 81.522417 
Q 318.738976 81.814917 318.738976 82.134917 
z
M 318.036476 82.182417 
Q 318.036476 81.588667 318.471476 81.112417 
Q 318.906476 80.634917 319.692726 80.627417 
L 319.692726 80.107417 
L 320.062726 80.107417 
L 320.062726 80.619917 
Q 320.840226 80.674917 321.256476 81.078667 
Q 321.672726 81.482417 321.692726 82.147417 
L 321.008976 82.147417 
Q 320.981476 81.849917 320.848976 81.634917 
Q 320.602726 81.241167 320.062726 81.221167 
L 320.062726 83.119917 
Q 320.968976 83.373667 321.293976 83.596167 
Q 321.821476 83.963667 321.821476 84.682417 
Q 321.821476 85.721167 321.145226 86.158667 
Q 320.770226 86.401167 320.062726 86.478667 
L 320.062726 87.237417 
L 319.692726 87.237417 
L 319.692726 86.478667 
Q 318.555226 86.404917 318.148976 85.674917 
Q 317.926476 85.279917 317.926476 84.607417 
L 318.617726 84.607417 
Q 318.648976 85.143667 318.786476 85.388667 
Q 319.027726 85.831167 319.683976 85.884917 
L 319.683976 83.756167 
Q 318.840226 83.596167 318.437726 83.221167 
Q 318.036476 82.846167 318.036476 82.182417 
z
M 322.891945 82.349917 
L 322.891945 81.811167 
Q 323.653195 81.737417 323.953195 81.563667 
Q 324.254445 81.388667 324.403195 80.741167 
L 324.958195 80.741167 
L 324.958195 86.311167 
L 324.208195 86.311167 
L 324.208195 82.349917 
L 322.891945 82.349917 
z
M 327.258664 85.459917 
L 328.074914 85.459917 
L 328.074914 86.311167 
L 327.258664 86.311167 
L 327.258664 85.459917 
z
M 329.56382 82.349917 
L 329.56382 81.811167 
Q 330.32507 81.737417 330.62507 81.563667 
Q 330.92632 81.388667 331.07507 80.741167 
L 331.63007 80.741167 
L 331.63007 86.311167 
L 330.88007 86.311167 
L 330.88007 82.349917 
L 329.56382 82.349917 
z
M 334.235539 84.884917 
Q 334.305539 85.487417 334.794289 85.717417 
Q 335.044289 85.834917 335.371789 85.834917 
Q 335.996789 85.834917 336.296789 85.436167 
Q 336.598039 85.037417 336.598039 84.553667 
Q 336.598039 83.967417 336.240539 83.647417 
Q 335.883039 83.326167 335.383039 83.326167 
Q 335.020539 83.326167 334.760539 83.467417 
Q 334.500539 83.607417 334.316789 83.857417 
L 333.708039 83.822417 
L 334.133039 80.811167 
L 337.039289 80.811167 
L 337.039289 81.491167 
L 334.660539 81.491167 
L 334.423039 83.044917 
Q 334.618039 82.897417 334.794289 82.822417 
Q 335.106789 82.693667 335.516789 82.693667 
Q 336.285539 82.693667 336.820539 83.189917 
Q 337.356789 83.686167 337.356789 84.447417 
Q 337.356789 85.241167 336.865539 85.847417 
Q 336.375539 86.452417 335.301789 86.452417 
Q 334.618039 86.452417 334.091789 86.067417 
Q 333.566789 85.682417 333.504289 84.884917 
L 334.235539 84.884917 
z
" style="stroke: #ffffff; stroke-width: 2"/>
    <path d="M 320.062726 85.904917 
Q 320.731476 85.873667 320.985226 85.416167 
Q 321.117726 85.182417 321.117726 84.873667 
Q 321.117726 84.384917 320.758976 84.131167 
Q 320.551476 83.982417 320.062726 83.849917 
L 320.062726 85.904917 
z
M 318.738976 82.134917 
Q 318.738976 82.522417 318.993976 82.741167 
Q 319.250226 82.959917 319.683976 83.044917 
L 319.683976 81.209917 
Q 319.172726 81.228667 318.955226 81.522417 
Q 318.738976 81.814917 318.738976 82.134917 
z
M 318.036476 82.182417 
Q 318.036476 81.588667 318.471476 81.112417 
Q 318.906476 80.634917 319.692726 80.627417 
L 319.692726 80.107417 
L 320.062726 80.107417 
L 320.062726 80.619917 
Q 320.840226 80.674917 321.256476 81.078667 
Q 321.672726 81.482417 321.692726 82.147417 
L 321.008976 82.147417 
Q 320.981476 81.849917 320.848976 81.634917 
Q 320.602726 81.241167 320.062726 81.221167 
L 320.062726 83.119917 
Q 320.968976 83.373667 321.293976 83.596167 
Q 321.821476 83.963667 321.821476 84.682417 
Q 321.821476 85.721167 321.145226 86.158667 
Q 320.770226 86.401167 320.062726 86.478667 
L 320.062726 87.237417 
L 319.692726 87.237417 
L 319.692726 86.478667 
Q 318.555226 86.404917 318.148976 85.674917 
Q 317.926476 85.279917 317.926476 84.607417 
L 318.617726 84.607417 
Q 318.648976 85.143667 318.786476 85.388667 
Q 319.027726 85.831167 319.683976 85.884917 
L 319.683976 83.756167 
Q 318.840226 83.596167 318.437726 83.221167 
Q 318.036476 82.846167 318.036476 82.182417 
z
M 322.891945 82.349917 
L 322.891945 81.811167 
Q 323.653195 81.737417 323.953195 81.563667 
Q 324.254445 81.388667 324.403195 80.741167 
L 324.958195 80.741167 
L 324.958195 86.311167 
L 324.208195 86.311167 
L 324.208195 82.349917 
L 322.891945 82.349917 
z
M 327.258664 85.459917 
L 328.074914 85.459917 
L 328.074914 86.311167 
L 327.258664 86.311167 
L 327.258664 85.459917 
z
M 329.56382 82.349917 
L 329.56382 81.811167 
Q 330.32507 81.737417 330.62507 81.563667 
Q 330.92632 81.388667 331.07507 80.741167 
L 331.63007 80.741167 
L 331.63007 86.311167 
L 330.88007 86.311167 
L 330.88007 82.349917 
L 329.56382 82.349917 
z
M 334.235539 84.884917 
Q 334.305539 85.487417 334.794289 85.717417 
Q 335.044289 85.834917 335.371789 85.834917 
Q 335.996789 85.834917 336.296789 85.436167 
Q 336.598039 85.037417 336.598039 84.553667 
Q 336.598039 83.967417 336.240539 83.647417 
Q 335.883039 83.326167 335.383039 83.326167 
Q 335.020539 83.326167 334.760539 83.467417 
Q 334.500539 83.607417 334.316789 83.857417 
L 333.708039 83.822417 
L 334.133039 80.811167 
L 337.039289 80.811167 
L 337.039289 81.491167 
L 334.660539 81.491167 
L 334.423039 83.044917 
Q 334.618039 82.897417 334.794289 82.822417 
Q 335.106789 82.693667 335.516789 82.693667 
Q 336.285539 82.693667 336.820539 83.189917 
Q 337.356789 83.686167 337.356789 84.447417 
Q 337.356789 85.241167 336.865539 85.847417 
Q 336.375539 86.452417 335.301789 86.452417 
Q 334.618039 86.452417 334.091789 86.067417 
Q 333.566789 85.682417 333.504289 84.884917 
L 334.235539 84.884917 
z
"/>
   </g>
   <g id="text_29">
    <path d="M 359.033643 80.959423 
Q 359.702393 80.928173 359.956143 80.470673 
Q 360.088643 80.236923 360.088643 79.928173 
Q 360.088643 79.439423 359.729893 79.185673 
Q 359.522393 79.036923 359.033643 78.904423 
L 359.033643 80.959423 
z
M 357.709893 77.189423 
Q 357.709893 77.576923 357.964893 77.795673 
Q 358.221143 78.014423 358.654893 78.099423 
L 358.654893 76.264423 
Q 358.143643 76.283173 357.926143 76.576923 
Q 357.709893 76.869423 357.709893 77.189423 
z
M 357.007393 77.236923 
Q 357.007393 76.643173 357.442393 76.166923 
Q 357.877393 75.689423 358.663643 75.681923 
L 358.663643 75.161923 
L 359.033643 75.161923 
L 359.033643 75.674423 
Q 359.811143 75.729423 360.227393 76.133173 
Q 360.643643 76.536923 360.663643 77.201923 
L 359.979893 77.201923 
Q 359.952393 76.904423 359.819893 76.689423 
Q 359.573643 76.295673 359.033643 76.275673 
L 359.033643 78.174423 
Q 359.939893 78.428173 360.264893 78.650673 
Q 360.792393 79.018173 360.792393 79.736923 
Q 360.792393 80.775673 360.116143 81.213173 
Q 359.741143 81.455673 359.033643 81.533173 
L 359.033643 82.291923 
L 358.663643 82.291923 
L 358.663643 81.533173 
Q 357.526143 81.459423 357.119893 80.729423 
Q 356.897393 80.334423 356.897393 79.661923 
L 357.588643 79.661923 
Q 357.619893 80.198173 357.757393 80.443173 
Q 357.998643 80.885673 358.654893 80.939423 
L 358.654893 78.810673 
Q 357.811143 78.650673 357.408643 78.275673 
Q 357.007393 77.900673 357.007393 77.236923 
z
M 361.862862 77.404423 
L 361.862862 76.865673 
Q 362.624112 76.791923 362.924112 76.618173 
Q 363.225362 76.443173 363.374112 75.795673 
L 363.929112 75.795673 
L 363.929112 81.365673 
L 363.179112 81.365673 
L 363.179112 77.404423 
L 361.862862 77.404423 
z
M 366.229581 80.514423 
L 367.045831 80.514423 
L 367.045831 81.365673 
L 366.229581 81.365673 
L 366.229581 80.514423 
z
M 370.413487 79.385673 
L 370.413487 76.849423 
L 368.619737 79.385673 
L 370.413487 79.385673 
z
M 370.424737 81.365673 
L 370.424737 79.998173 
L 367.972237 79.998173 
L 367.972237 79.310673 
L 370.534737 75.755673 
L 371.128487 75.755673 
L 371.128487 79.385673 
L 371.952237 79.385673 
L 371.952237 79.998173 
L 371.128487 79.998173 
L 371.128487 81.365673 
L 370.424737 81.365673 
z
M 372.983956 77.404423 
L 372.983956 76.865673 
Q 373.745206 76.791923 374.045206 76.618173 
Q 374.346456 76.443173 374.495206 75.795673 
L 375.050206 75.795673 
L 375.050206 81.365673 
L 374.300206 81.365673 
L 374.300206 77.404423 
L 372.983956 77.404423 
z
" style="stroke: #ffffff; stroke-width: 2"/>
    <path d="M 359.033643 80.959423 
Q 359.702393 80.928173 359.956143 80.470673 
Q 360.088643 80.236923 360.088643 79.928173 
Q 360.088643 79.439423 359.729893 79.185673 
Q 359.522393 79.036923 359.033643 78.904423 
L 359.033643 80.959423 
z
M 357.709893 77.189423 
Q 357.709893 77.576923 357.964893 77.795673 
Q 358.221143 78.014423 358.654893 78.099423 
L 358.654893 76.264423 
Q 358.143643 76.283173 357.926143 76.576923 
Q 357.709893 76.869423 357.709893 77.189423 
z
M 357.007393 77.236923 
Q 357.007393 76.643173 357.442393 76.166923 
Q 357.877393 75.689423 358.663643 75.681923 
L 358.663643 75.161923 
L 359.033643 75.161923 
L 359.033643 75.674423 
Q 359.811143 75.729423 360.227393 76.133173 
Q 360.643643 76.536923 360.663643 77.201923 
L 359.979893 77.201923 
Q 359.952393 76.904423 359.819893 76.689423 
Q 359.573643 76.295673 359.033643 76.275673 
L 359.033643 78.174423 
Q 359.939893 78.428173 360.264893 78.650673 
Q 360.792393 79.018173 360.792393 79.736923 
Q 360.792393 80.775673 360.116143 81.213173 
Q 359.741143 81.455673 359.033643 81.533173 
L 359.033643 82.291923 
L 358.663643 82.291923 
L 358.663643 81.533173 
Q 357.526143 81.459423 357.119893 80.729423 
Q 356.897393 80.334423 356.897393 79.661923 
L 357.588643 79.661923 
Q 357.619893 80.198173 357.757393 80.443173 
Q 357.998643 80.885673 358.654893 80.939423 
L 358.654893 78.810673 
Q 357.811143 78.650673 357.408643 78.275673 
Q 357.007393 77.900673 357.007393 77.236923 
z
M 361.862862 77.404423 
L 361.862862 76.865673 
Q 362.624112 76.791923 362.924112 76.618173 
Q 363.225362 76.443173 363.374112 75.795673 
L 363.929112 75.795673 
L 363.929112 81.365673 
L 363.179112 81.365673 
L 363.179112 77.404423 
L 361.862862 77.404423 
z
M 366.229581 80.514423 
L 367.045831 80.514423 
L 367.045831 81.365673 
L 366.229581 81.365673 
L 366.229581 80.514423 
z
M 370.413487 79.385673 
L 370.413487 76.849423 
L 368.619737 79.385673 
L 370.413487 79.385673 
z
M 370.424737 81.365673 
L 370.424737 79.998173 
L 367.972237 79.998173 
L 367.972237 79.310673 
L 370.534737 75.755673 
L 371.128487 75.755673 
L 371.128487 79.385673 
L 371.952237 79.385673 
L 371.952237 79.998173 
L 371.128487 79.998173 
L 371.128487 81.365673 
L 370.424737 81.365673 
z
M 372.983956 77.404423 
L 372.983956 76.865673 
Q 373.745206 76.791923 374.045206 76.618173 
Q 374.346456 76.443173 374.495206 75.795673 
L 375.050206 75.795673 
L 375.050206 81.365673 
L 374.300206 81.365673 
L 374.300206 77.404423 
L 372.983956 77.404423 
z
"/>
   </g>
   <g id="text_30">
    <path d="M 398.00456 75.845692 
Q 398.67331 75.814442 398.92706 75.356942 
Q 399.05956 75.123192 399.05956 74.814442 
Q 399.05956 74.325692 398.70081 74.071942 
Q 398.49331 73.923192 398.00456 73.790692 
L 398.00456 75.845692 
z
M 396.68081 72.075692 
Q 396.68081 72.463192 396.93581 72.681942 
Q 397.19206 72.900692 397.62581 72.985692 
L 397.62581 71.150692 
Q 397.11456 71.169442 396.89706 71.463192 
Q 396.68081 71.755692 396.68081 72.075692 
z
M 395.97831 72.123192 
Q 395.97831 71.529442 396.41331 71.053192 
Q 396.84831 70.575692 397.63456 70.568192 
L 397.63456 70.048192 
L 398.00456 70.048192 
L 398.00456 70.560692 
Q 398.78206 70.615692 399.19831 71.019442 
Q 399.61456 71.423192 399.63456 72.088192 
L 398.95081 72.088192 
Q 398.92331 71.790692 398.79081 71.575692 
Q 398.54456 71.181942 398.00456 71.161942 
L 398.00456 73.060692 
Q 398.91081 73.314442 399.23581 73.536942 
Q 399.76331 73.904442 399.76331 74.623192 
Q 399.76331 75.661942 399.08706 76.099442 
Q 398.71206 76.341942 398.00456 76.419442 
L 398.00456 77.178192 
L 397.63456 77.178192 
L 397.63456 76.419442 
Q 396.49706 76.345692 396.09081 75.615692 
Q 395.86831 75.220692 395.86831 74.548192 
L 396.55956 74.548192 
Q 396.59081 75.084442 396.72831 75.329442 
Q 396.96956 75.771942 397.62581 75.825692 
L 397.62581 73.696942 
Q 396.78206 73.536942 396.37956 73.161942 
Q 395.97831 72.786942 395.97831 72.123192 
z
M 400.833778 72.290692 
L 400.833778 71.751942 
Q 401.595028 71.678192 401.895028 71.504442 
Q 402.196278 71.329442 402.345028 70.681942 
L 402.900028 70.681942 
L 402.900028 76.251942 
L 402.150028 76.251942 
L 402.150028 72.290692 
L 400.833778 72.290692 
z
M 405.200497 75.400692 
L 406.016747 75.400692 
L 406.016747 76.251942 
L 405.200497 76.251942 
L 405.200497 75.400692 
z
M 409.079403 70.634442 
Q 410.016903 70.634442 410.385653 71.120692 
Q 410.755653 71.606942 410.755653 72.123192 
L 410.059403 72.123192 
Q 409.996903 71.790692 409.860653 71.603192 
Q 409.606903 71.251942 409.090653 71.251942 
Q 408.500653 71.251942 408.153153 71.796942 
Q 407.805653 72.341942 407.766903 73.356942 
Q 408.009403 73.001942 408.375653 72.825692 
Q 408.711903 72.669442 409.125653 72.669442 
Q 409.829403 72.669442 410.351903 73.119442 
Q 410.875653 73.568192 410.875653 74.459442 
Q 410.875653 75.220692 410.379403 75.809442 
Q 409.884403 76.396942 408.965653 76.396942 
Q 408.180653 76.396942 407.610653 75.800692 
Q 407.040653 75.204442 407.040653 73.794442 
Q 407.040653 72.751942 407.294403 72.025692 
Q 407.781903 70.634442 409.079403 70.634442 
z
M 409.028153 75.771942 
Q 409.583153 75.771942 409.858153 75.399442 
Q 410.134403 75.025692 410.134403 74.516942 
Q 410.134403 74.088192 409.888153 73.699442 
Q 409.641903 73.310692 408.993153 73.310692 
Q 408.540653 73.310692 408.198153 73.611942 
Q 407.856903 73.911942 407.856903 74.516942 
Q 407.856903 75.048192 408.166903 75.410692 
Q 408.478153 75.771942 409.028153 75.771942 
z
M 415.372372 70.751942 
L 415.372372 71.365692 
Q 415.102372 71.626942 414.654872 72.275692 
Q 414.208622 72.923192 413.864872 73.673192 
Q 413.524872 74.404442 413.348622 75.005692 
Q 413.236122 75.391942 413.056122 76.251942 
L 412.278622 76.251942 
Q 412.543622 74.650692 413.449872 73.064442 
Q 413.986122 72.134442 414.574872 71.459442 
L 411.481122 71.459442 
L 411.481122 70.751942 
L 415.372372 70.751942 
z
" style="stroke: #ffffff; stroke-width: 2"/>
    <path d="M 398.00456 75.845692 
Q 398.67331 75.814442 398.92706 75.356942 
Q 399.05956 75.123192 399.05956 74.814442 
Q 399.05956 74.325692 398.70081 74.071942 
Q 398.49331 73.923192 398.00456 73.790692 
L 398.00456 75.845692 
z
M 396.68081 72.075692 
Q 396.68081 72.463192 396.93581 72.681942 
Q 397.19206 72.900692 397.62581 72.985692 
L 397.62581 71.150692 
Q 397.11456 71.169442 396.89706 71.463192 
Q 396.68081 71.755692 396.68081 72.075692 
z
M 395.97831 72.123192 
Q 395.97831 71.529442 396.41331 71.053192 
Q 396.84831 70.575692 397.63456 70.568192 
L 397.63456 70.048192 
L 398.00456 70.048192 
L 398.00456 70.560692 
Q 398.78206 70.615692 399.19831 71.019442 
Q 399.61456 71.423192 399.63456 72.088192 
L 398.95081 72.088192 
Q 398.92331 71.790692 398.79081 71.575692 
Q 398.54456 71.181942 398.00456 71.161942 
L 398.00456 73.060692 
Q 398.91081 73.314442 399.23581 73.536942 
Q 399.76331 73.904442 399.76331 74.623192 
Q 399.76331 75.661942 399.08706 76.099442 
Q 398.71206 76.341942 398.00456 76.419442 
L 398.00456 77.178192 
L 397.63456 77.178192 
L 397.63456 76.419442 
Q 396.49706 76.345692 396.09081 75.615692 
Q 395.86831 75.220692 395.86831 74.548192 
L 396.55956 74.548192 
Q 396.59081 75.084442 396.72831 75.329442 
Q 396.96956 75.771942 397.62581 75.825692 
L 397.62581 73.696942 
Q 396.78206 73.536942 396.37956 73.161942 
Q 395.97831 72.786942 395.97831 72.123192 
z
M 400.833778 72.290692 
L 400.833778 71.751942 
Q 401.595028 71.678192 401.895028 71.504442 
Q 402.196278 71.329442 402.345028 70.681942 
L 402.900028 70.681942 
L 402.900028 76.251942 
L 402.150028 76.251942 
L 402.150028 72.290692 
L 400.833778 72.290692 
z
M 405.200497 75.400692 
L 406.016747 75.400692 
L 406.016747 76.251942 
L 405.200497 76.251942 
L 405.200497 75.400692 
z
M 409.079403 70.634442 
Q 410.016903 70.634442 410.385653 71.120692 
Q 410.755653 71.606942 410.755653 72.123192 
L 410.059403 72.123192 
Q 409.996903 71.790692 409.860653 71.603192 
Q 409.606903 71.251942 409.090653 71.251942 
Q 408.500653 71.251942 408.153153 71.796942 
Q 407.805653 72.341942 407.766903 73.356942 
Q 408.009403 73.001942 408.375653 72.825692 
Q 408.711903 72.669442 409.125653 72.669442 
Q 409.829403 72.669442 410.351903 73.119442 
Q 410.875653 73.568192 410.875653 74.459442 
Q 410.875653 75.220692 410.379403 75.809442 
Q 409.884403 76.396942 408.965653 76.396942 
Q 408.180653 76.396942 407.610653 75.800692 
Q 407.040653 75.204442 407.040653 73.794442 
Q 407.040653 72.751942 407.294403 72.025692 
Q 407.781903 70.634442 409.079403 70.634442 
z
M 409.028153 75.771942 
Q 409.583153 75.771942 409.858153 75.399442 
Q 410.134403 75.025692 410.134403 74.516942 
Q 410.134403 74.088192 409.888153 73.699442 
Q 409.641903 73.310692 408.993153 73.310692 
Q 408.540653 73.310692 408.198153 73.611942 
Q 407.856903 73.911942 407.856903 74.516942 
Q 407.856903 75.048192 408.166903 75.410692 
Q 408.478153 75.771942 409.028153 75.771942 
z
M 415.372372 70.751942 
L 415.372372 71.365692 
Q 415.102372 71.626942 414.654872 72.275692 
Q 414.208622 72.923192 413.864872 73.673192 
Q 413.524872 74.404442 413.348622 75.005692 
Q 413.236122 75.391942 413.056122 76.251942 
L 412.278622 76.251942 
Q 412.543622 74.650692 413.449872 73.064442 
Q 413.986122 72.134442 414.574872 71.459442 
L 411.481122 71.459442 
L 411.481122 70.751942 
L 415.372372 70.751942 
z
"/>
   </g>
  </g>
 </g>
 <defs>
  <clipPath id="p01df1c4e5c">
   <rect x="23.0975" y="20.56875" width="180.626178" height="94.533125"/>
  </clipPath>
  <clipPath id="p9c791b1ba1">
   <rect x="236.946322" y="20.56875" width="180.626178" height="94.533125"/>
  </clipPath>
 </defs>
</svg>
