<?xml version="1.0" encoding="utf-8" standalone="no"?>
<!DOCTYPE svg PUBLIC "-//W3C//DTD SVG 1.1//EN"
  "http://www.w3.org/Graphics/SVG/1.1/DTD/svg11.dtd">
<svg xmlns:xlink="http://www.w3.org/1999/xlink" width="1055.7725pt" height="428.474375pt" viewBox="0 0 1055.7725 428.474375" xmlns="http://www.w3.org/2000/svg" version="1.1">
 <metadata>
  <rdf:RDF xmlns:dc="http://purl.org/dc/elements/1.1/" xmlns:cc="http://creativecommons.org/ns#" xmlns:rdf="http://www.w3.org/1999/02/22-rdf-syntax-ns#">
   <cc:Work>
    <dc:type rdf:resource="http://purl.org/dc/dcmitype/StillImage"/>
    <dc:date>2026-05-05T14:21:47.214364</dc:date>
    <dc:format>image/svg+xml</dc:format>
    <dc:creator>
     <cc:Agent>
      <dc:title>Matplotlib v3.10.8, https://matplotlib.org/</dc:title>
     </cc:Agent>
    </dc:creator>
   </cc:Work>
  </rdf:RDF>
 </metadata>
 <defs>
  <style type="text/css">*{stroke-linejoin: round; stroke-linecap: butt}</style>
 </defs>
 <g id="figure_1">
  <g id="patch_1">
   <path d="M 0 428.474375 
L 1055.7725 428.474375 
L 1055.7725 0 
L 0 0 
z
" style="fill: #ffffff"/>
  </g>
  <g id="axes_1">
   <g id="patch_2">
    <path d="M 119.75625 164.179907 
L 362.000778 164.179907 
L 362.000778 26.154375 
L 119.75625 26.154375 
z
" style="fill: #ffffff"/>
   </g>
   <g id="matplotlib.axis_1">
    <g id="xtick_1">
     <g id="line2d_1">
      <defs>
       <path id="m60532183c0" d="M 0 0 
L 0 3.5 
" style="stroke: #000000; stroke-width: 0.8"/>
      </defs>
      <g>
       <use xlink:href="#m60532183c0" x="130.767365" y="164.179907" style="stroke: #000000; stroke-width: 0.8"/>
      </g>
     </g>
     <g id="text_1">
      <!-- Start -->
      <g transform="translate(113.873615 182.657407) scale(0.16 -0.16)">
       <defs>
        <path id="Helvetica-53" d="M 894 1481 
Q 916 1091 1078 847 
Q 1388 391 2169 391 
Q 2519 391 2806 491 
Q 3363 684 3363 1184 
Q 3363 1559 3128 1719 
Q 2891 1875 2384 1991 
L 1763 2131 
Q 1153 2269 900 2434 
Q 463 2722 463 3294 
Q 463 3913 891 4309 
Q 1319 4706 2103 4706 
Q 2825 4706 3329 4357 
Q 3834 4009 3834 3244 
L 3250 3244 
Q 3203 3613 3050 3809 
Q 2766 4169 2084 4169 
Q 1534 4169 1293 3937 
Q 1053 3706 1053 3400 
Q 1053 3063 1334 2906 
Q 1519 2806 2169 2656 
L 2813 2509 
Q 3278 2403 3531 2219 
Q 3969 1897 3969 1284 
Q 3969 522 3414 194 
Q 2859 -134 2125 -134 
Q 1269 -134 784 303 
Q 300 738 309 1481 
L 894 1481 
z
M 2150 4716 
L 2150 4716 
z
" transform="scale(0.015625)"/>
        <path id="Helvetica-74" d="M 525 4281 
L 1094 4281 
L 1094 3347 
L 1628 3347 
L 1628 2888 
L 1094 2888 
L 1094 703 
Q 1094 528 1213 469 
Q 1278 434 1431 434 
Q 1472 434 1519 436 
Q 1566 438 1628 444 
L 1628 0 
Q 1531 -28 1426 -40 
Q 1322 -53 1200 -53 
Q 806 -53 665 148 
Q 525 350 525 672 
L 525 2888 
L 72 2888 
L 72 3347 
L 525 3347 
L 525 4281 
z
" transform="scale(0.015625)"/>
        <path id="Helvetica-61" d="M 844 891 
Q 844 647 1022 506 
Q 1200 366 1444 366 
Q 1741 366 2019 503 
Q 2488 731 2488 1250 
L 2488 1703 
Q 2384 1638 2221 1594 
Q 2059 1550 1903 1531 
L 1563 1488 
Q 1256 1447 1103 1359 
Q 844 1213 844 891 
z
M 2206 2028 
Q 2400 2053 2466 2191 
Q 2503 2266 2503 2406 
Q 2503 2694 2298 2823 
Q 2094 2953 1713 2953 
Q 1272 2953 1088 2716 
Q 984 2584 953 2325 
L 428 2325 
Q 444 2944 830 3186 
Q 1216 3428 1725 3428 
Q 2316 3428 2684 3203 
Q 3050 2978 3050 2503 
L 3050 575 
Q 3050 488 3086 434 
Q 3122 381 3238 381 
Q 3275 381 3322 386 
Q 3369 391 3422 400 
L 3422 -16 
Q 3291 -53 3222 -62 
Q 3153 -72 3034 -72 
Q 2744 -72 2613 134 
Q 2544 244 2516 444 
Q 2344 219 2022 53 
Q 1700 -113 1313 -113 
Q 847 -113 551 170 
Q 256 453 256 878 
Q 256 1344 547 1600 
Q 838 1856 1309 1916 
L 2206 2028 
z
M 1741 3428 
L 1741 3428 
z
" transform="scale(0.015625)"/>
        <path id="Helvetica-72" d="M 428 3347 
L 963 3347 
L 963 2769 
Q 1028 2938 1284 3180 
Q 1541 3422 1875 3422 
Q 1891 3422 1928 3419 
Q 1966 3416 2056 3406 
L 2056 2813 
Q 2006 2822 1964 2825 
Q 1922 2828 1872 2828 
Q 1447 2828 1219 2554 
Q 991 2281 991 1925 
L 991 0 
L 428 0 
L 428 3347 
z
" transform="scale(0.015625)"/>
       </defs>
       <use xlink:href="#Helvetica-53"/>
       <use xlink:href="#Helvetica-74" transform="translate(66.699219 0)"/>
       <use xlink:href="#Helvetica-61" transform="translate(94.482422 0)"/>
       <use xlink:href="#Helvetica-72" transform="translate(150.097656 0)"/>
       <use xlink:href="#Helvetica-74" transform="translate(183.398438 0)"/>
      </g>
     </g>
    </g>
    <g id="xtick_2">
     <g id="line2d_2">
      <g>
       <use xlink:href="#m60532183c0" x="185.822939" y="164.179907" style="stroke: #000000; stroke-width: 0.8"/>
      </g>
     </g>
     <g id="text_2">
      <!-- Early -->
      <g transform="translate(167.596689 182.657407) scale(0.16 -0.16)">
       <defs>
        <path id="Helvetica-45" d="M 547 4591 
L 3894 4591 
L 3894 4028 
L 1153 4028 
L 1153 2634 
L 3688 2634 
L 3688 2103 
L 1153 2103 
L 1153 547 
L 3941 547 
L 3941 0 
L 547 0 
L 547 4591 
z
M 2244 4591 
L 2244 4591 
z
" transform="scale(0.015625)"/>
        <path id="Helvetica-6c" d="M 428 4591 
L 991 4591 
L 991 0 
L 428 0 
L 428 4591 
z
" transform="scale(0.015625)"/>
        <path id="Helvetica-79" d="M 2503 3347 
L 3125 3347 
Q 3006 3025 2597 1878 
Q 2291 1016 2084 472 
Q 1597 -809 1397 -1090 
Q 1197 -1372 709 -1372 
Q 591 -1372 527 -1362 
Q 463 -1353 369 -1328 
L 369 -816 
Q 516 -856 581 -865 
Q 647 -875 697 -875 
Q 853 -875 926 -823 
Q 1000 -772 1050 -697 
Q 1066 -672 1162 -440 
Q 1259 -209 1303 -97 
L 66 3347 
L 703 3347 
L 1600 622 
L 2503 3347 
z
M 1597 3428 
L 1597 3428 
z
" transform="scale(0.015625)"/>
       </defs>
       <use xlink:href="#Helvetica-45"/>
       <use xlink:href="#Helvetica-61" transform="translate(66.699219 0)"/>
       <use xlink:href="#Helvetica-72" transform="translate(122.314453 0)"/>
       <use xlink:href="#Helvetica-6c" transform="translate(155.615234 0)"/>
       <use xlink:href="#Helvetica-79" transform="translate(177.832031 0)"/>
      </g>
     </g>
    </g>
    <g id="xtick_3">
     <g id="line2d_3">
      <g>
       <use xlink:href="#m60532183c0" x="240.878514" y="164.179907" style="stroke: #000000; stroke-width: 0.8"/>
      </g>
     </g>
     <g id="text_3">
      <!-- Mid -->
      <g transform="translate(227.988514 182.657407) scale(0.16 -0.16)">
       <defs>
        <path id="Helvetica-4d" d="M 472 4591 
L 1363 4591 
L 2681 709 
L 3991 4591 
L 4872 4591 
L 4872 0 
L 4281 0 
L 4281 2709 
Q 4281 2850 4287 3175 
Q 4294 3500 4294 3872 
L 2984 0 
L 2369 0 
L 1050 3872 
L 1050 3731 
Q 1050 3563 1058 3217 
Q 1066 2872 1066 2709 
L 1066 0 
L 472 0 
L 472 4591 
z
" transform="scale(0.015625)"/>
        <path id="Helvetica-69" d="M 413 3331 
L 984 3331 
L 984 0 
L 413 0 
L 413 3331 
z
M 413 4591 
L 984 4591 
L 984 3953 
L 413 3953 
L 413 4591 
z
" transform="scale(0.015625)"/>
        <path id="Helvetica-64" d="M 769 1634 
Q 769 1097 997 734 
Q 1225 372 1728 372 
Q 2119 372 2370 708 
Q 2622 1044 2622 1672 
Q 2622 2306 2362 2611 
Q 2103 2916 1722 2916 
Q 1297 2916 1033 2591 
Q 769 2266 769 1634 
z
M 1616 3406 
Q 2000 3406 2259 3244 
Q 2409 3150 2600 2916 
L 2600 4606 
L 3141 4606 
L 3141 0 
L 2634 0 
L 2634 466 
Q 2438 156 2169 18 
Q 1900 -119 1553 -119 
Q 994 -119 584 351 
Q 175 822 175 1603 
Q 175 2334 548 2870 
Q 922 3406 1616 3406 
z
" transform="scale(0.015625)"/>
       </defs>
       <use xlink:href="#Helvetica-4d"/>
       <use xlink:href="#Helvetica-69" transform="translate(83.300781 0)"/>
       <use xlink:href="#Helvetica-64" transform="translate(105.517578 0)"/>
      </g>
     </g>
    </g>
    <g id="xtick_4">
     <g id="line2d_4">
      <g>
       <use xlink:href="#m60532183c0" x="295.934088" y="164.179907" style="stroke: #000000; stroke-width: 0.8"/>
      </g>
     </g>
     <g id="text_4">
      <!-- Late -->
      <g transform="translate(280.365338 182.657407) scale(0.16 -0.16)">
       <defs>
        <path id="Helvetica-4c" d="M 488 4591 
L 1109 4591 
L 1109 547 
L 3434 547 
L 3434 0 
L 488 0 
L 488 4591 
z
" transform="scale(0.015625)"/>
        <path id="Helvetica-65" d="M 1806 3422 
Q 2163 3422 2497 3255 
Q 2831 3088 3006 2822 
Q 3175 2569 3231 2231 
Q 3281 2000 3281 1494 
L 828 1494 
Q 844 984 1069 676 
Q 1294 369 1766 369 
Q 2206 369 2469 659 
Q 2619 828 2681 1050 
L 3234 1050 
Q 3213 866 3089 639 
Q 2966 413 2813 269 
Q 2556 19 2178 -69 
Q 1975 -119 1719 -119 
Q 1094 -119 659 336 
Q 225 791 225 1609 
Q 225 2416 662 2919 
Q 1100 3422 1806 3422 
z
M 2703 1941 
Q 2669 2306 2544 2525 
Q 2313 2931 1772 2931 
Q 1384 2931 1121 2651 
Q 859 2372 844 1941 
L 2703 1941 
z
M 1753 3428 
L 1753 3428 
z
" transform="scale(0.015625)"/>
       </defs>
       <use xlink:href="#Helvetica-4c"/>
       <use xlink:href="#Helvetica-61" transform="translate(55.615234 0)"/>
       <use xlink:href="#Helvetica-74" transform="translate(111.230469 0)"/>
       <use xlink:href="#Helvetica-65" transform="translate(139.013672 0)"/>
      </g>
     </g>
    </g>
    <g id="xtick_5">
     <g id="line2d_5">
      <g>
       <use xlink:href="#m60532183c0" x="350.989663" y="164.179907" style="stroke: #000000; stroke-width: 0.8"/>
      </g>
     </g>
     <g id="text_5">
      <!-- Final -->
      <g transform="translate(333.650913 182.657407) scale(0.16 -0.16)">
       <defs>
        <path id="Helvetica-46" d="M 547 4591 
L 3731 4591 
L 3731 4028 
L 1169 4028 
L 1169 2634 
L 3422 2634 
L 3422 2088 
L 1169 2088 
L 1169 0 
L 547 0 
L 547 4591 
z
" transform="scale(0.015625)"/>
        <path id="Helvetica-6e" d="M 413 3347 
L 947 3347 
L 947 2872 
Q 1184 3166 1450 3294 
Q 1716 3422 2041 3422 
Q 2753 3422 3003 2925 
Q 3141 2653 3141 2147 
L 3141 0 
L 2569 0 
L 2569 2109 
Q 2569 2416 2478 2603 
Q 2328 2916 1934 2916 
Q 1734 2916 1606 2875 
Q 1375 2806 1200 2600 
Q 1059 2434 1017 2257 
Q 975 2081 975 1753 
L 975 0 
L 413 0 
L 413 3347 
z
M 1734 3428 
L 1734 3428 
z
" transform="scale(0.015625)"/>
       </defs>
       <use xlink:href="#Helvetica-46"/>
       <use xlink:href="#Helvetica-69" transform="translate(61.083984 0)"/>
       <use xlink:href="#Helvetica-6e" transform="translate(83.300781 0)"/>
       <use xlink:href="#Helvetica-61" transform="translate(138.916016 0)"/>
       <use xlink:href="#Helvetica-6c" transform="translate(194.53125 0)"/>
      </g>
     </g>
    </g>
   </g>
   <g id="matplotlib.axis_2">
    <g id="ytick_1">
     <g id="line2d_6">
      <path d="M 119.75625 115.215686 
L 362.000778 115.215686 
" clip-path="url(#p138707761c)" style="fill: none; stroke: #cccccc; stroke-width: 0.6; stroke-linecap: square"/>
     </g>
     <g id="line2d_7">
      <defs>
       <path id="mbd77a56122" d="M 0 0 
L -3.5 0 
" style="stroke: #000000; stroke-width: 0.8"/>
      </defs>
      <g>
       <use xlink:href="#mbd77a56122" x="119.75625" y="115.215686" style="stroke: #000000; stroke-width: 0.8"/>
      </g>
     </g>
     <g id="text_6">
      <!-- 0.4 -->
      <g transform="translate(90.51625 120.954436) scale(0.16 -0.16)">
       <defs>
        <path id="Helvetica-30" d="M 1731 4475 
Q 2600 4475 2988 3759 
Q 3288 3206 3288 2244 
Q 3288 1331 3016 734 
Q 2622 -122 1728 -122 
Q 922 -122 528 578 
Q 200 1163 200 2147 
Q 200 2909 397 3456 
Q 766 4475 1731 4475 
z
M 1725 391 
Q 2163 391 2422 778 
Q 2681 1166 2681 2222 
Q 2681 2984 2493 3476 
Q 2306 3969 1766 3969 
Q 1269 3969 1039 3501 
Q 809 3034 809 2125 
Q 809 1441 956 1025 
Q 1181 391 1725 391 
z
" transform="scale(0.015625)"/>
        <path id="Helvetica-2e" d="M 547 681 
L 1200 681 
L 1200 0 
L 547 0 
L 547 681 
z
" transform="scale(0.015625)"/>
        <path id="Helvetica-34" d="M 2116 1584 
L 2116 3613 
L 681 1584 
L 2116 1584 
z
M 2125 0 
L 2125 1094 
L 163 1094 
L 163 1644 
L 2213 4488 
L 2688 4488 
L 2688 1584 
L 3347 1584 
L 3347 1094 
L 2688 1094 
L 2688 0 
L 2125 0 
z
" transform="scale(0.015625)"/>
       </defs>
       <use xlink:href="#Helvetica-30"/>
       <use xlink:href="#Helvetica-2e" transform="translate(55.615234 0)"/>
       <use xlink:href="#Helvetica-34" transform="translate(83.398438 0)"/>
      </g>
     </g>
    </g>
    <g id="ytick_2">
     <g id="line2d_8">
      <path d="M 119.75625 47.855416 
L 362.000778 47.855416 
" clip-path="url(#p138707761c)" style="fill: none; stroke: #cccccc; stroke-width: 0.6; stroke-linecap: square"/>
     </g>
     <g id="line2d_9">
      <g>
       <use xlink:href="#mbd77a56122" x="119.75625" y="47.855416" style="stroke: #000000; stroke-width: 0.8"/>
      </g>
     </g>
     <g id="text_7">
      <!-- 0.5 -->
      <g transform="translate(90.51625 53.594166) scale(0.16 -0.16)">
       <defs>
        <path id="Helvetica-35" d="M 791 1141 
Q 847 659 1238 475 
Q 1438 381 1700 381 
Q 2200 381 2440 700 
Q 2681 1019 2681 1406 
Q 2681 1875 2395 2131 
Q 2109 2388 1709 2388 
Q 1419 2388 1211 2275 
Q 1003 2163 856 1963 
L 369 1991 
L 709 4400 
L 3034 4400 
L 3034 3856 
L 1131 3856 
L 941 2613 
Q 1097 2731 1238 2791 
Q 1488 2894 1816 2894 
Q 2431 2894 2859 2497 
Q 3288 2100 3288 1491 
Q 3288 856 2895 371 
Q 2503 -113 1644 -113 
Q 1097 -113 676 195 
Q 256 503 206 1141 
L 791 1141 
z
" transform="scale(0.015625)"/>
       </defs>
       <use xlink:href="#Helvetica-30"/>
       <use xlink:href="#Helvetica-2e" transform="translate(55.615234 0)"/>
       <use xlink:href="#Helvetica-35" transform="translate(83.398438 0)"/>
      </g>
     </g>
    </g>
    <g id="text_8">
     <!-- Claude -->
     <g transform="translate(55.651681 122.101516) rotate(-90) scale(0.17 -0.17)">
      <defs>
       <path id="Helvetica-43" d="M 2422 4716 
Q 3294 4716 3775 4256 
Q 4256 3797 4309 3213 
L 3703 3213 
Q 3600 3656 3292 3915 
Q 2984 4175 2428 4175 
Q 1750 4175 1333 3698 
Q 916 3222 916 2238 
Q 916 1431 1292 929 
Q 1669 428 2416 428 
Q 3103 428 3463 956 
Q 3653 1234 3747 1688 
L 4353 1688 
Q 4272 963 3816 472 
Q 3269 -119 2341 -119 
Q 1541 -119 997 366 
Q 281 1006 281 2344 
Q 281 3359 819 4009 
Q 1400 4716 2422 4716 
z
M 2297 4716 
L 2297 4716 
z
" transform="scale(0.015625)"/>
       <path id="Helvetica-75" d="M 975 3347 
L 975 1125 
Q 975 869 1056 706 
Q 1206 406 1616 406 
Q 2203 406 2416 931 
Q 2531 1213 2531 1703 
L 2531 3347 
L 3094 3347 
L 3094 0 
L 2563 0 
L 2569 494 
Q 2459 303 2297 172 
Q 1975 -91 1516 -91 
Q 800 -91 541 388 
Q 400 644 400 1072 
L 400 3347 
L 975 3347 
z
M 1747 3428 
L 1747 3428 
z
" transform="scale(0.015625)"/>
      </defs>
      <use xlink:href="#Helvetica-43"/>
      <use xlink:href="#Helvetica-6c" transform="translate(72.216797 0)"/>
      <use xlink:href="#Helvetica-61" transform="translate(94.433594 0)"/>
      <use xlink:href="#Helvetica-75" transform="translate(150.048828 0)"/>
      <use xlink:href="#Helvetica-64" transform="translate(205.664062 0)"/>
      <use xlink:href="#Helvetica-65" transform="translate(261.279297 0)"/>
     </g>
    </g>
   </g>
   <g id="line2d_10">
    <path d="M 130.767365 140.51064 
L 185.822939 101.630355 
L 240.878514 75.217446 
L 295.934088 66.068681 
L 350.989663 64.930629 
" clip-path="url(#p138707761c)" style="fill: none; stroke: #fddcbf; stroke-width: 2.5; stroke-linecap: square"/>
   </g>
   <g id="line2d_11">
    <path d="M 130.767365 157.906019 
L 185.822939 94.101342 
L 240.878514 69.199107 
L 295.934088 62.644962 
L 350.989663 75.689072 
" clip-path="url(#p138707761c)" style="fill: none; stroke: #f4845f; stroke-width: 2.5; stroke-linecap: square"/>
   </g>
   <g id="line2d_12">
    <path d="M 130.767365 140.526894 
L 185.822939 96.102518 
L 240.878514 63.528336 
L 295.934088 64.912962 
L 350.989663 81.01221 
" clip-path="url(#p138707761c)" style="fill: none; stroke: #c0392b; stroke-width: 2.5; stroke-linecap: square"/>
   </g>
   <g id="line2d_13">
    <path d="M 130.767365 119.400103 
L 185.822939 69.831689 
L 240.878514 38.066668 
L 295.934088 39.728727 
L 350.989663 32.428263 
" clip-path="url(#p138707761c)" style="fill: none; stroke: #7a1d12; stroke-width: 2.5; stroke-linecap: square"/>
   </g>
   <g id="patch_3">
    <path d="M 119.75625 164.179907 
L 119.75625 26.154375 
" style="fill: none; stroke: #000000; stroke-width: 0.8; stroke-linejoin: miter; stroke-linecap: square"/>
   </g>
   <g id="patch_4">
    <path d="M 362.000778 164.179907 
L 362.000778 26.154375 
" style="fill: none; stroke: #000000; stroke-width: 0.8; stroke-linejoin: miter; stroke-linecap: square"/>
   </g>
   <g id="patch_5">
    <path d="M 119.75625 164.179907 
L 362.000778 164.179907 
" style="fill: none; stroke: #000000; stroke-width: 0.8; stroke-linejoin: miter; stroke-linecap: square"/>
   </g>
   <g id="patch_6">
    <path d="M 119.75625 26.154375 
L 362.000778 26.154375 
" style="fill: none; stroke: #000000; stroke-width: 0.8; stroke-linejoin: miter; stroke-linecap: square"/>
   </g>
   <g id="text_9">
    <!-- Verbosity -->
    <g transform="translate(203.363983 20.154375) scale(0.18 -0.18)">
     <defs>
      <path id="Helvetica-56" d="M 850 4591 
L 2169 681 
L 3472 4591 
L 4169 4591 
L 2494 0 
L 1834 0 
L 163 4591 
L 850 4591 
z
" transform="scale(0.015625)"/>
      <path id="Helvetica-62" d="M 369 4606 
L 916 4606 
L 916 2941 
Q 1100 3181 1356 3307 
Q 1613 3434 1913 3434 
Q 2538 3434 2927 3004 
Q 3316 2575 3316 1738 
Q 3316 944 2931 419 
Q 2547 -106 1866 -106 
Q 1484 -106 1222 78 
Q 1066 188 888 428 
L 888 0 
L 369 0 
L 369 4606 
z
M 1831 391 
Q 2288 391 2514 753 
Q 2741 1116 2741 1709 
Q 2741 2238 2514 2584 
Q 2288 2931 1847 2931 
Q 1463 2931 1173 2647 
Q 884 2363 884 1709 
Q 884 1238 1003 944 
Q 1225 391 1831 391 
z
" transform="scale(0.015625)"/>
      <path id="Helvetica-6f" d="M 1741 363 
Q 2300 363 2508 786 
Q 2716 1209 2716 1728 
Q 2716 2197 2566 2491 
Q 2328 2953 1747 2953 
Q 1231 2953 997 2559 
Q 763 2166 763 1609 
Q 763 1075 997 719 
Q 1231 363 1741 363 
z
M 1763 3444 
Q 2409 3444 2856 3012 
Q 3303 2581 3303 1744 
Q 3303 934 2909 406 
Q 2516 -122 1688 -122 
Q 997 -122 590 345 
Q 184 813 184 1600 
Q 184 2444 612 2944 
Q 1041 3444 1763 3444 
z
M 1744 3428 
L 1744 3428 
z
" transform="scale(0.015625)"/>
      <path id="Helvetica-73" d="M 747 1050 
Q 772 769 888 619 
Q 1100 347 1625 347 
Q 1938 347 2175 483 
Q 2413 619 2413 903 
Q 2413 1119 2222 1231 
Q 2100 1300 1741 1391 
L 1294 1503 
Q 866 1609 663 1741 
Q 300 1969 300 2372 
Q 300 2847 642 3140 
Q 984 3434 1563 3434 
Q 2319 3434 2653 2991 
Q 2863 2709 2856 2384 
L 2325 2384 
Q 2309 2575 2191 2731 
Q 1997 2953 1519 2953 
Q 1200 2953 1036 2831 
Q 872 2709 872 2509 
Q 872 2291 1088 2159 
Q 1213 2081 1456 2022 
L 1828 1931 
Q 2434 1784 2641 1647 
Q 2969 1431 2969 969 
Q 2969 522 2630 197 
Q 2291 -128 1597 -128 
Q 850 -128 539 211 
Q 228 550 206 1050 
L 747 1050 
z
M 1578 3428 
L 1578 3428 
z
" transform="scale(0.015625)"/>
     </defs>
     <use xlink:href="#Helvetica-56"/>
     <use xlink:href="#Helvetica-65" transform="translate(66.699219 0)"/>
     <use xlink:href="#Helvetica-72" transform="translate(122.314453 0)"/>
     <use xlink:href="#Helvetica-62" transform="translate(155.615234 0)"/>
     <use xlink:href="#Helvetica-6f" transform="translate(211.230469 0)"/>
     <use xlink:href="#Helvetica-73" transform="translate(266.845703 0)"/>
     <use xlink:href="#Helvetica-69" transform="translate(316.845703 0)"/>
     <use xlink:href="#Helvetica-74" transform="translate(339.0625 0)"/>
     <use xlink:href="#Helvetica-79" transform="translate(366.845703 0)"/>
    </g>
   </g>
  </g>
  <g id="axes_2">
   <g id="patch_7">
    <path d="M 427.477917 164.179907 
L 669.722444 164.179907 
L 669.722444 26.154375 
L 427.477917 26.154375 
z
" style="fill: #ffffff"/>
   </g>
   <g id="matplotlib.axis_3">
    <g id="xtick_6">
     <g id="line2d_14">
      <g>
       <use xlink:href="#m60532183c0" x="438.489032" y="164.179907" style="stroke: #000000; stroke-width: 0.8"/>
      </g>
     </g>
     <g id="text_10">
      <!-- Start -->
      <g transform="translate(421.595282 182.657407) scale(0.16 -0.16)">
       <use xlink:href="#Helvetica-53"/>
       <use xlink:href="#Helvetica-74" transform="translate(66.699219 0)"/>
       <use xlink:href="#Helvetica-61" transform="translate(94.482422 0)"/>
       <use xlink:href="#Helvetica-72" transform="translate(150.097656 0)"/>
       <use xlink:href="#Helvetica-74" transform="translate(183.398438 0)"/>
      </g>
     </g>
    </g>
    <g id="xtick_7">
     <g id="line2d_15">
      <g>
       <use xlink:href="#m60532183c0" x="493.544606" y="164.179907" style="stroke: #000000; stroke-width: 0.8"/>
      </g>
     </g>
     <g id="text_11">
      <!-- Early -->
      <g transform="translate(475.318356 182.657407) scale(0.16 -0.16)">
       <use xlink:href="#Helvetica-45"/>
       <use xlink:href="#Helvetica-61" transform="translate(66.699219 0)"/>
       <use xlink:href="#Helvetica-72" transform="translate(122.314453 0)"/>
       <use xlink:href="#Helvetica-6c" transform="translate(155.615234 0)"/>
       <use xlink:href="#Helvetica-79" transform="translate(177.832031 0)"/>
      </g>
     </g>
    </g>
    <g id="xtick_8">
     <g id="line2d_16">
      <g>
       <use xlink:href="#m60532183c0" x="548.60018" y="164.179907" style="stroke: #000000; stroke-width: 0.8"/>
      </g>
     </g>
     <g id="text_12">
      <!-- Mid -->
      <g transform="translate(535.71018 182.657407) scale(0.16 -0.16)">
       <use xlink:href="#Helvetica-4d"/>
       <use xlink:href="#Helvetica-69" transform="translate(83.300781 0)"/>
       <use xlink:href="#Helvetica-64" transform="translate(105.517578 0)"/>
      </g>
     </g>
    </g>
    <g id="xtick_9">
     <g id="line2d_17">
      <g>
       <use xlink:href="#m60532183c0" x="603.655755" y="164.179907" style="stroke: #000000; stroke-width: 0.8"/>
      </g>
     </g>
     <g id="text_13">
      <!-- Late -->
      <g transform="translate(588.087005 182.657407) scale(0.16 -0.16)">
       <use xlink:href="#Helvetica-4c"/>
       <use xlink:href="#Helvetica-61" transform="translate(55.615234 0)"/>
       <use xlink:href="#Helvetica-74" transform="translate(111.230469 0)"/>
       <use xlink:href="#Helvetica-65" transform="translate(139.013672 0)"/>
      </g>
     </g>
    </g>
    <g id="xtick_10">
     <g id="line2d_18">
      <g>
       <use xlink:href="#m60532183c0" x="658.711329" y="164.179907" style="stroke: #000000; stroke-width: 0.8"/>
      </g>
     </g>
     <g id="text_14">
      <!-- Final -->
      <g transform="translate(641.372579 182.657407) scale(0.16 -0.16)">
       <use xlink:href="#Helvetica-46"/>
       <use xlink:href="#Helvetica-69" transform="translate(61.083984 0)"/>
       <use xlink:href="#Helvetica-6e" transform="translate(83.300781 0)"/>
       <use xlink:href="#Helvetica-61" transform="translate(138.916016 0)"/>
       <use xlink:href="#Helvetica-6c" transform="translate(194.53125 0)"/>
      </g>
     </g>
    </g>
   </g>
   <g id="matplotlib.axis_4">
    <g id="ytick_3">
     <g id="line2d_19">
      <path d="M 427.477917 158.212984 
L 669.722444 158.212984 
" clip-path="url(#p57ea7c1efe)" style="fill: none; stroke: #cccccc; stroke-width: 0.6; stroke-linecap: square"/>
     </g>
     <g id="line2d_20">
      <g>
       <use xlink:href="#mbd77a56122" x="427.477917" y="158.212984" style="stroke: #000000; stroke-width: 0.8"/>
      </g>
     </g>
     <g id="text_15">
      <!-- 0.80 -->
      <g transform="translate(389.340417 163.951734) scale(0.16 -0.16)">
       <defs>
        <path id="Helvetica-38" d="M 1741 2600 
Q 2113 2600 2322 2808 
Q 2531 3016 2531 3303 
Q 2531 3553 2331 3762 
Q 2131 3972 1722 3972 
Q 1316 3972 1134 3762 
Q 953 3553 953 3272 
Q 953 2956 1187 2778 
Q 1422 2600 1741 2600 
z
M 1775 384 
Q 2166 384 2423 595 
Q 2681 806 2681 1225 
Q 2681 1659 2415 1884 
Q 2150 2109 1734 2109 
Q 1331 2109 1076 1879 
Q 822 1650 822 1244 
Q 822 894 1055 639 
Q 1288 384 1775 384 
z
M 975 2384 
Q 741 2484 609 2619 
Q 363 2869 363 3269 
Q 363 3769 725 4128 
Q 1088 4488 1753 4488 
Q 2397 4488 2762 4148 
Q 3128 3809 3128 3356 
Q 3128 2938 2916 2678 
Q 2797 2531 2547 2391 
Q 2825 2263 2984 2097 
Q 3281 1784 3281 1284 
Q 3281 694 2884 283 
Q 2488 -128 1763 -128 
Q 1109 -128 657 226 
Q 206 581 206 1256 
Q 206 1653 400 1942 
Q 594 2231 975 2384 
z
" transform="scale(0.015625)"/>
       </defs>
       <use xlink:href="#Helvetica-30"/>
       <use xlink:href="#Helvetica-2e" transform="translate(55.615234 0)"/>
       <use xlink:href="#Helvetica-38" transform="translate(83.398438 0)"/>
       <use xlink:href="#Helvetica-30" transform="translate(139.013672 0)"/>
      </g>
     </g>
    </g>
    <g id="ytick_4">
     <g id="line2d_21">
      <path d="M 427.477917 121.664605 
L 669.722444 121.664605 
" clip-path="url(#p57ea7c1efe)" style="fill: none; stroke: #cccccc; stroke-width: 0.6; stroke-linecap: square"/>
     </g>
     <g id="line2d_22">
      <g>
       <use xlink:href="#mbd77a56122" x="427.477917" y="121.664605" style="stroke: #000000; stroke-width: 0.8"/>
      </g>
     </g>
     <g id="text_16">
      <!-- 0.85 -->
      <g transform="translate(389.340417 127.403355) scale(0.16 -0.16)">
       <use xlink:href="#Helvetica-30"/>
       <use xlink:href="#Helvetica-2e" transform="translate(55.615234 0)"/>
       <use xlink:href="#Helvetica-38" transform="translate(83.398438 0)"/>
       <use xlink:href="#Helvetica-35" transform="translate(139.013672 0)"/>
      </g>
     </g>
    </g>
    <g id="ytick_5">
     <g id="line2d_23">
      <path d="M 427.477917 85.116226 
L 669.722444 85.116226 
" clip-path="url(#p57ea7c1efe)" style="fill: none; stroke: #cccccc; stroke-width: 0.6; stroke-linecap: square"/>
     </g>
     <g id="line2d_24">
      <g>
       <use xlink:href="#mbd77a56122" x="427.477917" y="85.116226" style="stroke: #000000; stroke-width: 0.8"/>
      </g>
     </g>
     <g id="text_17">
      <!-- 0.90 -->
      <g transform="translate(389.340417 90.854976) scale(0.16 -0.16)">
       <defs>
        <path id="Helvetica-39" d="M 850 1081 
Q 875 616 1209 438 
Q 1381 344 1597 344 
Q 2000 344 2284 680 
Q 2569 1016 2688 2044 
Q 2500 1747 2223 1626 
Q 1947 1506 1628 1506 
Q 981 1506 604 1909 
Q 228 2313 228 2947 
Q 228 3556 600 4018 
Q 972 4481 1697 4481 
Q 2675 4481 3047 3600 
Q 3253 3116 3253 2388 
Q 3253 1566 3006 931 
Q 2597 -125 1619 -125 
Q 963 -125 622 219 
Q 281 563 281 1081 
L 850 1081 
z
M 1703 2000 
Q 2038 2000 2314 2220 
Q 2591 2441 2591 2991 
Q 2591 3484 2342 3726 
Q 2094 3969 1709 3969 
Q 1297 3969 1055 3692 
Q 813 3416 813 2953 
Q 813 2516 1025 2258 
Q 1238 2000 1703 2000 
z
" transform="scale(0.015625)"/>
       </defs>
       <use xlink:href="#Helvetica-30"/>
       <use xlink:href="#Helvetica-2e" transform="translate(55.615234 0)"/>
       <use xlink:href="#Helvetica-39" transform="translate(83.398438 0)"/>
       <use xlink:href="#Helvetica-30" transform="translate(139.013672 0)"/>
      </g>
     </g>
    </g>
    <g id="ytick_6">
     <g id="line2d_25">
      <path d="M 427.477917 48.567847 
L 669.722444 48.567847 
" clip-path="url(#p57ea7c1efe)" style="fill: none; stroke: #cccccc; stroke-width: 0.6; stroke-linecap: square"/>
     </g>
     <g id="line2d_26">
      <g>
       <use xlink:href="#mbd77a56122" x="427.477917" y="48.567847" style="stroke: #000000; stroke-width: 0.8"/>
      </g>
     </g>
     <g id="text_18">
      <!-- 0.95 -->
      <g transform="translate(389.340417 54.306597) scale(0.16 -0.16)">
       <use xlink:href="#Helvetica-30"/>
       <use xlink:href="#Helvetica-2e" transform="translate(55.615234 0)"/>
       <use xlink:href="#Helvetica-39" transform="translate(83.398438 0)"/>
       <use xlink:href="#Helvetica-35" transform="translate(139.013672 0)"/>
      </g>
     </g>
    </g>
   </g>
   <g id="line2d_27">
    <path d="M 438.489032 157.906019 
L 493.544606 105.701563 
L 548.60018 75.870247 
L 603.655755 79.114694 
L 658.711329 70.660401 
" clip-path="url(#p57ea7c1efe)" style="fill: none; stroke: #fddcbf; stroke-width: 2.5; stroke-linecap: square"/>
   </g>
   <g id="line2d_28">
    <path d="M 438.489032 123.737947 
L 493.544606 89.781726 
L 548.60018 75.478212 
L 603.655755 77.042924 
L 658.711329 71.114743 
" clip-path="url(#p57ea7c1efe)" style="fill: none; stroke: #f4845f; stroke-width: 2.5; stroke-linecap: square"/>
   </g>
   <g id="line2d_29">
    <path d="M 438.489032 124.352293 
L 493.544606 94.870792 
L 548.60018 86.810816 
L 603.655755 84.146801 
L 658.711329 77.241211 
" clip-path="url(#p57ea7c1efe)" style="fill: none; stroke: #c0392b; stroke-width: 2.5; stroke-linecap: square"/>
   </g>
   <g id="line2d_30">
    <path d="M 438.489032 131.143815 
L 493.544606 76.235788 
L 548.60018 58.012446 
L 603.655755 46.091792 
L 658.711329 32.428263 
" clip-path="url(#p57ea7c1efe)" style="fill: none; stroke: #7a1d12; stroke-width: 2.5; stroke-linecap: square"/>
   </g>
   <g id="patch_8">
    <path d="M 427.477917 164.179907 
L 427.477917 26.154375 
" style="fill: none; stroke: #000000; stroke-width: 0.8; stroke-linejoin: miter; stroke-linecap: square"/>
   </g>
   <g id="patch_9">
    <path d="M 669.722444 164.179907 
L 669.722444 26.154375 
" style="fill: none; stroke: #000000; stroke-width: 0.8; stroke-linejoin: miter; stroke-linecap: square"/>
   </g>
   <g id="patch_10">
    <path d="M 427.477917 164.179907 
L 669.722444 164.179907 
" style="fill: none; stroke: #000000; stroke-width: 0.8; stroke-linejoin: miter; stroke-linecap: square"/>
   </g>
   <g id="patch_11">
    <path d="M 427.477917 26.154375 
L 669.722444 26.154375 
" style="fill: none; stroke: #000000; stroke-width: 0.8; stroke-linejoin: miter; stroke-linecap: square"/>
   </g>
   <g id="text_19">
    <!-- Violation % -->
    <g transform="translate(503.574868 20.154375) scale(0.18 -0.18)">
     <defs>
      <path id="Helvetica-20" transform="scale(0.015625)"/>
      <path id="Helvetica-25" d="M 4363 2175 
Q 4813 2175 5131 1856 
Q 5450 1538 5450 1088 
Q 5450 638 5131 319 
Q 4813 0 4363 0 
Q 3909 0 3590 319 
Q 3272 638 3272 1088 
Q 3272 1538 3590 1856 
Q 3909 2175 4363 2175 
z
M 3909 4456 
L 4256 4456 
L 1753 -119 
L 1406 -119 
L 3909 4456 
z
M 1294 2606 
Q 1563 2606 1752 2795 
Q 1941 2984 1941 3250 
Q 1941 3516 1752 3705 
Q 1563 3894 1294 3894 
Q 1028 3894 839 3706 
Q 650 3519 650 3250 
Q 650 2984 839 2795 
Q 1028 2606 1294 2606 
z
M 1294 4341 
Q 1747 4341 2065 4020 
Q 2384 3700 2384 3250 
Q 2384 2800 2065 2481 
Q 1747 2163 1294 2163 
Q 844 2163 525 2481 
Q 206 2800 206 3250 
Q 206 3700 525 4020 
Q 844 4341 1294 4341 
z
M 4363 444 
Q 4628 444 4817 633 
Q 5006 822 5006 1088 
Q 5006 1353 4817 1542 
Q 4628 1731 4363 1731 
Q 4094 1731 3905 1542 
Q 3716 1353 3716 1088 
Q 3716 822 3905 633 
Q 4094 444 4363 444 
z
" transform="scale(0.015625)"/>
     </defs>
     <use xlink:href="#Helvetica-56"/>
     <use xlink:href="#Helvetica-69" transform="translate(66.699219 0)"/>
     <use xlink:href="#Helvetica-6f" transform="translate(88.916016 0)"/>
     <use xlink:href="#Helvetica-6c" transform="translate(144.53125 0)"/>
     <use xlink:href="#Helvetica-61" transform="translate(166.748047 0)"/>
     <use xlink:href="#Helvetica-74" transform="translate(222.363281 0)"/>
     <use xlink:href="#Helvetica-69" transform="translate(250.146484 0)"/>
     <use xlink:href="#Helvetica-6f" transform="translate(272.363281 0)"/>
     <use xlink:href="#Helvetica-6e" transform="translate(327.978516 0)"/>
     <use xlink:href="#Helvetica-20" transform="translate(383.59375 0)"/>
     <use xlink:href="#Helvetica-25" transform="translate(411.376953 0)"/>
    </g>
   </g>
  </g>
  <g id="axes_3">
   <g id="patch_12">
    <path d="M 735.199583 164.179907 
L 977.444111 164.179907 
L 977.444111 26.154375 
L 735.199583 26.154375 
z
" style="fill: #ffffff"/>
   </g>
   <g id="matplotlib.axis_5">
    <g id="xtick_11">
     <g id="line2d_31">
      <g>
       <use xlink:href="#m60532183c0" x="746.210698" y="164.179907" style="stroke: #000000; stroke-width: 0.8"/>
      </g>
     </g>
     <g id="text_20">
      <!-- Start -->
      <g transform="translate(729.316948 182.657407) scale(0.16 -0.16)">
       <use xlink:href="#Helvetica-53"/>
       <use xlink:href="#Helvetica-74" transform="translate(66.699219 0)"/>
       <use xlink:href="#Helvetica-61" transform="translate(94.482422 0)"/>
       <use xlink:href="#Helvetica-72" transform="translate(150.097656 0)"/>
       <use xlink:href="#Helvetica-74" transform="translate(183.398438 0)"/>
      </g>
     </g>
    </g>
    <g id="xtick_12">
     <g id="line2d_32">
      <g>
       <use xlink:href="#m60532183c0" x="801.266273" y="164.179907" style="stroke: #000000; stroke-width: 0.8"/>
      </g>
     </g>
     <g id="text_21">
      <!-- Early -->
      <g transform="translate(783.040023 182.657407) scale(0.16 -0.16)">
       <use xlink:href="#Helvetica-45"/>
       <use xlink:href="#Helvetica-61" transform="translate(66.699219 0)"/>
       <use xlink:href="#Helvetica-72" transform="translate(122.314453 0)"/>
       <use xlink:href="#Helvetica-6c" transform="translate(155.615234 0)"/>
       <use xlink:href="#Helvetica-79" transform="translate(177.832031 0)"/>
      </g>
     </g>
    </g>
    <g id="xtick_13">
     <g id="line2d_33">
      <g>
       <use xlink:href="#m60532183c0" x="856.321847" y="164.179907" style="stroke: #000000; stroke-width: 0.8"/>
      </g>
     </g>
     <g id="text_22">
      <!-- Mid -->
      <g transform="translate(843.431847 182.657407) scale(0.16 -0.16)">
       <use xlink:href="#Helvetica-4d"/>
       <use xlink:href="#Helvetica-69" transform="translate(83.300781 0)"/>
       <use xlink:href="#Helvetica-64" transform="translate(105.517578 0)"/>
      </g>
     </g>
    </g>
    <g id="xtick_14">
     <g id="line2d_34">
      <g>
       <use xlink:href="#m60532183c0" x="911.377422" y="164.179907" style="stroke: #000000; stroke-width: 0.8"/>
      </g>
     </g>
     <g id="text_23">
      <!-- Late -->
      <g transform="translate(895.808672 182.657407) scale(0.16 -0.16)">
       <use xlink:href="#Helvetica-4c"/>
       <use xlink:href="#Helvetica-61" transform="translate(55.615234 0)"/>
       <use xlink:href="#Helvetica-74" transform="translate(111.230469 0)"/>
       <use xlink:href="#Helvetica-65" transform="translate(139.013672 0)"/>
      </g>
     </g>
    </g>
    <g id="xtick_15">
     <g id="line2d_35">
      <g>
       <use xlink:href="#m60532183c0" x="966.432996" y="164.179907" style="stroke: #000000; stroke-width: 0.8"/>
      </g>
     </g>
     <g id="text_24">
      <!-- Final -->
      <g transform="translate(949.094246 182.657407) scale(0.16 -0.16)">
       <use xlink:href="#Helvetica-46"/>
       <use xlink:href="#Helvetica-69" transform="translate(61.083984 0)"/>
       <use xlink:href="#Helvetica-6e" transform="translate(83.300781 0)"/>
       <use xlink:href="#Helvetica-61" transform="translate(138.916016 0)"/>
       <use xlink:href="#Helvetica-6c" transform="translate(194.53125 0)"/>
      </g>
     </g>
    </g>
   </g>
   <g id="matplotlib.axis_6">
    <g id="ytick_7">
     <g id="line2d_36">
      <path d="M 735.199583 152.860676 
L 977.444111 152.860676 
" clip-path="url(#p6258cfff9a)" style="fill: none; stroke: #cccccc; stroke-width: 0.6; stroke-linecap: square"/>
     </g>
     <g id="line2d_37">
      <g>
       <use xlink:href="#mbd77a56122" x="735.199583" y="152.860676" style="stroke: #000000; stroke-width: 0.8"/>
      </g>
     </g>
     <g id="text_25">
      <!-- 0.050 -->
      <g transform="translate(688.164583 158.599426) scale(0.16 -0.16)">
       <use xlink:href="#Helvetica-30"/>
       <use xlink:href="#Helvetica-2e" transform="translate(55.615234 0)"/>
       <use xlink:href="#Helvetica-30" transform="translate(83.398438 0)"/>
       <use xlink:href="#Helvetica-35" transform="translate(139.013672 0)"/>
       <use xlink:href="#Helvetica-30" transform="translate(194.628906 0)"/>
      </g>
     </g>
    </g>
    <g id="ytick_8">
     <g id="line2d_38">
      <path d="M 735.199583 117.666496 
L 977.444111 117.666496 
" clip-path="url(#p6258cfff9a)" style="fill: none; stroke: #cccccc; stroke-width: 0.6; stroke-linecap: square"/>
     </g>
     <g id="line2d_39">
      <g>
       <use xlink:href="#mbd77a56122" x="735.199583" y="117.666496" style="stroke: #000000; stroke-width: 0.8"/>
      </g>
     </g>
     <g id="text_26">
      <!-- 0.075 -->
      <g transform="translate(688.164583 123.405246) scale(0.16 -0.16)">
       <defs>
        <path id="Helvetica-37" d="M 3347 4400 
L 3347 3909 
Q 3131 3700 2773 3181 
Q 2416 2663 2141 2063 
Q 1869 1478 1728 997 
Q 1638 688 1494 0 
L 872 0 
Q 1084 1281 1809 2550 
Q 2238 3294 2709 3834 
L 234 3834 
L 234 4400 
L 3347 4400 
z
" transform="scale(0.015625)"/>
       </defs>
       <use xlink:href="#Helvetica-30"/>
       <use xlink:href="#Helvetica-2e" transform="translate(55.615234 0)"/>
       <use xlink:href="#Helvetica-30" transform="translate(83.398438 0)"/>
       <use xlink:href="#Helvetica-37" transform="translate(139.013672 0)"/>
       <use xlink:href="#Helvetica-35" transform="translate(194.628906 0)"/>
      </g>
     </g>
    </g>
    <g id="ytick_9">
     <g id="line2d_40">
      <path d="M 735.199583 82.472316 
L 977.444111 82.472316 
" clip-path="url(#p6258cfff9a)" style="fill: none; stroke: #cccccc; stroke-width: 0.6; stroke-linecap: square"/>
     </g>
     <g id="line2d_41">
      <g>
       <use xlink:href="#mbd77a56122" x="735.199583" y="82.472316" style="stroke: #000000; stroke-width: 0.8"/>
      </g>
     </g>
     <g id="text_27">
      <!-- 0.100 -->
      <g transform="translate(688.164583 88.211066) scale(0.16 -0.16)">
       <defs>
        <path id="Helvetica-31" d="M 613 3169 
L 613 3600 
Q 1222 3659 1462 3798 
Q 1703 3938 1822 4456 
L 2266 4456 
L 2266 0 
L 1666 0 
L 1666 3169 
L 613 3169 
z
" transform="scale(0.015625)"/>
       </defs>
       <use xlink:href="#Helvetica-30"/>
       <use xlink:href="#Helvetica-2e" transform="translate(55.615234 0)"/>
       <use xlink:href="#Helvetica-31" transform="translate(83.398438 0)"/>
       <use xlink:href="#Helvetica-30" transform="translate(139.013672 0)"/>
       <use xlink:href="#Helvetica-30" transform="translate(194.628906 0)"/>
      </g>
     </g>
    </g>
    <g id="ytick_10">
     <g id="line2d_42">
      <path d="M 735.199583 47.278135 
L 977.444111 47.278135 
" clip-path="url(#p6258cfff9a)" style="fill: none; stroke: #cccccc; stroke-width: 0.6; stroke-linecap: square"/>
     </g>
     <g id="line2d_43">
      <g>
       <use xlink:href="#mbd77a56122" x="735.199583" y="47.278135" style="stroke: #000000; stroke-width: 0.8"/>
      </g>
     </g>
     <g id="text_28">
      <!-- 0.125 -->
      <g transform="translate(688.164583 53.016885) scale(0.16 -0.16)">
       <defs>
        <path id="Helvetica-32" d="M 200 0 
Q 231 578 439 1006 
Q 647 1434 1250 1784 
L 1850 2131 
Q 2253 2366 2416 2531 
Q 2672 2791 2672 3125 
Q 2672 3516 2437 3745 
Q 2203 3975 1813 3975 
Q 1234 3975 1013 3538 
Q 894 3303 881 2888 
L 309 2888 
Q 319 3472 525 3841 
Q 891 4491 1816 4491 
Q 2584 4491 2939 4075 
Q 3294 3659 3294 3150 
Q 3294 2613 2916 2231 
Q 2697 2009 2131 1694 
L 1703 1456 
Q 1397 1288 1222 1134 
Q 909 863 828 531 
L 3272 531 
L 3272 0 
L 200 0 
z
" transform="scale(0.015625)"/>
       </defs>
       <use xlink:href="#Helvetica-30"/>
       <use xlink:href="#Helvetica-2e" transform="translate(55.615234 0)"/>
       <use xlink:href="#Helvetica-31" transform="translate(83.398438 0)"/>
       <use xlink:href="#Helvetica-32" transform="translate(139.013672 0)"/>
       <use xlink:href="#Helvetica-35" transform="translate(194.628906 0)"/>
      </g>
     </g>
    </g>
   </g>
   <g id="line2d_44">
    <path d="M 746.210698 138.672669 
L 801.266273 118.027551 
L 856.321847 81.12489 
L 911.377422 53.834834 
L 966.432996 70.274262 
" clip-path="url(#p6258cfff9a)" style="fill: none; stroke: #fddcbf; stroke-width: 2.5; stroke-linecap: square"/>
   </g>
   <g id="line2d_45">
    <path d="M 746.210698 137.971369 
L 801.266273 92.464864 
L 856.321847 61.087531 
L 911.377422 40.288188 
L 966.432996 65.51679 
" clip-path="url(#p6258cfff9a)" style="fill: none; stroke: #f4845f; stroke-width: 2.5; stroke-linecap: square"/>
   </g>
   <g id="line2d_46">
    <path d="M 746.210698 135.223136 
L 801.266273 89.264703 
L 856.321847 44.04598 
L 911.377422 32.428263 
L 966.432996 59.116446 
" clip-path="url(#p6258cfff9a)" style="fill: none; stroke: #c0392b; stroke-width: 2.5; stroke-linecap: square"/>
   </g>
   <g id="line2d_47">
    <path d="M 746.210698 157.906019 
L 801.266273 133.272081 
L 856.321847 93.484935 
L 911.377422 72.092939 
L 966.432996 85.875537 
" clip-path="url(#p6258cfff9a)" style="fill: none; stroke: #7a1d12; stroke-width: 2.5; stroke-linecap: square"/>
   </g>
   <g id="patch_13">
    <path d="M 735.199583 164.179907 
L 735.199583 26.154375 
" style="fill: none; stroke: #000000; stroke-width: 0.8; stroke-linejoin: miter; stroke-linecap: square"/>
   </g>
   <g id="patch_14">
    <path d="M 977.444111 164.179907 
L 977.444111 26.154375 
" style="fill: none; stroke: #000000; stroke-width: 0.8; stroke-linejoin: miter; stroke-linecap: square"/>
   </g>
   <g id="patch_15">
    <path d="M 735.199583 164.179907 
L 977.444111 164.179907 
" style="fill: none; stroke: #000000; stroke-width: 0.8; stroke-linejoin: miter; stroke-linecap: square"/>
   </g>
   <g id="patch_16">
    <path d="M 735.199583 26.154375 
L 977.444111 26.154375 
" style="fill: none; stroke: #000000; stroke-width: 0.8; stroke-linejoin: miter; stroke-linecap: square"/>
   </g>
   <g id="text_29">
    <!-- Clone % -->
    <g transform="translate(822.30466 20.154375) scale(0.18 -0.18)">
     <use xlink:href="#Helvetica-43"/>
     <use xlink:href="#Helvetica-6c" transform="translate(72.216797 0)"/>
     <use xlink:href="#Helvetica-6f" transform="translate(94.433594 0)"/>
     <use xlink:href="#Helvetica-6e" transform="translate(150.048828 0)"/>
     <use xlink:href="#Helvetica-65" transform="translate(205.664062 0)"/>
     <use xlink:href="#Helvetica-20" transform="translate(261.279297 0)"/>
     <use xlink:href="#Helvetica-25" transform="translate(289.0625 0)"/>
    </g>
   </g>
  </g>
  <g id="axes_4">
   <g id="patch_17">
    <path d="M 119.75625 350.514375 
L 362.000778 350.514375 
L 362.000778 212.488843 
L 119.75625 212.488843 
z
" style="fill: #ffffff"/>
   </g>
   <g id="matplotlib.axis_7">
    <g id="xtick_16">
     <g id="line2d_48">
      <g>
       <use xlink:href="#m60532183c0" x="130.767365" y="350.514375" style="stroke: #000000; stroke-width: 0.8"/>
      </g>
     </g>
     <g id="text_30">
      <!-- Start -->
      <g transform="translate(113.873615 368.991875) scale(0.16 -0.16)">
       <use xlink:href="#Helvetica-53"/>
       <use xlink:href="#Helvetica-74" transform="translate(66.699219 0)"/>
       <use xlink:href="#Helvetica-61" transform="translate(94.482422 0)"/>
       <use xlink:href="#Helvetica-72" transform="translate(150.097656 0)"/>
       <use xlink:href="#Helvetica-74" transform="translate(183.398438 0)"/>
      </g>
     </g>
    </g>
    <g id="xtick_17">
     <g id="line2d_49">
      <g>
       <use xlink:href="#m60532183c0" x="185.822939" y="350.514375" style="stroke: #000000; stroke-width: 0.8"/>
      </g>
     </g>
     <g id="text_31">
      <!-- Early -->
      <g transform="translate(167.596689 368.991875) scale(0.16 -0.16)">
       <use xlink:href="#Helvetica-45"/>
       <use xlink:href="#Helvetica-61" transform="translate(66.699219 0)"/>
       <use xlink:href="#Helvetica-72" transform="translate(122.314453 0)"/>
       <use xlink:href="#Helvetica-6c" transform="translate(155.615234 0)"/>
       <use xlink:href="#Helvetica-79" transform="translate(177.832031 0)"/>
      </g>
     </g>
    </g>
    <g id="xtick_18">
     <g id="line2d_50">
      <g>
       <use xlink:href="#m60532183c0" x="240.878514" y="350.514375" style="stroke: #000000; stroke-width: 0.8"/>
      </g>
     </g>
     <g id="text_32">
      <!-- Mid -->
      <g transform="translate(227.988514 368.991875) scale(0.16 -0.16)">
       <use xlink:href="#Helvetica-4d"/>
       <use xlink:href="#Helvetica-69" transform="translate(83.300781 0)"/>
       <use xlink:href="#Helvetica-64" transform="translate(105.517578 0)"/>
      </g>
     </g>
    </g>
    <g id="xtick_19">
     <g id="line2d_51">
      <g>
       <use xlink:href="#m60532183c0" x="295.934088" y="350.514375" style="stroke: #000000; stroke-width: 0.8"/>
      </g>
     </g>
     <g id="text_33">
      <!-- Late -->
      <g transform="translate(280.365338 368.991875) scale(0.16 -0.16)">
       <use xlink:href="#Helvetica-4c"/>
       <use xlink:href="#Helvetica-61" transform="translate(55.615234 0)"/>
       <use xlink:href="#Helvetica-74" transform="translate(111.230469 0)"/>
       <use xlink:href="#Helvetica-65" transform="translate(139.013672 0)"/>
      </g>
     </g>
    </g>
    <g id="xtick_20">
     <g id="line2d_52">
      <g>
       <use xlink:href="#m60532183c0" x="350.989663" y="350.514375" style="stroke: #000000; stroke-width: 0.8"/>
      </g>
     </g>
     <g id="text_34">
      <!-- Final -->
      <g transform="translate(333.650913 368.991875) scale(0.16 -0.16)">
       <use xlink:href="#Helvetica-46"/>
       <use xlink:href="#Helvetica-69" transform="translate(61.083984 0)"/>
       <use xlink:href="#Helvetica-6e" transform="translate(83.300781 0)"/>
       <use xlink:href="#Helvetica-61" transform="translate(138.916016 0)"/>
       <use xlink:href="#Helvetica-6c" transform="translate(194.53125 0)"/>
      </g>
     </g>
    </g>
   </g>
   <g id="matplotlib.axis_8">
    <g id="ytick_11">
     <g id="line2d_53">
      <path d="M 119.75625 324.287321 
L 362.000778 324.287321 
" clip-path="url(#p3101464ba6)" style="fill: none; stroke: #cccccc; stroke-width: 0.6; stroke-linecap: square"/>
     </g>
     <g id="line2d_54">
      <g>
       <use xlink:href="#mbd77a56122" x="119.75625" y="324.287321" style="stroke: #000000; stroke-width: 0.8"/>
      </g>
     </g>
     <g id="text_35">
      <!-- 0.3 -->
      <g transform="translate(90.51625 330.026071) scale(0.16 -0.16)">
       <defs>
        <path id="Helvetica-33" d="M 1663 -122 
Q 869 -122 511 314 
Q 153 750 153 1375 
L 741 1375 
Q 778 941 903 744 
Q 1122 391 1694 391 
Q 2138 391 2406 628 
Q 2675 866 2675 1241 
Q 2675 1703 2392 1887 
Q 2109 2072 1606 2072 
Q 1550 2072 1492 2070 
Q 1434 2069 1375 2066 
L 1375 2563 
Q 1463 2553 1522 2550 
Q 1581 2547 1650 2547 
Q 1966 2547 2169 2647 
Q 2525 2822 2525 3272 
Q 2525 3606 2287 3787 
Q 2050 3969 1734 3969 
Q 1172 3969 956 3594 
Q 838 3388 822 3006 
L 266 3006 
Q 266 3506 466 3856 
Q 809 4481 1675 4481 
Q 2359 4481 2734 4176 
Q 3109 3872 3109 3294 
Q 3109 2881 2888 2625 
Q 2750 2466 2531 2375 
Q 2884 2278 3082 2001 
Q 3281 1725 3281 1325 
Q 3281 684 2859 281 
Q 2438 -122 1663 -122 
z
" transform="scale(0.015625)"/>
       </defs>
       <use xlink:href="#Helvetica-30"/>
       <use xlink:href="#Helvetica-2e" transform="translate(55.615234 0)"/>
       <use xlink:href="#Helvetica-33" transform="translate(83.398438 0)"/>
      </g>
     </g>
    </g>
    <g id="ytick_12">
     <g id="line2d_55">
      <path d="M 119.75625 268.608404 
L 362.000778 268.608404 
" clip-path="url(#p3101464ba6)" style="fill: none; stroke: #cccccc; stroke-width: 0.6; stroke-linecap: square"/>
     </g>
     <g id="line2d_56">
      <g>
       <use xlink:href="#mbd77a56122" x="119.75625" y="268.608404" style="stroke: #000000; stroke-width: 0.8"/>
      </g>
     </g>
     <g id="text_36">
      <!-- 0.4 -->
      <g transform="translate(90.51625 274.347154) scale(0.16 -0.16)">
       <use xlink:href="#Helvetica-30"/>
       <use xlink:href="#Helvetica-2e" transform="translate(55.615234 0)"/>
       <use xlink:href="#Helvetica-34" transform="translate(83.398438 0)"/>
      </g>
     </g>
    </g>
    <g id="ytick_13">
     <g id="line2d_57">
      <path d="M 119.75625 212.929487 
L 362.000778 212.929487 
" clip-path="url(#p3101464ba6)" style="fill: none; stroke: #cccccc; stroke-width: 0.6; stroke-linecap: square"/>
     </g>
     <g id="line2d_58">
      <g>
       <use xlink:href="#mbd77a56122" x="119.75625" y="212.929487" style="stroke: #000000; stroke-width: 0.8"/>
      </g>
     </g>
     <g id="text_37">
      <!-- 0.5 -->
      <g transform="translate(90.51625 218.668237) scale(0.16 -0.16)">
       <use xlink:href="#Helvetica-30"/>
       <use xlink:href="#Helvetica-2e" transform="translate(55.615234 0)"/>
       <use xlink:href="#Helvetica-35" transform="translate(83.398438 0)"/>
      </g>
     </g>
    </g>
    <g id="text_38">
     <!-- Codex -->
     <g transform="translate(55.651681 306.070593) rotate(-90) scale(0.17 -0.17)">
      <defs>
       <path id="Helvetica-78" d="M 94 3347 
L 822 3347 
L 1591 2169 
L 2369 3347 
L 3053 3331 
L 1925 1716 
L 3103 0 
L 2384 0 
L 1553 1256 
L 747 0 
L 34 0 
L 1213 1716 
L 94 3347 
z
" transform="scale(0.015625)"/>
      </defs>
      <use xlink:href="#Helvetica-43"/>
      <use xlink:href="#Helvetica-6f" transform="translate(72.216797 0)"/>
      <use xlink:href="#Helvetica-64" transform="translate(127.832031 0)"/>
      <use xlink:href="#Helvetica-65" transform="translate(183.447266 0)"/>
      <use xlink:href="#Helvetica-78" transform="translate(239.0625 0)"/>
     </g>
    </g>
   </g>
   <g id="line2d_59">
    <path d="M 130.767365 266.121807 
L 185.822939 236.427354 
L 240.878514 222.918727 
L 295.934088 230.010746 
L 350.989663 218.762731 
" clip-path="url(#p3101464ba6)" style="fill: none; stroke: #6baed6; stroke-width: 2.5; stroke-linecap: square"/>
   </g>
   <g id="line2d_60">
    <path d="M 130.767365 279.218218 
L 185.822939 260.153654 
L 240.878514 255.043456 
L 295.934088 248.657888 
L 350.989663 249.282068 
" clip-path="url(#p3101464ba6)" style="fill: none; stroke: #4292c6; stroke-width: 2.5; stroke-linecap: square"/>
   </g>
   <g id="line2d_61">
    <path d="M 130.767365 309.259933 
L 185.822939 312.391384 
L 240.878514 303.217182 
L 295.934088 311.978155 
L 350.989663 308.222126 
" clip-path="url(#p3101464ba6)" style="fill: none; stroke: #08519c; stroke-width: 2.5; stroke-linecap: square"/>
   </g>
   <g id="line2d_62">
    <path d="M 130.767365 344.240487 
L 185.822939 316.145701 
L 240.878514 305.214998 
L 295.934088 296.619687 
L 350.989663 304.790865 
" clip-path="url(#p3101464ba6)" style="fill: none; stroke: #041e42; stroke-width: 2.5; stroke-linecap: square"/>
   </g>
   <g id="patch_18">
    <path d="M 119.75625 350.514375 
L 119.75625 212.488843 
" style="fill: none; stroke: #000000; stroke-width: 0.8; stroke-linejoin: miter; stroke-linecap: square"/>
   </g>
   <g id="patch_19">
    <path d="M 362.000778 350.514375 
L 362.000778 212.488843 
" style="fill: none; stroke: #000000; stroke-width: 0.8; stroke-linejoin: miter; stroke-linecap: square"/>
   </g>
   <g id="patch_20">
    <path d="M 119.75625 350.514375 
L 362.000778 350.514375 
" style="fill: none; stroke: #000000; stroke-width: 0.8; stroke-linejoin: miter; stroke-linecap: square"/>
   </g>
   <g id="patch_21">
    <path d="M 119.75625 212.488843 
L 362.000778 212.488843 
" style="fill: none; stroke: #000000; stroke-width: 0.8; stroke-linejoin: miter; stroke-linecap: square"/>
   </g>
  </g>
  <g id="axes_5">
   <g id="patch_22">
    <path d="M 427.477917 350.514375 
L 669.722444 350.514375 
L 669.722444 212.488843 
L 427.477917 212.488843 
z
" style="fill: #ffffff"/>
   </g>
   <g id="matplotlib.axis_9">
    <g id="xtick_21">
     <g id="line2d_63">
      <g>
       <use xlink:href="#m60532183c0" x="438.489032" y="350.514375" style="stroke: #000000; stroke-width: 0.8"/>
      </g>
     </g>
     <g id="text_39">
      <!-- Start -->
      <g transform="translate(421.595282 368.991875) scale(0.16 -0.16)">
       <use xlink:href="#Helvetica-53"/>
       <use xlink:href="#Helvetica-74" transform="translate(66.699219 0)"/>
       <use xlink:href="#Helvetica-61" transform="translate(94.482422 0)"/>
       <use xlink:href="#Helvetica-72" transform="translate(150.097656 0)"/>
       <use xlink:href="#Helvetica-74" transform="translate(183.398438 0)"/>
      </g>
     </g>
    </g>
    <g id="xtick_22">
     <g id="line2d_64">
      <g>
       <use xlink:href="#m60532183c0" x="493.544606" y="350.514375" style="stroke: #000000; stroke-width: 0.8"/>
      </g>
     </g>
     <g id="text_40">
      <!-- Early -->
      <g transform="translate(475.318356 368.991875) scale(0.16 -0.16)">
       <use xlink:href="#Helvetica-45"/>
       <use xlink:href="#Helvetica-61" transform="translate(66.699219 0)"/>
       <use xlink:href="#Helvetica-72" transform="translate(122.314453 0)"/>
       <use xlink:href="#Helvetica-6c" transform="translate(155.615234 0)"/>
       <use xlink:href="#Helvetica-79" transform="translate(177.832031 0)"/>
      </g>
     </g>
    </g>
    <g id="xtick_23">
     <g id="line2d_65">
      <g>
       <use xlink:href="#m60532183c0" x="548.60018" y="350.514375" style="stroke: #000000; stroke-width: 0.8"/>
      </g>
     </g>
     <g id="text_41">
      <!-- Mid -->
      <g transform="translate(535.71018 368.991875) scale(0.16 -0.16)">
       <use xlink:href="#Helvetica-4d"/>
       <use xlink:href="#Helvetica-69" transform="translate(83.300781 0)"/>
       <use xlink:href="#Helvetica-64" transform="translate(105.517578 0)"/>
      </g>
     </g>
    </g>
    <g id="xtick_24">
     <g id="line2d_66">
      <g>
       <use xlink:href="#m60532183c0" x="603.655755" y="350.514375" style="stroke: #000000; stroke-width: 0.8"/>
      </g>
     </g>
     <g id="text_42">
      <!-- Late -->
      <g transform="translate(588.087005 368.991875) scale(0.16 -0.16)">
       <use xlink:href="#Helvetica-4c"/>
       <use xlink:href="#Helvetica-61" transform="translate(55.615234 0)"/>
       <use xlink:href="#Helvetica-74" transform="translate(111.230469 0)"/>
       <use xlink:href="#Helvetica-65" transform="translate(139.013672 0)"/>
      </g>
     </g>
    </g>
    <g id="xtick_25">
     <g id="line2d_67">
      <g>
       <use xlink:href="#m60532183c0" x="658.711329" y="350.514375" style="stroke: #000000; stroke-width: 0.8"/>
      </g>
     </g>
     <g id="text_43">
      <!-- Final -->
      <g transform="translate(641.372579 368.991875) scale(0.16 -0.16)">
       <use xlink:href="#Helvetica-46"/>
       <use xlink:href="#Helvetica-69" transform="translate(61.083984 0)"/>
       <use xlink:href="#Helvetica-6e" transform="translate(83.300781 0)"/>
       <use xlink:href="#Helvetica-61" transform="translate(138.916016 0)"/>
       <use xlink:href="#Helvetica-6c" transform="translate(194.53125 0)"/>
      </g>
     </g>
    </g>
   </g>
   <g id="matplotlib.axis_10">
    <g id="ytick_14">
     <g id="line2d_68">
      <path d="M 427.477917 339.877072 
L 669.722444 339.877072 
" clip-path="url(#pbda93bf58e)" style="fill: none; stroke: #cccccc; stroke-width: 0.6; stroke-linecap: square"/>
     </g>
     <g id="line2d_69">
      <g>
       <use xlink:href="#mbd77a56122" x="427.477917" y="339.877072" style="stroke: #000000; stroke-width: 0.8"/>
      </g>
     </g>
     <g id="text_44">
      <!-- 0.80 -->
      <g transform="translate(389.340417 345.615822) scale(0.16 -0.16)">
       <use xlink:href="#Helvetica-30"/>
       <use xlink:href="#Helvetica-2e" transform="translate(55.615234 0)"/>
       <use xlink:href="#Helvetica-38" transform="translate(83.398438 0)"/>
       <use xlink:href="#Helvetica-30" transform="translate(139.013672 0)"/>
      </g>
     </g>
    </g>
    <g id="ytick_15">
     <g id="line2d_70">
      <path d="M 427.477917 303.906589 
L 669.722444 303.906589 
" clip-path="url(#pbda93bf58e)" style="fill: none; stroke: #cccccc; stroke-width: 0.6; stroke-linecap: square"/>
     </g>
     <g id="line2d_71">
      <g>
       <use xlink:href="#mbd77a56122" x="427.477917" y="303.906589" style="stroke: #000000; stroke-width: 0.8"/>
      </g>
     </g>
     <g id="text_45">
      <!-- 0.85 -->
      <g transform="translate(389.340417 309.645339) scale(0.16 -0.16)">
       <use xlink:href="#Helvetica-30"/>
       <use xlink:href="#Helvetica-2e" transform="translate(55.615234 0)"/>
       <use xlink:href="#Helvetica-38" transform="translate(83.398438 0)"/>
       <use xlink:href="#Helvetica-35" transform="translate(139.013672 0)"/>
      </g>
     </g>
    </g>
    <g id="ytick_16">
     <g id="line2d_72">
      <path d="M 427.477917 267.936107 
L 669.722444 267.936107 
" clip-path="url(#pbda93bf58e)" style="fill: none; stroke: #cccccc; stroke-width: 0.6; stroke-linecap: square"/>
     </g>
     <g id="line2d_73">
      <g>
       <use xlink:href="#mbd77a56122" x="427.477917" y="267.936107" style="stroke: #000000; stroke-width: 0.8"/>
      </g>
     </g>
     <g id="text_46">
      <!-- 0.90 -->
      <g transform="translate(389.340417 273.674857) scale(0.16 -0.16)">
       <use xlink:href="#Helvetica-30"/>
       <use xlink:href="#Helvetica-2e" transform="translate(55.615234 0)"/>
       <use xlink:href="#Helvetica-39" transform="translate(83.398438 0)"/>
       <use xlink:href="#Helvetica-30" transform="translate(139.013672 0)"/>
      </g>
     </g>
    </g>
    <g id="ytick_17">
     <g id="line2d_74">
      <path d="M 427.477917 231.965625 
L 669.722444 231.965625 
" clip-path="url(#pbda93bf58e)" style="fill: none; stroke: #cccccc; stroke-width: 0.6; stroke-linecap: square"/>
     </g>
     <g id="line2d_75">
      <g>
       <use xlink:href="#mbd77a56122" x="427.477917" y="231.965625" style="stroke: #000000; stroke-width: 0.8"/>
      </g>
     </g>
     <g id="text_47">
      <!-- 0.95 -->
      <g transform="translate(389.340417 237.704375) scale(0.16 -0.16)">
       <use xlink:href="#Helvetica-30"/>
       <use xlink:href="#Helvetica-2e" transform="translate(55.615234 0)"/>
       <use xlink:href="#Helvetica-39" transform="translate(83.398438 0)"/>
       <use xlink:href="#Helvetica-35" transform="translate(139.013672 0)"/>
      </g>
     </g>
    </g>
   </g>
   <g id="line2d_76">
    <path d="M 438.489032 315.919954 
L 493.544606 274.73494 
L 548.60018 242.790939 
L 603.655755 232.986307 
L 658.711329 218.762731 
" clip-path="url(#pbda93bf58e)" style="fill: none; stroke: #6baed6; stroke-width: 2.5; stroke-linecap: square"/>
   </g>
   <g id="line2d_77">
    <path d="M 438.489032 317.209796 
L 493.544606 277.123171 
L 548.60018 243.943181 
L 603.655755 222.975599 
L 658.711329 222.043648 
" clip-path="url(#pbda93bf58e)" style="fill: none; stroke: #4292c6; stroke-width: 2.5; stroke-linecap: square"/>
   </g>
   <g id="line2d_78">
    <path d="M 438.489032 343.749103 
L 493.544606 286.211426 
L 548.60018 240.833657 
L 603.655755 231.946355 
L 658.711329 229.17271 
" clip-path="url(#pbda93bf58e)" style="fill: none; stroke: #08519c; stroke-width: 2.5; stroke-linecap: square"/>
   </g>
   <g id="line2d_79">
    <path d="M 438.489032 344.240487 
L 493.544606 296.632742 
L 548.60018 245.205452 
L 603.655755 244.168814 
L 658.711329 238.730025 
" clip-path="url(#pbda93bf58e)" style="fill: none; stroke: #041e42; stroke-width: 2.5; stroke-linecap: square"/>
   </g>
   <g id="patch_23">
    <path d="M 427.477917 350.514375 
L 427.477917 212.488843 
" style="fill: none; stroke: #000000; stroke-width: 0.8; stroke-linejoin: miter; stroke-linecap: square"/>
   </g>
   <g id="patch_24">
    <path d="M 669.722444 350.514375 
L 669.722444 212.488843 
" style="fill: none; stroke: #000000; stroke-width: 0.8; stroke-linejoin: miter; stroke-linecap: square"/>
   </g>
   <g id="patch_25">
    <path d="M 427.477917 350.514375 
L 669.722444 350.514375 
" style="fill: none; stroke: #000000; stroke-width: 0.8; stroke-linejoin: miter; stroke-linecap: square"/>
   </g>
   <g id="patch_26">
    <path d="M 427.477917 212.488843 
L 669.722444 212.488843 
" style="fill: none; stroke: #000000; stroke-width: 0.8; stroke-linejoin: miter; stroke-linecap: square"/>
   </g>
  </g>
  <g id="axes_6">
   <g id="patch_27">
    <path d="M 735.199583 350.514375 
L 977.444111 350.514375 
L 977.444111 212.488843 
L 735.199583 212.488843 
z
" style="fill: #ffffff"/>
   </g>
   <g id="matplotlib.axis_11">
    <g id="xtick_26">
     <g id="line2d_80">
      <g>
       <use xlink:href="#m60532183c0" x="746.210698" y="350.514375" style="stroke: #000000; stroke-width: 0.8"/>
      </g>
     </g>
     <g id="text_48">
      <!-- Start -->
      <g transform="translate(729.316948 368.991875) scale(0.16 -0.16)">
       <use xlink:href="#Helvetica-53"/>
       <use xlink:href="#Helvetica-74" transform="translate(66.699219 0)"/>
       <use xlink:href="#Helvetica-61" transform="translate(94.482422 0)"/>
       <use xlink:href="#Helvetica-72" transform="translate(150.097656 0)"/>
       <use xlink:href="#Helvetica-74" transform="translate(183.398438 0)"/>
      </g>
     </g>
    </g>
    <g id="xtick_27">
     <g id="line2d_81">
      <g>
       <use xlink:href="#m60532183c0" x="801.266273" y="350.514375" style="stroke: #000000; stroke-width: 0.8"/>
      </g>
     </g>
     <g id="text_49">
      <!-- Early -->
      <g transform="translate(783.040023 368.991875) scale(0.16 -0.16)">
       <use xlink:href="#Helvetica-45"/>
       <use xlink:href="#Helvetica-61" transform="translate(66.699219 0)"/>
       <use xlink:href="#Helvetica-72" transform="translate(122.314453 0)"/>
       <use xlink:href="#Helvetica-6c" transform="translate(155.615234 0)"/>
       <use xlink:href="#Helvetica-79" transform="translate(177.832031 0)"/>
      </g>
     </g>
    </g>
    <g id="xtick_28">
     <g id="line2d_82">
      <g>
       <use xlink:href="#m60532183c0" x="856.321847" y="350.514375" style="stroke: #000000; stroke-width: 0.8"/>
      </g>
     </g>
     <g id="text_50">
      <!-- Mid -->
      <g transform="translate(843.431847 368.991875) scale(0.16 -0.16)">
       <use xlink:href="#Helvetica-4d"/>
       <use xlink:href="#Helvetica-69" transform="translate(83.300781 0)"/>
       <use xlink:href="#Helvetica-64" transform="translate(105.517578 0)"/>
      </g>
     </g>
    </g>
    <g id="xtick_29">
     <g id="line2d_83">
      <g>
       <use xlink:href="#m60532183c0" x="911.377422" y="350.514375" style="stroke: #000000; stroke-width: 0.8"/>
      </g>
     </g>
     <g id="text_51">
      <!-- Late -->
      <g transform="translate(895.808672 368.991875) scale(0.16 -0.16)">
       <use xlink:href="#Helvetica-4c"/>
       <use xlink:href="#Helvetica-61" transform="translate(55.615234 0)"/>
       <use xlink:href="#Helvetica-74" transform="translate(111.230469 0)"/>
       <use xlink:href="#Helvetica-65" transform="translate(139.013672 0)"/>
      </g>
     </g>
    </g>
    <g id="xtick_30">
     <g id="line2d_84">
      <g>
       <use xlink:href="#m60532183c0" x="966.432996" y="350.514375" style="stroke: #000000; stroke-width: 0.8"/>
      </g>
     </g>
     <g id="text_52">
      <!-- Final -->
      <g transform="translate(949.094246 368.991875) scale(0.16 -0.16)">
       <use xlink:href="#Helvetica-46"/>
       <use xlink:href="#Helvetica-69" transform="translate(61.083984 0)"/>
       <use xlink:href="#Helvetica-6e" transform="translate(83.300781 0)"/>
       <use xlink:href="#Helvetica-61" transform="translate(138.916016 0)"/>
       <use xlink:href="#Helvetica-6c" transform="translate(194.53125 0)"/>
      </g>
     </g>
    </g>
   </g>
   <g id="matplotlib.axis_12">
    <g id="ytick_18">
     <g id="line2d_85">
      <path d="M 735.199583 334.487108 
L 977.444111 334.487108 
" clip-path="url(#p9f62480773)" style="fill: none; stroke: #cccccc; stroke-width: 0.6; stroke-linecap: square"/>
     </g>
     <g id="line2d_86">
      <g>
       <use xlink:href="#mbd77a56122" x="735.199583" y="334.487108" style="stroke: #000000; stroke-width: 0.8"/>
      </g>
     </g>
     <g id="text_53">
      <!-- 0.025 -->
      <g transform="translate(688.164583 340.225858) scale(0.16 -0.16)">
       <use xlink:href="#Helvetica-30"/>
       <use xlink:href="#Helvetica-2e" transform="translate(55.615234 0)"/>
       <use xlink:href="#Helvetica-30" transform="translate(83.398438 0)"/>
       <use xlink:href="#Helvetica-32" transform="translate(139.013672 0)"/>
       <use xlink:href="#Helvetica-35" transform="translate(194.628906 0)"/>
      </g>
     </g>
    </g>
    <g id="ytick_19">
     <g id="line2d_87">
      <path d="M 735.199583 298.43223 
L 977.444111 298.43223 
" clip-path="url(#p9f62480773)" style="fill: none; stroke: #cccccc; stroke-width: 0.6; stroke-linecap: square"/>
     </g>
     <g id="line2d_88">
      <g>
       <use xlink:href="#mbd77a56122" x="735.199583" y="298.43223" style="stroke: #000000; stroke-width: 0.8"/>
      </g>
     </g>
     <g id="text_54">
      <!-- 0.050 -->
      <g transform="translate(688.164583 304.17098) scale(0.16 -0.16)">
       <use xlink:href="#Helvetica-30"/>
       <use xlink:href="#Helvetica-2e" transform="translate(55.615234 0)"/>
       <use xlink:href="#Helvetica-30" transform="translate(83.398438 0)"/>
       <use xlink:href="#Helvetica-35" transform="translate(139.013672 0)"/>
       <use xlink:href="#Helvetica-30" transform="translate(194.628906 0)"/>
      </g>
     </g>
    </g>
    <g id="ytick_20">
     <g id="line2d_89">
      <path d="M 735.199583 262.377352 
L 977.444111 262.377352 
" clip-path="url(#p9f62480773)" style="fill: none; stroke: #cccccc; stroke-width: 0.6; stroke-linecap: square"/>
     </g>
     <g id="line2d_90">
      <g>
       <use xlink:href="#mbd77a56122" x="735.199583" y="262.377352" style="stroke: #000000; stroke-width: 0.8"/>
      </g>
     </g>
     <g id="text_55">
      <!-- 0.075 -->
      <g transform="translate(688.164583 268.116102) scale(0.16 -0.16)">
       <use xlink:href="#Helvetica-30"/>
       <use xlink:href="#Helvetica-2e" transform="translate(55.615234 0)"/>
       <use xlink:href="#Helvetica-30" transform="translate(83.398438 0)"/>
       <use xlink:href="#Helvetica-37" transform="translate(139.013672 0)"/>
       <use xlink:href="#Helvetica-35" transform="translate(194.628906 0)"/>
      </g>
     </g>
    </g>
    <g id="ytick_21">
     <g id="line2d_91">
      <path d="M 735.199583 226.322475 
L 977.444111 226.322475 
" clip-path="url(#p9f62480773)" style="fill: none; stroke: #cccccc; stroke-width: 0.6; stroke-linecap: square"/>
     </g>
     <g id="line2d_92">
      <g>
       <use xlink:href="#mbd77a56122" x="735.199583" y="226.322475" style="stroke: #000000; stroke-width: 0.8"/>
      </g>
     </g>
     <g id="text_56">
      <!-- 0.100 -->
      <g transform="translate(688.164583 232.061225) scale(0.16 -0.16)">
       <use xlink:href="#Helvetica-30"/>
       <use xlink:href="#Helvetica-2e" transform="translate(55.615234 0)"/>
       <use xlink:href="#Helvetica-31" transform="translate(83.398438 0)"/>
       <use xlink:href="#Helvetica-30" transform="translate(139.013672 0)"/>
       <use xlink:href="#Helvetica-30" transform="translate(194.628906 0)"/>
      </g>
     </g>
    </g>
   </g>
   <g id="line2d_93">
    <path d="M 746.210698 309.203557 
L 801.266273 284.103479 
L 856.321847 256.701753 
L 911.377422 228.167362 
L 966.432996 246.741166 
" clip-path="url(#p9f62480773)" style="fill: none; stroke: #6baed6; stroke-width: 2.5; stroke-linecap: square"/>
   </g>
   <g id="line2d_94">
    <path d="M 746.210698 300.213947 
L 801.266273 275.013014 
L 856.321847 252.058918 
L 911.377422 218.762731 
L 966.432996 235.429388 
" clip-path="url(#p9f62480773)" style="fill: none; stroke: #4292c6; stroke-width: 2.5; stroke-linecap: square"/>
   </g>
   <g id="line2d_95">
    <path d="M 746.210698 306.396459 
L 801.266273 288.773841 
L 856.321847 263.92661 
L 911.377422 237.357379 
L 966.432996 259.496106 
" clip-path="url(#p9f62480773)" style="fill: none; stroke: #08519c; stroke-width: 2.5; stroke-linecap: square"/>
   </g>
   <g id="line2d_96">
    <path d="M 746.210698 344.240487 
L 801.266273 323.182239 
L 856.321847 297.947855 
L 911.377422 278.985745 
L 966.432996 292.483355 
" clip-path="url(#p9f62480773)" style="fill: none; stroke: #041e42; stroke-width: 2.5; stroke-linecap: square"/>
   </g>
   <g id="patch_28">
    <path d="M 735.199583 350.514375 
L 735.199583 212.488843 
" style="fill: none; stroke: #000000; stroke-width: 0.8; stroke-linejoin: miter; stroke-linecap: square"/>
   </g>
   <g id="patch_29">
    <path d="M 977.444111 350.514375 
L 977.444111 212.488843 
" style="fill: none; stroke: #000000; stroke-width: 0.8; stroke-linejoin: miter; stroke-linecap: square"/>
   </g>
   <g id="patch_30">
    <path d="M 735.199583 350.514375 
L 977.444111 350.514375 
" style="fill: none; stroke: #000000; stroke-width: 0.8; stroke-linejoin: miter; stroke-linecap: square"/>
   </g>
   <g id="patch_31">
    <path d="M 735.199583 212.488843 
L 977.444111 212.488843 
" style="fill: none; stroke: #000000; stroke-width: 0.8; stroke-linejoin: miter; stroke-linecap: square"/>
   </g>
  </g>
  <g id="legend_1">
   <g id="patch_32">
    <path d="M 10 421.474375 
L 1045.7725 421.474375 
Q 1048.5725 421.474375 1048.5725 418.674375 
L 1048.5725 399.84 
Q 1048.5725 397.04 1045.7725 397.04 
L 10 397.04 
Q 7.2 397.04 7.2 399.84 
L 7.2 418.674375 
Q 7.2 421.474375 10 421.474375 
z
" style="fill: #ffffff; opacity: 0.8; stroke: #cccccc; stroke-linejoin: miter"/>
   </g>
   <g id="line2d_97">
    <path d="M 12.8 408.05625 
L 26.8 408.05625 
L 40.8 408.05625 
" style="fill: none; stroke: #fddcbf; stroke-width: 2.5; stroke-linecap: square"/>
   </g>
   <g id="text_57">
    <!-- Sonnet 4.6 -->
    <g transform="translate(52 412.95625) scale(0.14 -0.14)">
     <defs>
      <path id="Helvetica-36" d="M 1872 4494 
Q 2622 4494 2917 4105 
Q 3213 3716 3213 3303 
L 2656 3303 
Q 2606 3569 2497 3719 
Q 2294 4000 1881 4000 
Q 1409 4000 1131 3564 
Q 853 3128 822 2316 
Q 1016 2600 1309 2741 
Q 1578 2866 1909 2866 
Q 2472 2866 2890 2506 
Q 3309 2147 3309 1434 
Q 3309 825 2912 354 
Q 2516 -116 1781 -116 
Q 1153 -116 697 361 
Q 241 838 241 1966 
Q 241 2800 444 3381 
Q 834 4494 1872 4494 
z
M 1831 384 
Q 2275 384 2495 682 
Q 2716 981 2716 1388 
Q 2716 1731 2519 2042 
Q 2322 2353 1803 2353 
Q 1441 2353 1167 2112 
Q 894 1872 894 1388 
Q 894 963 1142 673 
Q 1391 384 1831 384 
z
" transform="scale(0.015625)"/>
     </defs>
     <use xlink:href="#Helvetica-53"/>
     <use xlink:href="#Helvetica-6f" transform="translate(66.699219 0)"/>
     <use xlink:href="#Helvetica-6e" transform="translate(122.314453 0)"/>
     <use xlink:href="#Helvetica-6e" transform="translate(177.929688 0)"/>
     <use xlink:href="#Helvetica-65" transform="translate(233.544922 0)"/>
     <use xlink:href="#Helvetica-74" transform="translate(289.160156 0)"/>
     <use xlink:href="#Helvetica-20" transform="translate(316.943359 0)"/>
     <use xlink:href="#Helvetica-34" transform="translate(344.726562 0)"/>
     <use xlink:href="#Helvetica-2e" transform="translate(400.341797 0)"/>
     <use xlink:href="#Helvetica-36" transform="translate(428.125 0)"/>
    </g>
   </g>
   <g id="line2d_98">
    <path d="M 147.718438 408.05625 
L 161.718438 408.05625 
L 175.718438 408.05625 
" style="fill: none; stroke: #f4845f; stroke-width: 2.5; stroke-linecap: square"/>
   </g>
   <g id="text_58">
    <!-- Opus 4.5 -->
    <g transform="translate(186.918438 412.95625) scale(0.14 -0.14)">
     <defs>
      <path id="Helvetica-4f" d="M 2469 4716 
Q 3684 4716 4269 3934 
Q 4725 3325 4725 2375 
Q 4725 1347 4203 666 
Q 3591 -134 2456 -134 
Q 1397 -134 791 566 
Q 250 1241 250 2272 
Q 250 3203 713 3866 
Q 1306 4716 2469 4716 
z
M 2531 422 
Q 3353 422 3720 1011 
Q 4088 1600 4088 2366 
Q 4088 3175 3664 3669 
Q 3241 4163 2506 4163 
Q 1794 4163 1344 3673 
Q 894 3184 894 2231 
Q 894 1469 1280 945 
Q 1666 422 2531 422 
z
M 2488 4716 
L 2488 4716 
z
" transform="scale(0.015625)"/>
      <path id="Helvetica-70" d="M 1825 378 
Q 2219 378 2480 708 
Q 2741 1038 2741 1694 
Q 2741 2094 2625 2381 
Q 2406 2934 1825 2934 
Q 1241 2934 1025 2350 
Q 909 2038 909 1556 
Q 909 1169 1025 897 
Q 1244 378 1825 378 
z
M 369 3331 
L 916 3331 
L 916 2888 
Q 1084 3116 1284 3241 
Q 1569 3428 1953 3428 
Q 2522 3428 2919 2992 
Q 3316 2556 3316 1747 
Q 3316 653 2744 184 
Q 2381 -113 1900 -113 
Q 1522 -113 1266 53 
Q 1116 147 931 375 
L 931 -1334 
L 369 -1334 
L 369 3331 
z
" transform="scale(0.015625)"/>
     </defs>
     <use xlink:href="#Helvetica-4f"/>
     <use xlink:href="#Helvetica-70" transform="translate(77.783203 0)"/>
     <use xlink:href="#Helvetica-75" transform="translate(133.398438 0)"/>
     <use xlink:href="#Helvetica-73" transform="translate(189.013672 0)"/>
     <use xlink:href="#Helvetica-20" transform="translate(239.013672 0)"/>
     <use xlink:href="#Helvetica-34" transform="translate(266.796875 0)"/>
     <use xlink:href="#Helvetica-2e" transform="translate(322.412109 0)"/>
     <use xlink:href="#Helvetica-35" transform="translate(350.195312 0)"/>
    </g>
   </g>
   <g id="line2d_99">
    <path d="M 271.727813 408.05625 
L 285.727813 408.05625 
L 299.727813 408.05625 
" style="fill: none; stroke: #c0392b; stroke-width: 2.5; stroke-linecap: square"/>
   </g>
   <g id="text_59">
    <!-- Opus 4.6 -->
    <g transform="translate(310.927813 412.95625) scale(0.14 -0.14)">
     <use xlink:href="#Helvetica-4f"/>
     <use xlink:href="#Helvetica-70" transform="translate(77.783203 0)"/>
     <use xlink:href="#Helvetica-75" transform="translate(133.398438 0)"/>
     <use xlink:href="#Helvetica-73" transform="translate(189.013672 0)"/>
     <use xlink:href="#Helvetica-20" transform="translate(239.013672 0)"/>
     <use xlink:href="#Helvetica-34" transform="translate(266.796875 0)"/>
     <use xlink:href="#Helvetica-2e" transform="translate(322.412109 0)"/>
     <use xlink:href="#Helvetica-36" transform="translate(350.195312 0)"/>
    </g>
   </g>
   <g id="line2d_100">
    <path d="M 395.737188 408.05625 
L 409.737188 408.05625 
L 423.737188 408.05625 
" style="fill: none; stroke: #7a1d12; stroke-width: 2.5; stroke-linecap: square"/>
   </g>
   <g id="text_60">
    <!-- Opus 4.7 -->
    <g transform="translate(434.937188 412.95625) scale(0.14 -0.14)">
     <use xlink:href="#Helvetica-4f"/>
     <use xlink:href="#Helvetica-70" transform="translate(77.783203 0)"/>
     <use xlink:href="#Helvetica-75" transform="translate(133.398438 0)"/>
     <use xlink:href="#Helvetica-73" transform="translate(189.013672 0)"/>
     <use xlink:href="#Helvetica-20" transform="translate(239.013672 0)"/>
     <use xlink:href="#Helvetica-34" transform="translate(266.796875 0)"/>
     <use xlink:href="#Helvetica-2e" transform="translate(322.412109 0)"/>
     <use xlink:href="#Helvetica-37" transform="translate(350.195312 0)"/>
    </g>
   </g>
   <g id="line2d_101">
    <path d="M 519.746563 408.05625 
L 533.746563 408.05625 
L 547.746563 408.05625 
" style="fill: none; stroke: #6baed6; stroke-width: 2.5; stroke-linecap: square"/>
   </g>
   <g id="text_61">
    <!-- GPT 5.3 Codex -->
    <g transform="translate(558.946563 412.95625) scale(0.14 -0.14)">
     <defs>
      <path id="Helvetica-47" d="M 2472 4709 
Q 3119 4709 3591 4459 
Q 4275 4100 4428 3200 
L 3813 3200 
Q 3700 3703 3347 3933 
Q 2994 4163 2456 4163 
Q 1819 4163 1383 3684 
Q 947 3206 947 2259 
Q 947 1441 1306 927 
Q 1666 413 2478 413 
Q 3100 413 3508 773 
Q 3916 1134 3925 1941 
L 2488 1941 
L 2488 2456 
L 4503 2456 
L 4503 0 
L 4103 0 
L 3953 591 
Q 3638 244 3394 109 
Q 2984 -122 2353 -122 
Q 1538 -122 950 406 
Q 309 1069 309 2225 
Q 309 3378 934 4059 
Q 1528 4709 2472 4709 
z
M 2369 4716 
L 2369 4716 
z
" transform="scale(0.015625)"/>
      <path id="Helvetica-50" d="M 547 4591 
L 2613 4591 
Q 3225 4591 3600 4245 
Q 3975 3900 3975 3275 
Q 3975 2738 3640 2339 
Q 3306 1941 2613 1941 
L 1169 1941 
L 1169 0 
L 547 0 
L 547 4591 
z
M 3347 3272 
Q 3347 3778 2972 3959 
Q 2766 4056 2406 4056 
L 1169 4056 
L 1169 2466 
L 2406 2466 
Q 2825 2466 3086 2644 
Q 3347 2822 3347 3272 
z
" transform="scale(0.015625)"/>
      <path id="Helvetica-54" d="M 3828 4591 
L 3828 4044 
L 2281 4044 
L 2281 0 
L 1650 0 
L 1650 4044 
L 103 4044 
L 103 4591 
L 3828 4591 
z
" transform="scale(0.015625)"/>
     </defs>
     <use xlink:href="#Helvetica-47"/>
     <use xlink:href="#Helvetica-50" transform="translate(77.783203 0)"/>
     <use xlink:href="#Helvetica-54" transform="translate(144.482422 0)"/>
     <use xlink:href="#Helvetica-20" transform="translate(205.566406 0)"/>
     <use xlink:href="#Helvetica-35" transform="translate(233.349609 0)"/>
     <use xlink:href="#Helvetica-2e" transform="translate(288.964844 0)"/>
     <use xlink:href="#Helvetica-33" transform="translate(316.748047 0)"/>
     <use xlink:href="#Helvetica-20" transform="translate(372.363281 0)"/>
     <use xlink:href="#Helvetica-43" transform="translate(400.146484 0)"/>
     <use xlink:href="#Helvetica-6f" transform="translate(472.363281 0)"/>
     <use xlink:href="#Helvetica-64" transform="translate(527.978516 0)"/>
     <use xlink:href="#Helvetica-65" transform="translate(583.59375 0)"/>
     <use xlink:href="#Helvetica-78" transform="translate(639.208984 0)"/>
    </g>
   </g>
   <g id="line2d_102">
    <path d="M 683.430625 408.05625 
L 697.430625 408.05625 
L 711.430625 408.05625 
" style="fill: none; stroke: #4292c6; stroke-width: 2.5; stroke-linecap: square"/>
   </g>
   <g id="text_62">
    <!-- GPT 5.4 Mini -->
    <g transform="translate(722.630625 412.95625) scale(0.14 -0.14)">
     <use xlink:href="#Helvetica-47"/>
     <use xlink:href="#Helvetica-50" transform="translate(77.783203 0)"/>
     <use xlink:href="#Helvetica-54" transform="translate(144.482422 0)"/>
     <use xlink:href="#Helvetica-20" transform="translate(205.566406 0)"/>
     <use xlink:href="#Helvetica-35" transform="translate(233.349609 0)"/>
     <use xlink:href="#Helvetica-2e" transform="translate(288.964844 0)"/>
     <use xlink:href="#Helvetica-34" transform="translate(316.748047 0)"/>
     <use xlink:href="#Helvetica-20" transform="translate(372.363281 0)"/>
     <use xlink:href="#Helvetica-4d" transform="translate(400.146484 0)"/>
     <use xlink:href="#Helvetica-69" transform="translate(483.447266 0)"/>
     <use xlink:href="#Helvetica-6e" transform="translate(505.664062 0)"/>
     <use xlink:href="#Helvetica-69" transform="translate(561.279297 0)"/>
    </g>
   </g>
   <g id="line2d_103">
    <path d="M 832.31625 408.05625 
L 846.31625 408.05625 
L 860.31625 408.05625 
" style="fill: none; stroke: #08519c; stroke-width: 2.5; stroke-linecap: square"/>
   </g>
   <g id="text_63">
    <!-- GPT 5.4 -->
    <g transform="translate(871.51625 412.95625) scale(0.14 -0.14)">
     <use xlink:href="#Helvetica-47"/>
     <use xlink:href="#Helvetica-50" transform="translate(77.783203 0)"/>
     <use xlink:href="#Helvetica-54" transform="translate(144.482422 0)"/>
     <use xlink:href="#Helvetica-20" transform="translate(205.566406 0)"/>
     <use xlink:href="#Helvetica-35" transform="translate(233.349609 0)"/>
     <use xlink:href="#Helvetica-2e" transform="translate(288.964844 0)"/>
     <use xlink:href="#Helvetica-34" transform="translate(316.748047 0)"/>
    </g>
   </g>
   <g id="line2d_104">
    <path d="M 951.644375 408.05625 
L 965.644375 408.05625 
L 979.644375 408.05625 
" style="fill: none; stroke: #041e42; stroke-width: 2.5; stroke-linecap: square"/>
   </g>
   <g id="text_64">
    <!-- GPT 5.5 -->
    <g transform="translate(990.844375 412.95625) scale(0.14 -0.14)">
     <use xlink:href="#Helvetica-47"/>
     <use xlink:href="#Helvetica-50" transform="translate(77.783203 0)"/>
     <use xlink:href="#Helvetica-54" transform="translate(144.482422 0)"/>
     <use xlink:href="#Helvetica-20" transform="translate(205.566406 0)"/>
     <use xlink:href="#Helvetica-35" transform="translate(233.349609 0)"/>
     <use xlink:href="#Helvetica-2e" transform="translate(288.964844 0)"/>
     <use xlink:href="#Helvetica-35" transform="translate(316.748047 0)"/>
    </g>
   </g>
  </g>
 </g>
 <defs>
  <clipPath id="p138707761c">
   <rect x="119.75625" y="26.154375" width="242.244528" height="138.025532"/>
  </clipPath>
  <clipPath id="p57ea7c1efe">
   <rect x="427.477917" y="26.154375" width="242.244528" height="138.025532"/>
  </clipPath>
  <clipPath id="p6258cfff9a">
   <rect x="735.199583" y="26.154375" width="242.244528" height="138.025532"/>
  </clipPath>
  <clipPath id="p3101464ba6">
   <rect x="119.75625" y="212.488843" width="242.244528" height="138.025532"/>
  </clipPath>
  <clipPath id="pbda93bf58e">
   <rect x="427.477917" y="212.488843" width="242.244528" height="138.025532"/>
  </clipPath>
  <clipPath id="p9f62480773">
   <rect x="735.199583" y="212.488843" width="242.244528" height="138.025532"/>
  </clipPath>
 </defs>
</svg>
